#N canvas 210 23 1191 734 10;
#X obj 178 261 t l;
#X obj 108 300 list trim;
#X obj 107 163 bng 15 250 50 0 empty empty empty 17 7 0 10 -262144
-1 -1;
#X obj 178 221 bng 15 250 50 0 empty empty empty 17 7 0 10 -262144
-1 -1;
#X obj 108 248 list prepend;
#X obj 107 102 bng 15 250 50 0 empty empty empty 17 7 0 10 -262144
-1 -1;
#X obj 54 355 metroplus;
#X msg 53 317 start;
#X obj 64 393 bng 15 250 50 0 empty empty empty 17 7 0 10 -262144 -1
-1;
#X msg 55 334 stop;
#X obj 159 355 list length;
#X floatatom 160 375 5 0 0 0 - - -;
#X obj 108 278 list prepend set \$1;
#X msg 108 325 0 6160 4784 9037 9526;
#X obj 127 443 sel \$1;
#X obj 96 408 +;
#X msg 96 388 1;
#X obj 123 408 % \$1;
#X floatatom 96 427 5 0 0 0 - - -;
#X obj 27 460 bng 15 250 50 0 empty empty empty 17 7 0 10 -262144 -1
-1;
#X obj 140 162 del 10;
#X obj 107 121 spigot;
#X obj 107 140 t b b b b b;
#X msg 193 129 0;
#X obj 128 102 tgl 15 0 empty empty empty 17 7 0 10 -262144 -1 -1 1
1;
#X msg 46 31 1;
#X obj 46 8 loadbang;
#X obj 108 57 inlet;
#X obj 29 506 del 20;
#X obj 25 210 inlet;
#X obj 29 480 t b b b b;
#X obj 497 85 spigot;
#X obj 530 267 tgl 15 0 empty empty loop 17 7 0 10 -262144 -1 -1 0
1;
#X obj 80 545 del 50;
#X obj 99 519 spigot;
#X obj 138 487 expr $f1 \; if ( $f1 == 0 \, 1 \, 0) \;;
#X obj 183 162 del 20;
#X msg 310 523 reset;
#X obj 108 202 random 4000;
#X obj 107 182 many_bang 2 10;
#X obj 276 583 s cling1;
#X obj 355 582 s cling2;
#X msg 301 87 1;
#X obj 175 -10 sel 0 1;
#X msg 202 32 0;
#X obj 110 223 moses 2000;
#X obj 311 408 spigot;
#X obj 346 387 tgl 15 0 empty empty empty 17 7 0 10 -262144 -1 -1 0
1;
#X obj 310 546 cycle 2;
#X msg 346 48 1;
#X obj 462 528 bng 15 250 50 0 empty empty empty 17 7 0 10 -262144
-1 -1;
#X obj 311 494 t b b;
#X obj 422 511 spigot;
#X obj 455 474 tgl 15 0 empty empty empty 17 7 0 10 -262144 -1 -1 0
1;
#X msg 448 337 1;
#X obj 105 633 spigot;
#X obj 105 657 del 4000;
#X obj 202 104 tgl 15 0 empty empty empty 17 7 0 10 -262144 -1 -1 0
1;
#X obj 105 613 t b b;
#X floatatom 160 658 5 0 0 0 - - -;
#X text 186 621 loop delay;
#X obj 105 593 r \$0-fin;
#X obj 80 567 s \$0-fin;
#X obj 497 65 r \$0-fin;
#X obj 160 639 shuffle 2000 8000;
#X msg 428 203 4000;
#X obj 409 50 t b b b;
#X msg 331 206 3000;
#X msg 316 185 12000;
#X obj 175 11 t b b;
#X obj 286 7 t b b b b b b b b;
#X msg 385 59 1;
#X obj 448 24 del 105000;
#X obj 346 476 bng 15 250 50 0 empty empty empty 17 7 0 10 -262144
-1 -1;
#X obj 175 -30 r auto;
#X obj 462 602 s autoluna;
#X msg 409 152 22000;
#X connect 0 0 4 1;
#X connect 1 0 13 0;
#X connect 2 0 39 0;
#X connect 3 0 4 1;
#X connect 4 0 0 0;
#X connect 4 0 12 0;
#X connect 5 0 21 0;
#X connect 6 0 8 0;
#X connect 7 0 6 0;
#X connect 8 0 16 0;
#X connect 8 0 46 0;
#X connect 9 0 6 0;
#X connect 10 0 11 0;
#X connect 11 0 14 1;
#X connect 11 0 17 1;
#X connect 12 0 1 0;
#X connect 13 0 6 1;
#X connect 13 0 10 0;
#X connect 14 0 19 0;
#X connect 15 0 17 0;
#X connect 15 0 18 0;
#X connect 16 0 15 0;
#X connect 17 0 15 1;
#X connect 18 0 14 0;
#X connect 19 0 30 0;
#X connect 20 0 13 0;
#X connect 21 0 22 0;
#X connect 22 0 2 0;
#X connect 22 1 3 0;
#X connect 22 2 20 0;
#X connect 22 3 36 0;
#X connect 22 4 23 0;
#X connect 23 0 24 0;
#X connect 24 0 21 1;
#X connect 25 0 24 0;
#X connect 26 0 25 0;
#X connect 27 0 5 0;
#X connect 28 0 34 0;
#X connect 29 0 19 0;
#X connect 30 0 28 0;
#X connect 30 1 25 0;
#X connect 30 2 9 0;
#X connect 30 3 33 0;
#X connect 31 0 5 0;
#X connect 32 0 31 1;
#X connect 32 0 35 0;
#X connect 33 0 62 0;
#X connect 35 1 34 1;
#X connect 36 0 7 0;
#X connect 37 0 48 0;
#X connect 38 0 45 0;
#X connect 39 0 38 0;
#X connect 42 0 57 0;
#X connect 43 0 69 0;
#X connect 43 1 70 0;
#X connect 44 0 47 0;
#X connect 44 0 53 0;
#X connect 44 0 57 0;
#X connect 45 1 4 0;
#X connect 46 0 51 0;
#X connect 47 0 46 1;
#X connect 48 0 40 0;
#X connect 48 1 41 0;
#X connect 49 0 47 0;
#X connect 50 0 75 0;
#X connect 51 0 37 0;
#X connect 51 1 52 0;
#X connect 52 0 50 0;
#X connect 53 0 52 1;
#X connect 54 0 53 0;
#X connect 55 0 56 0;
#X connect 56 0 5 0;
#X connect 57 0 55 1;
#X connect 58 0 55 0;
#X connect 58 1 64 0;
#X connect 61 0 58 0;
#X connect 63 0 31 0;
#X connect 64 0 56 1;
#X connect 64 0 59 0;
#X connect 65 0 45 1;
#X connect 66 0 76 0;
#X connect 66 1 65 0;
#X connect 66 2 54 0;
#X connect 67 0 45 1;
#X connect 68 0 38 1;
#X connect 69 1 44 0;
#X connect 70 0 5 0;
#X connect 70 1 42 0;
#X connect 70 2 68 0;
#X connect 70 3 67 0;
#X connect 70 4 49 0;
#X connect 70 5 72 0;
#X connect 70 7 71 0;
#X connect 71 0 24 0;
#X connect 72 0 66 0;
#X connect 73 0 51 0;
#X connect 74 0 43 0;
#X connect 76 0 38 1;
#X coords 0 -1 1 1 120 20 2 100 100;
