#N canvas 600 117 1191 734 10;
#X obj 178 261 t l;
#X obj 108 300 list trim;
#X obj 107 163 bng 15 250 50 0 empty empty empty 17 7 0 10 -262144
-1 -1;
#X obj 178 221 bng 15 250 50 0 empty empty empty 17 7 0 10 -262144
-1 -1;
#X obj 108 248 list prepend;
#X obj 107 102 bng 15 250 50 0 empty empty empty 17 7 0 10 -262144
-1 -1;
#X obj 54 355 metroplus;
#X msg 53 317 start;
#X obj 64 393 bng 15 250 50 0 empty empty empty 17 7 0 10 -262144 -1
-1;
#X msg 55 334 stop;
#X obj 159 355 list length;
#X floatatom 160 375 5 0 0 0 - - -;
#X obj 108 278 list prepend set \$1;
#X msg 108 325 0 5433 10094 5160;
#X obj 127 443 sel \$1;
#X obj 96 408 +;
#X msg 96 388 1;
#X obj 123 408 % \$1;
#X floatatom 96 427 5 0 0 0 - - -;
#X obj 27 460 bng 15 250 50 0 empty empty empty 17 7 0 10 -262144 -1
-1;
#X obj 140 162 del 10;
#X obj 107 121 spigot;
#X obj 107 140 t b b b b b;
#X msg 193 129 0;
#X obj 128 102 tgl 15 0 empty empty empty 17 7 0 10 -262144 -1 -1 1
1;
#X msg 46 31 1;
#X obj 46 8 loadbang;
#X obj 108 57 inlet;
#X obj 29 506 del 20;
#X obj 25 210 inlet;
#X obj 29 480 t b b b b;
#X obj 497 85 spigot;
#X obj 530 267 tgl 15 0 empty empty loop 17 7 0 10 -262144 -1 -1 0
1;
#X obj 80 545 del 50;
#X obj 99 519 spigot;
#X obj 138 487 expr $f1 \; if ( $f1 == 0 \, 1 \, 0) \;;
#X obj 183 162 del 20;
#X msg 305 523 reset;
#X obj 108 202 random 4000;
#X obj 107 182 many_bang 2 10;
#X obj 271 563 s cling1;
#X obj 344 563 s cling2;
#X obj 175 -30 r akita;
#X msg 301 87 1;
#X obj 175 -10 sel 0 1;
#X msg 202 32 0;
#X obj 462 602 s akitluna;
#X obj 110 223 moses 2000;
#X obj 306 408 spigot;
#X obj 341 387 tgl 15 0 empty empty empty 17 7 0 10 -262144 -1 -1 0
1;
#X obj 305 546 cycle 2;
#X msg 341 48 1;
#X obj 462 528 bng 15 250 50 0 empty empty empty 17 7 0 10 -262144
-1 -1;
#X obj 306 494 t b b;
#X obj 422 511 spigot;
#X obj 455 474 tgl 15 0 empty empty empty 17 7 0 10 -262144 -1 -1 0
1;
#X msg 448 337 1;
#X obj 105 633 spigot;
#X obj 105 657 del 4000;
#X obj 202 104 tgl 15 0 empty empty empty 17 7 0 10 -262144 -1 -1 0
1;
#X obj 105 613 t b b;
#X floatatom 156 666 5 0 0 0 - - -;
#X text 186 621 loop delay;
#X obj 105 593 r \$0-fin;
#X obj 80 567 s \$0-fin;
#X obj 497 65 r \$0-fin;
#X obj 160 639 shuffle 2000 8000;
#X msg 428 203 4000;
#X obj 409 50 t b b b;
#X msg 331 206 3000;
#X msg 316 185 12000;
#X msg 409 152 12000;
#X obj 698 532 r secondepartie;
#X obj 611 167 r \$0-fin;
#X obj 611 205 spigot;
#X obj 663 190 tgl 15 0 empty empty empty 17 7 0 10 -262144 -1 -1 0
1;
#X msg 685 173 1;
#X msg 611 279 1;
#X msg 623 28 0;
#X msg 569 84 0;
#X obj 542 241 t b b;
#X obj 175 11 t b b;
#X msg 383 59 1;
#X obj 409 25 del 105000;
#X obj 341 476 bng 15 250 50 0 empty empty empty 17 7 0 10 -262144
-1 -1;
#X obj 623 372 metro 700;
#X obj 623 328 tgl 15 0 empty empty empty 17 7 0 10 -262144 -1 -1 0
1;
#X obj 685 156 r transitsecpart;
#X obj 589 213 bng 15 250 50 0 empty empty empty 17 7 0 10 -262144
-1 -1;
#X obj 623 446 cycle 6;
#X msg 623 416 reset;
#X msg 669 283 0;
#X msg 871 318 1200;
#X msg 776 369 2000;
#X obj 698 557 del 40000;
#X obj 662 511 spigot;
#X obj 698 488 tgl 15 0 empty empty empty 17 7 0 10 -262144 -1 -1 0
1;
#X obj 611 224 t b b b b b b b;
#X msg 698 447 1;
#X msg 698 585 0;
#X obj 852 386 line;
#X msg 916 369 stop;
#X msg 852 410 set \$1;
#X msg 852 438 2000;
#X msg 852 343 100 50000;
#X obj 852 291 t b b b;
#X obj 811 276 bng 15 250 50 0 empty empty empty 17 7 0 10 -262144
-1 -1;
#X obj 990 527 s pause;
#X obj 916 542 s play;
#X obj 852 542 s motrans;
#X obj 852 478 sel 100;
#X obj 776 348 r motrans;
#X floatatom 852 460 5 0 0 0 - - -;
#X msg 674 347 1800;
#X obj 990 501 sel 800;
#X obj 990 476 int;
#X obj 852 520 del 20000;
#X obj 852 499 t b b;
#X obj 916 519 del 10000;
#X obj 286 7 t b b b b b b b b b;
#X obj 392 425 bng 15 250 50 0 empty empty empty 17 7 0 10 -262144
-1 -1;
#X connect 0 0 4 1;
#X connect 1 0 13 0;
#X connect 2 0 39 0;
#X connect 3 0 4 1;
#X connect 4 0 0 0;
#X connect 4 0 12 0;
#X connect 5 0 21 0;
#X connect 6 0 8 0;
#X connect 7 0 6 0;
#X connect 8 0 16 0;
#X connect 8 0 48 0;
#X connect 9 0 6 0;
#X connect 10 0 11 0;
#X connect 11 0 14 1;
#X connect 11 0 17 1;
#X connect 12 0 1 0;
#X connect 13 0 6 1;
#X connect 13 0 10 0;
#X connect 14 0 19 0;
#X connect 15 0 17 0;
#X connect 15 0 18 0;
#X connect 16 0 15 0;
#X connect 17 0 15 1;
#X connect 18 0 14 0;
#X connect 19 0 30 0;
#X connect 20 0 13 0;
#X connect 21 0 22 0;
#X connect 22 0 2 0;
#X connect 22 1 3 0;
#X connect 22 2 20 0;
#X connect 22 3 36 0;
#X connect 22 4 23 0;
#X connect 23 0 24 0;
#X connect 24 0 21 1;
#X connect 25 0 24 0;
#X connect 26 0 25 0;
#X connect 27 0 5 0;
#X connect 28 0 34 0;
#X connect 29 0 19 0;
#X connect 30 0 28 0;
#X connect 30 1 25 0;
#X connect 30 2 9 0;
#X connect 30 3 33 0;
#X connect 31 0 5 0;
#X connect 32 0 31 1;
#X connect 32 0 35 0;
#X connect 33 0 64 0;
#X connect 35 1 34 1;
#X connect 36 0 7 0;
#X connect 37 0 50 0;
#X connect 38 0 47 0;
#X connect 39 0 38 0;
#X connect 42 0 44 0;
#X connect 43 0 59 0;
#X connect 44 0 81 0;
#X connect 44 1 119 0;
#X connect 45 0 49 0;
#X connect 45 0 55 0;
#X connect 45 0 59 0;
#X connect 47 1 4 0;
#X connect 48 0 53 0;
#X connect 48 0 120 0;
#X connect 49 0 48 1;
#X connect 50 0 40 0;
#X connect 50 1 41 0;
#X connect 51 0 49 0;
#X connect 52 0 46 0;
#X connect 53 0 37 0;
#X connect 53 1 54 0;
#X connect 54 0 52 0;
#X connect 55 0 54 1;
#X connect 56 0 55 0;
#X connect 57 0 58 0;
#X connect 58 0 5 0;
#X connect 59 0 57 1;
#X connect 60 0 57 0;
#X connect 60 1 66 0;
#X connect 63 0 60 0;
#X connect 65 0 31 0;
#X connect 66 0 58 1;
#X connect 66 0 61 0;
#X connect 67 0 47 1;
#X connect 68 0 71 0;
#X connect 68 1 67 0;
#X connect 68 2 56 0;
#X connect 69 0 47 1;
#X connect 70 0 38 1;
#X connect 71 0 38 1;
#X connect 72 0 94 0;
#X connect 73 0 74 0;
#X connect 74 0 97 0;
#X connect 75 0 74 1;
#X connect 76 0 75 0;
#X connect 77 0 86 0;
#X connect 78 0 75 0;
#X connect 78 0 86 0;
#X connect 79 0 59 0;
#X connect 80 0 9 0;
#X connect 80 1 79 0;
#X connect 81 0 78 0;
#X connect 81 1 45 0;
#X connect 82 0 24 0;
#X connect 83 0 68 0;
#X connect 84 0 53 0;
#X connect 85 0 84 0;
#X connect 85 0 90 0;
#X connect 86 0 85 0;
#X connect 87 0 76 0;
#X connect 88 0 97 0;
#X connect 89 5 95 0;
#X connect 90 0 89 0;
#X connect 91 0 55 0;
#X connect 92 0 100 0;
#X connect 93 0 100 0;
#X connect 94 0 99 0;
#X connect 95 0 52 0;
#X connect 96 0 95 1;
#X connect 97 0 77 0;
#X connect 97 1 80 0;
#X connect 97 2 105 0;
#X connect 97 4 91 0;
#X connect 97 6 98 0;
#X connect 98 0 96 0;
#X connect 99 0 96 0;
#X connect 100 0 102 0;
#X connect 100 0 85 1;
#X connect 100 0 112 0;
#X connect 101 0 100 0;
#X connect 102 0 103 0;
#X connect 103 0 100 0;
#X connect 104 0 100 0;
#X connect 105 0 104 0;
#X connect 105 1 92 0;
#X connect 106 0 105 0;
#X connect 110 0 117 0;
#X connect 111 0 93 0;
#X connect 112 0 110 0;
#X connect 112 0 115 0;
#X connect 113 0 85 1;
#X connect 114 0 107 0;
#X connect 115 0 114 0;
#X connect 116 0 109 0;
#X connect 117 0 116 0;
#X connect 117 1 118 0;
#X connect 118 0 108 0;
#X connect 119 0 5 0;
#X connect 119 1 43 0;
#X connect 119 2 70 0;
#X connect 119 3 69 0;
#X connect 119 4 51 0;
#X connect 119 5 83 0;
#X connect 119 7 82 0;
#X coords 0 -1 1 1 120 20 2 100 100;
