#N canvas 165 22 1189 819 10;
#X obj 12 91 cnv 15 227 107 empty empty empty 20 12 0 14 -55397 -66577
0;
#X obj 231 491 s \$0-damping;
#X obj 237 686 s \$0-feedback;
#X obj 231 466 * 44100;
#X obj 232 444 expr pow($f1 \, 4);
#X obj 232 396 * 0.9;
#X obj 232 420 + 0.1;
#X obj 1 313 *~ 1;
#X obj 27 449 *~ 1;
#N canvas 297 66 830 530 LEFT 0;
#N canvas 388 22 522 372 comb-1 0;
#X obj 216 112 r \$0-damping;
#X obj 152 208 delwrite~ \$0-rev1 26;
#X obj 154 146 lop~ 20000;
#X obj 154 169 *~ 0.5;
#X obj 155 61 delread~ \$0-rev1 25.3061;
#X obj 72 37 inlet~;
#X obj 67 234 outlet~;
#X obj 233 147 r \$0-feedback;
#X floatatom 259 172 5 0 0 0 - - -;
#X connect 0 0 2 1;
#X connect 2 0 3 0;
#X connect 3 0 1 0;
#X connect 3 0 6 0;
#X connect 4 0 2 0;
#X connect 5 0 1 0;
#X connect 7 0 3 1;
#X connect 7 0 8 0;
#X restore -13 181 pd comb-1;
#N canvas 549 236 494 344 comb-2 0;
#X obj 236 93 r \$0-damping;
#X obj 174 127 lop~ 20000;
#X obj 174 150 *~ 0.5;
#X obj 90 36 inlet~;
#X obj 88 231 outlet~;
#X obj 253 128 r \$0-feedback;
#X obj 169 63 delread~ \$0-rev2 26.9388;
#X obj 171 202 delwrite~ \$0-rev2 27;
#X connect 0 0 1 1;
#X connect 1 0 2 0;
#X connect 2 0 7 0;
#X connect 2 0 4 0;
#X connect 3 0 7 0;
#X connect 5 0 2 1;
#X connect 6 0 1 0;
#X restore 49 181 pd comb-2;
#N canvas 400 75 490 340 comb-3 0;
#X obj 203 102 r \$0-damping;
#X obj 141 136 lop~ 20000;
#X obj 139 165 *~ 0.5;
#X obj 57 43 inlet~;
#X obj 57 248 outlet~;
#X obj 220 137 r \$0-feedback;
#X obj 117 67 delread~ \$0-rev3 28.9569;
#X obj 137 210 delwrite~ \$0-rev3 29;
#X connect 0 0 1 1;
#X connect 1 0 2 0;
#X connect 2 0 7 0;
#X connect 2 0 4 0;
#X connect 3 0 7 0;
#X connect 5 0 2 1;
#X connect 6 0 1 0;
#X restore 110 181 pd comb-3;
#N canvas 746 118 494 344 comb-4 0;
#X obj 244 103 r \$0-damping;
#X obj 182 137 lop~ 20000;
#X obj 182 160 *~ 0.5;
#X obj 90 36 inlet~;
#X obj 88 231 outlet~;
#X obj 261 138 r \$0-feedback;
#X obj 175 73 delread~ \$0-rev4 30.7483;
#X obj 171 206 delwrite~ \$0-rev4 31;
#X connect 0 0 1 1;
#X connect 1 0 2 0;
#X connect 2 0 7 0;
#X connect 2 0 4 0;
#X connect 3 0 7 0;
#X connect 5 0 2 1;
#X connect 6 0 1 0;
#X restore 172 181 pd comb-4;
#N canvas 805 59 474 324 comb-5 0;
#X obj 196 95 r \$0-damping;
#X obj 134 129 lop~ 20000;
#X obj 134 152 *~ 0.5;
#X obj 90 36 inlet~;
#X obj 88 231 outlet~;
#X obj 213 130 r \$0-feedback;
#X obj 135 61 delread~ \$0-rev5 34.2449;
#X obj 132 203 delwrite~ \$0-rev5 35;
#X connect 0 0 1 1;
#X connect 1 0 2 0;
#X connect 2 0 7 0;
#X connect 2 0 4 0;
#X connect 3 0 7 0;
#X connect 5 0 2 1;
#X connect 6 0 1 0;
#X restore 234 181 pd comb-5;
#N canvas 702 107 474 324 comb-6 0;
#X obj 238 87 r \$0-damping;
#X obj 176 121 lop~ 20000;
#X obj 176 144 *~ 0.5;
#X obj 90 36 inlet~;
#X obj 88 231 outlet~;
#X obj 255 122 r \$0-feedback;
#X obj 238 54 delread~ \$0-rev6 33.8095;
#X obj 177 197 delwrite~ \$0-rev6 34;
#X connect 0 0 1 1;
#X connect 1 0 2 0;
#X connect 2 0 4 0;
#X connect 2 0 7 0;
#X connect 3 0 7 0;
#X connect 5 0 2 1;
#X connect 6 0 1 0;
#X restore 296 181 pd comb-6;
#N canvas 552 280 474 324 comb-7 0;
#X obj 193 101 r \$0-damping;
#X obj 131 135 lop~ 20000;
#X obj 131 158 *~ 0.5;
#X obj 80 50 inlet~;
#X obj 88 231 outlet~;
#X obj 210 136 r \$0-feedback;
#X obj 194 70 delread~ \$0-rev7 35.7596;
#X obj 129 207 delwrite~ \$0-rev7 36;
#X connect 0 0 1 1;
#X connect 1 0 2 0;
#X connect 2 0 4 0;
#X connect 2 0 7 0;
#X connect 3 0 7 0;
#X connect 5 0 2 1;
#X connect 6 0 1 0;
#X restore 357 181 pd comb-7;
#N canvas 582 455 478 328 comb-8 0;
#X obj 202 100 r \$0-damping;
#X obj 140 134 lop~ 20000;
#X obj 140 157 *~ 0.5;
#X obj 90 36 inlet~;
#X obj 88 231 outlet~;
#X obj 219 135 r \$0-feedback;
#X obj 204 67 delread~ \$0-rev8 36.6667;
#X obj 140 205 delwrite~ \$0-rev8 37;
#X connect 0 0 1 1;
#X connect 1 0 2 0;
#X connect 2 0 4 0;
#X connect 2 0 7 0;
#X connect 3 0 7 0;
#X connect 5 0 2 1;
#X connect 6 0 1 0;
#X restore 419 181 pd comb-8;
#N canvas 376 127 648 562 allpass-1 0;
#X obj 186 65 inlet~;
#X obj 245 422 *~ 0.5;
#X obj 213 389 delread~ \$0-fbcf-1 12.6077;
#X obj 175 490 outlet~;
#X obj 437 474 delwrite~ \$0-fbcf-1 13;
#X obj 168 391 *~ -1;
#X connect 0 0 5 0;
#X connect 0 0 4 0;
#X connect 1 0 4 0;
#X connect 2 0 1 0;
#X connect 2 0 3 0;
#X connect 5 0 3 0;
#X restore 241 319 pd allpass-1;
#N canvas 0 22 640 554 allpass-2 0;
#X obj 186 65 inlet~;
#X obj 245 422 *~ 0.5;
#X obj 175 490 outlet~;
#X obj 168 391 *~ -1;
#X obj 213 389 delread~ \$0-fbcf-2 10;
#X obj 439 474 delwrite~ \$0-fbcf-2 11;
#X connect 0 0 3 0;
#X connect 0 0 5 0;
#X connect 1 0 5 0;
#X connect 3 0 2 0;
#X connect 4 0 1 0;
#X connect 4 0 2 0;
#X restore 241 339 pd allpass-2;
#N canvas 0 22 644 558 allpass-3 0;
#X obj 186 65 inlet~;
#X obj 245 422 *~ 0.5;
#X obj 175 490 outlet~;
#X obj 168 391 *~ -1;
#X obj 213 389 delread~ \$0-fbcf-3 7.77324;
#X obj 437 474 delwrite~ \$0-fbcf-3 8;
#X connect 0 0 3 0;
#X connect 0 0 5 0;
#X connect 1 0 5 0;
#X connect 3 0 2 0;
#X connect 4 0 1 0;
#X connect 4 0 2 0;
#X restore 240 360 pd allpass-3;
#N canvas 0 22 636 550 allpass-4 0;
#X obj 186 65 inlet~;
#X obj 245 422 *~ 0.5;
#X obj 175 490 outlet~;
#X obj 168 391 *~ -1;
#X obj 214 389 delread~ \$0-fbcf-4 5.10204;
#X obj 437 474 delwrite~ \$0-fbcf-4 6;
#X connect 0 0 3 0;
#X connect 0 0 5 0;
#X connect 1 0 5 0;
#X connect 3 0 2 0;
#X connect 4 0 1 0;
#X connect 4 0 2 0;
#X restore 242 381 pd allpass-4;
#X obj 241 300 *~ 0.25;
#X obj 234 90 *~ 0.05;
#X obj 244 469 outlet~;
#X obj 217 18 inlet~;
#N canvas 256 222 522 372 comb-9 0;
#X obj 154 146 lop~ 20000;
#X obj 154 169 *~ 0.5;
#X obj 72 37 inlet~;
#X obj 67 234 outlet~;
#X obj 155 61 delread~ \$0-rev9 37.3061;
#X obj 152 208 delwrite~ \$0-rev9 38;
#X obj 216 112 r \$0-damping2;
#X obj 233 147 r \$0-feedback2;
#X connect 0 0 1 0;
#X connect 1 0 3 0;
#X connect 1 0 5 0;
#X connect 2 0 5 0;
#X connect 4 0 0 0;
#X connect 6 0 0 1;
#X connect 7 0 1 1;
#X restore 315 262 pd comb-9;
#N canvas 549 236 494 344 comb-10 0;
#X obj 174 127 lop~ 20000;
#X obj 174 150 *~ 0.5;
#X obj 90 36 inlet~;
#X obj 88 231 outlet~;
#X obj 169 63 delread~ \$0-rev10 38.9388;
#X obj 171 202 delwrite~ \$0-rev10 39;
#X obj 236 93 r \$0-damping2;
#X obj 253 128 r \$0-feedback2;
#X connect 0 0 1 0;
#X connect 1 0 3 0;
#X connect 1 0 5 0;
#X connect 2 0 5 0;
#X connect 4 0 0 0;
#X connect 6 0 0 1;
#X connect 7 0 1 1;
#X restore 377 262 pd comb-10;
#N canvas 400 75 490 340 comb-11 0;
#X obj 141 136 lop~ 20000;
#X obj 139 165 *~ 0.5;
#X obj 57 43 inlet~;
#X obj 57 248 outlet~;
#X obj 117 67 delread~ \$0-rev11 39.9569;
#X obj 137 210 delwrite~ \$0-rev11 40;
#X obj 203 102 r \$0-damping2;
#X obj 220 137 r \$0-feedback2;
#X connect 0 0 1 0;
#X connect 1 0 3 0;
#X connect 1 0 5 0;
#X connect 2 0 5 0;
#X connect 4 0 0 0;
#X connect 6 0 0 1;
#X connect 7 0 1 1;
#X restore 438 262 pd comb-11;
#N canvas 746 118 494 344 comb-12 0;
#X obj 182 137 lop~ 20000;
#X obj 182 160 *~ 0.5;
#X obj 90 36 inlet~;
#X obj 88 231 outlet~;
#X obj 175 73 delread~ \$0-rev12 40.7483;
#X obj 171 206 delwrite~ \$0-rev12 41;
#X obj 244 103 r \$0-damping2;
#X obj 261 138 r \$0-feedback2;
#X connect 0 0 1 0;
#X connect 1 0 3 0;
#X connect 1 0 5 0;
#X connect 2 0 5 0;
#X connect 4 0 0 0;
#X connect 6 0 0 1;
#X connect 7 0 1 1;
#X restore 500 262 pd comb-12;
#N canvas 805 59 474 324 comb-13 0;
#X obj 134 129 lop~ 20000;
#X obj 134 152 *~ 0.5;
#X obj 90 36 inlet~;
#X obj 88 231 outlet~;
#X obj 135 61 delread~ \$0-rev13 41.2449;
#X obj 132 203 delwrite~ \$0-rev13 42;
#X obj 196 95 r \$0-damping2;
#X obj 213 130 r \$0-feedback2;
#X connect 0 0 1 0;
#X connect 1 0 3 0;
#X connect 1 0 5 0;
#X connect 2 0 5 0;
#X connect 4 0 0 0;
#X connect 6 0 0 1;
#X connect 7 0 1 1;
#X restore 562 262 pd comb-13;
#N canvas 702 107 474 324 comb-14 0;
#X obj 176 121 lop~ 20000;
#X obj 176 144 *~ 0.5;
#X obj 90 36 inlet~;
#X obj 88 231 outlet~;
#X obj 238 54 delread~ \$0-rev14 42.8095;
#X obj 238 87 r \$0-damping2;
#X obj 255 122 r \$0-feedback2;
#X obj 177 197 delwrite~ \$0-rev14 43;
#X connect 0 0 1 0;
#X connect 1 0 3 0;
#X connect 1 0 7 0;
#X connect 2 0 7 0;
#X connect 4 0 0 0;
#X connect 5 0 0 1;
#X connect 6 0 1 1;
#X restore 624 262 pd comb-14;
#N canvas 742 153 474 324 comb-15 0;
#X obj 131 135 lop~ 20000;
#X obj 131 158 *~ 0.5;
#X obj 80 50 inlet~;
#X obj 88 231 outlet~;
#X obj 194 70 delread~ \$0-rev15 44.7596;
#X obj 129 207 delwrite~ \$0-rev15 45;
#X obj 193 101 r \$0-damping2;
#X obj 210 136 r \$0-feedback2;
#X connect 0 0 1 0;
#X connect 1 0 3 0;
#X connect 1 0 5 0;
#X connect 2 0 5 0;
#X connect 4 0 0 0;
#X connect 6 0 0 1;
#X connect 7 0 1 1;
#X restore 685 262 pd comb-15;
#N canvas 731 107 478 328 comb-16 0;
#X obj 140 134 lop~ 20000;
#X obj 140 157 *~ 0.5;
#X obj 90 36 inlet~;
#X obj 88 231 outlet~;
#X obj 140 205 delwrite~ \$0-rev16 47;
#X obj 204 67 delread~ \$0-rev16 46.6667;
#X obj 202 100 r \$0-damping2;
#X obj 219 135 r \$0-feedback2;
#X connect 0 0 1 0;
#X connect 1 0 3 0;
#X connect 1 0 4 0;
#X connect 2 0 4 0;
#X connect 5 0 0 0;
#X connect 6 0 0 1;
#X connect 7 0 1 1;
#X restore 747 262 pd comb-16;
#X obj 532 321 *~ 0.25;
#X obj 535 490 outlet~;
#X obj 547 198 *~ 0.05;
#X obj 530 126 inlet~;
#N canvas 376 127 648 562 allpass-5 0;
#X obj 186 65 inlet~;
#X obj 245 422 *~ 0.5;
#X obj 175 490 outlet~;
#X obj 168 391 *~ -1;
#X obj 213 389 delread~ \$0-fbcf-5 12.6077;
#X obj 437 474 delwrite~ \$0-fbcf-5 13;
#X connect 0 0 3 0;
#X connect 0 0 5 0;
#X connect 1 0 5 0;
#X connect 3 0 2 0;
#X connect 4 0 1 0;
#X connect 4 0 2 0;
#X restore 532 340 pd allpass-5;
#N canvas 0 22 644 558 allpass-7 0;
#X obj 186 65 inlet~;
#X obj 245 422 *~ 0.5;
#X obj 175 490 outlet~;
#X obj 168 391 *~ -1;
#X obj 213 389 delread~ \$0-fbcf-7 7.77324;
#X obj 437 474 delwrite~ \$0-fbcf-7 8;
#X connect 0 0 3 0;
#X connect 0 0 5 0;
#X connect 1 0 5 0;
#X connect 3 0 2 0;
#X connect 4 0 1 0;
#X connect 4 0 2 0;
#X restore 531 379 pd allpass-7;
#N canvas 0 22 636 550 allpass-8 0;
#X obj 186 65 inlet~;
#X obj 245 422 *~ 0.5;
#X obj 175 490 outlet~;
#X obj 168 391 *~ -1;
#X obj 214 389 delread~ \$0-fbcf-8 5.10204;
#X obj 437 474 delwrite~ \$0-fbcf-8 6;
#X connect 0 0 3 0;
#X connect 0 0 5 0;
#X connect 1 0 5 0;
#X connect 3 0 2 0;
#X connect 4 0 1 0;
#X connect 4 0 2 0;
#X restore 533 402 pd allpass-8;
#N canvas 0 22 640 554 allpass-6 0;
#X obj 186 65 inlet~;
#X obj 245 422 *~ 0.5;
#X obj 175 490 outlet~;
#X obj 168 391 *~ -1;
#X obj 213 389 delread~ \$0-fbcf-6 10;
#X obj 439 473 delwrite~ \$0-fbcf-6 11;
#X connect 0 0 3 0;
#X connect 0 0 5 0;
#X connect 1 0 5 0;
#X connect 3 0 2 0;
#X connect 4 0 1 0;
#X connect 4 0 2 0;
#X restore 532 360 pd allpass-6;
#X floatatom 167 371 5 0 0 0 - - -;
#X obj 183 318 r \$0-vo;
#X obj 625 326 r \$0-vo1;
#X connect 0 0 12 0;
#X connect 1 0 12 0;
#X connect 2 0 12 0;
#X connect 3 0 12 0;
#X connect 4 0 12 0;
#X connect 5 0 12 0;
#X connect 6 0 12 0;
#X connect 7 0 12 0;
#X connect 8 0 9 0;
#X connect 9 0 10 0;
#X connect 10 0 11 0;
#X connect 11 0 14 0;
#X connect 12 0 8 0;
#X connect 13 0 0 0;
#X connect 13 0 1 0;
#X connect 13 0 2 0;
#X connect 13 0 3 0;
#X connect 13 0 4 0;
#X connect 13 0 5 0;
#X connect 13 0 6 0;
#X connect 13 0 7 0;
#X connect 15 0 13 0;
#X connect 16 0 24 0;
#X connect 17 0 24 0;
#X connect 18 0 24 0;
#X connect 19 0 24 0;
#X connect 20 0 24 0;
#X connect 21 0 24 0;
#X connect 22 0 24 0;
#X connect 23 0 24 0;
#X connect 24 0 28 0;
#X connect 26 0 16 0;
#X connect 26 0 17 0;
#X connect 26 0 18 0;
#X connect 26 0 19 0;
#X connect 26 0 20 0;
#X connect 26 0 21 0;
#X connect 26 0 22 0;
#X connect 26 0 23 0;
#X connect 27 0 26 0;
#X connect 28 0 31 0;
#X connect 29 0 30 0;
#X connect 30 0 25 0;
#X connect 31 0 29 0;
#X connect 33 0 12 1;
#X connect 33 0 32 0;
#X connect 34 0 24 1;
#X restore 41 327 pd LEFT;
#X obj 18 109 hsl 80 10 0 1 0 0 \$0-dam \$0-da damping -2 -8 0 10 -33289
-257985 -38110 3500 1;
#X obj 18 160 hsl 80 10 0 1 0 0 \$0-feb \$0-fb feedback 5 5 0 10 -204786
-1 -38110 5530 1;
#X obj 17 137 hsl 80 10 0 1 0 0 \$0-wet \$0-we wet -2 -8 0 10 -258113
-257985 -66577 4500 1;
#X obj 18 180 hsl 80 10 0 1 0 0 \$0-dry \$0-dr dry 5 5 0 10 -204786
-1 -66577 0 1;
#X obj 236 640 * 0.28;
#X obj 237 663 + 0.7;
#X obj 235 547 - 1;
#X obj 236 591 - 1;
#X obj 237 612 abs;
#X obj 235 569 expr pow($f1 \, 4);
#X obj 359 469 * 44100;
#X obj 360 447 expr pow($f1 \, 4);
#X obj 360 399 * 0.9;
#X obj 360 423 + 0.1;
#X obj 359 494 s \$0-damping2;
#X obj 363 639 * 0.28;
#X obj 364 662 + 0.7;
#X obj 362 546 - 1;
#X obj 363 590 - 1;
#X obj 364 611 abs;
#X obj 362 568 expr pow($f1 \, 4);
#X obj 364 688 s \$0-feedback2;
#X obj 105 458 *~ 1;
#X obj 118 109 hsl 80 10 0 1 0 0 \$0-dam2 \$0-da2 damping2 -2 -8 0
10 -33289 -257985 -66577 4000 1;
#X obj 112 160 hsl 80 10 0 1 0 0 \$0-feb2 \$0-fb2 feedback2 5 5 0 10
-204786 -1 -66577 5530 1;
#X obj 113 138 hsl 80 10 0 1 0 0 \$0-wet2 \$0-we2 wet2 -2 -8 0 10 -258113
-257985 -66577 3900 1;
#X obj 395 26 randomF 1;
#X floatatom 394 47 5 0 0 0 - - -;
#X obj 395 7 metro;
#X floatatom 79 91 5 0 0 0 - #0-rnumetda #0-numetda;
#X obj 60 94 tgl 12 0 \$0-metda \$0-rmetda empty 17 7 0 10 -33289 -257985
-1 0 1;
#X obj 553 26 randomF 1;
#X floatatom 552 47 5 0 0 0 - - -;
#X obj 553 7 metro;
#X floatatom 190 92 5 0 0 0 - #0-rnumetda2 #0-numetda2;
#X obj 165 94 tgl 12 0 \$0-metda2 \$0-rmetda2 empty 17 7 0 10 -33289
-257985 -1 0 1;
#X obj 112 180 hsl 80 10 0 1 0 0 \$0-dry1 \$0-dr1 dry2 5 5 0 10 -204786
-1 -66577 0 1;
#X obj 125 316 *~ 1;
#X obj 355 374 r \$0-dam2;
#X obj 233 373 r \$0-dam;
#X obj 234 526 r \$0-feb;
#X obj 361 527 r \$0-feb2;
#X obj 691 26 randomF 1;
#X floatatom 692 96 5 0 0 0 - - -;
#X obj 691 7 metro;
#X floatatom 75 120 5 0 0 0 - #0-rnumetwet #0-numetwet;
#X obj 50 122 tgl 12 0 \$0-metwet \$0-rmetwet empty 17 7 0 10 -258113
-257985 -1 0 1;
#X obj 914 23 randomF 1;
#X floatatom 913 44 5 0 0 0 - - -;
#X obj 914 4 metro;
#X floatatom 165 120 5 0 0 0 - #0-rnumetwet2 #0-numetwet2;
#X obj 141 122 tgl 12 0 \$0-metwet2 \$0-rmetwet2 empty 17 7 0 10 -258113
-257985 -1 0 1;
#X floatatom 954 71 5 0 0 0 - - -;
#X floatatom 1011 113 5 0 0 0 - - -;
#X obj 691 71 line;
#X obj 690 49 pack 0 500;
#X obj 1012 62 pack 0 800;
#X obj 1011 87 line;
#X obj 955 42 moses 0.2;
#N canvas 172 260 1078 453 (subpatch) 0;
#X floatatom 150 183 5 0 0 0 - - #0-da;
#X obj 202 83 inlet;
#X floatatom 204 183 5 0 0 0 - - #0-da2;
#X floatatom 257 180 5 0 0 0 - - #0-we;
#X floatatom 310 183 5 0 0 0 - - #0-we2;
#X floatatom 379 185 5 0 0 0 - - #0-fb;
#X floatatom 430 185 5 0 0 0 - - #0-fb2;
#X floatatom 495 185 5 0 0 0 - - #0-dr;
#X floatatom 548 185 5 0 0 0 - - #0-dr1;
#X floatatom 594 188 5 0 0 0 - - volrr;
#X floatatom 647 188 5 0 0 0 - - volrl;
#X obj 205 107 route d1 d2 w1 w2 f1 f2 dr1 dr2 volrr volrl volr1 volr2
;
#X floatatom 695 189 5 0 0 0 - - volr1;
#X floatatom 748 189 5 0 0 0 - - volr2;
#X connect 1 0 11 0;
#X connect 11 0 0 0;
#X connect 11 1 2 0;
#X connect 11 2 3 0;
#X connect 11 3 4 0;
#X connect 11 4 5 0;
#X connect 11 5 6 0;
#X connect 11 6 7 0;
#X connect 11 7 8 0;
#X connect 11 8 9 0;
#X connect 11 9 10 0;
#X connect 11 10 12 0;
#X connect 11 11 13 0;
#X restore 791 300 pd;
#X floatatom 1004 -14 5 0 100 0 - - -;
#X obj 1005 5 / 100;
#X floatatom 1005 23 5 0 0 0 - - -;
#X obj 202 125 vsl 10 30 0 1 0 0 \$0-vo \$0-volr empty 0 -9 0 10 -121454
-262130 -1 900 1;
#X obj 202 163 vsl 10 30 0 1 0 0 \$0-vo1 \$0-voll empty 0 -9 0 10 -121454
-262130 -1 1000 1;
#X msg 832 156 d1 0.55 \, d2 0.55 \, w1 0.4 \, w2 0.4 \, f1 0.4 \,
f2 0.4 \, dr1 0 \, dr2 0.1 \, volrr 0.8 \, volrl 0.8 \, volr1 0.6 \,
volr2 0.6;
#X msg 830 188 d1 0.5822 \, d2 0.62 \, w1 0.54 \, w2 0.4 \, f1 0.4
\, f2 0.38 \, dr1 0.3 \, dr2 0.3 \, volrr 0.7 \, volrl 0.7 \, volr1
0.6 \, volr2 0.6;
#X msg 827 257 d1 0.543 \, d2 0.619 \, w1 0.41 \, w2 0.45 \, f1 0.46
\, f2 0.46 \, dr1 0 \, dr2 0 \, volrr 0.6 \, volrl 0.6 \, volr1 1.5
\, volr2 1.5;
#X msg 827 226 d1 0.58 \, d2 0.55 \, w1 0.631 \, w2 0.645 \, f1 0.6
\, f2 0.6 \, dr1 0 \, dr2 0 \, volrr 0.6 \, volrl 0.6 \, volr1 1.5
\, volr2 1.5;
#X msg 825 287 d1 0.5 \, d2 0.5 \, w1 0.54 \, w2 0.4 \, f1 0.4 \, f2
0.38 \, dr1 0.3 \, dr2 0.3 \, volrr 0.7 \, volrl 0.7 \, volr1 0.6 \,
volr2 0.6;
#X obj 217 247 switch~;
#X obj 218 176 tgl 15 0 \$0-rvswitch \$0-rrvswitch empty 17 7 0 10
-262144 -1 -1 1 1;
#X obj 348 -12 r \$0-metda;
#X obj 414 -12 r \$0-numetda;
#X obj 502 -11 r \$0-metda2;
#X obj 575 -12 r \$0-numetda2;
#X obj 662 -13 r \$0-metwet;
#X obj 735 -13 r \$0-numetwet;
#X obj 835 -15 r \$0-metwet2;
#X obj 913 -15 r \$0-numetwet2;
#N canvas 421 22 937 735 presets 0;
#X obj -67 268 r \$0-metda;
#X obj -66 382 s \$0-rmetda;
#X obj 136 270 r \$0-metda2;
#X obj 138 388 s \$0-rmetda2;
#X obj -71 -146 r \$0-dam;
#X obj -70 -41 s \$0-da;
#X obj -9 -59 r \$0-dam2;
#X obj 323 285 r \$0-metwet;
#X obj 321 391 s \$0-rmetwet;
#X obj 533 276 r \$0-metwet2;
#X obj 538 388 s \$0-rmetwet2;
#X obj 85 -146 r \$0-wet;
#X obj 83 -46 s \$0-we;
#X obj -10 47 s \$0-da2;
#X obj 145 -54 r \$0-wet2;
#X obj 146 47 s \$0-we2;
#X obj 233 -145 r \$0-feb;
#X obj 235 -53 s \$0-fb;
#X obj 296 -51 r \$0-feb2;
#X obj 297 46 s \$0-fb2;
#X obj 380 -143 r \$0-dry;
#X obj 380 -47 s \$0-dr;
#X obj 450 -46 r \$0-dry1;
#X obj 454 49 s \$0-dr1;
#X obj 525 -144 r \$0-vo;
#X obj 527 -43 s \$0-volr;
#X obj 620 53 s \$0-voll;
#X obj 616 -45 r \$0-vo1;
#X obj -72 123 r \$0-numetda;
#X obj -73 217 s \$0-rnumetda;
#X obj 134 120 r \$0-numetda2;
#X obj 133 218 s \$0-rnumetda2;
#X obj 324 120 r \$0-numetwet;
#X obj 322 216 s \$0-rnumetwet;
#X obj 522 115 r \$0-numetwet2;
#X obj 524 212 s \$0-rnumetwet2;
#X obj -71 -171 inlet;
#X obj -8 -168 inlet;
#X obj 82 -174 inlet;
#X obj 147 -173 inlet;
#X obj 716 115 r \$0-rvswitch;
#X obj 718 218 s \$0-rrvswitch;
#X obj -71 -113 save.me.mmb rv2da rvrb;
#X obj -72 -86 save.me.mmb rv2da all;
#X obj 85 -110 save.me.mmb rv2wet rvrb;
#X obj 84 -83 save.me.mmb rv2wet all;
#X obj 236 -110 save.me.mmb rv2feb rvrb;
#X obj 235 -83 save.me.mmb rv2feb all;
#X obj 380 -112 save.me.mmb rv2dry rvrb;
#X obj 379 -85 save.me.mmb rv2dry all;
#X obj 527 -110 save.me.mmb rv2volr rvrb;
#X obj 526 -83 save.me.mmb rv2volr all;
#X obj -8 -22 save.me.mmb rv2da2 rvrb;
#X obj -9 5 save.me.mmb rv2da2 all;
#X obj 145 -25 save.me.mmb rv2wet2 rvrb;
#X obj 145 6 save.me.mmb rv2wet2 all;
#X obj 297 -24 save.me.mmb rv2feb2 rvrb;
#X obj 296 3 save.me.mmb rv2feb2 all;
#X obj 453 -20 save.me.mmb rv2dry2 rvrb;
#X obj 452 7 save.me.mmb rv2dry2 all;
#X obj 617 -14 save.me.mmb rv2voll rvrb;
#X obj 616 13 save.me.mmb rv2voll all;
#X obj 715 146 save.me.mmb rv2swit rvrb;
#X obj 717 174 save.me.mmb rv2swit all;
#X obj 522 148 save.me.mmb rv2numwet2 rvrb;
#X obj 524 176 save.me.mmb rv2numwet2 all;
#X obj 535 318 save.me.mmb rv2metwet2 rvrb;
#X obj 536 345 save.me.mmb rv2metwet2 all;
#X obj 324 149 save.me.mmb rv2numwet rvrb;
#X obj 323 176 save.me.mmb rv2numwet all;
#X obj 323 318 save.me.mmb rv2metwet rvrb;
#X obj 324 345 save.me.mmb rv2metwet all;
#X obj 133 150 save.me.mmb rv2numda2 rvrb;
#X obj 132 177 save.me.mmb rv2numda2 all;
#X obj 137 320 save.me.mmb rv2metda2 rvrb;
#X obj 136 347 save.me.mmb rv2metda2 all;
#X obj -72 151 save.me.mmb rv2numda rvrb;
#X obj -73 178 save.me.mmb rv2numda all;
#X obj -65 316 save.me.mmb rv2metda rvrb;
#X obj -66 343 save.me.mmb rv2metda all;
#X connect 0 0 78 0;
#X connect 0 0 79 0;
#X connect 2 0 74 0;
#X connect 2 0 75 0;
#X connect 4 0 42 0;
#X connect 4 0 43 0;
#X connect 6 0 52 0;
#X connect 6 0 53 0;
#X connect 7 0 70 0;
#X connect 7 0 71 0;
#X connect 9 0 66 0;
#X connect 9 0 67 0;
#X connect 11 0 44 0;
#X connect 11 0 45 0;
#X connect 14 0 54 0;
#X connect 14 0 55 0;
#X connect 16 0 46 0;
#X connect 16 0 47 0;
#X connect 18 0 56 0;
#X connect 18 0 57 0;
#X connect 20 0 48 0;
#X connect 20 0 49 0;
#X connect 22 0 58 0;
#X connect 22 0 59 0;
#X connect 24 0 50 0;
#X connect 24 0 51 0;
#X connect 27 0 60 0;
#X connect 27 0 61 0;
#X connect 28 0 76 0;
#X connect 28 0 77 0;
#X connect 30 0 72 0;
#X connect 30 0 73 0;
#X connect 32 0 68 0;
#X connect 32 0 69 0;
#X connect 34 0 64 0;
#X connect 34 0 65 0;
#X connect 36 0 5 0;
#X connect 37 0 13 0;
#X connect 38 0 12 0;
#X connect 39 0 15 0;
#X connect 40 0 62 0;
#X connect 40 0 63 0;
#X connect 42 0 5 0;
#X connect 43 0 5 0;
#X connect 44 0 12 0;
#X connect 45 0 12 0;
#X connect 46 0 17 0;
#X connect 47 0 17 0;
#X connect 48 0 21 0;
#X connect 49 0 21 0;
#X connect 50 0 25 0;
#X connect 51 0 25 0;
#X connect 52 0 13 0;
#X connect 53 0 13 0;
#X connect 54 0 15 0;
#X connect 55 0 15 0;
#X connect 56 0 19 0;
#X connect 57 0 19 0;
#X connect 58 0 23 0;
#X connect 59 0 23 0;
#X connect 60 0 26 0;
#X connect 61 0 26 0;
#X connect 62 0 41 0;
#X connect 63 0 41 0;
#X connect 64 0 35 0;
#X connect 65 0 35 0;
#X connect 66 0 10 0;
#X connect 67 0 10 0;
#X connect 68 0 33 0;
#X connect 69 0 33 0;
#X connect 70 0 8 0;
#X connect 71 0 8 0;
#X connect 72 0 31 0;
#X connect 73 0 31 0;
#X connect 74 0 3 0;
#X connect 75 0 3 0;
#X connect 76 0 29 0;
#X connect 77 0 29 0;
#X connect 78 0 1 0;
#X connect 79 0 1 0;
#X restore 393 147 pd presets;
#X obj 44 427 r \$0-wet;
#X obj 129 435 r \$0-wet2;
#X obj 18 290 r \$0-dry;
#X obj 162 297 r \$0-dry2;
#X obj 62 67 r~ flute;
#X obj 70 558 s~ flutervr;
#X obj 267 137 r flutepres;
#X obj 304 175 sel 1 2;
#X msg 315 219 0.7;
#X msg 358 220 0.3;
#X connect 3 0 1 0;
#X connect 4 0 3 0;
#X connect 5 0 6 0;
#X connect 6 0 4 0;
#X connect 8 0 96 0;
#X connect 9 0 8 0;
#X connect 9 1 32 0;
#X connect 14 0 15 0;
#X connect 15 0 2 0;
#X connect 16 0 19 0;
#X connect 17 0 18 0;
#X connect 18 0 14 0;
#X connect 19 0 17 0;
#X connect 20 0 24 0;
#X connect 21 0 20 0;
#X connect 22 0 23 0;
#X connect 23 0 21 0;
#X connect 25 0 26 0;
#X connect 26 0 31 0;
#X connect 27 0 30 0;
#X connect 28 0 29 0;
#X connect 29 0 25 0;
#X connect 30 0 28 0;
#X connect 32 0 96 0;
#X connect 36 0 37 0;
#X connect 37 0 90 0;
#X connect 38 0 36 0;
#X connect 41 0 42 0;
#X connect 42 0 90 1;
#X connect 43 0 41 0;
#X connect 48 0 22 0;
#X connect 49 0 5 0;
#X connect 50 0 16 0;
#X connect 51 0 27 0;
#X connect 52 0 65 0;
#X connect 53 0 90 2;
#X connect 54 0 52 0;
#X connect 57 0 58 0;
#X connect 57 0 68 0;
#X connect 59 0 57 0;
#X connect 63 0 90 3;
#X connect 64 0 53 0;
#X connect 65 0 64 0;
#X connect 66 0 67 0;
#X connect 67 0 63 0;
#X connect 68 0 62 0;
#X connect 68 1 66 0;
#X connect 70 0 71 0;
#X connect 71 0 72 0;
#X connect 72 0 68 1;
#X connect 75 0 69 0;
#X connect 76 0 69 0;
#X connect 77 0 69 0;
#X connect 78 0 69 0;
#X connect 79 0 69 0;
#X connect 81 0 80 0;
#X connect 82 0 38 0;
#X connect 83 0 38 1;
#X connect 84 0 43 0;
#X connect 85 0 43 1;
#X connect 86 0 54 0;
#X connect 87 0 54 1;
#X connect 88 0 59 0;
#X connect 89 0 59 1;
#X connect 91 0 8 1;
#X connect 92 0 32 1;
#X connect 93 0 7 1;
#X connect 94 0 47 1;
#X connect 95 0 7 0;
#X connect 95 0 47 0;
#X connect 95 0 9 0;
#X connect 95 0 9 1;
#X connect 97 0 98 0;
#X connect 98 0 99 0;
#X connect 98 1 100 0;
#X connect 99 0 34 0;
#X connect 99 0 11 0;
#X connect 100 0 34 0;
#X connect 100 0 11 0;
#X coords 0 -1 1 1 228 110 1 12 90;
