#N canvas 233 83 1191 734 10;
#X obj 178 261 t l;
#X obj 108 300 list trim;
#X obj 107 163 bng 15 250 50 0 empty empty empty 17 7 0 10 -262144
-1 -1;
#X obj 178 221 bng 15 250 50 0 empty empty empty 17 7 0 10 -262144
-1 -1;
#X obj 108 242 list prepend;
#X obj 107 102 bng 15 250 50 0 empty empty empty 17 7 0 10 -262144
-1 -1;
#X obj 54 355 metroplus;
#X msg 53 317 start;
#X obj 55 373 bng 15 250 50 0 empty empty empty 17 7 0 10 -262144 -1
-1;
#X msg 54 336 stop;
#X obj 159 355 list length;
#X floatatom 160 375 5 0 0 0 - - -;
#X obj 108 278 list prepend set \$1;
#X msg 108 325 0 84 215 81 229 208 36 125 49 116 152 246 142 57 144
166 120 161;
#X obj 127 443 sel \$1;
#X obj 96 408 +;
#X msg 96 388 1;
#X obj 123 408 % \$1;
#X floatatom 96 427 5 0 0 0 - - -;
#X obj 27 460 bng 15 250 50 0 empty empty empty 17 7 0 10 -262144 -1
-1;
#X obj 140 162 del 10;
#X obj 183 162 del 20;
#X obj 107 121 spigot;
#X obj 107 140 t b b b b b;
#X msg 193 129 0;
#X obj 128 102 tgl 15 0 empty empty empty 17 7 0 10 -262144 -1 -1 1
1;
#X msg 128 84 1;
#X obj 128 61 loadbang;
#X obj 107 37 inlet;
#X obj 107 182 many_bang 5 20;
#X obj 29 506 del 20;
#X obj 26 57 inlet;
#X obj 29 480 t b b b b;
#X obj 67 121 spigot;
#X obj 155 102 tgl 15 0 empty empty loop 17 7 0 10 -262144 -1 -1 0
1;
#X obj 267 617 throw~ master1L;
#X obj 431 673 throw~ master2R;
#X obj 308 635 throw~ master1R;
#X obj 364 653 throw~ master2L;
#X msg 239 489 0;
#X obj 64 563 del 50;
#X obj 284 507 pack 0 100;
#X obj 365 508 pack 0 100;
#X obj 448 508 pack 0 100;
#X obj 526 509 pack 0 100;
#X msg 331 465 0;
#X msg 396 464 0;
#X msg 460 463 0;
#X msg 525 462 0;
#X obj 108 202 random 250;
#X msg 314 142 \$1;
#X obj 359 83 metro 10000;
#X obj 365 126 cycle 4;
#X msg 363 107 reset;
#X msg 360 183 250;
#X msg 415 185 1200;
#X msg 504 185 2000;
#X obj 202 102 tgl 15 0 empty empty empty 17 7 0 10 -262144 -1 -1 0
1;
#X obj 365 152 t b b;
#X obj 413 150 t b b;
#X obj 467 154 t b b;
#X obj 531 156 t b b;
#X msg 367 208 60;
#X msg 417 208 100;
#X obj 457 67 bng 15 250 50 0 empty empty empty 17 7 0 10 -262144 -1
-1;
#X msg 467 184 180;
#X msg 473 213 70;
#X obj 99 519 spigot;
#X obj 148 655 expr $f1 \; if ( $f1 == 0 \, 1 \, 0) \;;
#X obj 755 116 metro 5000;
#X msg 756 147 reset;
#X obj 726 266 del 3000;
#X obj 667 265 t b b;
#X obj 856 268 del 3000;
#X obj 797 267 t b b;
#X obj 988 269 del 3000;
#X obj 929 268 t b b;
#X obj 1118 271 del 3000;
#X obj 1059 270 t b b;
#X obj 232 102 tgl 15 0 empty empty empty 17 7 0 10 -262144 -1 -1 0
1;
#X msg 726 288 0 5000;
#X msg 856 290 0 5000;
#X msg 988 291 0 5000;
#X msg 1118 293 0 5000;
#X msg 828 78 3000;
#X msg 667 288 0.8 3000;
#X msg 797 290 0.8 3000;
#X msg 929 291 0.8 3000;
#X msg 1059 293 0.8 3000;
#X msg 303 465 0.8;
#X msg 368 464 0.8;
#X msg 432 463 0.8;
#X msg 497 462 0.8;
#X msg 384 29 1;
#X obj 693 61 t b b;
#X msg 672 85 1;
#X obj 693 11 r flutepres;
#X obj 693 36 sel 2;
#X obj 595 30 sel 3;
#X obj 602 57 t b b;
#X msg 617 81 0;
#X msg 582 80 0;
#X obj 365 394 random 4;
#X obj 366 422 sel 0 1 2 3;
#X obj 757 170 cycle 4;
#X obj 197 546 r~ flute2;
#X obj 520 572 r~ flute2;
#X obj 284 538 line~;
#X obj 365 539 line~;
#X obj 448 538 line~;
#X obj 526 536 line~;
#X obj 267 593 *~;
#X obj 308 593 *~;
#X obj 360 593 *~;
#X obj 424 592 *~;
#X connect 0 0 4 1;
#X connect 1 0 13 0;
#X connect 2 0 29 0;
#X connect 3 0 4 1;
#X connect 4 0 0 0;
#X connect 4 0 12 0;
#X connect 5 0 22 0;
#X connect 6 0 8 0;
#X connect 7 0 6 0;
#X connect 8 0 16 0;
#X connect 8 0 102 0;
#X connect 9 0 6 0;
#X connect 10 0 11 0;
#X connect 11 0 14 1;
#X connect 11 0 17 1;
#X connect 12 0 1 0;
#X connect 13 0 6 1;
#X connect 13 0 10 0;
#X connect 14 0 19 0;
#X connect 15 0 17 0;
#X connect 15 0 18 0;
#X connect 16 0 15 0;
#X connect 17 0 15 1;
#X connect 18 0 14 0;
#X connect 19 0 32 0;
#X connect 20 0 13 0;
#X connect 21 0 7 0;
#X connect 22 0 23 0;
#X connect 23 0 2 0;
#X connect 23 1 3 0;
#X connect 23 2 20 0;
#X connect 23 3 21 0;
#X connect 23 4 24 0;
#X connect 24 0 25 0;
#X connect 25 0 22 1;
#X connect 26 0 25 0;
#X connect 27 0 26 0;
#X connect 28 0 5 0;
#X connect 29 0 49 0;
#X connect 30 0 67 0;
#X connect 31 0 19 0;
#X connect 32 0 30 0;
#X connect 32 1 26 0;
#X connect 32 2 9 0;
#X connect 32 3 40 0;
#X connect 33 0 5 0;
#X connect 34 0 33 1;
#X connect 34 0 68 0;
#X connect 39 0 41 0;
#X connect 39 0 42 0;
#X connect 39 0 43 0;
#X connect 39 0 44 0;
#X connect 40 0 33 0;
#X connect 41 0 107 0;
#X connect 42 0 108 0;
#X connect 43 0 109 0;
#X connect 44 0 110 0;
#X connect 45 0 41 0;
#X connect 46 0 42 0;
#X connect 47 0 43 0;
#X connect 48 0 44 0;
#X connect 49 0 4 0;
#X connect 50 0 49 1;
#X connect 51 0 53 0;
#X connect 52 0 58 0;
#X connect 52 1 59 0;
#X connect 52 2 60 0;
#X connect 52 3 61 0;
#X connect 53 0 52 0;
#X connect 54 0 49 1;
#X connect 55 0 49 1;
#X connect 56 0 49 1;
#X connect 57 0 51 0;
#X connect 58 0 54 0;
#X connect 58 1 62 0;
#X connect 59 0 55 0;
#X connect 59 1 63 0;
#X connect 60 0 65 0;
#X connect 60 1 66 0;
#X connect 61 0 56 0;
#X connect 61 1 63 0;
#X connect 62 0 41 1;
#X connect 62 0 42 1;
#X connect 62 0 43 1;
#X connect 62 0 44 1;
#X connect 63 0 41 1;
#X connect 63 0 42 1;
#X connect 63 0 43 1;
#X connect 63 0 44 1;
#X connect 64 0 60 0;
#X connect 65 0 49 1;
#X connect 66 0 41 1;
#X connect 66 0 42 1;
#X connect 66 0 43 1;
#X connect 66 0 44 1;
#X connect 67 0 39 0;
#X connect 68 1 67 1;
#X connect 69 0 70 0;
#X connect 70 0 104 0;
#X connect 71 0 80 0;
#X connect 72 0 85 0;
#X connect 72 1 71 0;
#X connect 73 0 81 0;
#X connect 74 0 86 0;
#X connect 74 1 73 0;
#X connect 75 0 82 0;
#X connect 76 0 87 0;
#X connect 76 1 75 0;
#X connect 77 0 83 0;
#X connect 78 0 88 0;
#X connect 78 1 77 0;
#X connect 79 0 69 0;
#X connect 80 0 107 0;
#X connect 81 0 108 0;
#X connect 82 0 109 0;
#X connect 83 0 110 0;
#X connect 84 0 69 1;
#X connect 85 0 107 0;
#X connect 86 0 108 0;
#X connect 87 0 109 0;
#X connect 88 0 110 0;
#X connect 89 0 41 0;
#X connect 90 0 42 0;
#X connect 91 0 43 0;
#X connect 92 0 44 0;
#X connect 93 0 34 0;
#X connect 94 0 95 0;
#X connect 94 1 84 0;
#X connect 95 0 79 0;
#X connect 96 0 97 0;
#X connect 96 0 98 0;
#X connect 97 0 94 0;
#X connect 98 0 99 0;
#X connect 99 0 101 0;
#X connect 99 1 100 0;
#X connect 100 0 79 0;
#X connect 101 0 34 0;
#X connect 102 0 103 0;
#X connect 103 0 89 0;
#X connect 103 0 46 0;
#X connect 103 0 47 0;
#X connect 103 0 48 0;
#X connect 103 1 45 0;
#X connect 103 1 90 0;
#X connect 103 1 47 0;
#X connect 103 1 48 0;
#X connect 103 2 45 0;
#X connect 103 2 46 0;
#X connect 103 2 91 0;
#X connect 103 2 48 0;
#X connect 103 3 45 0;
#X connect 103 3 46 0;
#X connect 103 3 92 0;
#X connect 103 3 47 0;
#X connect 104 0 74 0;
#X connect 104 1 72 0;
#X connect 104 2 76 0;
#X connect 104 3 78 0;
#X connect 105 0 111 0;
#X connect 105 0 112 0;
#X connect 105 0 113 0;
#X connect 105 0 114 0;
#X connect 106 0 111 0;
#X connect 106 0 112 0;
#X connect 106 0 113 0;
#X connect 106 0 114 0;
#X connect 107 0 111 1;
#X connect 108 0 112 1;
#X connect 109 0 113 1;
#X connect 110 0 114 1;
#X connect 111 0 35 0;
#X connect 112 0 37 0;
#X connect 113 0 38 0;
#X connect 114 0 36 0;
#X coords 0 -1 1 1 150 20 2 100 100;
