#N canvas 355 67 1436 798 10;
#X obj 100 100 cnv 15 590 110 empty empty empty 20 12 0 14 -55397 -66577
0;
#X obj 40 604 s \$0-damping;
#X obj 143 605 s \$0-feedback;
#X obj 40 579 * 44100;
#X obj 41 557 expr pow($f1 \, 4);
#X obj 41 509 * 0.9;
#X obj 41 533 + 0.1;
#X obj 709 291 *~ 1;
#X obj 715 359 *~ 1;
#N canvas 348 66 830 530 LEFT 0;
#N canvas 388 22 522 372 comb-1 0;
#X obj 216 112 r \$0-damping;
#X obj 152 208 delwrite~ \$0-rev1 26;
#X obj 154 146 lop~ 20000;
#X obj 154 169 *~ 0.5;
#X obj 155 61 delread~ \$0-rev1 25.3061;
#X obj 72 37 inlet~;
#X obj 67 234 outlet~;
#X obj 233 147 r \$0-feedback;
#X floatatom 259 172 5 0 0 0 - - -;
#X connect 0 0 2 1;
#X connect 2 0 3 0;
#X connect 3 0 1 0;
#X connect 3 0 6 0;
#X connect 4 0 2 0;
#X connect 5 0 1 0;
#X connect 7 0 3 1;
#X connect 7 0 8 0;
#X restore -13 181 pd comb-1;
#N canvas 549 236 494 344 comb-2 0;
#X obj 236 93 r \$0-damping;
#X obj 174 127 lop~ 20000;
#X obj 174 150 *~ 0.5;
#X obj 90 36 inlet~;
#X obj 88 231 outlet~;
#X obj 253 128 r \$0-feedback;
#X obj 169 63 delread~ \$0-rev2 26.9388;
#X obj 171 202 delwrite~ \$0-rev2 27;
#X connect 0 0 1 1;
#X connect 1 0 2 0;
#X connect 2 0 7 0;
#X connect 2 0 4 0;
#X connect 3 0 7 0;
#X connect 5 0 2 1;
#X connect 6 0 1 0;
#X restore 49 181 pd comb-2;
#N canvas 400 75 490 340 comb-3 0;
#X obj 203 102 r \$0-damping;
#X obj 141 136 lop~ 20000;
#X obj 139 165 *~ 0.5;
#X obj 57 43 inlet~;
#X obj 57 248 outlet~;
#X obj 220 137 r \$0-feedback;
#X obj 117 67 delread~ \$0-rev3 28.9569;
#X obj 137 210 delwrite~ \$0-rev3 29;
#X connect 0 0 1 1;
#X connect 1 0 2 0;
#X connect 2 0 7 0;
#X connect 2 0 4 0;
#X connect 3 0 7 0;
#X connect 5 0 2 1;
#X connect 6 0 1 0;
#X restore 110 181 pd comb-3;
#N canvas 746 118 494 344 comb-4 0;
#X obj 244 103 r \$0-damping;
#X obj 182 137 lop~ 20000;
#X obj 182 160 *~ 0.5;
#X obj 90 36 inlet~;
#X obj 88 231 outlet~;
#X obj 261 138 r \$0-feedback;
#X obj 175 73 delread~ \$0-rev4 30.7483;
#X obj 171 206 delwrite~ \$0-rev4 31;
#X connect 0 0 1 1;
#X connect 1 0 2 0;
#X connect 2 0 7 0;
#X connect 2 0 4 0;
#X connect 3 0 7 0;
#X connect 5 0 2 1;
#X connect 6 0 1 0;
#X restore 172 181 pd comb-4;
#N canvas 805 59 474 324 comb-5 0;
#X obj 196 95 r \$0-damping;
#X obj 134 129 lop~ 20000;
#X obj 134 152 *~ 0.5;
#X obj 90 36 inlet~;
#X obj 88 231 outlet~;
#X obj 213 130 r \$0-feedback;
#X obj 135 61 delread~ \$0-rev5 34.2449;
#X obj 132 203 delwrite~ \$0-rev5 35;
#X connect 0 0 1 1;
#X connect 1 0 2 0;
#X connect 2 0 7 0;
#X connect 2 0 4 0;
#X connect 3 0 7 0;
#X connect 5 0 2 1;
#X connect 6 0 1 0;
#X restore 234 181 pd comb-5;
#N canvas 702 107 474 324 comb-6 0;
#X obj 238 87 r \$0-damping;
#X obj 176 121 lop~ 20000;
#X obj 176 144 *~ 0.5;
#X obj 90 36 inlet~;
#X obj 88 231 outlet~;
#X obj 255 122 r \$0-feedback;
#X obj 238 54 delread~ \$0-rev6 33.8095;
#X obj 177 197 delwrite~ \$0-rev6 34;
#X connect 0 0 1 1;
#X connect 1 0 2 0;
#X connect 2 0 4 0;
#X connect 2 0 7 0;
#X connect 3 0 7 0;
#X connect 5 0 2 1;
#X connect 6 0 1 0;
#X restore 296 181 pd comb-6;
#N canvas 552 280 474 324 comb-7 0;
#X obj 193 101 r \$0-damping;
#X obj 131 135 lop~ 20000;
#X obj 131 158 *~ 0.5;
#X obj 80 50 inlet~;
#X obj 88 231 outlet~;
#X obj 210 136 r \$0-feedback;
#X obj 194 70 delread~ \$0-rev7 35.7596;
#X obj 129 207 delwrite~ \$0-rev7 36;
#X connect 0 0 1 1;
#X connect 1 0 2 0;
#X connect 2 0 4 0;
#X connect 2 0 7 0;
#X connect 3 0 7 0;
#X connect 5 0 2 1;
#X connect 6 0 1 0;
#X restore 357 181 pd comb-7;
#N canvas 582 455 478 328 comb-8 0;
#X obj 202 100 r \$0-damping;
#X obj 140 134 lop~ 20000;
#X obj 140 157 *~ 0.5;
#X obj 90 36 inlet~;
#X obj 88 231 outlet~;
#X obj 219 135 r \$0-feedback;
#X obj 204 67 delread~ \$0-rev8 36.6667;
#X obj 140 205 delwrite~ \$0-rev8 37;
#X connect 0 0 1 1;
#X connect 1 0 2 0;
#X connect 2 0 4 0;
#X connect 2 0 7 0;
#X connect 3 0 7 0;
#X connect 5 0 2 1;
#X connect 6 0 1 0;
#X restore 419 181 pd comb-8;
#N canvas 376 127 648 562 allpass-1 0;
#X obj 168 346 inlet~;
#X obj 218 423 *~ 0.5;
#X obj 218 400 delread~ \$0-fbcf-1 12.6077;
#X obj 168 424 outlet~;
#X obj 218 447 delwrite~ \$0-fbcf-1 13;
#X obj 168 391 *~ -1;
#X connect 0 0 5 0;
#X connect 0 0 4 0;
#X connect 1 0 4 0;
#X connect 2 0 1 0;
#X connect 2 0 3 0;
#X connect 5 0 3 0;
#X restore 241 319 pd allpass-1;
#N canvas 0 22 640 554 allpass-2 0;
#X obj 186 65 inlet~;
#X obj 245 422 *~ 0.5;
#X obj 175 490 outlet~;
#X obj 168 391 *~ -1;
#X obj 213 389 delread~ \$0-fbcf-2 10;
#X obj 439 474 delwrite~ \$0-fbcf-2 11;
#X connect 0 0 3 0;
#X connect 0 0 5 0;
#X connect 1 0 5 0;
#X connect 3 0 2 0;
#X connect 4 0 1 0;
#X connect 4 0 2 0;
#X restore 241 339 pd allpass-2;
#N canvas 0 22 644 558 allpass-3 0;
#X obj 186 65 inlet~;
#X obj 245 422 *~ 0.5;
#X obj 175 490 outlet~;
#X obj 168 391 *~ -1;
#X obj 213 389 delread~ \$0-fbcf-3 7.77324;
#X obj 437 474 delwrite~ \$0-fbcf-3 8;
#X connect 0 0 3 0;
#X connect 0 0 5 0;
#X connect 1 0 5 0;
#X connect 3 0 2 0;
#X connect 4 0 1 0;
#X connect 4 0 2 0;
#X restore 240 360 pd allpass-3;
#N canvas 0 22 636 550 allpass-4 0;
#X obj 186 65 inlet~;
#X obj 245 422 *~ 0.5;
#X obj 175 490 outlet~;
#X obj 168 391 *~ -1;
#X obj 214 389 delread~ \$0-fbcf-4 5.10204;
#X obj 437 474 delwrite~ \$0-fbcf-4 6;
#X connect 0 0 3 0;
#X connect 0 0 5 0;
#X connect 1 0 5 0;
#X connect 3 0 2 0;
#X connect 4 0 1 0;
#X connect 4 0 2 0;
#X restore 242 381 pd allpass-4;
#X obj 241 300 *~ 0.25;
#X obj 234 90 *~ 0.05;
#X obj 244 469 outlet~;
#X obj 234 45 inlet~;
#N canvas 256 222 522 372 comb-9 0;
#X obj 154 146 lop~ 20000;
#X obj 154 169 *~ 0.5;
#X obj 72 37 inlet~;
#X obj 67 234 outlet~;
#X obj 155 61 delread~ \$0-rev9 37.3061;
#X obj 152 208 delwrite~ \$0-rev9 38;
#X obj 216 112 r \$0-damping2;
#X obj 233 147 r \$0-feedback2;
#X connect 0 0 1 0;
#X connect 1 0 3 0;
#X connect 1 0 5 0;
#X connect 2 0 5 0;
#X connect 4 0 0 0;
#X connect 6 0 0 1;
#X connect 7 0 1 1;
#X restore 315 262 pd comb-9;
#N canvas 549 236 494 344 comb-10 0;
#X obj 174 127 lop~ 20000;
#X obj 174 150 *~ 0.5;
#X obj 90 36 inlet~;
#X obj 88 231 outlet~;
#X obj 169 63 delread~ \$0-rev10 38.9388;
#X obj 171 202 delwrite~ \$0-rev10 39;
#X obj 236 93 r \$0-damping2;
#X obj 253 128 r \$0-feedback2;
#X connect 0 0 1 0;
#X connect 1 0 3 0;
#X connect 1 0 5 0;
#X connect 2 0 5 0;
#X connect 4 0 0 0;
#X connect 6 0 0 1;
#X connect 7 0 1 1;
#X restore 377 262 pd comb-10;
#N canvas 400 75 490 340 comb-11 0;
#X obj 141 136 lop~ 20000;
#X obj 139 165 *~ 0.5;
#X obj 57 43 inlet~;
#X obj 57 248 outlet~;
#X obj 117 67 delread~ \$0-rev11 39.9569;
#X obj 137 210 delwrite~ \$0-rev11 40;
#X obj 203 102 r \$0-damping2;
#X obj 220 137 r \$0-feedback2;
#X connect 0 0 1 0;
#X connect 1 0 3 0;
#X connect 1 0 5 0;
#X connect 2 0 5 0;
#X connect 4 0 0 0;
#X connect 6 0 0 1;
#X connect 7 0 1 1;
#X restore 438 262 pd comb-11;
#N canvas 746 118 494 344 comb-12 0;
#X obj 182 137 lop~ 20000;
#X obj 182 160 *~ 0.5;
#X obj 90 36 inlet~;
#X obj 88 231 outlet~;
#X obj 175 73 delread~ \$0-rev12 40.7483;
#X obj 171 206 delwrite~ \$0-rev12 41;
#X obj 244 103 r \$0-damping2;
#X obj 261 138 r \$0-feedback2;
#X connect 0 0 1 0;
#X connect 1 0 3 0;
#X connect 1 0 5 0;
#X connect 2 0 5 0;
#X connect 4 0 0 0;
#X connect 6 0 0 1;
#X connect 7 0 1 1;
#X restore 500 262 pd comb-12;
#N canvas 805 59 474 324 comb-13 0;
#X obj 134 129 lop~ 20000;
#X obj 134 152 *~ 0.5;
#X obj 90 36 inlet~;
#X obj 88 231 outlet~;
#X obj 135 61 delread~ \$0-rev13 41.2449;
#X obj 132 203 delwrite~ \$0-rev13 42;
#X obj 196 95 r \$0-damping2;
#X obj 213 130 r \$0-feedback2;
#X connect 0 0 1 0;
#X connect 1 0 3 0;
#X connect 1 0 5 0;
#X connect 2 0 5 0;
#X connect 4 0 0 0;
#X connect 6 0 0 1;
#X connect 7 0 1 1;
#X restore 562 262 pd comb-13;
#N canvas 702 107 474 324 comb-14 0;
#X obj 176 121 lop~ 20000;
#X obj 176 144 *~ 0.5;
#X obj 90 36 inlet~;
#X obj 88 231 outlet~;
#X obj 238 54 delread~ \$0-rev14 42.8095;
#X obj 238 87 r \$0-damping2;
#X obj 255 122 r \$0-feedback2;
#X obj 177 197 delwrite~ \$0-rev14 43;
#X connect 0 0 1 0;
#X connect 1 0 3 0;
#X connect 1 0 7 0;
#X connect 2 0 7 0;
#X connect 4 0 0 0;
#X connect 5 0 0 1;
#X connect 6 0 1 1;
#X restore 624 262 pd comb-14;
#N canvas 742 153 474 324 comb-15 0;
#X obj 131 135 lop~ 20000;
#X obj 131 158 *~ 0.5;
#X obj 80 50 inlet~;
#X obj 88 231 outlet~;
#X obj 194 70 delread~ \$0-rev15 44.7596;
#X obj 129 207 delwrite~ \$0-rev15 45;
#X obj 193 101 r \$0-damping2;
#X obj 210 136 r \$0-feedback2;
#X connect 0 0 1 0;
#X connect 1 0 3 0;
#X connect 1 0 5 0;
#X connect 2 0 5 0;
#X connect 4 0 0 0;
#X connect 6 0 0 1;
#X connect 7 0 1 1;
#X restore 685 262 pd comb-15;
#N canvas 731 107 478 328 comb-16 0;
#X obj 140 134 lop~ 20000;
#X obj 140 157 *~ 0.5;
#X obj 90 36 inlet~;
#X obj 88 231 outlet~;
#X obj 140 205 delwrite~ \$0-rev16 47;
#X obj 204 67 delread~ \$0-rev16 46.6667;
#X obj 202 100 r \$0-damping2;
#X obj 219 135 r \$0-feedback2;
#X connect 0 0 1 0;
#X connect 1 0 3 0;
#X connect 1 0 4 0;
#X connect 2 0 4 0;
#X connect 5 0 0 0;
#X connect 6 0 0 1;
#X connect 7 0 1 1;
#X restore 747 262 pd comb-16;
#X obj 532 321 *~ 0.25;
#X obj 535 490 outlet~;
#X obj 547 198 *~ 0.05;
#X obj 547 159 inlet~;
#N canvas 376 127 648 562 allpass-5 0;
#X obj 186 65 inlet~;
#X obj 245 422 *~ 0.5;
#X obj 175 490 outlet~;
#X obj 168 391 *~ -1;
#X obj 213 389 delread~ \$0-fbcf-5 12.6077;
#X obj 437 474 delwrite~ \$0-fbcf-5 13;
#X connect 0 0 3 0;
#X connect 0 0 5 0;
#X connect 1 0 5 0;
#X connect 3 0 2 0;
#X connect 4 0 1 0;
#X connect 4 0 2 0;
#X restore 532 340 pd allpass-5;
#N canvas 0 22 644 558 allpass-7 0;
#X obj 186 65 inlet~;
#X obj 245 422 *~ 0.5;
#X obj 175 490 outlet~;
#X obj 168 391 *~ -1;
#X obj 213 389 delread~ \$0-fbcf-7 7.77324;
#X obj 437 474 delwrite~ \$0-fbcf-7 8;
#X connect 0 0 3 0;
#X connect 0 0 5 0;
#X connect 1 0 5 0;
#X connect 3 0 2 0;
#X connect 4 0 1 0;
#X connect 4 0 2 0;
#X restore 531 379 pd allpass-7;
#N canvas 0 22 636 550 allpass-8 0;
#X obj 186 65 inlet~;
#X obj 245 422 *~ 0.5;
#X obj 175 490 outlet~;
#X obj 168 391 *~ -1;
#X obj 214 389 delread~ \$0-fbcf-8 5.10204;
#X obj 437 474 delwrite~ \$0-fbcf-8 6;
#X connect 0 0 3 0;
#X connect 0 0 5 0;
#X connect 1 0 5 0;
#X connect 3 0 2 0;
#X connect 4 0 1 0;
#X connect 4 0 2 0;
#X restore 533 402 pd allpass-8;
#N canvas 0 22 640 554 allpass-6 0;
#X obj 186 65 inlet~;
#X obj 245 422 *~ 0.5;
#X obj 175 490 outlet~;
#X obj 168 391 *~ -1;
#X obj 213 389 delread~ \$0-fbcf-6 10;
#X obj 439 473 delwrite~ \$0-fbcf-6 11;
#X connect 0 0 3 0;
#X connect 0 0 5 0;
#X connect 1 0 5 0;
#X connect 3 0 2 0;
#X connect 4 0 1 0;
#X connect 4 0 2 0;
#X restore 532 360 pd allpass-6;
#X floatatom 167 371 5 0 0 0 - - -;
#X obj 167 351 r \$0-vo;
#X obj 625 305 r \$0-vo1;
#X connect 0 0 12 0;
#X connect 1 0 12 0;
#X connect 2 0 12 0;
#X connect 3 0 12 0;
#X connect 4 0 12 0;
#X connect 5 0 12 0;
#X connect 6 0 12 0;
#X connect 7 0 12 0;
#X connect 8 0 9 0;
#X connect 9 0 10 0;
#X connect 10 0 11 0;
#X connect 11 0 14 0;
#X connect 12 0 8 0;
#X connect 13 0 0 0;
#X connect 13 0 1 0;
#X connect 13 0 2 0;
#X connect 13 0 3 0;
#X connect 13 0 4 0;
#X connect 13 0 5 0;
#X connect 13 0 6 0;
#X connect 13 0 7 0;
#X connect 15 0 13 0;
#X connect 16 0 24 0;
#X connect 17 0 24 0;
#X connect 18 0 24 0;
#X connect 19 0 24 0;
#X connect 20 0 24 0;
#X connect 21 0 24 0;
#X connect 22 0 24 0;
#X connect 23 0 24 0;
#X connect 24 0 28 0;
#X connect 26 0 16 0;
#X connect 26 0 17 0;
#X connect 26 0 18 0;
#X connect 26 0 19 0;
#X connect 26 0 20 0;
#X connect 26 0 21 0;
#X connect 26 0 22 0;
#X connect 26 0 23 0;
#X connect 27 0 26 0;
#X connect 28 0 31 0;
#X connect 29 0 30 0;
#X connect 30 0 25 0;
#X connect 31 0 29 0;
#X connect 33 0 12 1;
#X connect 33 0 32 0;
#X connect 34 0 24 1;
#X restore 749 305 pd LEFT;
#X obj 143 569 * 0.28;
#X obj 143 587 + 0.7;
#X obj 143 497 - 1;
#X obj 143 533 - 1;
#X obj 143 551 abs;
#X obj 143 515 expr pow($f1 \, 4);
#X obj 243 580 * 44100;
#X obj 244 558 expr pow($f1 \, 4);
#X obj 244 510 * 0.9;
#X obj 244 534 + 0.1;
#X obj 243 605 s \$0-damping2;
#X obj 345 571 * 0.28;
#X obj 345 589 + 0.7;
#X obj 345 499 - 1;
#X obj 345 535 - 1;
#X obj 345 553 abs;
#X obj 345 517 expr pow($f1 \, 4);
#X obj 345 607 s \$0-feedback2;
#X obj 793 368 *~ 1;
#X obj 128 -12 randomF 1;
#X floatatom 127 36 5 0 0 0 - - -;
#X obj 128 -31 metro;
#X obj 206 -10 randomF 1;
#X floatatom 205 33 5 0 0 0 - - -;
#X obj 206 -29 metro;
#X obj 833 294 *~ 1;
#X obj 244 490 r \$0-dam2;
#X obj 42 486 r \$0-dam;
#X obj 143 479 r \$0-feb;
#X obj 345 481 r \$0-feb2;
#X obj 311 -30 randomF 1;
#X floatatom 311 25 5 0 0 0 - - -;
#X obj 311 -49 metro;
#X obj 377 8 randomF 1;
#X obj 377 -11 metro;
#X floatatom 433 80 5 0 0 0 - - -;
#X obj 311 6 line;
#X obj 311 -12 pack 0 500;
#X obj 433 44 pack 0 800;
#X obj 433 62 line;
#X obj 388 27 moses 0.2;
#X floatatom 467 -29 5 0 100 0 - - -;
#X obj 468 -10 / 100;
#X floatatom 468 8 5 0 0 0 - - -;
#X obj 466 122 vsl 15 60 0 1 0 0 \$0-vo \$0-volr empty 0 -9 0 10 -121454
-262130 -1 4400 0;
#X obj 484 122 vsl 15 60 0 1 0 0 \$0-vo1 \$0-voll empty 0 -9 0 10 -121454
-262130 -1 4400 0;
#X obj 519 115 switch~;
#X obj 484 100 tgl 15 0 \$0-rvswitch \$0-rrvswitch empty 17 7 0 10
-262144 -1 -1 1 1;
#X obj 128 -49 r \$0-metda;
#X obj 155 -66 r \$0-numetda;
#X obj 206 -48 r \$0-metda2;
#X obj 233 -65 r \$0-numetda2;
#X obj 311 -86 r \$0-metwet;
#X obj 338 -67 r \$0-numetwet;
#X obj 377 -49 r \$0-metwet2;
#X obj 376 -30 r \$0-numetwet2;
#N canvas 112 82 1218 737 presets 0;
#X obj -69 238 r \$0-metda;
#X obj -69 272 s \$0-rmetda;
#X obj 2 272 r \$0-metda2;
#X obj 2 306 s \$0-rmetda2;
#X obj -71 -133 r \$0-dam;
#X obj -72 -93 s \$0-da;
#X obj -12 -94 r \$0-dam2;
#X obj -71 307 r \$0-metwet;
#X obj -71 341 s \$0-rmetwet;
#X obj 5 341 r \$0-metwet2;
#X obj 5 375 s \$0-rmetwet2;
#X obj 83 -134 r \$0-wet;
#X obj 83 -100 s \$0-we;
#X obj -11 -58 s \$0-da2;
#X obj 144 -99 r \$0-wet2;
#X obj 144 -62 s \$0-we2;
#X obj -72 -58 r \$0-feb;
#X obj -72 -21 s \$0-fb;
#X obj -22 -19 r \$0-feb2;
#X obj -22 20 s \$0-fb2;
#X obj -77 21 r \$0-dry;
#X obj -77 60 s \$0-dr;
#X obj 131 -42 r \$0-dry1;
#X obj 131 -8 s \$0-dr1;
#X obj 67 21 r \$0-vo;
#X obj 67 54 s \$0-volr;
#X obj -28 93 s \$0-voll;
#X obj -28 59 r \$0-vo1;
#X obj -70 113 r \$0-numetda;
#X obj -70 149 s \$0-rnumetda;
#X obj -71 168 r \$0-numetda2;
#X obj -71 203 s \$0-rnumetda2;
#X obj 86 98 r \$0-numetwet;
#X obj 86 132 s \$0-rnumetwet;
#X obj 91 150 r \$0-numetwet2;
#X obj 91 185 s \$0-rnumetwet2;
#X obj -72 -171 inlet;
#X obj -11 -171 inlet;
#X obj 83 -174 inlet;
#X obj 144 -172 inlet;
#X obj 17 203 r \$0-rvswitch;
#X obj 17 237 s \$0-rrvswitch;
#X obj -71 -113 save.me.mmb rv2da rvrbf;
#X obj 83 -118 save.me.mmb rv2wet rvrbf;
#X obj 144 -81 save.me.mmb rv2wet2 rvrbf;
#X obj -12 -76 save.me.mmb rv2da2 rvrbf;
#X obj -72 -39 save.me.mmb rv2feb rvrbf;
#X obj 131 -25 save.me.mmb rv2dry2 rvrbf;
#X obj -22 1 save.me.mmb rv2feb2 rvrbf;
#X obj -77 40 save.me.mmb rv2dry rvrbf;
#X obj 67 38 save.me.mmb rv2volr rvrbf;
#X obj -28 76 save.me.mmb rv2voll rvrbf;
#X obj 86 115 save.me.mmb rv2numwet rvrbf;
#X obj -70 131 save.me.mmb rv2numda rvrbf;
#X obj 91 167 save.me.mmb rv2numwet2 rvrbf;
#X obj -71 185 save.me.mmb rv2numda2 rvrbf;
#X obj 17 220 save.me.mmb rv2swit rvrbf;
#X obj -69 255 save.me.mmb rv2metda rvrbf;
#X obj 2 289 save.me.mmb rv2metda2 rvrbf;
#X obj -71 324 save.me.mmb rv2metwet rvrbf;
#X obj 5 358 save.me.mmb rv2metwet2 rvrbf;
#X obj 309 -175 inlet;
#X obj 365 -170 inlet;
#X obj 459 -173 inlet;
#X obj 520 -171 inlet;
#X obj 310 -135 r \$0-dam3;
#X obj 364 -67 r \$0-dam4;
#X obj 459 -133 r \$0-wet3;
#X obj 520 -66 r \$0-wet4;
#X obj 307 -2 r \$0-feb3;
#X obj 307 35 s \$0-fb3;
#X obj 365 -31 s \$0-da4;
#X obj 462 -3 r \$0-feb4;
#X obj 310 -99 s \$0-da3;
#X obj 307 53 r \$0-dry3;
#X obj 307 92 s \$0-dr3;
#X obj 459 -99 s \$0-we3;
#X obj 520 -29 s \$0-we4;
#X obj 306 114 r \$0-numetda3;
#X obj 306 150 s \$0-rnumetda3;
#X obj 307 185 r \$0-numetda4;
#X obj 307 221 s \$0-rnumetda4;
#X obj 307 239 r \$0-metda3;
#X obj 307 273 s \$0-rmetda3;
#X obj 298 319 r \$0-metwet3;
#X obj 298 353 s \$0-rmetwet3;
#X obj 381 404 s \$0-rmetwet4;
#X obj 381 370 r \$0-metwet4;
#X obj 386 317 s \$0-rmetda4;
#X obj 386 283 r \$0-metda4;
#X obj 381 387 save.me.mmb rvmetwet4 rvrbf;
#X obj 298 336 save.me.mmb rvmetwet3 rvrbf;
#X obj 386 300 save.me.mmb rvmetda4 rvrbf;
#X obj 307 256 save.me.mmb rvmetda3 rvrbf;
#X obj 307 202 save.me.mmb rvnumda4 rvrbf;
#X obj 469 221 save.me.mmb rvnumwet4 rvrbf;
#X obj 469 239 s \$0-rnumetwet4;
#X obj 469 204 r \$0-numetwet4;
#X obj 465 150 r \$0-numetwet3;
#X obj 465 167 save.me.mmb rvnumwet3 rvrbf;
#X obj 465 184 s \$0-rnumetwet3;
#X obj 306 132 save.me.mmb rvnumda3 rvrbf;
#X obj 307 72 save.me.mmb rvdry3 rvrbf;
#X obj 461 56 r \$0-dry4;
#X obj 461 73 save.me.mmb rvdry4 rvrbf;
#X obj 461 90 s \$0-dr4;
#X obj 462 36 s \$0-fb4;
#X obj 462 17 save.me.mmb rvfeb4 rvrbf;
#X obj 307 17 save.me.mmb rvfeb3 rvrbf;
#X obj 520 -48 save.me.mmb rvwet4 rvrbf;
#X obj 459 -117 save.me.mmb rvwet3 rvrbf;
#X obj 364 -49 save.me.mmb rvda4 rvrbf;
#X obj 310 -117 save.me.mmb rvda3 rvrbf;
#X connect 0 0 57 0;
#X connect 2 0 58 0;
#X connect 4 0 42 0;
#X connect 6 0 45 0;
#X connect 7 0 59 0;
#X connect 9 0 60 0;
#X connect 11 0 43 0;
#X connect 14 0 44 0;
#X connect 16 0 46 0;
#X connect 18 0 48 0;
#X connect 20 0 49 0;
#X connect 22 0 47 0;
#X connect 24 0 50 0;
#X connect 27 0 51 0;
#X connect 28 0 53 0;
#X connect 30 0 55 0;
#X connect 32 0 52 0;
#X connect 34 0 54 0;
#X connect 36 0 5 0;
#X connect 37 0 13 0;
#X connect 38 0 12 0;
#X connect 39 0 15 0;
#X connect 40 0 56 0;
#X connect 42 0 5 0;
#X connect 43 0 12 0;
#X connect 44 0 15 0;
#X connect 45 0 13 0;
#X connect 46 0 17 0;
#X connect 47 0 23 0;
#X connect 48 0 19 0;
#X connect 49 0 21 0;
#X connect 50 0 25 0;
#X connect 51 0 26 0;
#X connect 52 0 33 0;
#X connect 53 0 29 0;
#X connect 54 0 35 0;
#X connect 55 0 31 0;
#X connect 56 0 41 0;
#X connect 57 0 1 0;
#X connect 58 0 3 0;
#X connect 59 0 8 0;
#X connect 60 0 10 0;
#X connect 61 0 73 0;
#X connect 62 0 71 0;
#X connect 63 0 76 0;
#X connect 64 0 77 0;
#X connect 65 0 112 0;
#X connect 66 0 111 0;
#X connect 67 0 110 0;
#X connect 68 0 109 0;
#X connect 69 0 108 0;
#X connect 72 0 107 0;
#X connect 74 0 102 0;
#X connect 78 0 101 0;
#X connect 80 0 94 0;
#X connect 82 0 93 0;
#X connect 84 0 91 0;
#X connect 87 0 90 0;
#X connect 89 0 92 0;
#X connect 90 0 86 0;
#X connect 91 0 85 0;
#X connect 92 0 88 0;
#X connect 93 0 83 0;
#X connect 94 0 81 0;
#X connect 95 0 96 0;
#X connect 97 0 95 0;
#X connect 98 0 99 0;
#X connect 99 0 100 0;
#X connect 101 0 79 0;
#X connect 102 0 75 0;
#X connect 103 0 104 0;
#X connect 104 0 105 0;
#X connect 107 0 106 0;
#X connect 108 0 70 0;
#X connect 109 0 77 0;
#X connect 110 0 76 0;
#X connect 111 0 71 0;
#X connect 112 0 73 0;
#X restore 341 74 pd presets;
#X obj 732 337 r \$0-wet;
#X obj 817 345 r \$0-wet2;
#X obj 731 270 r \$0-dry;
#X obj 851 274 r \$0-dry2;
#X obj 38 -48 r flutepres;
#X obj 37 -22 sel 1 2;
#X msg 36 1 0.7;
#X msg 79 2 0.3;
#X obj 950 278 *~ 1;
#N canvas 189 66 830 530 LEFT 0;
#N canvas 388 22 522 372 comb-1 0;
#X obj 154 146 lop~ 20000;
#X obj 154 169 *~ 0.5;
#X obj 72 37 inlet~;
#X obj 67 234 outlet~;
#X floatatom 259 172 5 0 0 0 - - -;
#X obj 216 112 r \$0-damping3;
#X obj 233 147 r \$0-feedback3;
#X obj 155 61 delread~ \$0-rev17 25.3061;
#X obj 152 208 delwrite~ \$0-rev17 26;
#X connect 0 0 1 0;
#X connect 1 0 3 0;
#X connect 1 0 8 0;
#X connect 2 0 8 0;
#X connect 5 0 0 1;
#X connect 6 0 1 1;
#X connect 6 0 4 0;
#X connect 7 0 0 0;
#X restore -13 181 pd comb-1;
#N canvas 549 236 494 344 comb-2 0;
#X obj 174 127 lop~ 20000;
#X obj 174 150 *~ 0.5;
#X obj 90 36 inlet~;
#X obj 88 231 outlet~;
#X obj 236 93 r \$0-damping3;
#X obj 253 128 r \$0-feedback3;
#X obj 169 63 delread~ \$0-rev18 26.9388;
#X obj 171 202 delwrite~ \$0-rev18 27;
#X connect 0 0 1 0;
#X connect 1 0 3 0;
#X connect 1 0 7 0;
#X connect 2 0 7 0;
#X connect 4 0 0 1;
#X connect 5 0 1 1;
#X connect 6 0 0 0;
#X restore 49 181 pd comb-2;
#N canvas 400 75 490 340 comb-3 0;
#X obj 141 136 lop~ 20000;
#X obj 139 165 *~ 0.5;
#X obj 57 43 inlet~;
#X obj 57 248 outlet~;
#X obj 203 102 r \$0-damping3;
#X obj 220 137 r \$0-feedback3;
#X obj 117 67 delread~ \$0-rev19 28.9569;
#X obj 137 210 delwrite~ \$0-rev19 29;
#X connect 0 0 1 0;
#X connect 1 0 3 0;
#X connect 1 0 7 0;
#X connect 2 0 7 0;
#X connect 4 0 0 1;
#X connect 5 0 1 1;
#X connect 6 0 0 0;
#X restore 110 181 pd comb-3;
#N canvas 396 135 494 344 comb-4 0;
#X obj 182 137 lop~ 20000;
#X obj 182 160 *~ 0.5;
#X obj 90 36 inlet~;
#X obj 88 231 outlet~;
#X obj 244 103 r \$0-damping3;
#X obj 261 138 r \$0-feedback3;
#X obj 175 73 delread~ \$0-rev20 30.7483;
#X obj 171 206 delwrite~ \$0-rev20 31;
#X connect 0 0 1 0;
#X connect 1 0 3 0;
#X connect 1 0 7 0;
#X connect 2 0 7 0;
#X connect 4 0 0 1;
#X connect 5 0 1 1;
#X connect 6 0 0 0;
#X restore 172 181 pd comb-4;
#N canvas 368 150 474 324 comb-5 0;
#X obj 134 129 lop~ 20000;
#X obj 134 152 *~ 0.5;
#X obj 90 36 inlet~;
#X obj 88 231 outlet~;
#X obj 196 95 r \$0-damping3;
#X obj 213 130 r \$0-feedback3;
#X obj 135 61 delread~ \$0-rev21 34.2449;
#X obj 132 203 delwrite~ \$0-rev21 35;
#X connect 0 0 1 0;
#X connect 1 0 3 0;
#X connect 1 0 7 0;
#X connect 2 0 7 0;
#X connect 4 0 0 1;
#X connect 5 0 1 1;
#X connect 6 0 0 0;
#X restore 234 181 pd comb-5;
#N canvas 373 127 474 324 comb-6 0;
#X obj 176 121 lop~ 20000;
#X obj 176 144 *~ 0.5;
#X obj 90 36 inlet~;
#X obj 88 231 outlet~;
#X obj 238 87 r \$0-damping3;
#X obj 255 122 r \$0-feedback3;
#X obj 238 54 delread~ \$0-rev22 33.8095;
#X obj 177 197 delwrite~ \$0-rev22 34;
#X connect 0 0 1 0;
#X connect 1 0 3 0;
#X connect 1 0 7 0;
#X connect 2 0 7 0;
#X connect 4 0 0 1;
#X connect 5 0 1 1;
#X connect 6 0 0 0;
#X restore 296 181 pd comb-6;
#N canvas 552 280 474 324 comb-7 0;
#X obj 131 135 lop~ 20000;
#X obj 131 158 *~ 0.5;
#X obj 80 50 inlet~;
#X obj 88 231 outlet~;
#X obj 193 101 r \$0-damping3;
#X obj 210 136 r \$0-feedback3;
#X obj 194 70 delread~ \$0-rev23 35.7596;
#X obj 129 207 delwrite~ \$0-rev23 36;
#X connect 0 0 1 0;
#X connect 1 0 3 0;
#X connect 1 0 7 0;
#X connect 2 0 7 0;
#X connect 4 0 0 1;
#X connect 5 0 1 1;
#X connect 6 0 0 0;
#X restore 357 181 pd comb-7;
#N canvas 582 455 478 328 comb-8 0;
#X obj 140 134 lop~ 20000;
#X obj 140 157 *~ 0.5;
#X obj 90 36 inlet~;
#X obj 88 231 outlet~;
#X obj 202 98 r \$0-damping3;
#X obj 219 135 r \$0-feedback3;
#X obj 204 67 delread~ \$0-rev24 36.6667;
#X obj 140 205 delwrite~ \$0-rev24 37;
#X connect 0 0 1 0;
#X connect 1 0 3 0;
#X connect 1 0 7 0;
#X connect 2 0 7 0;
#X connect 4 0 0 1;
#X connect 5 0 1 1;
#X connect 6 0 0 0;
#X restore 419 181 pd comb-8;
#N canvas 376 127 648 562 allpass-1 0;
#X obj 186 65 inlet~;
#X obj 245 422 *~ 0.5;
#X obj 175 490 outlet~;
#X obj 168 391 *~ -1;
#X obj 213 389 delread~ \$0-fbcf-9 12.6077;
#X obj 437 474 delwrite~ \$0-fbcf-9 13;
#X connect 0 0 3 0;
#X connect 0 0 5 0;
#X connect 1 0 5 0;
#X connect 3 0 2 0;
#X connect 4 0 1 0;
#X connect 4 0 2 0;
#X restore 241 319 pd allpass-1;
#N canvas 0 22 640 554 allpass-2 0;
#X obj 186 65 inlet~;
#X obj 245 422 *~ 0.5;
#X obj 175 490 outlet~;
#X obj 168 391 *~ -1;
#X obj 213 389 delread~ \$0-fbcf-10 10;
#X obj 439 474 delwrite~ \$0-fbcf-10 11;
#X connect 0 0 3 0;
#X connect 0 0 5 0;
#X connect 1 0 5 0;
#X connect 3 0 2 0;
#X connect 4 0 1 0;
#X connect 4 0 2 0;
#X restore 241 339 pd allpass-2;
#N canvas 0 22 644 558 allpass-3 0;
#X obj 186 65 inlet~;
#X obj 245 422 *~ 0.5;
#X obj 175 490 outlet~;
#X obj 168 391 *~ -1;
#X obj 213 389 delread~ \$0-fbcf-11 7.77324;
#X obj 437 474 delwrite~ \$0-fbcf-11 8;
#X connect 0 0 3 0;
#X connect 0 0 5 0;
#X connect 1 0 5 0;
#X connect 3 0 2 0;
#X connect 4 0 1 0;
#X connect 4 0 2 0;
#X restore 240 360 pd allpass-3;
#N canvas 0 22 636 550 allpass-4 0;
#X obj 186 65 inlet~;
#X obj 245 422 *~ 0.5;
#X obj 175 490 outlet~;
#X obj 168 391 *~ -1;
#X obj 214 389 delread~ \$0-fbcf-12 5.10204;
#X obj 437 474 delwrite~ \$0-fbcf-12 6;
#X connect 0 0 3 0;
#X connect 0 0 5 0;
#X connect 1 0 5 0;
#X connect 3 0 2 0;
#X connect 4 0 1 0;
#X connect 4 0 2 0;
#X restore 242 381 pd allpass-4;
#X obj 241 300 *~ 0.25;
#X obj 234 90 *~ 0.05;
#X obj 244 469 outlet~;
#X obj 217 18 inlet~;
#N canvas 256 222 522 372 comb-9 0;
#X obj 154 146 lop~ 20000;
#X obj 154 169 *~ 0.5;
#X obj 72 37 inlet~;
#X obj 67 234 outlet~;
#X obj 216 112 r \$0-damping4;
#X obj 233 147 r \$0-feedback4;
#X obj 155 61 delread~ \$0-rev25 37.3061;
#X obj 152 208 delwrite~ \$0-rev25 38;
#X connect 0 0 1 0;
#X connect 1 0 3 0;
#X connect 1 0 7 0;
#X connect 2 0 7 0;
#X connect 4 0 0 1;
#X connect 5 0 1 1;
#X connect 6 0 0 0;
#X restore 315 262 pd comb-9;
#N canvas 549 236 494 344 comb-10 0;
#X obj 174 127 lop~ 20000;
#X obj 174 150 *~ 0.5;
#X obj 90 36 inlet~;
#X obj 88 231 outlet~;
#X obj 236 93 r \$0-damping4;
#X obj 253 128 r \$0-feedback4;
#X obj 169 63 delread~ \$0-rev26 38.9388;
#X obj 171 202 delwrite~ \$0-rev26 39;
#X connect 0 0 1 0;
#X connect 1 0 3 0;
#X connect 1 0 7 0;
#X connect 2 0 7 0;
#X connect 4 0 0 1;
#X connect 5 0 1 1;
#X connect 6 0 0 0;
#X restore 377 262 pd comb-10;
#N canvas 400 75 490 340 comb-11 0;
#X obj 141 136 lop~ 20000;
#X obj 139 165 *~ 0.5;
#X obj 57 43 inlet~;
#X obj 57 248 outlet~;
#X obj 203 102 r \$0-damping4;
#X obj 220 137 r \$0-feedback4;
#X obj 117 67 delread~ \$0-rev27 39.9569;
#X obj 137 210 delwrite~ \$0-rev27 40;
#X connect 0 0 1 0;
#X connect 1 0 3 0;
#X connect 1 0 7 0;
#X connect 2 0 7 0;
#X connect 4 0 0 1;
#X connect 5 0 1 1;
#X connect 6 0 0 0;
#X restore 438 262 pd comb-11;
#N canvas 447 118 494 344 comb-12 0;
#X obj 182 137 lop~ 20000;
#X obj 182 160 *~ 0.5;
#X obj 90 36 inlet~;
#X obj 88 231 outlet~;
#X obj 244 103 r \$0-damping4;
#X obj 261 138 r \$0-feedback4;
#X obj 175 73 delread~ \$0-rev28 40.7483;
#X obj 171 206 delwrite~ \$0-rev28 41;
#X connect 0 0 1 0;
#X connect 1 0 3 0;
#X connect 1 0 7 0;
#X connect 2 0 7 0;
#X connect 4 0 0 1;
#X connect 5 0 1 1;
#X connect 6 0 0 0;
#X restore 500 262 pd comb-12;
#N canvas 441 63 474 324 comb-13 0;
#X obj 134 129 lop~ 20000;
#X obj 134 152 *~ 0.5;
#X obj 90 36 inlet~;
#X obj 88 231 outlet~;
#X obj 196 95 r \$0-damping4;
#X obj 213 130 r \$0-feedback4;
#X obj 135 61 delread~ \$0-rev29 41.2449;
#X obj 132 203 delwrite~ \$0-rev29 42;
#X connect 0 0 1 0;
#X connect 1 0 3 0;
#X connect 1 0 7 0;
#X connect 2 0 7 0;
#X connect 4 0 0 1;
#X connect 5 0 1 1;
#X connect 6 0 0 0;
#X restore 562 262 pd comb-13;
#N canvas 375 146 474 324 comb-14 0;
#X obj 176 121 lop~ 20000;
#X obj 176 144 *~ 0.5;
#X obj 90 36 inlet~;
#X obj 88 231 outlet~;
#X obj 238 87 r \$0-damping4;
#X obj 255 122 r \$0-feedback4;
#X obj 238 54 delread~ \$0-rev30 42.8095;
#X obj 177 197 delwrite~ \$0-rev30 43;
#X connect 0 0 1 0;
#X connect 1 0 3 0;
#X connect 1 0 7 0;
#X connect 2 0 7 0;
#X connect 4 0 0 1;
#X connect 5 0 1 1;
#X connect 6 0 0 0;
#X restore 624 262 pd comb-14;
#N canvas 317 164 474 324 comb-15 0;
#X obj 131 135 lop~ 20000;
#X obj 131 158 *~ 0.5;
#X obj 80 50 inlet~;
#X obj 88 231 outlet~;
#X obj 193 101 r \$0-damping4;
#X obj 210 136 r \$0-feedback4;
#X obj 194 70 delread~ \$0-rev31 44.7596;
#X obj 129 207 delwrite~ \$0-rev31 45;
#X connect 0 0 1 0;
#X connect 1 0 3 0;
#X connect 1 0 7 0;
#X connect 2 0 7 0;
#X connect 4 0 0 1;
#X connect 5 0 1 1;
#X connect 6 0 0 0;
#X restore 685 262 pd comb-15;
#N canvas 390 107 478 328 comb-16 0;
#X obj 140 134 lop~ 20000;
#X obj 140 157 *~ 0.5;
#X obj 90 36 inlet~;
#X obj 88 231 outlet~;
#X obj 202 100 r \$0-damping4;
#X obj 219 135 r \$0-feedback4;
#X obj 204 67 delread~ \$0-rev32 46.6667;
#X obj 140 205 delwrite~ \$0-rev32 47;
#X connect 0 0 1 0;
#X connect 1 0 3 0;
#X connect 1 0 7 0;
#X connect 2 0 7 0;
#X connect 4 0 0 1;
#X connect 5 0 1 1;
#X connect 6 0 0 0;
#X restore 747 262 pd comb-16;
#X obj 532 321 *~ 0.25;
#X obj 535 490 outlet~;
#X obj 547 198 *~ 0.05;
#X obj 530 126 inlet~;
#N canvas 376 127 648 562 allpass-5 0;
#X obj 186 65 inlet~;
#X obj 245 422 *~ 0.5;
#X obj 175 490 outlet~;
#X obj 168 391 *~ -1;
#X obj 213 389 delread~ \$0-fbcf-13 12.6077;
#X obj 437 474 delwrite~ \$0-fbcf-13 13;
#X connect 0 0 3 0;
#X connect 0 0 5 0;
#X connect 1 0 5 0;
#X connect 3 0 2 0;
#X connect 4 0 1 0;
#X connect 4 0 2 0;
#X restore 532 340 pd allpass-5;
#N canvas 0 22 644 558 allpass-7 0;
#X obj 186 65 inlet~;
#X obj 245 422 *~ 0.5;
#X obj 175 490 outlet~;
#X obj 168 391 *~ -1;
#X obj 213 389 delread~ \$0-fbcf-15 7.77324;
#X obj 437 474 delwrite~ \$0-fbcf-15 8;
#X connect 0 0 3 0;
#X connect 0 0 5 0;
#X connect 1 0 5 0;
#X connect 3 0 2 0;
#X connect 4 0 1 0;
#X connect 4 0 2 0;
#X restore 531 379 pd allpass-7;
#N canvas 0 22 636 550 allpass-8 0;
#X obj 186 65 inlet~;
#X obj 245 422 *~ 0.5;
#X obj 175 490 outlet~;
#X obj 168 391 *~ -1;
#X obj 214 389 delread~ \$0-fbcf-16 5.10204;
#X obj 437 474 delwrite~ \$0-fbcf-16 6;
#X connect 0 0 3 0;
#X connect 0 0 5 0;
#X connect 1 0 5 0;
#X connect 3 0 2 0;
#X connect 4 0 1 0;
#X connect 4 0 2 0;
#X restore 533 402 pd allpass-8;
#N canvas 0 22 640 554 allpass-6 0;
#X obj 186 65 inlet~;
#X obj 245 422 *~ 0.5;
#X obj 175 490 outlet~;
#X obj 168 391 *~ -1;
#X obj 213 389 delread~ \$0-fbcf-14 10;
#X obj 439 473 delwrite~ \$0-fbcf-14 11;
#X connect 0 0 3 0;
#X connect 0 0 5 0;
#X connect 1 0 5 0;
#X connect 3 0 2 0;
#X connect 4 0 1 0;
#X connect 4 0 2 0;
#X restore 532 360 pd allpass-6;
#X floatatom 167 371 5 0 0 0 - - -;
#X obj 625 326 r \$0-vo1;
#X obj 183 318 r \$0-vo;
#X connect 0 0 12 0;
#X connect 1 0 12 0;
#X connect 2 0 12 0;
#X connect 3 0 12 0;
#X connect 4 0 12 0;
#X connect 5 0 12 0;
#X connect 6 0 12 0;
#X connect 7 0 12 0;
#X connect 8 0 9 0;
#X connect 9 0 10 0;
#X connect 10 0 11 0;
#X connect 11 0 14 0;
#X connect 12 0 8 0;
#X connect 13 0 0 0;
#X connect 13 0 1 0;
#X connect 13 0 2 0;
#X connect 13 0 3 0;
#X connect 13 0 4 0;
#X connect 13 0 5 0;
#X connect 13 0 6 0;
#X connect 13 0 7 0;
#X connect 15 0 13 0;
#X connect 16 0 24 0;
#X connect 17 0 24 0;
#X connect 18 0 24 0;
#X connect 19 0 24 0;
#X connect 20 0 24 0;
#X connect 21 0 24 0;
#X connect 22 0 24 0;
#X connect 23 0 24 0;
#X connect 24 0 28 0;
#X connect 26 0 16 0;
#X connect 26 0 17 0;
#X connect 26 0 18 0;
#X connect 26 0 19 0;
#X connect 26 0 20 0;
#X connect 26 0 21 0;
#X connect 26 0 22 0;
#X connect 26 0 23 0;
#X connect 27 0 26 0;
#X connect 28 0 31 0;
#X connect 29 0 30 0;
#X connect 30 0 25 0;
#X connect 31 0 29 0;
#X connect 33 0 24 1;
#X connect 34 0 12 1;
#X connect 34 0 32 0;
#X restore 990 301 pd LEFT;
#X obj 1043 282 *~ 1;
#X obj 971 261 r \$0-dry3;
#X obj 1064 262 r \$0-dry4;
#X obj 472 583 * 44100;
#X obj 473 561 expr pow($f1 \, 4);
#X obj 473 513 * 0.9;
#X obj 473 537 + 0.1;
#X obj 575 573 * 0.28;
#X obj 575 591 + 0.7;
#X obj 575 501 - 1;
#X obj 575 537 - 1;
#X obj 575 555 abs;
#X obj 575 519 expr pow($f1 \, 4);
#X obj 675 584 * 44100;
#X obj 676 562 expr pow($f1 \, 4);
#X obj 676 514 * 0.9;
#X obj 676 538 + 0.1;
#X obj 777 575 * 0.28;
#X obj 777 593 + 0.7;
#X obj 777 503 - 1;
#X obj 777 539 - 1;
#X obj 777 557 abs;
#X obj 777 521 expr pow($f1 \, 4);
#X obj 474 490 r \$0-dam3;
#X obj 472 608 s \$0-damping3;
#X obj 575 483 r \$0-feb3;
#X obj 575 609 s \$0-feedback3;
#X obj 676 494 r \$0-dam4;
#X obj 675 609 s \$0-damping4;
#X obj 777 485 r \$0-feb4;
#X obj 777 611 s \$0-feedback4;
#X obj 286 117 hsl 80 10 0 1 0 0 \$0-dam3 \$0-da3 damping3 5 5 0 10
-146412 -257985 -204800 1681 1;
#X obj 287 162 hsl 80 10 0 1 0 0 \$0-feb3 \$0-fb3 feedback3 5 5 0 10
-18015 -261682 -262130 4600 1;
#X obj 286 145 hsl 80 10 0 1 0 0 \$0-wet3 \$0-we3 wet3 5 5 0 10 -27055
-257985 -204786 0 1;
#X obj 287 177 hsl 80 10 0 1 0 0 \$0-dry3 \$0-dr3 dry3 5 5 0 10 -97525
-257985 -261234 0 1;
#X obj 376 117 hsl 80 10 0 1 0 0 \$0-dam4 \$0-da4 damping4 5 5 0 10
-146412 -257985 -204800 1370 1;
#X obj 375 161 hsl 80 10 0 1 0 0 \$0-feb4 \$0-fb4 feedback4 5 5 0 10
-18015 -261682 -262130 4600 1;
#X obj 376 145 hsl 80 10 0 1 0 0 \$0-wet4 \$0-we4 wet4 5 5 0 10 -27055
-257985 -66577 0 1;
#X floatatom 336 100 5 0 0 0 - #0-rnumetda3 #0-numetda3;
#X obj 323 104 tgl 12 0 \$0-metda3 \$0-rmetda3 empty 17 7 0 10 -33289
-257985 -1 1 1;
#X floatatom 426 100 5 0 0 0 - #0-rnumetda4 #0-numetda4;
#X obj 413 104 tgl 12 0 \$0-metda4 \$0-rmetda4 empty 17 7 0 10 -33289
-257985 -1 1 1;
#X obj 375 176 hsl 80 10 0 1 0 0 \$0-dry4 \$0-dr4 dry4 5 5 0 10 -97525
-257985 -261234 0 1;
#X floatatom 336 128 5 0 0 0 - #0-rnumetwet3 #0-numetwet3;
#X obj 323 132 tgl 12 0 \$0-metwet3 \$0-rmetwet3 empty 17 7 0 10 -258113
-257985 -1 0 1;
#X floatatom 426 128 5 0 0 0 - #0-rnumetwet4 #0-numetwet4;
#X obj 413 132 tgl 12 0 \$0-metwet4 \$0-rmetwet4 empty 17 7 0 10 -258113
-257985 -1 0 1;
#X obj 103 117 hsl 80 10 0 1 0 0 \$0-dam \$0-da damping 5 5 0 10 -146412
-257985 -204800 3701 1;
#X obj 104 162 hsl 80 10 0 1 0 0 \$0-feb \$0-fb feedback 5 5 0 10 -18015
-261682 -262130 4400 1;
#X obj 103 145 hsl 80 10 0 1 0 0 \$0-wet \$0-we wet 5 5 0 10 -27055
-257985 -204786 0 1;
#X obj 104 177 hsl 80 10 0 1 0 0 \$0-dry \$0-dr dry 5 5 0 10 -97525
-257985 -261234 0 1;
#X obj 193 117 hsl 80 10 0 1 0 0 \$0-dam2 \$0-da2 damping2 5 5 0 10
-146412 -257985 -204800 1605 1;
#X obj 192 161 hsl 80 10 0 1 0 0 \$0-feb2 \$0-fb2 feedback2 5 5 0 10
-18015 -261682 -262130 4500 1;
#X obj 193 145 hsl 80 10 0 1 0 0 \$0-wet2 \$0-we2 wet2 5 5 0 10 -27055
-257985 -66577 0 1;
#X floatatom 153 100 5 0 0 0 - #0-rnumetda #0-numetda;
#X obj 140 104 tgl 12 0 \$0-metda \$0-rmetda empty 17 7 0 10 -33289
-257985 -1 1 1;
#X floatatom 243 100 5 0 0 0 - #0-rnumetda2 #0-numetda2;
#X obj 230 104 tgl 12 0 \$0-metda2 \$0-rmetda2 empty 17 7 0 10 -33289
-257985 -1 1 1;
#X obj 192 176 hsl 80 10 0 1 0 0 \$0-dry2 \$0-dr2 dry2 5 5 0 10 -97525
-257985 -261234 0 1;
#X floatatom 153 128 5 0 0 0 - #0-rnumetwet #0-numetwet;
#X obj 140 132 tgl 12 0 \$0-metwet \$0-rmetwet empty 17 7 0 10 -258113
-257985 -1 0 1;
#X floatatom 243 128 5 0 0 0 - #0-rnumetwet2 #0-numetwet2;
#X obj 230 132 tgl 12 0 \$0-metwet2 \$0-rmetwet2 empty 17 7 0 10 -258113
-257985 -1 0 1;
#X obj 526 -7 randomF 1;
#X floatatom 525 49 5 0 0 0 - - -;
#X obj 526 -26 metro;
#X obj 604 -5 randomF 1;
#X floatatom 611 45 5 0 0 0 - - -;
#X obj 604 -24 metro;
#X obj 709 -25 randomF 1;
#X floatatom 709 30 5 0 0 0 - - -;
#X obj 709 -44 metro;
#X obj 775 13 randomF 1;
#X obj 775 -6 metro;
#X floatatom 873 84 5 0 0 0 - - -;
#X obj 709 11 line;
#X obj 709 -7 pack 0 500;
#X obj 873 48 pack 0 800;
#X obj 873 66 line;
#X obj 816 32 moses 0.2;
#X floatatom 865 -24 5 0 100 0 - - -;
#X obj 866 -5 / 100;
#X floatatom 866 13 5 0 0 0 - - -;
#X obj 949 380 *~ 1;
#X obj 1027 389 *~ 1;
#X obj 966 358 r \$0-wet3;
#X obj 1048 366 r \$0-wet4;
#N canvas 584 126 713 449 (subpatch) 0;
#X msg 67 -4 save;
#X obj 215 124 route 0 1 2 3 4 5 6 7;
#X obj 211 303 prepend load;
#X obj 141 105 list prepend;
#X msg 199 75 \$1;
#X obj 79 15 r \$0-my.hero.preset;
#X obj 211 332 s \$0-my.hero.preset;
#X obj 350 124 route 8 9 10 11 12 13 14;
#N canvas 91 22 1124 693 messages 0;
#X obj 34 47 inlet;
#X obj 83 47 inlet;
#X obj 127 47 inlet;
#X obj 172 47 inlet;
#X obj 224 48 inlet;
#X obj 273 48 inlet;
#X obj 317 48 inlet;
#X obj 362 48 inlet;
#X obj 202 541 outlet;
#X msg 319 85;
#X msg 364 85;
#X msg 9 215 togr 0 \, rvda3 0 \, rvda4 0 \, rvwet3 0 \, rvwet4 0 \,
rvfeb3 0 \, rvfeb4 0 \, rvdry4 0 \, rvdry3 0 \, rvnumda3 1114 \, rvnumda4
1344 \, rvmetda3 0 \, rvmetda4 0 \, rvmetwet3 0 \, rvmetwet4 0 \, rv2metwet2
0 \, rv2metwet 0 \, rv2metda2 0 \, rv2metda 0 \, rv2swit 0 \, rv2numda2
1007 \, rv2numda 1178 \, rv2voll 0 \, rv2volr 0 \, rv2dry 0 \, rv2feb2
0 \, rv2feb 0 \, rv2da2 0 \, rv2wet2 0 \, rv2wet 0 \, rv2da 0 \,;
#X msg 693 315 togr 1 \, rvwet6 0.6 \, rvwet5 0.3 \, rvda6 0.4 \, rvda5
0.2 \, rvmetwet6 0 \, rvmetda6 0 \, rvnumda6 115 \, rvmetwet5 0 \,
rvmetda5 0 \, rvnumda5 226 \, rvfeb6 0.556962 \, rvdry6 0 \, rvfeb5
0.556962 \, rvdry5 0 \, rvda3 0.2 \, rvda4 0.2 \, rvwet3 0.3 \, rvwet4
0.3 \, rvfeb3 0.582278 \, rvfeb4 0.582278 \, rvdry4 0 \, rvdry3 0 \,
rvnumda3 279 \, rvnumda4 242 \, rvmetda3 0 \, rvmetda4 0 \, rvmetwet3
0 \, rvmetwet4 0 \, rv2metwet2 0 \, rv2metwet 0 \, rv2metda2 0 \, rv2metda
0 \, rv2swit 1 \, rv2numda2 451 \, rv2numda 356 \, rv2voll 0.932203
\, rv2volr 0.932203 \, rv2dry 0 \, rv2feb2 0.56962 \, rv2feb 0.556962
\, rv2da2 0.2 \, rv2wet2 0.3 \, rv2wet 0.3 \, rv2da 0.2 \,;
#X msg 518 107 togr 0 \, rvwet6 0.236709 \, rvwet5 0.224051 \, rvda6
0.384177 \, rvda5 0.482405 \, rvmetwet6 0 \, rvmetda6 1 \, rvnumda6
115 \, rvmetwet5 0 \, rvmetda5 1 \, rvnumda5 226 \, rvfeb6 0.21519
\, rvdry6 0 \, rvfeb5 0.151899 \, rvdry5 0 \, rvda3 0.972658 \, rvda4
0.832152 \, rvwet3 0.3 \, rvwet4 0.3 \, rvfeb3 0.0886076 \, rvfeb4
0.113924 \, rvdry4 0 \, rvdry3 0 \, rvnumda3 279 \, rvnumda4 242 \,
rvmetda3 1 \, rvmetda4 1 \, rvmetwet3 0 \, rvmetwet4 0 \, rv2metwet2
0 \, rv2metwet 0 \, rv2metda2 1 \, rv2metda 1 \, rv2swit 1 \, rv2numda2
451 \, rv2numda 356 \, rv2voll 0.932203 \, rv2volr 0.932203 \, rv2dry
0 \, rv2feb2 0.0886076 \, rv2feb 0.101266 \, rv2da2 0.236835 \, rv2wet2
0.35519 \, rv2wet 0.3 \, rv2da 0.568608 \,;
#X msg 569 106 rvwet6 0.236709 \, rvwet5 0.224051 \, rvda6 0.921646
\, rvda5 0.298734 \, rvmetda6 1 \, rvnumda6 115 \, rvmetda5 1 \, rvnumda5
226 \, rvfeb6 0.21519 \, rvdry6 0 \, rvfeb5 0.151899 \, rvdry5 0 \,
rvda3 0.410886 \, rvda4 0.0111392 \, rvwet3 0.3 \, rvwet4 0.3 \, rvfeb3
0.0886076 \, rvfeb4 0.113924 \, rvdry4 0 \, rvdry3 0 \, rvnumda3 279
\, rvnumda4 242 \, rvmetda3 1 \, rvmetda4 1 \, rv2metda2 0 \, rv2metda
0 \, rv2swit 1 \, rv2numda2 451 \, rv2numda 356 \, rv2voll 0.932203
\, rv2volr 0.932203 \, rv2dry 0 \, rv2feb2 0.0886076 \, rv2feb 0.101266
\, rv2da2 0 \, rv2wet2 0.3 \, rv2wet 0.375949 \, rv2da 0 \,;
#X msg 273 84 togr 0 \, rvwet6 0.3 \, rvwet5 0.3 \, rvda6 0.389873
\, rvda5 0.351899 \, rvmetwet6 0 \, rvmetda6 0 \, rvnumda6 115 \, rvmetwet5
0 \, rvmetda5 0 \, rvnumda5 226 \, rvfeb6 0 \, rvdry6 0 \, rvfeb5 0
\, rvdry5 0 \, rvda3 0.785949 \, rvda4 0.780253 \, rvwet3 0 \, rvwet4
0.6 \, rvfeb3 0.632911 \, rvfeb4 0.531646 \, rvdry4 0 \, rvdry3 0 \,
rvnumda3 1219 \, rvnumda4 957 \, rvmetda3 1 \, rvmetda4 1 \, rvmetwet3
0 \, rvmetwet4 0 \, rv2metwet2 0 \, rv2metwet 0 \, rv2metda2 1 \, rv2metda
1 \, rv2swit 1 \, rv2numda2 1407 \, rv2numda 1064 \, rv2voll 0.440678
\, rv2volr 0.440678 \, rv2dry 0 \, rv2feb2 0.658228 \, rv2feb 0.620253
\, rv2da2 0.126203 \, rv2wet2 0 \, rv2wet 0 \, rv2da 0.0841772 \,;
#X msg 295 344 togr 1 \, rvda3 0.608987 \, rvda4 0.416709 \, rvwet3
0 \, rvwet4 0 \, rvfeb3 0.582278 \, rvfeb4 0.582278 \, rvdry4 0 \,
rvdry3 0 \, rvnumda3 1114 \, rvnumda4 1344 \, rvmetda3 1 \, rvmetda4
1 \, rvmetwet3 0 \, rvmetwet4 0 \, rv2metwet2 0 \, rv2metwet 0 \, rv2metda2
1 \, rv2metda 1 \, rv2swit 1 \, rv2numda2 1007 \, rv2numda 1178 \,
rv2voll 0.745763 \, rv2volr 0.745763 \, rv2dry 0 \, rv2feb2 0.56962
\, rv2feb 0.556962 \, rv2da2 0.700886 \, rv2wet2 0 \, rv2wet 0 \, rv2da
0.560253 \,;
#X connect 0 0 11 0;
#X connect 1 0 16 0;
#X connect 2 0 12 0;
#X connect 3 0 13 0;
#X connect 4 0 14 0;
#X connect 5 0 15 0;
#X connect 6 0 9 0;
#X connect 7 0 10 0;
#X connect 9 0 8 0;
#X connect 10 0 8 0;
#X connect 11 0 8 0;
#X connect 12 0 8 0;
#X connect 13 0 8 0;
#X connect 14 0 8 0;
#X connect 15 0 8 0;
#X connect 16 0 8 0;
#X restore 241 272 pd messages;
#N canvas 437 456 450 300 messages 0;
#X obj 34 47 inlet;
#X obj 83 47 inlet;
#X obj 127 47 inlet;
#X obj 172 47 inlet;
#X obj 224 48 inlet;
#X obj 273 48 inlet;
#X obj 317 48 inlet;
#X obj 362 48 inlet;
#X obj 196 132 outlet;
#X msg 37 84;
#X msg 83 85;
#X msg 126 85;
#X msg 174 84;
#X msg 224 83;
#X msg 273 84;
#X msg 319 85;
#X msg 364 85;
#X connect 0 0 9 0;
#X connect 1 0 10 0;
#X connect 2 0 11 0;
#X connect 3 0 12 0;
#X connect 4 0 13 0;
#X connect 5 0 14 0;
#X connect 6 0 15 0;
#X connect 7 0 16 0;
#X connect 9 0 8 0;
#X connect 10 0 8 0;
#X connect 11 0 8 0;
#X connect 12 0 8 0;
#X connect 13 0 8 0;
#X connect 14 0 8 0;
#X connect 15 0 8 0;
#X connect 16 0 8 0;
#X restore 346 283 pd messages;
#X msg 211 152 set;
#X obj 128 145 + 1;
#X obj 234 -2 inlet;
#X obj 19 196 s distpre;
#N canvas 437 456 450 300 messages 0;
#X obj 34 47 inlet;
#X obj 83 47 inlet;
#X obj 127 47 inlet;
#X obj 172 47 inlet;
#X obj 224 48 inlet;
#X obj 273 48 inlet;
#X obj 317 48 inlet;
#X obj 362 48 inlet;
#X obj 196 132 outlet;
#X msg 37 84;
#X msg 83 85;
#X msg 126 85;
#X msg 174 84;
#X msg 224 83;
#X msg 273 84;
#X msg 319 85;
#X msg 364 85;
#X connect 0 0 9 0;
#X connect 1 0 10 0;
#X connect 2 0 11 0;
#X connect 3 0 12 0;
#X connect 4 0 13 0;
#X connect 5 0 14 0;
#X connect 6 0 15 0;
#X connect 7 0 16 0;
#X connect 9 0 8 0;
#X connect 10 0 8 0;
#X connect 11 0 8 0;
#X connect 12 0 8 0;
#X connect 13 0 8 0;
#X connect 14 0 8 0;
#X connect 15 0 8 0;
#X connect 16 0 8 0;
#X restore 440 212 pd messages;
#X obj 134 195 gate 16;
#X obj 45 -23 inlet;
#X obj 331 75 inlet;
#X obj 66 46 my.hero.mmb rvrbf;
#X connect 0 0 18 0;
#X connect 1 0 8 0;
#X connect 1 1 8 1;
#X connect 1 2 8 2;
#X connect 1 3 8 3;
#X connect 1 4 8 4;
#X connect 1 5 8 5;
#X connect 1 6 8 6;
#X connect 1 7 8 7;
#X connect 1 8 7 0;
#X connect 2 0 6 0;
#X connect 3 0 1 0;
#X connect 4 0 3 1;
#X connect 5 0 18 0;
#X connect 7 0 9 0;
#X connect 7 1 9 1;
#X connect 7 2 9 2;
#X connect 7 3 9 3;
#X connect 7 4 9 4;
#X connect 7 5 9 5;
#X connect 7 6 9 6;
#X connect 8 0 2 0;
#X connect 9 0 2 0;
#X connect 10 0 15 1;
#X connect 11 0 15 0;
#X connect 11 0 13 0;
#X connect 12 0 4 0;
#X connect 12 0 11 0;
#X connect 12 0 1 0;
#X connect 15 0 8 0;
#X connect 15 1 8 1;
#X connect 15 2 8 2;
#X connect 15 3 8 3;
#X connect 15 4 8 4;
#X connect 15 5 8 5;
#X connect 15 6 8 6;
#X connect 15 7 8 7;
#X connect 15 8 9 0;
#X connect 15 9 9 1;
#X connect 15 10 9 2;
#X connect 15 11 9 3;
#X connect 15 12 9 4;
#X connect 15 13 9 5;
#X connect 15 14 9 6;
#X connect 15 15 9 7;
#X connect 16 0 0 0;
#X connect 17 0 10 0;
#X connect 18 0 3 0;
#X restore 758 213 pd;
#X obj 193 192 c.radio @size 494 12 @fontname Monaco @fontweight normal
@fontslant roman @fontsize 11 @idname (null) @presetname (null) @nitems
25 @mode 0 @bgcolor 0.75 0.75 0.75 1 @bdcolor 0.25 0.51 0.5 1 @itcolor
0.3 0.55 0.65 1;
#X obj 101 192 bng 12 250 50 0 empty empty rec 17 7 0 10 -262144 -1
-1;
#X obj 142 192 bng 12 250 50 0 empty empty clear 17 7 0 10 -262144
-1 -1;
#X obj 526 -44 r \$0-metda3;
#X obj 553 -61 r \$0-numetda3;
#X obj 604 -43 r \$0-metda4;
#X obj 631 -60 r \$0-numetda4;
#X obj 709 -77 r \$0-metwet3;
#X obj 736 -62 r \$0-numetwet3;
#X obj 775 -44 r \$0-metwet4;
#X obj 774 -25 r \$0-numetwet4;
#X obj 731 406 throw~ master1L;
#X obj 760 430 throw~ master1R;
#X obj 946 418 throw~ master2R;
#N canvas 169 94 1411 814 metro 0;
#X obj 83 422 outlet;
#X obj 142 422 outlet;
#X obj 198 423 outlet;
#X obj 255 424 outlet;
#X obj 108 61 save.me.mmb togr rvrbf;
#X obj 125 246 gate 4;
#X obj 125 192 random 4;
#X obj 125 215 + 1;
#X obj 186 182 t b b;
#X obj 213 203 del 100;
#X msg 213 226 0;
#X obj 107 165 t b b;
#X obj 107 143 metro 200;
#X msg 186 226 0.6;
#X obj 118 102 tgl 15 0 empty empty empty 17 7 0 10 -262144 -1 -1 0
1;
#X connect 4 0 14 0;
#X connect 5 0 0 0;
#X connect 5 1 1 0;
#X connect 5 2 2 0;
#X connect 5 3 3 0;
#X connect 6 0 7 0;
#X connect 7 0 5 0;
#X connect 8 0 13 0;
#X connect 8 1 9 0;
#X connect 9 0 10 0;
#X connect 10 0 5 1;
#X connect 11 0 8 0;
#X connect 11 1 6 0;
#X connect 12 0 11 0;
#X connect 13 0 5 1;
#X connect 14 0 12 0;
#X connect 14 0 4 0;
#X coords 0 -1 1 1 40 20 2 100 100;
#X restore 77 60 pd metro diffusion;
#X obj 131 266 r flutepres;
#X obj 975 442 throw~ master2L;
#X obj 947 227 r~ flute2;
#X obj 127 8 moses 0.6;
#X obj 206 11 moses 0.6;
#X obj 526 15 moses 0.6;
#X obj 608 19 moses 0.6;
#X obj 919 155 r presverb;
#X connect 3 0 1 0;
#X connect 4 0 3 0;
#X connect 5 0 6 0;
#X connect 6 0 4 0;
#X connect 7 0 8 0;
#X connect 8 0 176 0;
#X connect 9 0 8 0;
#X connect 9 1 28 0;
#X connect 10 0 11 0;
#X connect 11 0 2 0;
#X connect 12 0 15 0;
#X connect 13 0 14 0;
#X connect 14 0 10 0;
#X connect 15 0 13 0;
#X connect 16 0 20 0;
#X connect 17 0 16 0;
#X connect 18 0 19 0;
#X connect 19 0 17 0;
#X connect 21 0 22 0;
#X connect 22 0 27 0;
#X connect 23 0 26 0;
#X connect 24 0 25 0;
#X connect 25 0 21 0;
#X connect 26 0 24 0;
#X connect 28 0 177 0;
#X connect 29 0 183 0;
#X connect 30 0 66 0;
#X connect 31 0 29 0;
#X connect 32 0 184 0;
#X connect 33 0 66 1;
#X connect 34 0 32 0;
#X connect 35 0 28 0;
#X connect 36 0 18 0;
#X connect 37 0 5 0;
#X connect 38 0 12 0;
#X connect 39 0 23 0;
#X connect 40 0 47 0;
#X connect 41 0 66 2;
#X connect 42 0 40 0;
#X connect 43 0 50 0;
#X connect 44 0 43 0;
#X connect 45 0 66 3;
#X connect 46 0 41 0;
#X connect 47 0 46 0;
#X connect 48 0 49 0;
#X connect 49 0 45 0;
#X connect 50 1 48 0;
#X connect 51 0 52 0;
#X connect 52 0 53 0;
#X connect 53 0 50 1;
#X connect 57 0 56 0;
#X connect 58 0 31 0;
#X connect 59 0 31 1;
#X connect 60 0 34 0;
#X connect 61 0 34 1;
#X connect 62 0 42 0;
#X connect 63 0 42 1;
#X connect 64 0 44 0;
#X connect 65 0 44 1;
#X connect 67 0 8 1;
#X connect 68 0 28 1;
#X connect 69 0 7 1;
#X connect 70 0 35 1;
#X connect 71 0 72 0;
#X connect 72 0 73 0;
#X connect 72 1 74 0;
#X connect 75 0 160 0;
#X connect 76 0 160 0;
#X connect 76 1 161 0;
#X connect 77 0 161 0;
#X connect 78 0 75 1;
#X connect 79 0 77 1;
#X connect 80 0 101 0;
#X connect 81 0 80 0;
#X connect 82 0 83 0;
#X connect 83 0 81 0;
#X connect 84 0 85 0;
#X connect 85 0 103 0;
#X connect 86 0 89 0;
#X connect 87 0 88 0;
#X connect 88 0 84 0;
#X connect 89 0 87 0;
#X connect 90 0 105 0;
#X connect 91 0 90 0;
#X connect 92 0 93 0;
#X connect 93 0 91 0;
#X connect 94 0 95 0;
#X connect 95 0 107 0;
#X connect 96 0 99 0;
#X connect 97 0 98 0;
#X connect 98 0 94 0;
#X connect 99 0 97 0;
#X connect 100 0 82 0;
#X connect 102 0 86 0;
#X connect 104 0 92 0;
#X connect 106 0 96 0;
#X connect 140 0 185 0;
#X connect 141 0 66 4;
#X connect 142 0 140 0;
#X connect 143 0 186 0;
#X connect 144 0 66 5;
#X connect 145 0 143 0;
#X connect 146 0 153 0;
#X connect 147 0 66 6;
#X connect 148 0 146 0;
#X connect 149 0 156 0;
#X connect 150 0 149 0;
#X connect 151 0 66 7;
#X connect 152 0 147 0;
#X connect 153 0 152 0;
#X connect 154 0 155 0;
#X connect 155 0 151 0;
#X connect 156 1 154 0;
#X connect 157 0 158 0;
#X connect 158 0 159 0;
#X connect 159 0 156 1;
#X connect 160 0 178 0;
#X connect 161 0 181 0;
#X connect 162 0 160 1;
#X connect 163 0 161 1;
#X connect 165 0 164 1;
#X connect 166 0 164 0;
#X connect 168 0 142 0;
#X connect 169 0 142 1;
#X connect 170 0 145 0;
#X connect 171 0 145 1;
#X connect 172 0 148 0;
#X connect 173 0 148 1;
#X connect 174 0 150 0;
#X connect 175 0 150 1;
#X connect 179 0 126 0;
#X connect 179 1 130 0;
#X connect 179 2 110 0;
#X connect 179 3 114 0;
#X connect 180 0 165 0;
#X connect 182 0 7 0;
#X connect 182 0 35 0;
#X connect 182 0 9 0;
#X connect 182 0 9 1;
#X connect 182 0 75 0;
#X connect 182 0 76 0;
#X connect 182 0 76 1;
#X connect 182 0 77 0;
#X connect 183 0 30 0;
#X connect 184 0 33 0;
#X connect 185 0 141 0;
#X connect 186 0 144 0;
#X connect 187 0 165 0;
#X coords 0 -1 1 1 590 110 1 100 100;
