#N canvas 521 38 1191 734 10;
#X obj 175 262 t l;
#X obj 105 301 list trim;
#X obj 104 164 bng 15 250 50 0 empty empty empty 17 7 0 10 -262144
-1 -1;
#X obj 175 222 bng 15 250 50 0 empty empty empty 17 7 0 10 -262144
-1 -1;
#X obj 105 243 list prepend;
#X obj 104 103 bng 15 250 50 0 empty empty empty 17 7 0 10 -262144
-1 -1;
#X obj 51 356 metroplus;
#X msg 50 318 start;
#X obj 52 374 bng 15 250 50 0 empty empty empty 17 7 0 10 -262144 -1
-1;
#X msg 51 337 stop;
#X obj 156 356 list length;
#X floatatom 157 376 5 0 0 0 - - -;
#X obj 105 279 list prepend set \$1;
#X msg 105 326 0 809 321 960 774 703 670 990 763 454;
#X obj 124 444 sel \$1;
#X obj 93 409 +;
#X msg 93 389 1;
#X obj 120 409 % \$1;
#X floatatom 93 428 5 0 0 0 - - -;
#X obj 24 461 bng 15 250 50 0 empty empty empty 17 7 0 10 -262144 -1
-1;
#X obj 137 163 del 10;
#X obj 180 163 del 20;
#X obj 104 122 spigot;
#X obj 104 141 t b b b b b;
#X msg 190 130 0;
#X obj 125 103 tgl 15 0 empty empty empty 17 7 0 10 -262144 -1 -1 1
1;
#X msg 139 61 1;
#X obj 139 38 loadbang;
#X obj 90 58 inlet;
#X obj 104 183 many_bang 5 20;
#X obj 26 507 del 20;
#X obj 23 58 inlet;
#X obj 362 395 random 4;
#X obj 363 423 sel 0 1 2 3;
#X obj 26 481 t b b b b;
#X obj 105 203 random 1000;
#X obj 217 42 spigot;
#X obj 152 103 tgl 15 0 empty empty loop 17 7 0 10 -262144 -1 -1 0
1;
#X msg 300 466 0.5;
#X msg 328 466 0.1;
#X msg 365 465 0.5;
#X msg 393 465 0.1;
#X msg 429 464 0.5;
#X msg 457 464 0.1;
#X msg 494 463 0.5;
#X msg 522 463 0.1;
#X obj 281 508 pack 0 20;
#X obj 362 509 pack 0 20;
#X obj 445 509 pack 0 20;
#X obj 523 510 pack 0 20;
#X obj 281 539 line;
#X obj 362 540 line;
#X obj 445 539 line;
#X obj 523 537 line;
#X obj 264 618 throw~ master1L;
#X obj 428 674 throw~ master2R;
#X obj 305 636 throw~ master1R;
#X obj 361 654 throw~ master2L;
#X obj 264 594 *~ 0;
#X obj 305 594 *~ 0;
#X obj 357 594 *~ 0;
#X obj 421 593 *~ 0;
#X msg 232 493 0;
#X obj 195 577 r~ cotbolL;
#X obj 505 576 r~ cotbolR;
#X connect 0 0 4 1;
#X connect 1 0 13 0;
#X connect 2 0 29 0;
#X connect 3 0 4 1;
#X connect 4 0 0 0;
#X connect 4 0 12 0;
#X connect 5 0 22 0;
#X connect 6 0 8 0;
#X connect 7 0 6 0;
#X connect 8 0 16 0;
#X connect 8 0 32 0;
#X connect 9 0 6 0;
#X connect 10 0 11 0;
#X connect 11 0 14 1;
#X connect 11 0 17 1;
#X connect 12 0 1 0;
#X connect 13 0 6 1;
#X connect 13 0 10 0;
#X connect 14 0 19 0;
#X connect 15 0 17 0;
#X connect 15 0 18 0;
#X connect 16 0 15 0;
#X connect 17 0 15 1;
#X connect 18 0 14 0;
#X connect 19 0 34 0;
#X connect 20 0 13 0;
#X connect 21 0 7 0;
#X connect 22 0 23 0;
#X connect 23 0 2 0;
#X connect 23 1 3 0;
#X connect 23 2 20 0;
#X connect 23 3 21 0;
#X connect 23 4 24 0;
#X connect 24 0 25 0;
#X connect 25 0 22 1;
#X connect 26 0 25 0;
#X connect 27 0 26 0;
#X connect 28 0 5 0;
#X connect 29 0 35 0;
#X connect 30 0 62 0;
#X connect 31 0 19 0;
#X connect 32 0 33 0;
#X connect 33 0 38 0;
#X connect 33 0 41 0;
#X connect 33 0 43 0;
#X connect 33 0 45 0;
#X connect 33 1 39 0;
#X connect 33 1 40 0;
#X connect 33 1 43 0;
#X connect 33 1 45 0;
#X connect 33 2 39 0;
#X connect 33 2 41 0;
#X connect 33 2 42 0;
#X connect 33 2 45 0;
#X connect 33 3 39 0;
#X connect 33 3 41 0;
#X connect 33 3 44 0;
#X connect 33 3 43 0;
#X connect 34 0 30 0;
#X connect 34 1 26 0;
#X connect 34 2 9 0;
#X connect 34 3 36 0;
#X connect 35 0 4 0;
#X connect 36 0 5 0;
#X connect 37 0 36 1;
#X connect 38 0 46 0;
#X connect 39 0 46 0;
#X connect 40 0 47 0;
#X connect 41 0 47 0;
#X connect 42 0 48 0;
#X connect 43 0 48 0;
#X connect 44 0 49 0;
#X connect 45 0 49 0;
#X connect 46 0 50 0;
#X connect 47 0 51 0;
#X connect 48 0 52 0;
#X connect 49 0 53 0;
#X connect 50 0 58 1;
#X connect 51 0 59 1;
#X connect 52 0 60 1;
#X connect 53 0 61 1;
#X connect 58 0 54 0;
#X connect 59 0 56 0;
#X connect 60 0 57 0;
#X connect 61 0 55 0;
#X connect 62 0 46 0;
#X connect 62 0 47 0;
#X connect 62 0 48 0;
#X connect 62 0 49 0;
#X connect 63 0 58 0;
#X connect 63 0 59 0;
#X connect 63 0 60 0;
#X connect 63 0 61 0;
#X connect 64 0 58 0;
#X connect 64 0 59 0;
#X connect 64 0 60 0;
#X connect 64 0 61 0;
#X coords 0 -1 1 1 100 20 2 100 100;
