#N canvas 135 46 1191 734 10;
#X obj 178 261 t l;
#X obj 108 300 list trim;
#X obj 107 163 bng 15 250 50 0 empty empty empty 17 7 0 10 -262144
-1 -1;
#X obj 178 221 bng 15 250 50 0 empty empty empty 17 7 0 10 -262144
-1 -1;
#X obj 108 242 list prepend;
#X obj 107 102 bng 15 250 50 0 empty empty empty 17 7 0 10 -262144
-1 -1;
#X obj 54 355 metroplus;
#X msg 53 317 start;
#X obj 55 373 bng 15 250 50 0 empty empty empty 17 7 0 10 -262144 -1
-1;
#X msg 54 336 stop;
#X obj 159 355 list length;
#X floatatom 160 375 5 0 0 0 - - -;
#X msg 108 325 19 450 368 631 1284 901 1832 653 260 1151 577 1375 1406
1647 132 33;
#X obj 127 443 sel \$1;
#X obj 96 408 +;
#X msg 96 388 1;
#X obj 123 408 % \$1;
#X floatatom 96 427 5 0 0 0 - - -;
#X obj 27 460 bng 15 250 50 0 empty empty empty 17 7 0 10 -262144 -1
-1;
#X obj 140 162 del 10;
#X obj 183 162 del 20;
#X obj 107 121 spigot;
#X obj 107 140 t b b b b b;
#X msg 193 129 0;
#X obj 128 102 tgl 15 0 empty empty empty 17 7 0 10 -262144 -1 -1 1
1;
#X msg 145 28 1;
#X obj 145 5 loadbang;
#X obj 108 57 inlet;
#X obj 107 182 many_bang 5 20;
#X obj 29 506 del 20;
#X obj 25 210 inlet;
#X obj 29 480 t b b b b;
#X obj 220 41 spigot;
#X obj 155 102 tgl 15 0 empty empty loop 17 7 0 10 -262144 -1 -1 0
1;
#X obj 267 617 throw~ master1L;
#X obj 431 673 throw~ master2R;
#X obj 308 635 throw~ master1R;
#X obj 364 653 throw~ master2L;
#X msg 235 489 0;
#X obj 64 563 del 50;
#X obj 284 507 pack 0 100;
#X obj 365 508 pack 0 100;
#X obj 448 508 pack 0 100;
#X obj 526 509 pack 0 100;
#X msg 331 465 0;
#X msg 396 464 0;
#X msg 460 463 0;
#X msg 525 462 0;
#X obj 108 202 random 250;
#X obj 445 96 metro 10000;
#X obj 445 135 cycle 4;
#X msg 445 116 reset;
#X msg 440 186 250;
#X msg 495 188 1200;
#X msg 584 188 2000;
#X obj 204 97 tgl 15 0 empty empty empty 17 7 0 10 -262144 -1 -1 0
1;
#X obj 445 153 t b b;
#X obj 493 153 t b b;
#X obj 547 152 t b b;
#X obj 611 152 t b b;
#X msg 447 211 60;
#X obj 547 132 bng 15 250 50 0 empty empty empty 17 7 0 10 -262144
-1 -1;
#X msg 547 187 180;
#X msg 553 216 70;
#X obj 99 519 spigot;
#X obj 154 649 expr $f1 \; if ( $f1 == 0 \, 1 \, 0) \;;
#X obj 755 116 metro 5000;
#X msg 756 147 reset;
#X obj 667 265 t b b;
#X obj 797 267 t b b;
#X obj 929 268 t b b;
#X obj 1059 270 t b b;
#X obj 755 93 tgl 15 0 empty empty empty 17 7 0 10 -262144 -1 -1 1
1;
#X msg 811 84 3000;
#X msg 844 100 1500;
#X obj 197 546 r~ cortolunL;
#X obj 520 572 r~ cortolunR;
#X obj 236 101 save.me.mmb looplun luna;
#X obj 13 2 r lunapres;
#X msg 497 211 200;
#X obj 354 27 sel 6;
#X obj 353 46 t b b b;
#X msg 366 76 1;
#X obj 545 67 r findiflun;
#X obj 12 23 sel 1 2 0;
#X msg 85 42 0;
#X obj 435 58 t b b b;
#X obj 435 26 sel 8;
#X obj 757 170 cycle 4;
#X obj 366 422 sel 0 1 2 3;
#X obj 365 394 random 4;
#X msg 725 288 0 300;
#X msg 856 290 0 300;
#X msg 988 291 0 300;
#X msg 1118 293 0 300;
#X msg 839 152 500;
#X obj 726 266 del 300;
#X obj 856 268 del 300;
#X obj 988 269 del 300;
#X obj 1118 271 del 300;
#X msg 60 78 0;
#X obj 55 59 t b b;
#X msg 90 80 0;
#X obj 754 25 sel 2;
#X obj 843 33 t b b;
#X msg 841 53 1;
#X obj 284 538 line~;
#X obj 365 539 line~;
#X obj 448 538 line~;
#X obj 526 536 line~;
#X obj 267 593 *~;
#X obj 308 593 *~;
#X obj 360 593 *~;
#X obj 424 592 *~;
#X obj 108 278 list prepend set;
#X obj 698 520 r~ plaques;
#X obj 700 597 *~ 0;
#X obj 781 596 *~ 0;
#X obj 700 627 throw~ master4L;
#X obj 781 650 throw~ master4R;
#X obj 802 492 r lunapres;
#X obj 802 527 sel 2 6;
#X msg 802 561 0;
#X msg 896 562 0.2;
#X msg 368 464 0.6;
#X msg 432 463 0.6;
#X msg 497 462 0.6;
#X msg 303 465 0.6;
#X msg 667 288 0.5 300;
#X msg 797 290 0.5 300;
#X msg 929 291 0.5 300;
#X msg 1059 293 0.5 300;
#X connect 0 0 4 1;
#X connect 1 0 12 0;
#X connect 2 0 28 0;
#X connect 3 0 4 1;
#X connect 4 0 0 0;
#X connect 4 0 114 0;
#X connect 5 0 21 0;
#X connect 6 0 8 0;
#X connect 7 0 6 0;
#X connect 8 0 15 0;
#X connect 8 0 90 0;
#X connect 9 0 6 0;
#X connect 10 0 11 0;
#X connect 11 0 13 1;
#X connect 11 0 16 1;
#X connect 12 0 6 1;
#X connect 12 0 10 0;
#X connect 13 0 18 0;
#X connect 14 0 16 0;
#X connect 14 0 17 0;
#X connect 15 0 14 0;
#X connect 16 0 14 1;
#X connect 17 0 13 0;
#X connect 18 0 31 0;
#X connect 19 0 12 0;
#X connect 20 0 7 0;
#X connect 21 0 22 0;
#X connect 22 0 2 0;
#X connect 22 1 3 0;
#X connect 22 2 19 0;
#X connect 22 3 20 0;
#X connect 22 4 23 0;
#X connect 23 0 24 0;
#X connect 24 0 21 1;
#X connect 25 0 24 0;
#X connect 26 0 25 0;
#X connect 27 0 5 0;
#X connect 28 0 48 0;
#X connect 29 0 64 0;
#X connect 30 0 18 0;
#X connect 31 0 29 0;
#X connect 31 1 25 0;
#X connect 31 2 9 0;
#X connect 31 3 39 0;
#X connect 32 0 5 0;
#X connect 33 0 32 1;
#X connect 33 0 65 0;
#X connect 33 0 77 0;
#X connect 38 0 40 0;
#X connect 38 0 41 0;
#X connect 38 0 42 0;
#X connect 38 0 43 0;
#X connect 39 0 32 0;
#X connect 40 0 106 0;
#X connect 41 0 107 0;
#X connect 42 0 108 0;
#X connect 43 0 109 0;
#X connect 44 0 40 0;
#X connect 45 0 41 0;
#X connect 46 0 42 0;
#X connect 47 0 43 0;
#X connect 48 0 4 0;
#X connect 49 0 51 0;
#X connect 50 0 56 0;
#X connect 50 1 57 0;
#X connect 50 2 58 0;
#X connect 50 3 59 0;
#X connect 51 0 50 0;
#X connect 52 0 48 1;
#X connect 53 0 48 1;
#X connect 54 0 48 1;
#X connect 55 0 49 0;
#X connect 56 0 52 0;
#X connect 56 1 60 0;
#X connect 57 0 53 0;
#X connect 57 1 79 0;
#X connect 58 0 62 0;
#X connect 58 1 63 0;
#X connect 59 0 54 0;
#X connect 59 1 79 0;
#X connect 60 0 40 1;
#X connect 60 0 41 1;
#X connect 60 0 42 1;
#X connect 60 0 43 1;
#X connect 61 0 58 0;
#X connect 62 0 48 1;
#X connect 63 0 40 1;
#X connect 63 0 41 1;
#X connect 63 0 42 1;
#X connect 63 0 43 1;
#X connect 64 0 38 0;
#X connect 65 1 64 1;
#X connect 66 0 67 0;
#X connect 67 0 88 0;
#X connect 68 0 128 0;
#X connect 68 1 96 0;
#X connect 69 0 129 0;
#X connect 69 1 97 0;
#X connect 70 0 130 0;
#X connect 70 1 98 0;
#X connect 71 0 131 0;
#X connect 71 1 99 0;
#X connect 72 0 66 0;
#X connect 73 0 66 1;
#X connect 74 0 66 1;
#X connect 75 0 110 0;
#X connect 75 0 111 0;
#X connect 75 0 112 0;
#X connect 75 0 113 0;
#X connect 76 0 110 0;
#X connect 76 0 111 0;
#X connect 76 0 112 0;
#X connect 76 0 113 0;
#X connect 77 0 33 0;
#X connect 78 0 80 0;
#X connect 78 0 84 0;
#X connect 78 0 87 0;
#X connect 78 0 103 0;
#X connect 79 0 40 1;
#X connect 79 0 41 1;
#X connect 79 0 42 1;
#X connect 79 0 43 1;
#X connect 80 0 81 0;
#X connect 81 0 5 0;
#X connect 81 1 82 0;
#X connect 81 2 57 0;
#X connect 82 0 33 0;
#X connect 83 0 33 0;
#X connect 84 0 104 0;
#X connect 84 1 101 0;
#X connect 84 2 85 0;
#X connect 85 0 33 0;
#X connect 86 0 5 0;
#X connect 86 1 82 0;
#X connect 86 2 59 0;
#X connect 87 0 86 0;
#X connect 88 0 69 0;
#X connect 88 1 68 0;
#X connect 88 2 70 0;
#X connect 88 3 71 0;
#X connect 89 0 127 0;
#X connect 89 0 45 0;
#X connect 89 0 46 0;
#X connect 89 0 47 0;
#X connect 89 1 44 0;
#X connect 89 1 124 0;
#X connect 89 1 46 0;
#X connect 89 1 47 0;
#X connect 89 2 44 0;
#X connect 89 2 45 0;
#X connect 89 2 125 0;
#X connect 89 2 47 0;
#X connect 89 3 44 0;
#X connect 89 3 45 0;
#X connect 89 3 126 0;
#X connect 89 3 46 0;
#X connect 90 0 89 0;
#X connect 91 0 106 0;
#X connect 92 0 107 0;
#X connect 93 0 108 0;
#X connect 94 0 109 0;
#X connect 95 0 66 1;
#X connect 96 0 91 0;
#X connect 97 0 92 0;
#X connect 98 0 93 0;
#X connect 99 0 94 0;
#X connect 100 0 33 0;
#X connect 101 0 100 0;
#X connect 101 1 102 0;
#X connect 102 0 55 0;
#X connect 103 0 104 0;
#X connect 104 0 105 0;
#X connect 104 1 95 0;
#X connect 105 0 72 0;
#X connect 106 0 110 1;
#X connect 107 0 111 1;
#X connect 108 0 112 1;
#X connect 109 0 113 1;
#X connect 110 0 34 0;
#X connect 111 0 36 0;
#X connect 112 0 37 0;
#X connect 113 0 35 0;
#X connect 114 0 1 0;
#X connect 115 0 117 0;
#X connect 115 0 116 0;
#X connect 116 0 118 0;
#X connect 117 0 119 0;
#X connect 120 0 121 0;
#X connect 121 0 122 0;
#X connect 121 1 123 0;
#X connect 122 0 116 1;
#X connect 122 0 117 1;
#X connect 123 0 117 1;
#X connect 123 0 116 1;
#X connect 124 0 41 0;
#X connect 125 0 42 0;
#X connect 126 0 43 0;
#X connect 127 0 40 0;
#X connect 128 0 106 0;
#X connect 129 0 107 0;
#X connect 130 0 108 0;
#X connect 131 0 109 0;
#X coords 0 -1 1 1 120 20 2 100 100;
