#N canvas 237 34 1191 734 10;
#X obj 178 261 t l;
#X obj 108 300 list trim;
#X obj 107 163 bng 15 250 50 0 empty empty empty 17 7 0 10 -262144
-1 -1;
#X obj 178 221 bng 15 250 50 0 empty empty empty 17 7 0 10 -262144
-1 -1;
#X obj 108 242 list prepend;
#X obj 107 102 bng 15 250 50 0 empty empty empty 17 7 0 10 -262144
-1 -1;
#X obj 54 355 metroplus;
#X msg 53 317 start;
#X obj 64 393 bng 15 250 50 0 empty empty empty 17 7 0 10 -262144 -1
-1;
#X msg 54 336 stop;
#X obj 159 355 list length;
#X floatatom 160 375 5 0 0 0 - - -;
#X obj 108 278 list prepend set \$1;
#X msg 108 325 0 1302 829 1152 1322;
#X obj 127 443 sel \$1;
#X obj 96 408 +;
#X msg 96 388 1;
#X obj 123 408 % \$1;
#X floatatom 96 427 5 0 0 0 - - -;
#X obj 27 460 bng 15 250 50 0 empty empty empty 17 7 0 10 -262144 -1
-1;
#X obj 140 162 del 10;
#X obj 107 121 spigot;
#X obj 107 140 t b b b b b;
#X msg 193 129 0;
#X obj 128 102 tgl 15 0 empty empty empty 17 7 0 10 -262144 -1 -1 1
1;
#X msg 145 28 1;
#X obj 145 5 loadbang;
#X obj 108 57 inlet;
#X obj 29 506 del 20;
#X obj 25 210 inlet;
#X obj 29 480 t b b b b;
#X obj 476 98 spigot;
#X obj 155 102 tgl 15 0 empty empty loop 17 7 0 10 -262144 -1 -1 0
1;
#X obj 64 563 del 50;
#X obj 202 102 tgl 15 0 empty empty empty 17 7 0 10 -262144 -1 -1 0
1;
#X obj 99 519 spigot;
#X obj 154 649 expr $f1 \; if ( $f1 == 0 \, 1 \, 0) \;;
#X obj 183 162 del 20;
#X obj 107 182 many_bang 2 5;
#X obj 108 202 random 2000;
#X obj 271 546 cycle 2;
#X msg 271 523 reset;
#X obj 282 592 s cling1;
#X obj 365 587 s cling2;
#X connect 0 0 4 1;
#X connect 1 0 13 0;
#X connect 2 0 38 0;
#X connect 3 0 4 1;
#X connect 4 0 0 0;
#X connect 4 0 12 0;
#X connect 5 0 21 0;
#X connect 6 0 8 0;
#X connect 7 0 6 0;
#X connect 8 0 16 0;
#X connect 8 0 41 0;
#X connect 9 0 6 0;
#X connect 10 0 11 0;
#X connect 11 0 14 1;
#X connect 11 0 17 1;
#X connect 12 0 1 0;
#X connect 13 0 6 1;
#X connect 13 0 10 0;
#X connect 14 0 19 0;
#X connect 15 0 17 0;
#X connect 15 0 18 0;
#X connect 16 0 15 0;
#X connect 17 0 15 1;
#X connect 18 0 14 0;
#X connect 19 0 30 0;
#X connect 20 0 13 0;
#X connect 21 0 22 0;
#X connect 22 0 2 0;
#X connect 22 1 3 0;
#X connect 22 2 20 0;
#X connect 22 3 37 0;
#X connect 22 4 23 0;
#X connect 23 0 24 0;
#X connect 24 0 21 1;
#X connect 25 0 24 0;
#X connect 26 0 25 0;
#X connect 27 0 5 0;
#X connect 28 0 35 0;
#X connect 29 0 19 0;
#X connect 30 0 28 0;
#X connect 30 1 25 0;
#X connect 30 2 9 0;
#X connect 30 3 33 0;
#X connect 31 0 5 0;
#X connect 32 0 31 1;
#X connect 32 0 36 0;
#X connect 33 0 31 0;
#X connect 36 1 35 1;
#X connect 37 0 7 0;
#X connect 38 0 39 0;
#X connect 39 0 4 0;
#X connect 40 0 42 0;
#X connect 40 1 43 0;
#X connect 41 0 40 0;
#X coords 0 -1 1 1 120 20 2 100 100;
