#N canvas 71 22 1191 734 10;
#X obj 178 261 t l;
#X obj 108 300 list trim;
#X obj 107 163 bng 15 250 50 0 empty empty empty 17 7 0 10 -262144
-1 -1;
#X obj 178 221 bng 15 250 50 0 empty empty empty 17 7 0 10 -262144
-1 -1;
#X obj 108 242 list prepend;
#X obj 107 102 bng 15 250 50 0 empty empty empty 17 7 0 10 -262144
-1 -1;
#X obj 54 355 metroplus;
#X msg 53 317 start;
#X obj 55 373 bng 15 250 50 0 empty empty empty 17 7 0 10 -262144 -1
-1;
#X msg 54 336 stop;
#X obj 159 355 list length;
#X floatatom 160 375 5 0 0 0 - - -;
#X msg 108 325 898 660 287 382 2 460 1072 581 713 548 1121 676 134
567 364 451 193 889;
#X obj 127 443 sel \$1;
#X obj 96 408 +;
#X msg 96 388 1;
#X obj 123 408 % \$1;
#X floatatom 96 427 5 0 0 0 - - -;
#X obj 29 460 bng 15 250 50 0 empty empty empty 17 7 0 10 -262144 -1
-1;
#X obj 140 162 del 10;
#X obj 183 162 del 20;
#X obj 107 121 spigot;
#X obj 107 140 t b b b b b;
#X msg 170 123 0;
#X obj 128 102 tgl 15 0 empty empty empty 17 7 0 10 -262144 -1 -1 1
1;
#X msg 142 60 1;
#X obj 142 37 loadbang;
#X obj 93 57 inlet;
#X obj 107 182 many_bang 5 20;
#X obj 29 502 del 20;
#X obj 29 57 inlet;
#X obj 29 480 t b b b b;
#X obj 60 117 spigot;
#X obj 148 102 tgl 15 0 empty empty loop 17 7 0 10 -262144 -1 -1 0
1;
#X obj 267 617 throw~ master1L;
#X obj 431 673 throw~ master2R;
#X obj 308 635 throw~ master1R;
#X obj 364 653 throw~ master2L;
#X msg 239 489 0;
#X obj 79 501 del 50;
#X obj 284 507 pack 0 100;
#X obj 365 508 pack 0 100;
#X obj 448 508 pack 0 100;
#X obj 526 509 pack 0 100;
#X msg 331 465 0;
#X msg 396 464 0;
#X msg 460 463 0;
#X msg 525 462 0;
#X obj 108 202 random 250;
#X obj 359 83 metro 10000;
#X obj 365 126 cycle 4;
#X msg 363 107 reset;
#X msg 360 184 250;
#X msg 415 184 1200;
#X msg 504 184 2000;
#X obj 202 102 tgl 15 0 empty empty empty 17 7 0 10 -262144 -1 -1 0
1;
#X obj 360 152 t b b;
#X obj 415 150 t b b;
#X obj 467 149 t b b;
#X obj 504 149 t b b;
#X msg 387 208 60;
#X msg 442 208 100;
#X obj 457 67 bng 15 250 50 0 empty empty empty 17 7 0 10 -262144 -1
-1;
#X msg 467 184 180;
#X msg 494 209 70;
#X obj 238 519 spigot;
#X obj 148 655 expr $f1 \; if ( $f1 == 0 \, 1 \, 0) \;;
#X obj 755 116 metro 5000;
#X msg 756 147 reset;
#X obj 726 266 del 3000;
#X obj 667 265 t b b;
#X obj 856 268 del 3000;
#X obj 797 267 t b b;
#X obj 988 269 del 3000;
#X obj 929 268 t b b;
#X obj 1118 271 del 3000;
#X obj 1059 270 t b b;
#X obj 230 103 tgl 15 0 empty empty empty 17 7 0 10 -262144 -1 -1 0
1;
#X msg 726 288 0 5000;
#X msg 856 290 0 5000;
#X msg 988 291 0 5000;
#X msg 1118 293 0 5000;
#X msg 828 66 3000;
#X msg 667 288 0.8 3000;
#X msg 797 290 0.8 3000;
#X msg 929 291 0.8 3000;
#X msg 1059 293 0.8 3000;
#X msg 303 465 0.8;
#X msg 368 464 0.8;
#X msg 432 463 0.8;
#X msg 497 462 0.8;
#X obj 256 60 t b b b;
#X msg 273 79 1;
#X obj 258 15 r bolaspre;
#X obj 195 562 r~ cotbolL;
#X obj 519 559 r~ cotbolR;
#X msg 312 61 0;
#X obj 536 67 t b b b;
#X msg 555 92 1;
#X obj 536 45 sel 4 5;
#X obj 366 422 sel 0 1 2 3;
#X obj 365 394 random 4;
#X obj 757 170 cycle 4;
#X obj 258 37 sel 2 1 0 7;
#X msg 386 64 1;
#X obj 883 179 bng 15 250 50 0 empty empty empty 17 7 0 10 -262144
-1 -1;
#X obj 1013 210 bng 15 250 50 0 empty empty empty 17 7 0 10 -262144
-1 -1;
#X msg 870 91 1500;
#X obj 336 53 t b b b;
#X obj 267 593 *~;
#X obj 308 593 *~;
#X obj 360 593 *~;
#X obj 424 592 *~;
#X obj 284 538 line~;
#X obj 365 539 line~;
#X obj 448 538 line~;
#X obj 526 536 line~;
#X obj 108 278 list prepend set;
#X connect 0 0 4 1;
#X connect 1 0 12 0;
#X connect 2 0 28 0;
#X connect 3 0 4 1;
#X connect 4 0 0 0;
#X connect 4 0 117 0;
#X connect 5 0 21 0;
#X connect 6 0 8 0;
#X connect 7 0 6 0;
#X connect 8 0 15 0;
#X connect 8 0 101 0;
#X connect 9 0 6 0;
#X connect 10 0 11 0;
#X connect 11 0 13 1;
#X connect 11 0 16 1;
#X connect 12 0 6 1;
#X connect 12 0 10 0;
#X connect 13 0 18 0;
#X connect 14 0 16 0;
#X connect 14 0 17 0;
#X connect 15 0 14 0;
#X connect 16 0 14 1;
#X connect 17 0 13 0;
#X connect 18 0 31 0;
#X connect 19 0 12 0;
#X connect 20 0 7 0;
#X connect 21 0 22 0;
#X connect 22 0 2 0;
#X connect 22 1 3 0;
#X connect 22 2 19 0;
#X connect 22 3 20 0;
#X connect 22 4 23 0;
#X connect 23 0 24 0;
#X connect 24 0 21 1;
#X connect 25 0 24 0;
#X connect 26 0 25 0;
#X connect 27 0 5 0;
#X connect 28 0 48 0;
#X connect 29 0 65 0;
#X connect 30 0 18 0;
#X connect 31 0 29 0;
#X connect 31 1 25 0;
#X connect 31 2 9 0;
#X connect 31 3 39 0;
#X connect 32 0 5 0;
#X connect 33 0 32 1;
#X connect 33 0 66 0;
#X connect 38 0 40 0;
#X connect 38 0 41 0;
#X connect 38 0 42 0;
#X connect 38 0 43 0;
#X connect 39 0 32 0;
#X connect 40 0 113 0;
#X connect 41 0 114 0;
#X connect 42 0 115 0;
#X connect 43 0 116 0;
#X connect 44 0 40 0;
#X connect 45 0 41 0;
#X connect 46 0 42 0;
#X connect 47 0 43 0;
#X connect 48 0 4 0;
#X connect 49 0 51 0;
#X connect 50 0 56 0;
#X connect 50 1 57 0;
#X connect 50 2 58 0;
#X connect 50 3 59 0;
#X connect 51 0 50 0;
#X connect 52 0 48 1;
#X connect 53 0 48 1;
#X connect 54 0 48 1;
#X connect 55 0 49 0;
#X connect 56 0 52 0;
#X connect 56 1 60 0;
#X connect 57 0 53 0;
#X connect 57 1 61 0;
#X connect 58 0 63 0;
#X connect 58 1 64 0;
#X connect 59 0 54 0;
#X connect 59 1 61 0;
#X connect 60 0 40 1;
#X connect 60 0 41 1;
#X connect 60 0 42 1;
#X connect 60 0 43 1;
#X connect 61 0 40 1;
#X connect 61 0 41 1;
#X connect 61 0 42 1;
#X connect 61 0 43 1;
#X connect 62 0 58 0;
#X connect 63 0 48 1;
#X connect 64 0 40 1;
#X connect 64 0 41 1;
#X connect 64 0 42 1;
#X connect 64 0 43 1;
#X connect 65 0 38 0;
#X connect 66 1 65 1;
#X connect 67 0 68 0;
#X connect 68 0 102 0;
#X connect 69 0 78 0;
#X connect 70 0 83 0;
#X connect 70 1 69 0;
#X connect 71 0 79 0;
#X connect 72 0 84 0;
#X connect 72 1 71 0;
#X connect 73 0 80 0;
#X connect 74 0 85 0;
#X connect 74 1 73 0;
#X connect 75 0 81 0;
#X connect 76 0 86 0;
#X connect 76 1 75 0;
#X connect 77 0 67 0;
#X connect 78 0 113 0;
#X connect 79 0 114 0;
#X connect 80 0 115 0;
#X connect 81 0 116 0;
#X connect 82 0 67 1;
#X connect 83 0 113 0;
#X connect 84 0 114 0;
#X connect 85 0 115 0;
#X connect 86 0 116 0;
#X connect 87 0 40 0;
#X connect 88 0 41 0;
#X connect 89 0 42 0;
#X connect 90 0 43 0;
#X connect 91 0 5 0;
#X connect 91 1 92 0;
#X connect 91 2 57 0;
#X connect 92 0 33 0;
#X connect 93 0 99 0;
#X connect 93 0 103 0;
#X connect 94 0 109 0;
#X connect 94 0 110 0;
#X connect 94 0 111 0;
#X connect 94 0 112 0;
#X connect 95 0 109 0;
#X connect 95 0 110 0;
#X connect 95 0 111 0;
#X connect 95 0 112 0;
#X connect 96 0 33 0;
#X connect 97 0 5 0;
#X connect 97 1 98 0;
#X connect 97 2 57 0;
#X connect 98 0 33 0;
#X connect 99 0 97 0;
#X connect 99 1 97 0;
#X connect 100 0 87 0;
#X connect 100 0 45 0;
#X connect 100 0 46 0;
#X connect 100 0 47 0;
#X connect 100 1 44 0;
#X connect 100 1 88 0;
#X connect 100 1 46 0;
#X connect 100 1 47 0;
#X connect 100 2 44 0;
#X connect 100 2 45 0;
#X connect 100 2 89 0;
#X connect 100 2 47 0;
#X connect 100 3 44 0;
#X connect 100 3 45 0;
#X connect 100 3 90 0;
#X connect 100 3 46 0;
#X connect 101 0 100 0;
#X connect 102 0 72 0;
#X connect 102 1 70 0;
#X connect 102 2 74 0;
#X connect 102 2 105 0;
#X connect 102 3 76 0;
#X connect 102 3 106 0;
#X connect 103 0 91 0;
#X connect 103 1 91 0;
#X connect 103 2 96 0;
#X connect 103 3 108 0;
#X connect 104 0 77 0;
#X connect 107 0 67 1;
#X connect 108 0 5 0;
#X connect 108 1 104 0;
#X connect 108 2 107 0;
#X connect 109 0 34 0;
#X connect 110 0 36 0;
#X connect 111 0 37 0;
#X connect 112 0 35 0;
#X connect 113 0 109 1;
#X connect 114 0 110 1;
#X connect 115 0 111 1;
#X connect 116 0 112 1;
#X connect 117 0 1 0;
#X coords 0 -1 1 1 150 20 2 100 100;
