#N canvas 294 22 1436 798 10;
#X obj 100 100 cnv 15 590 110 empty empty empty 20 12 0 14 -55397 -66577
0;
#X obj 42 688 s \$0-damping;
#X obj 145 689 s \$0-feedback;
#X obj 42 663 * 44100;
#X obj 43 641 expr pow($f1 \, 4);
#X obj 43 593 * 0.9;
#X obj 43 617 + 0.1;
#X obj 11 323 *~ 1;
#X obj 17 391 *~ 1;
#N canvas 348 66 830 530 LEFT 0;
#N canvas 388 22 522 372 comb-1 0;
#X obj 216 112 r \$0-damping;
#X obj 152 208 delwrite~ \$0-rev1 26;
#X obj 154 146 lop~ 20000;
#X obj 154 169 *~ 0.5;
#X obj 155 61 delread~ \$0-rev1 25.3061;
#X obj 72 37 inlet~;
#X obj 67 234 outlet~;
#X obj 233 147 r \$0-feedback;
#X floatatom 259 172 5 0 0 0 - - -;
#X connect 0 0 2 1;
#X connect 2 0 3 0;
#X connect 3 0 1 0;
#X connect 3 0 6 0;
#X connect 4 0 2 0;
#X connect 5 0 1 0;
#X connect 7 0 3 1;
#X connect 7 0 8 0;
#X restore -13 181 pd comb-1;
#N canvas 549 236 494 344 comb-2 0;
#X obj 236 93 r \$0-damping;
#X obj 174 127 lop~ 20000;
#X obj 174 150 *~ 0.5;
#X obj 90 36 inlet~;
#X obj 88 231 outlet~;
#X obj 253 128 r \$0-feedback;
#X obj 169 63 delread~ \$0-rev2 26.9388;
#X obj 171 202 delwrite~ \$0-rev2 27;
#X connect 0 0 1 1;
#X connect 1 0 2 0;
#X connect 2 0 7 0;
#X connect 2 0 4 0;
#X connect 3 0 7 0;
#X connect 5 0 2 1;
#X connect 6 0 1 0;
#X restore 49 181 pd comb-2;
#N canvas 400 75 490 340 comb-3 0;
#X obj 203 102 r \$0-damping;
#X obj 141 136 lop~ 20000;
#X obj 139 165 *~ 0.5;
#X obj 57 43 inlet~;
#X obj 57 248 outlet~;
#X obj 220 137 r \$0-feedback;
#X obj 117 67 delread~ \$0-rev3 28.9569;
#X obj 137 210 delwrite~ \$0-rev3 29;
#X connect 0 0 1 1;
#X connect 1 0 2 0;
#X connect 2 0 7 0;
#X connect 2 0 4 0;
#X connect 3 0 7 0;
#X connect 5 0 2 1;
#X connect 6 0 1 0;
#X restore 110 181 pd comb-3;
#N canvas 746 118 494 344 comb-4 0;
#X obj 244 103 r \$0-damping;
#X obj 182 137 lop~ 20000;
#X obj 182 160 *~ 0.5;
#X obj 90 36 inlet~;
#X obj 88 231 outlet~;
#X obj 261 138 r \$0-feedback;
#X obj 175 73 delread~ \$0-rev4 30.7483;
#X obj 171 206 delwrite~ \$0-rev4 31;
#X connect 0 0 1 1;
#X connect 1 0 2 0;
#X connect 2 0 7 0;
#X connect 2 0 4 0;
#X connect 3 0 7 0;
#X connect 5 0 2 1;
#X connect 6 0 1 0;
#X restore 172 181 pd comb-4;
#N canvas 805 59 474 324 comb-5 0;
#X obj 196 95 r \$0-damping;
#X obj 134 129 lop~ 20000;
#X obj 134 152 *~ 0.5;
#X obj 90 36 inlet~;
#X obj 88 231 outlet~;
#X obj 213 130 r \$0-feedback;
#X obj 135 61 delread~ \$0-rev5 34.2449;
#X obj 132 203 delwrite~ \$0-rev5 35;
#X connect 0 0 1 1;
#X connect 1 0 2 0;
#X connect 2 0 7 0;
#X connect 2 0 4 0;
#X connect 3 0 7 0;
#X connect 5 0 2 1;
#X connect 6 0 1 0;
#X restore 234 181 pd comb-5;
#N canvas 702 107 474 324 comb-6 0;
#X obj 238 87 r \$0-damping;
#X obj 176 121 lop~ 20000;
#X obj 176 144 *~ 0.5;
#X obj 90 36 inlet~;
#X obj 88 231 outlet~;
#X obj 255 122 r \$0-feedback;
#X obj 238 54 delread~ \$0-rev6 33.8095;
#X obj 177 197 delwrite~ \$0-rev6 34;
#X connect 0 0 1 1;
#X connect 1 0 2 0;
#X connect 2 0 4 0;
#X connect 2 0 7 0;
#X connect 3 0 7 0;
#X connect 5 0 2 1;
#X connect 6 0 1 0;
#X restore 296 181 pd comb-6;
#N canvas 552 280 474 324 comb-7 0;
#X obj 193 101 r \$0-damping;
#X obj 131 135 lop~ 20000;
#X obj 131 158 *~ 0.5;
#X obj 80 50 inlet~;
#X obj 88 231 outlet~;
#X obj 210 136 r \$0-feedback;
#X obj 194 70 delread~ \$0-rev7 35.7596;
#X obj 129 207 delwrite~ \$0-rev7 36;
#X connect 0 0 1 1;
#X connect 1 0 2 0;
#X connect 2 0 4 0;
#X connect 2 0 7 0;
#X connect 3 0 7 0;
#X connect 5 0 2 1;
#X connect 6 0 1 0;
#X restore 357 181 pd comb-7;
#N canvas 582 455 478 328 comb-8 0;
#X obj 202 100 r \$0-damping;
#X obj 140 134 lop~ 20000;
#X obj 140 157 *~ 0.5;
#X obj 90 36 inlet~;
#X obj 88 231 outlet~;
#X obj 219 135 r \$0-feedback;
#X obj 204 67 delread~ \$0-rev8 36.6667;
#X obj 140 205 delwrite~ \$0-rev8 37;
#X connect 0 0 1 1;
#X connect 1 0 2 0;
#X connect 2 0 4 0;
#X connect 2 0 7 0;
#X connect 3 0 7 0;
#X connect 5 0 2 1;
#X connect 6 0 1 0;
#X restore 419 181 pd comb-8;
#N canvas 376 127 648 562 allpass-1 0;
#X obj 186 65 inlet~;
#X obj 245 422 *~ 0.5;
#X obj 213 389 delread~ \$0-fbcf-1 12.6077;
#X obj 175 490 outlet~;
#X obj 437 474 delwrite~ \$0-fbcf-1 13;
#X obj 168 391 *~ -1;
#X connect 0 0 5 0;
#X connect 0 0 4 0;
#X connect 1 0 4 0;
#X connect 2 0 1 0;
#X connect 2 0 3 0;
#X connect 5 0 3 0;
#X restore 241 319 pd allpass-1;
#N canvas 0 22 640 554 allpass-2 0;
#X obj 186 65 inlet~;
#X obj 245 422 *~ 0.5;
#X obj 175 490 outlet~;
#X obj 168 391 *~ -1;
#X obj 213 389 delread~ \$0-fbcf-2 10;
#X obj 439 474 delwrite~ \$0-fbcf-2 11;
#X connect 0 0 3 0;
#X connect 0 0 5 0;
#X connect 1 0 5 0;
#X connect 3 0 2 0;
#X connect 4 0 1 0;
#X connect 4 0 2 0;
#X restore 241 339 pd allpass-2;
#N canvas 0 22 644 558 allpass-3 0;
#X obj 186 65 inlet~;
#X obj 245 422 *~ 0.5;
#X obj 175 490 outlet~;
#X obj 168 391 *~ -1;
#X obj 213 389 delread~ \$0-fbcf-3 7.77324;
#X obj 437 474 delwrite~ \$0-fbcf-3 8;
#X connect 0 0 3 0;
#X connect 0 0 5 0;
#X connect 1 0 5 0;
#X connect 3 0 2 0;
#X connect 4 0 1 0;
#X connect 4 0 2 0;
#X restore 240 360 pd allpass-3;
#N canvas 0 22 636 550 allpass-4 0;
#X obj 186 65 inlet~;
#X obj 245 422 *~ 0.5;
#X obj 175 490 outlet~;
#X obj 168 391 *~ -1;
#X obj 214 389 delread~ \$0-fbcf-4 5.10204;
#X obj 437 474 delwrite~ \$0-fbcf-4 6;
#X connect 0 0 3 0;
#X connect 0 0 5 0;
#X connect 1 0 5 0;
#X connect 3 0 2 0;
#X connect 4 0 1 0;
#X connect 4 0 2 0;
#X restore 242 381 pd allpass-4;
#X obj 241 300 *~ 0.25;
#X obj 234 90 *~ 0.05;
#X obj 244 469 outlet~;
#X obj 217 18 inlet~;
#N canvas 256 222 522 372 comb-9 0;
#X obj 154 146 lop~ 20000;
#X obj 154 169 *~ 0.5;
#X obj 72 37 inlet~;
#X obj 67 234 outlet~;
#X obj 155 61 delread~ \$0-rev9 37.3061;
#X obj 152 208 delwrite~ \$0-rev9 38;
#X obj 216 112 r \$0-damping2;
#X obj 233 147 r \$0-feedback2;
#X connect 0 0 1 0;
#X connect 1 0 3 0;
#X connect 1 0 5 0;
#X connect 2 0 5 0;
#X connect 4 0 0 0;
#X connect 6 0 0 1;
#X connect 7 0 1 1;
#X restore 315 262 pd comb-9;
#N canvas 549 236 494 344 comb-10 0;
#X obj 174 127 lop~ 20000;
#X obj 174 150 *~ 0.5;
#X obj 90 36 inlet~;
#X obj 88 231 outlet~;
#X obj 169 63 delread~ \$0-rev10 38.9388;
#X obj 171 202 delwrite~ \$0-rev10 39;
#X obj 236 93 r \$0-damping2;
#X obj 253 128 r \$0-feedback2;
#X connect 0 0 1 0;
#X connect 1 0 3 0;
#X connect 1 0 5 0;
#X connect 2 0 5 0;
#X connect 4 0 0 0;
#X connect 6 0 0 1;
#X connect 7 0 1 1;
#X restore 377 262 pd comb-10;
#N canvas 400 75 490 340 comb-11 0;
#X obj 141 136 lop~ 20000;
#X obj 139 165 *~ 0.5;
#X obj 57 43 inlet~;
#X obj 57 248 outlet~;
#X obj 117 67 delread~ \$0-rev11 39.9569;
#X obj 137 210 delwrite~ \$0-rev11 40;
#X obj 203 102 r \$0-damping2;
#X obj 220 137 r \$0-feedback2;
#X connect 0 0 1 0;
#X connect 1 0 3 0;
#X connect 1 0 5 0;
#X connect 2 0 5 0;
#X connect 4 0 0 0;
#X connect 6 0 0 1;
#X connect 7 0 1 1;
#X restore 438 262 pd comb-11;
#N canvas 746 118 494 344 comb-12 0;
#X obj 182 137 lop~ 20000;
#X obj 182 160 *~ 0.5;
#X obj 90 36 inlet~;
#X obj 88 231 outlet~;
#X obj 175 73 delread~ \$0-rev12 40.7483;
#X obj 171 206 delwrite~ \$0-rev12 41;
#X obj 244 103 r \$0-damping2;
#X obj 261 138 r \$0-feedback2;
#X connect 0 0 1 0;
#X connect 1 0 3 0;
#X connect 1 0 5 0;
#X connect 2 0 5 0;
#X connect 4 0 0 0;
#X connect 6 0 0 1;
#X connect 7 0 1 1;
#X restore 500 262 pd comb-12;
#N canvas 805 59 474 324 comb-13 0;
#X obj 134 129 lop~ 20000;
#X obj 134 152 *~ 0.5;
#X obj 90 36 inlet~;
#X obj 88 231 outlet~;
#X obj 135 61 delread~ \$0-rev13 41.2449;
#X obj 132 203 delwrite~ \$0-rev13 42;
#X obj 196 95 r \$0-damping2;
#X obj 213 130 r \$0-feedback2;
#X connect 0 0 1 0;
#X connect 1 0 3 0;
#X connect 1 0 5 0;
#X connect 2 0 5 0;
#X connect 4 0 0 0;
#X connect 6 0 0 1;
#X connect 7 0 1 1;
#X restore 562 262 pd comb-13;
#N canvas 702 107 474 324 comb-14 0;
#X obj 176 121 lop~ 20000;
#X obj 176 144 *~ 0.5;
#X obj 90 36 inlet~;
#X obj 88 231 outlet~;
#X obj 238 54 delread~ \$0-rev14 42.8095;
#X obj 238 87 r \$0-damping2;
#X obj 255 122 r \$0-feedback2;
#X obj 177 197 delwrite~ \$0-rev14 43;
#X connect 0 0 1 0;
#X connect 1 0 3 0;
#X connect 1 0 7 0;
#X connect 2 0 7 0;
#X connect 4 0 0 0;
#X connect 5 0 0 1;
#X connect 6 0 1 1;
#X restore 624 262 pd comb-14;
#N canvas 742 153 474 324 comb-15 0;
#X obj 131 135 lop~ 20000;
#X obj 131 158 *~ 0.5;
#X obj 80 50 inlet~;
#X obj 88 231 outlet~;
#X obj 194 70 delread~ \$0-rev15 44.7596;
#X obj 129 207 delwrite~ \$0-rev15 45;
#X obj 193 101 r \$0-damping2;
#X obj 210 136 r \$0-feedback2;
#X connect 0 0 1 0;
#X connect 1 0 3 0;
#X connect 1 0 5 0;
#X connect 2 0 5 0;
#X connect 4 0 0 0;
#X connect 6 0 0 1;
#X connect 7 0 1 1;
#X restore 685 262 pd comb-15;
#N canvas 731 107 478 328 comb-16 0;
#X obj 140 134 lop~ 20000;
#X obj 140 157 *~ 0.5;
#X obj 90 36 inlet~;
#X obj 88 231 outlet~;
#X obj 140 205 delwrite~ \$0-rev16 47;
#X obj 204 67 delread~ \$0-rev16 46.6667;
#X obj 202 100 r \$0-damping2;
#X obj 219 135 r \$0-feedback2;
#X connect 0 0 1 0;
#X connect 1 0 3 0;
#X connect 1 0 4 0;
#X connect 2 0 4 0;
#X connect 5 0 0 0;
#X connect 6 0 0 1;
#X connect 7 0 1 1;
#X restore 747 262 pd comb-16;
#X obj 532 321 *~ 0.25;
#X obj 535 490 outlet~;
#X obj 547 198 *~ 0.05;
#X obj 530 126 inlet~;
#N canvas 376 127 648 562 allpass-5 0;
#X obj 186 65 inlet~;
#X obj 245 422 *~ 0.5;
#X obj 175 490 outlet~;
#X obj 168 391 *~ -1;
#X obj 213 389 delread~ \$0-fbcf-5 12.6077;
#X obj 437 474 delwrite~ \$0-fbcf-5 13;
#X connect 0 0 3 0;
#X connect 0 0 5 0;
#X connect 1 0 5 0;
#X connect 3 0 2 0;
#X connect 4 0 1 0;
#X connect 4 0 2 0;
#X restore 532 340 pd allpass-5;
#N canvas 0 22 644 558 allpass-7 0;
#X obj 186 65 inlet~;
#X obj 245 422 *~ 0.5;
#X obj 175 490 outlet~;
#X obj 168 391 *~ -1;
#X obj 213 389 delread~ \$0-fbcf-7 7.77324;
#X obj 437 474 delwrite~ \$0-fbcf-7 8;
#X connect 0 0 3 0;
#X connect 0 0 5 0;
#X connect 1 0 5 0;
#X connect 3 0 2 0;
#X connect 4 0 1 0;
#X connect 4 0 2 0;
#X restore 531 379 pd allpass-7;
#N canvas 0 22 636 550 allpass-8 0;
#X obj 186 65 inlet~;
#X obj 245 422 *~ 0.5;
#X obj 175 490 outlet~;
#X obj 168 391 *~ -1;
#X obj 214 389 delread~ \$0-fbcf-8 5.10204;
#X obj 437 474 delwrite~ \$0-fbcf-8 6;
#X connect 0 0 3 0;
#X connect 0 0 5 0;
#X connect 1 0 5 0;
#X connect 3 0 2 0;
#X connect 4 0 1 0;
#X connect 4 0 2 0;
#X restore 533 402 pd allpass-8;
#N canvas 0 22 640 554 allpass-6 0;
#X obj 186 65 inlet~;
#X obj 245 422 *~ 0.5;
#X obj 175 490 outlet~;
#X obj 168 391 *~ -1;
#X obj 213 389 delread~ \$0-fbcf-6 10;
#X obj 439 473 delwrite~ \$0-fbcf-6 11;
#X connect 0 0 3 0;
#X connect 0 0 5 0;
#X connect 1 0 5 0;
#X connect 3 0 2 0;
#X connect 4 0 1 0;
#X connect 4 0 2 0;
#X restore 532 360 pd allpass-6;
#X floatatom 167 371 5 0 0 0 - - -;
#X obj 183 318 r \$0-vo;
#X obj 625 326 r \$0-vo1;
#X connect 0 0 12 0;
#X connect 1 0 12 0;
#X connect 2 0 12 0;
#X connect 3 0 12 0;
#X connect 4 0 12 0;
#X connect 5 0 12 0;
#X connect 6 0 12 0;
#X connect 7 0 12 0;
#X connect 8 0 9 0;
#X connect 9 0 10 0;
#X connect 10 0 11 0;
#X connect 11 0 14 0;
#X connect 12 0 8 0;
#X connect 13 0 0 0;
#X connect 13 0 1 0;
#X connect 13 0 2 0;
#X connect 13 0 3 0;
#X connect 13 0 4 0;
#X connect 13 0 5 0;
#X connect 13 0 6 0;
#X connect 13 0 7 0;
#X connect 15 0 13 0;
#X connect 16 0 24 0;
#X connect 17 0 24 0;
#X connect 18 0 24 0;
#X connect 19 0 24 0;
#X connect 20 0 24 0;
#X connect 21 0 24 0;
#X connect 22 0 24 0;
#X connect 23 0 24 0;
#X connect 24 0 28 0;
#X connect 26 0 16 0;
#X connect 26 0 17 0;
#X connect 26 0 18 0;
#X connect 26 0 19 0;
#X connect 26 0 20 0;
#X connect 26 0 21 0;
#X connect 26 0 22 0;
#X connect 26 0 23 0;
#X connect 27 0 26 0;
#X connect 28 0 31 0;
#X connect 29 0 30 0;
#X connect 30 0 25 0;
#X connect 31 0 29 0;
#X connect 33 0 12 1;
#X connect 33 0 32 0;
#X connect 34 0 24 1;
#X restore 51 337 pd LEFT;
#X obj 145 653 * 0.28;
#X obj 145 671 + 0.7;
#X obj 145 581 - 1;
#X obj 145 617 - 1;
#X obj 145 635 abs;
#X obj 145 599 expr pow($f1 \, 4);
#X obj 245 664 * 44100;
#X obj 246 642 expr pow($f1 \, 4);
#X obj 246 594 * 0.9;
#X obj 246 618 + 0.1;
#X obj 245 689 s \$0-damping2;
#X obj 347 655 * 0.28;
#X obj 347 673 + 0.7;
#X obj 347 583 - 1;
#X obj 347 619 - 1;
#X obj 347 637 abs;
#X obj 347 601 expr pow($f1 \, 4);
#X obj 347 691 s \$0-feedback2;
#X obj 95 400 *~ 1;
#X obj 128 -12 randomF 1;
#X floatatom 127 36 5 0 0 0 - - -;
#X obj 128 -31 metro;
#X obj 206 -10 randomF 1;
#X floatatom 205 33 5 0 0 0 - - -;
#X obj 206 -29 metro;
#X obj 135 326 *~ 1;
#X obj 246 574 r \$0-dam2;
#X obj 44 570 r \$0-dam;
#X obj 145 563 r \$0-feb;
#X obj 347 565 r \$0-feb2;
#X obj 311 -30 randomF 1;
#X floatatom 311 25 5 0 0 0 - - -;
#X obj 311 -49 metro;
#X obj 377 8 randomF 1;
#X obj 377 -11 metro;
#X floatatom 433 80 5 0 0 0 - - -;
#X obj 311 6 line;
#X obj 311 -12 pack 0 500;
#X obj 433 44 pack 0 800;
#X obj 433 62 line;
#X obj 388 27 moses 0.2;
#N canvas 172 260 1078 453 (subpatch) 0;
#X floatatom 150 183 5 0 0 0 - - #0-da;
#X obj 202 83 inlet;
#X floatatom 204 183 5 0 0 0 - - #0-da2;
#X floatatom 257 180 5 0 0 0 - - #0-we;
#X floatatom 310 183 5 0 0 0 - - #0-we2;
#X floatatom 379 185 5 0 0 0 - - #0-fb;
#X floatatom 430 185 5 0 0 0 - - #0-fb2;
#X floatatom 495 185 5 0 0 0 - - #0-dr;
#X floatatom 548 185 5 0 0 0 - - #0-dr1;
#X floatatom 594 188 5 0 0 0 - - volrr;
#X floatatom 647 188 5 0 0 0 - - volrl;
#X obj 205 107 route d1 d2 w1 w2 f1 f2 dr1 dr2 volrr volrl volr1 volr2
;
#X floatatom 695 189 5 0 0 0 - - volr1;
#X floatatom 748 189 5 0 0 0 - - volr2;
#X connect 1 0 11 0;
#X connect 11 0 0 0;
#X connect 11 1 2 0;
#X connect 11 2 3 0;
#X connect 11 3 4 0;
#X connect 11 4 5 0;
#X connect 11 5 6 0;
#X connect 11 6 7 0;
#X connect 11 7 8 0;
#X connect 11 8 9 0;
#X connect 11 9 10 0;
#X connect 11 10 12 0;
#X connect 11 11 13 0;
#X restore 801 310 pd;
#X floatatom 467 -29 5 0 100 0 - - -;
#X obj 468 -10 / 100;
#X floatatom 468 8 5 0 0 0 - - -;
#X obj 648 125 vsl 15 60 0 1 0 0 \$0-vo \$0-volr empty 0 -9 0 10 -121454
-262130 -1 0 0;
#X obj 666 125 vsl 15 60 0 1 0 0 \$0-vo1 \$0-voll empty 0 -9 0 10 -121454
-262130 -1 0 0;
#X obj 701 118 switch~;
#X obj 666 103 tgl 15 0 \$0-rvswitch \$0-rrvswitch empty 17 7 0 10
-262144 -1 -1 0 1;
#X obj 128 -49 r \$0-metda;
#X obj 155 -66 r \$0-numetda;
#X obj 206 -48 r \$0-metda2;
#X obj 233 -65 r \$0-numetda2;
#X obj 311 -86 r \$0-metwet;
#X obj 338 -67 r \$0-numetwet;
#X obj 377 -49 r \$0-metwet2;
#X obj 376 -30 r \$0-numetwet2;
#N canvas 297 133 1218 737 presets 0;
#X obj -69 238 r \$0-metda;
#X obj -69 272 s \$0-rmetda;
#X obj 2 272 r \$0-metda2;
#X obj 2 306 s \$0-rmetda2;
#X obj -71 -133 r \$0-dam;
#X obj -72 -93 s \$0-da;
#X obj -12 -94 r \$0-dam2;
#X obj -71 307 r \$0-metwet;
#X obj -71 341 s \$0-rmetwet;
#X obj 5 341 r \$0-metwet2;
#X obj 5 375 s \$0-rmetwet2;
#X obj 83 -134 r \$0-wet;
#X obj 83 -100 s \$0-we;
#X obj -11 -58 s \$0-da2;
#X obj 144 -99 r \$0-wet2;
#X obj 144 -62 s \$0-we2;
#X obj -72 -58 r \$0-feb;
#X obj -72 -21 s \$0-fb;
#X obj -22 -19 r \$0-feb2;
#X obj -22 20 s \$0-fb2;
#X obj -77 21 r \$0-dry;
#X obj -77 60 s \$0-dr;
#X obj 131 -42 r \$0-dry1;
#X obj 131 -8 s \$0-dr1;
#X obj 67 21 r \$0-vo;
#X obj 67 54 s \$0-volr;
#X obj -28 93 s \$0-voll;
#X obj -28 59 r \$0-vo1;
#X obj -70 113 r \$0-numetda;
#X obj -70 149 s \$0-rnumetda;
#X obj -71 168 r \$0-numetda2;
#X obj -71 203 s \$0-rnumetda2;
#X obj 86 98 r \$0-numetwet;
#X obj 86 132 s \$0-rnumetwet;
#X obj 91 150 r \$0-numetwet2;
#X obj 91 185 s \$0-rnumetwet2;
#X obj -72 -171 inlet;
#X obj -11 -171 inlet;
#X obj 83 -174 inlet;
#X obj 144 -172 inlet;
#X obj 17 203 r \$0-rvswitch;
#X obj 17 237 s \$0-rrvswitch;
#X obj -71 -113 save.me.mmb rv2da rvrbf;
#X obj 83 -118 save.me.mmb rv2wet rvrbf;
#X obj 144 -81 save.me.mmb rv2wet2 rvrbf;
#X obj -12 -76 save.me.mmb rv2da2 rvrbf;
#X obj -72 -39 save.me.mmb rv2feb rvrbf;
#X obj 131 -25 save.me.mmb rv2dry2 rvrbf;
#X obj -22 1 save.me.mmb rv2feb2 rvrbf;
#X obj -77 40 save.me.mmb rv2dry rvrbf;
#X obj 67 38 save.me.mmb rv2volr rvrbf;
#X obj -28 76 save.me.mmb rv2voll rvrbf;
#X obj 86 115 save.me.mmb rv2numwet rvrbf;
#X obj -70 131 save.me.mmb rv2numda rvrbf;
#X obj 91 167 save.me.mmb rv2numwet2 rvrbf;
#X obj -71 185 save.me.mmb rv2numda2 rvrbf;
#X obj 17 220 save.me.mmb rv2swit rvrbf;
#X obj -69 255 save.me.mmb rv2metda rvrbf;
#X obj 2 289 save.me.mmb rv2metda2 rvrbf;
#X obj -71 324 save.me.mmb rv2metwet rvrbf;
#X obj 5 358 save.me.mmb rv2metwet2 rvrbf;
#X obj 309 -175 inlet;
#X obj 365 -170 inlet;
#X obj 459 -173 inlet;
#X obj 520 -171 inlet;
#X obj 690 -175 inlet;
#X obj 751 -175 inlet;
#X obj 845 -178 inlet;
#X obj 906 -176 inlet;
#X obj 310 -135 r \$0-dam3;
#X obj 364 -67 r \$0-dam4;
#X obj 459 -133 r \$0-wet3;
#X obj 520 -66 r \$0-wet4;
#X obj 307 -2 r \$0-feb3;
#X obj 307 35 s \$0-fb3;
#X obj 365 -31 s \$0-da4;
#X obj 462 -3 r \$0-feb4;
#X obj 310 -99 s \$0-da3;
#X obj 307 53 r \$0-dry3;
#X obj 307 92 s \$0-dr3;
#X obj 459 -99 s \$0-we3;
#X obj 520 -29 s \$0-we4;
#X obj 306 114 r \$0-numetda3;
#X obj 306 150 s \$0-rnumetda3;
#X obj 307 185 r \$0-numetda4;
#X obj 307 221 s \$0-rnumetda4;
#X obj 307 239 r \$0-metda3;
#X obj 307 273 s \$0-rmetda3;
#X obj 298 319 r \$0-metwet3;
#X obj 298 353 s \$0-rmetwet3;
#X obj 381 404 s \$0-rmetwet4;
#X obj 381 370 r \$0-metwet4;
#X obj 386 317 s \$0-rmetda4;
#X obj 386 283 r \$0-metda4;
#X obj 381 387 save.me.mmb rvmetwet4 rvrbf;
#X obj 298 336 save.me.mmb rvmetwet3 rvrbf;
#X obj 386 300 save.me.mmb rvmetda4 rvrbf;
#X obj 307 256 save.me.mmb rvmetda3 rvrbf;
#X obj 307 202 save.me.mmb rvnumda4 rvrbf;
#X obj 469 221 save.me.mmb rvnumwet4 rvrbf;
#X obj 469 239 s \$0-rnumetwet4;
#X obj 469 204 r \$0-numetwet4;
#X obj 465 150 r \$0-numetwet3;
#X obj 465 167 save.me.mmb rvnumwet3 rvrbf;
#X obj 465 184 s \$0-rnumetwet3;
#X obj 306 132 save.me.mmb rvnumda3 rvrbf;
#X obj 307 72 save.me.mmb rvdry3 rvrbf;
#X obj 461 56 r \$0-dry4;
#X obj 461 73 save.me.mmb rvdry4 rvrbf;
#X obj 461 90 s \$0-dr4;
#X obj 462 36 s \$0-fb4;
#X obj 462 17 save.me.mmb rvfeb4 rvrbf;
#X obj 307 17 save.me.mmb rvfeb3 rvrbf;
#X obj 520 -48 save.me.mmb rvwet4 rvrbf;
#X obj 459 -117 save.me.mmb rvwet3 rvrbf;
#X obj 364 -49 save.me.mmb rvda4 rvrbf;
#X obj 310 -117 save.me.mmb rvda3 rvrbf;
#X obj 689 -2 r \$0-dry5;
#X obj 689 17 save.me.mmb rvdry5 rvrbf;
#X obj 689 37 s \$0-dr5;
#X obj 689 60 r \$0-feb5;
#X obj 689 97 s \$0-fb5;
#X obj 689 79 save.me.mmb rvfeb5 rvrbf;
#X obj 865 -1 r \$0-dry6;
#X obj 865 16 save.me.mmb rvdry6 rvrbf;
#X obj 865 33 s \$0-dr6;
#X obj 866 64 r \$0-feb6;
#X obj 866 84 save.me.mmb rvfeb6 rvrbf;
#X obj 866 103 s \$0-fb6;
#X obj 691 151 r \$0-numetda5;
#X obj 691 169 save.me.mmb rvnumda5 rvrbf;
#X obj 691 187 s \$0-rnumetda5;
#X obj 691 209 r \$0-numetwet5;
#X obj 691 243 s \$0-rnumetwet5;
#X obj 691 226 save.me.mmb rvnumwet5 rvrbf;
#X obj 691 278 r \$0-metda5;
#X obj 691 295 save.me.mmb rvmetda5 rvrbf;
#X obj 691 312 s \$0-rmetda5;
#X obj 692 338 r \$0-metwet5;
#X obj 692 355 save.me.mmb rvmetwet5 rvrbf;
#X obj 692 372 s \$0-rmetwet5;
#X obj 865 149 r \$0-numetda6;
#X obj 865 166 save.me.mmb rvnumda6 rvrbf;
#X obj 865 184 s \$0-rnumetda6;
#X obj 864 209 r \$0-numetwet6;
#X obj 865 226 save.me.mmb rvnumwet6 rvrbf;
#X obj 864 244 s \$0-rnumetwet6;
#X obj 868 274 r \$0-metda6;
#X obj 868 291 save.me.mmb rvmetda6 rvrbf;
#X obj 868 308 s \$0-rmetda6;
#X obj 868 336 r \$0-metwet6;
#X obj 868 353 save.me.mmb rvmetwet6 rvrbf;
#X obj 868 370 s \$0-rmetwet6;
#X obj 691 -137 r \$0-dam5;
#X obj 691 -117 save.me.mmb rvda5 rvrbf;
#X obj 690 -97 s \$0-da5;
#X obj 750 -98 r \$0-dam6;
#X obj 750 -80 save.me.mmb rvda6 rvrbf;
#X obj 751 -62 s \$0-da6;
#X obj 845 -138 r \$0-wet5;
#X obj 845 -122 save.me.mmb rvwet5 rvrbf;
#X obj 845 -104 s \$0-we5;
#X obj 906 -103 r \$0-wet6;
#X obj 906 -85 save.me.mmb rvwet6 rvrbf;
#X obj 906 -66 s \$0-we6;
#X connect 0 0 57 0;
#X connect 2 0 58 0;
#X connect 4 0 42 0;
#X connect 6 0 45 0;
#X connect 7 0 59 0;
#X connect 9 0 60 0;
#X connect 11 0 43 0;
#X connect 14 0 44 0;
#X connect 16 0 46 0;
#X connect 18 0 48 0;
#X connect 20 0 49 0;
#X connect 22 0 47 0;
#X connect 24 0 50 0;
#X connect 27 0 51 0;
#X connect 28 0 53 0;
#X connect 30 0 55 0;
#X connect 32 0 52 0;
#X connect 34 0 54 0;
#X connect 36 0 5 0;
#X connect 37 0 13 0;
#X connect 38 0 12 0;
#X connect 39 0 15 0;
#X connect 40 0 56 0;
#X connect 42 0 5 0;
#X connect 43 0 12 0;
#X connect 44 0 15 0;
#X connect 45 0 13 0;
#X connect 46 0 17 0;
#X connect 47 0 23 0;
#X connect 48 0 19 0;
#X connect 49 0 21 0;
#X connect 50 0 25 0;
#X connect 51 0 26 0;
#X connect 52 0 33 0;
#X connect 53 0 29 0;
#X connect 54 0 35 0;
#X connect 55 0 31 0;
#X connect 56 0 41 0;
#X connect 57 0 1 0;
#X connect 58 0 3 0;
#X connect 59 0 8 0;
#X connect 60 0 10 0;
#X connect 61 0 77 0;
#X connect 62 0 75 0;
#X connect 63 0 80 0;
#X connect 64 0 81 0;
#X connect 65 0 155 0;
#X connect 66 0 158 0;
#X connect 67 0 161 0;
#X connect 68 0 164 0;
#X connect 69 0 116 0;
#X connect 70 0 115 0;
#X connect 71 0 114 0;
#X connect 72 0 113 0;
#X connect 73 0 112 0;
#X connect 76 0 111 0;
#X connect 78 0 106 0;
#X connect 82 0 105 0;
#X connect 84 0 98 0;
#X connect 86 0 97 0;
#X connect 88 0 95 0;
#X connect 91 0 94 0;
#X connect 93 0 96 0;
#X connect 94 0 90 0;
#X connect 95 0 89 0;
#X connect 96 0 92 0;
#X connect 97 0 87 0;
#X connect 98 0 85 0;
#X connect 99 0 100 0;
#X connect 101 0 99 0;
#X connect 102 0 103 0;
#X connect 103 0 104 0;
#X connect 105 0 83 0;
#X connect 106 0 79 0;
#X connect 107 0 108 0;
#X connect 108 0 109 0;
#X connect 111 0 110 0;
#X connect 112 0 74 0;
#X connect 113 0 81 0;
#X connect 114 0 80 0;
#X connect 115 0 75 0;
#X connect 116 0 77 0;
#X connect 117 0 118 0;
#X connect 118 0 119 0;
#X connect 120 0 122 0;
#X connect 122 0 121 0;
#X connect 123 0 124 0;
#X connect 124 0 125 0;
#X connect 126 0 127 0;
#X connect 127 0 128 0;
#X connect 129 0 130 0;
#X connect 130 0 131 0;
#X connect 132 0 134 0;
#X connect 134 0 133 0;
#X connect 135 0 136 0;
#X connect 136 0 137 0;
#X connect 138 0 139 0;
#X connect 139 0 140 0;
#X connect 141 0 142 0;
#X connect 142 0 143 0;
#X connect 144 0 145 0;
#X connect 145 0 146 0;
#X connect 147 0 148 0;
#X connect 148 0 149 0;
#X connect 150 0 151 0;
#X connect 151 0 152 0;
#X connect 153 0 154 0;
#X connect 154 0 155 0;
#X connect 156 0 157 0;
#X connect 157 0 158 0;
#X connect 159 0 160 0;
#X connect 160 0 161 0;
#X connect 162 0 163 0;
#X connect 163 0 164 0;
#X restore 341 74 pd presets;
#X obj 34 369 r \$0-wet;
#X obj 119 377 r \$0-wet2;
#X obj 33 302 r \$0-dry;
#X obj 153 306 r \$0-dry2;
#X obj 249 259 r~ flute;
#X obj 38 -48 r flutepres;
#X obj 37 -22 sel 1 2;
#X msg 36 1 0.7;
#X msg 79 2 0.3;
#X obj 252 310 *~ 1;
#N canvas 189 66 830 530 LEFT 0;
#N canvas 388 22 522 372 comb-1 0;
#X obj 154 146 lop~ 20000;
#X obj 154 169 *~ 0.5;
#X obj 72 37 inlet~;
#X obj 67 234 outlet~;
#X floatatom 259 172 5 0 0 0 - - -;
#X obj 216 112 r \$0-damping3;
#X obj 233 147 r \$0-feedback3;
#X obj 155 61 delread~ \$0-rev17 25.3061;
#X obj 152 208 delwrite~ \$0-rev17 26;
#X connect 0 0 1 0;
#X connect 1 0 3 0;
#X connect 1 0 8 0;
#X connect 2 0 8 0;
#X connect 5 0 0 1;
#X connect 6 0 1 1;
#X connect 6 0 4 0;
#X connect 7 0 0 0;
#X restore -13 181 pd comb-1;
#N canvas 549 236 494 344 comb-2 0;
#X obj 174 127 lop~ 20000;
#X obj 174 150 *~ 0.5;
#X obj 90 36 inlet~;
#X obj 88 231 outlet~;
#X obj 236 93 r \$0-damping3;
#X obj 253 128 r \$0-feedback3;
#X obj 169 63 delread~ \$0-rev18 26.9388;
#X obj 171 202 delwrite~ \$0-rev18 27;
#X connect 0 0 1 0;
#X connect 1 0 3 0;
#X connect 1 0 7 0;
#X connect 2 0 7 0;
#X connect 4 0 0 1;
#X connect 5 0 1 1;
#X connect 6 0 0 0;
#X restore 49 181 pd comb-2;
#N canvas 400 75 490 340 comb-3 0;
#X obj 141 136 lop~ 20000;
#X obj 139 165 *~ 0.5;
#X obj 57 43 inlet~;
#X obj 57 248 outlet~;
#X obj 203 102 r \$0-damping3;
#X obj 220 137 r \$0-feedback3;
#X obj 117 67 delread~ \$0-rev19 28.9569;
#X obj 137 210 delwrite~ \$0-rev19 29;
#X connect 0 0 1 0;
#X connect 1 0 3 0;
#X connect 1 0 7 0;
#X connect 2 0 7 0;
#X connect 4 0 0 1;
#X connect 5 0 1 1;
#X connect 6 0 0 0;
#X restore 110 181 pd comb-3;
#N canvas 396 135 494 344 comb-4 0;
#X obj 182 137 lop~ 20000;
#X obj 182 160 *~ 0.5;
#X obj 90 36 inlet~;
#X obj 88 231 outlet~;
#X obj 244 103 r \$0-damping3;
#X obj 261 138 r \$0-feedback3;
#X obj 175 73 delread~ \$0-rev20 30.7483;
#X obj 171 206 delwrite~ \$0-rev20 31;
#X connect 0 0 1 0;
#X connect 1 0 3 0;
#X connect 1 0 7 0;
#X connect 2 0 7 0;
#X connect 4 0 0 1;
#X connect 5 0 1 1;
#X connect 6 0 0 0;
#X restore 172 181 pd comb-4;
#N canvas 368 150 474 324 comb-5 0;
#X obj 134 129 lop~ 20000;
#X obj 134 152 *~ 0.5;
#X obj 90 36 inlet~;
#X obj 88 231 outlet~;
#X obj 196 95 r \$0-damping3;
#X obj 213 130 r \$0-feedback3;
#X obj 135 61 delread~ \$0-rev21 34.2449;
#X obj 132 203 delwrite~ \$0-rev21 35;
#X connect 0 0 1 0;
#X connect 1 0 3 0;
#X connect 1 0 7 0;
#X connect 2 0 7 0;
#X connect 4 0 0 1;
#X connect 5 0 1 1;
#X connect 6 0 0 0;
#X restore 234 181 pd comb-5;
#N canvas 373 127 474 324 comb-6 0;
#X obj 176 121 lop~ 20000;
#X obj 176 144 *~ 0.5;
#X obj 90 36 inlet~;
#X obj 88 231 outlet~;
#X obj 238 87 r \$0-damping3;
#X obj 255 122 r \$0-feedback3;
#X obj 238 54 delread~ \$0-rev22 33.8095;
#X obj 177 197 delwrite~ \$0-rev22 34;
#X connect 0 0 1 0;
#X connect 1 0 3 0;
#X connect 1 0 7 0;
#X connect 2 0 7 0;
#X connect 4 0 0 1;
#X connect 5 0 1 1;
#X connect 6 0 0 0;
#X restore 296 181 pd comb-6;
#N canvas 552 280 474 324 comb-7 0;
#X obj 131 135 lop~ 20000;
#X obj 131 158 *~ 0.5;
#X obj 80 50 inlet~;
#X obj 88 231 outlet~;
#X obj 193 101 r \$0-damping3;
#X obj 210 136 r \$0-feedback3;
#X obj 194 70 delread~ \$0-rev23 35.7596;
#X obj 129 207 delwrite~ \$0-rev23 36;
#X connect 0 0 1 0;
#X connect 1 0 3 0;
#X connect 1 0 7 0;
#X connect 2 0 7 0;
#X connect 4 0 0 1;
#X connect 5 0 1 1;
#X connect 6 0 0 0;
#X restore 357 181 pd comb-7;
#N canvas 582 455 478 328 comb-8 0;
#X obj 140 134 lop~ 20000;
#X obj 140 157 *~ 0.5;
#X obj 90 36 inlet~;
#X obj 88 231 outlet~;
#X obj 202 98 r \$0-damping3;
#X obj 219 135 r \$0-feedback3;
#X obj 204 67 delread~ \$0-rev24 36.6667;
#X obj 140 205 delwrite~ \$0-rev24 37;
#X connect 0 0 1 0;
#X connect 1 0 3 0;
#X connect 1 0 7 0;
#X connect 2 0 7 0;
#X connect 4 0 0 1;
#X connect 5 0 1 1;
#X connect 6 0 0 0;
#X restore 419 181 pd comb-8;
#N canvas 376 127 648 562 allpass-1 0;
#X obj 186 65 inlet~;
#X obj 245 422 *~ 0.5;
#X obj 175 490 outlet~;
#X obj 168 391 *~ -1;
#X obj 213 389 delread~ \$0-fbcf-9 12.6077;
#X obj 437 474 delwrite~ \$0-fbcf-9 13;
#X connect 0 0 3 0;
#X connect 0 0 5 0;
#X connect 1 0 5 0;
#X connect 3 0 2 0;
#X connect 4 0 1 0;
#X connect 4 0 2 0;
#X restore 241 319 pd allpass-1;
#N canvas 0 22 640 554 allpass-2 0;
#X obj 186 65 inlet~;
#X obj 245 422 *~ 0.5;
#X obj 175 490 outlet~;
#X obj 168 391 *~ -1;
#X obj 213 389 delread~ \$0-fbcf-10 10;
#X obj 439 474 delwrite~ \$0-fbcf-10 11;
#X connect 0 0 3 0;
#X connect 0 0 5 0;
#X connect 1 0 5 0;
#X connect 3 0 2 0;
#X connect 4 0 1 0;
#X connect 4 0 2 0;
#X restore 241 339 pd allpass-2;
#N canvas 0 22 644 558 allpass-3 0;
#X obj 186 65 inlet~;
#X obj 245 422 *~ 0.5;
#X obj 175 490 outlet~;
#X obj 168 391 *~ -1;
#X obj 213 389 delread~ \$0-fbcf-11 7.77324;
#X obj 437 474 delwrite~ \$0-fbcf-11 8;
#X connect 0 0 3 0;
#X connect 0 0 5 0;
#X connect 1 0 5 0;
#X connect 3 0 2 0;
#X connect 4 0 1 0;
#X connect 4 0 2 0;
#X restore 240 360 pd allpass-3;
#N canvas 0 22 636 550 allpass-4 0;
#X obj 186 65 inlet~;
#X obj 245 422 *~ 0.5;
#X obj 175 490 outlet~;
#X obj 168 391 *~ -1;
#X obj 214 389 delread~ \$0-fbcf-12 5.10204;
#X obj 437 474 delwrite~ \$0-fbcf-12 6;
#X connect 0 0 3 0;
#X connect 0 0 5 0;
#X connect 1 0 5 0;
#X connect 3 0 2 0;
#X connect 4 0 1 0;
#X connect 4 0 2 0;
#X restore 242 381 pd allpass-4;
#X obj 241 300 *~ 0.25;
#X obj 234 90 *~ 0.05;
#X obj 244 469 outlet~;
#X obj 217 18 inlet~;
#N canvas 256 222 522 372 comb-9 0;
#X obj 154 146 lop~ 20000;
#X obj 154 169 *~ 0.5;
#X obj 72 37 inlet~;
#X obj 67 234 outlet~;
#X obj 216 112 r \$0-damping4;
#X obj 233 147 r \$0-feedback4;
#X obj 155 61 delread~ \$0-rev25 37.3061;
#X obj 152 208 delwrite~ \$0-rev25 38;
#X connect 0 0 1 0;
#X connect 1 0 3 0;
#X connect 1 0 7 0;
#X connect 2 0 7 0;
#X connect 4 0 0 1;
#X connect 5 0 1 1;
#X connect 6 0 0 0;
#X restore 315 262 pd comb-9;
#N canvas 549 236 494 344 comb-10 0;
#X obj 174 127 lop~ 20000;
#X obj 174 150 *~ 0.5;
#X obj 90 36 inlet~;
#X obj 88 231 outlet~;
#X obj 236 93 r \$0-damping4;
#X obj 253 128 r \$0-feedback4;
#X obj 169 63 delread~ \$0-rev26 38.9388;
#X obj 171 202 delwrite~ \$0-rev26 39;
#X connect 0 0 1 0;
#X connect 1 0 3 0;
#X connect 1 0 7 0;
#X connect 2 0 7 0;
#X connect 4 0 0 1;
#X connect 5 0 1 1;
#X connect 6 0 0 0;
#X restore 377 262 pd comb-10;
#N canvas 400 75 490 340 comb-11 0;
#X obj 141 136 lop~ 20000;
#X obj 139 165 *~ 0.5;
#X obj 57 43 inlet~;
#X obj 57 248 outlet~;
#X obj 203 102 r \$0-damping4;
#X obj 220 137 r \$0-feedback4;
#X obj 117 67 delread~ \$0-rev27 39.9569;
#X obj 137 210 delwrite~ \$0-rev27 40;
#X connect 0 0 1 0;
#X connect 1 0 3 0;
#X connect 1 0 7 0;
#X connect 2 0 7 0;
#X connect 4 0 0 1;
#X connect 5 0 1 1;
#X connect 6 0 0 0;
#X restore 438 262 pd comb-11;
#N canvas 447 118 494 344 comb-12 0;
#X obj 182 137 lop~ 20000;
#X obj 182 160 *~ 0.5;
#X obj 90 36 inlet~;
#X obj 88 231 outlet~;
#X obj 244 103 r \$0-damping4;
#X obj 261 138 r \$0-feedback4;
#X obj 175 73 delread~ \$0-rev28 40.7483;
#X obj 171 206 delwrite~ \$0-rev28 41;
#X connect 0 0 1 0;
#X connect 1 0 3 0;
#X connect 1 0 7 0;
#X connect 2 0 7 0;
#X connect 4 0 0 1;
#X connect 5 0 1 1;
#X connect 6 0 0 0;
#X restore 500 262 pd comb-12;
#N canvas 441 63 474 324 comb-13 0;
#X obj 134 129 lop~ 20000;
#X obj 134 152 *~ 0.5;
#X obj 90 36 inlet~;
#X obj 88 231 outlet~;
#X obj 196 95 r \$0-damping4;
#X obj 213 130 r \$0-feedback4;
#X obj 135 61 delread~ \$0-rev29 41.2449;
#X obj 132 203 delwrite~ \$0-rev29 42;
#X connect 0 0 1 0;
#X connect 1 0 3 0;
#X connect 1 0 7 0;
#X connect 2 0 7 0;
#X connect 4 0 0 1;
#X connect 5 0 1 1;
#X connect 6 0 0 0;
#X restore 562 262 pd comb-13;
#N canvas 375 146 474 324 comb-14 0;
#X obj 176 121 lop~ 20000;
#X obj 176 144 *~ 0.5;
#X obj 90 36 inlet~;
#X obj 88 231 outlet~;
#X obj 238 87 r \$0-damping4;
#X obj 255 122 r \$0-feedback4;
#X obj 238 54 delread~ \$0-rev30 42.8095;
#X obj 177 197 delwrite~ \$0-rev30 43;
#X connect 0 0 1 0;
#X connect 1 0 3 0;
#X connect 1 0 7 0;
#X connect 2 0 7 0;
#X connect 4 0 0 1;
#X connect 5 0 1 1;
#X connect 6 0 0 0;
#X restore 624 262 pd comb-14;
#N canvas 317 164 474 324 comb-15 0;
#X obj 131 135 lop~ 20000;
#X obj 131 158 *~ 0.5;
#X obj 80 50 inlet~;
#X obj 88 231 outlet~;
#X obj 193 101 r \$0-damping4;
#X obj 210 136 r \$0-feedback4;
#X obj 194 70 delread~ \$0-rev31 44.7596;
#X obj 129 207 delwrite~ \$0-rev31 45;
#X connect 0 0 1 0;
#X connect 1 0 3 0;
#X connect 1 0 7 0;
#X connect 2 0 7 0;
#X connect 4 0 0 1;
#X connect 5 0 1 1;
#X connect 6 0 0 0;
#X restore 685 262 pd comb-15;
#N canvas 390 107 478 328 comb-16 0;
#X obj 140 134 lop~ 20000;
#X obj 140 157 *~ 0.5;
#X obj 90 36 inlet~;
#X obj 88 231 outlet~;
#X obj 202 100 r \$0-damping4;
#X obj 219 135 r \$0-feedback4;
#X obj 204 67 delread~ \$0-rev32 46.6667;
#X obj 140 205 delwrite~ \$0-rev32 47;
#X connect 0 0 1 0;
#X connect 1 0 3 0;
#X connect 1 0 7 0;
#X connect 2 0 7 0;
#X connect 4 0 0 1;
#X connect 5 0 1 1;
#X connect 6 0 0 0;
#X restore 747 262 pd comb-16;
#X obj 532 321 *~ 0.25;
#X obj 535 490 outlet~;
#X obj 547 198 *~ 0.05;
#X obj 530 126 inlet~;
#N canvas 376 127 648 562 allpass-5 0;
#X obj 186 65 inlet~;
#X obj 245 422 *~ 0.5;
#X obj 175 490 outlet~;
#X obj 168 391 *~ -1;
#X obj 213 389 delread~ \$0-fbcf-13 12.6077;
#X obj 437 474 delwrite~ \$0-fbcf-13 13;
#X connect 0 0 3 0;
#X connect 0 0 5 0;
#X connect 1 0 5 0;
#X connect 3 0 2 0;
#X connect 4 0 1 0;
#X connect 4 0 2 0;
#X restore 532 340 pd allpass-5;
#N canvas 0 22 644 558 allpass-7 0;
#X obj 186 65 inlet~;
#X obj 245 422 *~ 0.5;
#X obj 175 490 outlet~;
#X obj 168 391 *~ -1;
#X obj 213 389 delread~ \$0-fbcf-15 7.77324;
#X obj 437 474 delwrite~ \$0-fbcf-15 8;
#X connect 0 0 3 0;
#X connect 0 0 5 0;
#X connect 1 0 5 0;
#X connect 3 0 2 0;
#X connect 4 0 1 0;
#X connect 4 0 2 0;
#X restore 531 379 pd allpass-7;
#N canvas 0 22 636 550 allpass-8 0;
#X obj 186 65 inlet~;
#X obj 245 422 *~ 0.5;
#X obj 175 490 outlet~;
#X obj 168 391 *~ -1;
#X obj 214 389 delread~ \$0-fbcf-16 5.10204;
#X obj 437 474 delwrite~ \$0-fbcf-16 6;
#X connect 0 0 3 0;
#X connect 0 0 5 0;
#X connect 1 0 5 0;
#X connect 3 0 2 0;
#X connect 4 0 1 0;
#X connect 4 0 2 0;
#X restore 533 402 pd allpass-8;
#N canvas 0 22 640 554 allpass-6 0;
#X obj 186 65 inlet~;
#X obj 245 422 *~ 0.5;
#X obj 175 490 outlet~;
#X obj 168 391 *~ -1;
#X obj 213 389 delread~ \$0-fbcf-14 10;
#X obj 439 473 delwrite~ \$0-fbcf-14 11;
#X connect 0 0 3 0;
#X connect 0 0 5 0;
#X connect 1 0 5 0;
#X connect 3 0 2 0;
#X connect 4 0 1 0;
#X connect 4 0 2 0;
#X restore 532 360 pd allpass-6;
#X floatatom 167 371 5 0 0 0 - - -;
#X obj 625 326 r \$0-vo1;
#X obj 183 318 r \$0-vo;
#X connect 0 0 12 0;
#X connect 1 0 12 0;
#X connect 2 0 12 0;
#X connect 3 0 12 0;
#X connect 4 0 12 0;
#X connect 5 0 12 0;
#X connect 6 0 12 0;
#X connect 7 0 12 0;
#X connect 8 0 9 0;
#X connect 9 0 10 0;
#X connect 10 0 11 0;
#X connect 11 0 14 0;
#X connect 12 0 8 0;
#X connect 13 0 0 0;
#X connect 13 0 1 0;
#X connect 13 0 2 0;
#X connect 13 0 3 0;
#X connect 13 0 4 0;
#X connect 13 0 5 0;
#X connect 13 0 6 0;
#X connect 13 0 7 0;
#X connect 15 0 13 0;
#X connect 16 0 24 0;
#X connect 17 0 24 0;
#X connect 18 0 24 0;
#X connect 19 0 24 0;
#X connect 20 0 24 0;
#X connect 21 0 24 0;
#X connect 22 0 24 0;
#X connect 23 0 24 0;
#X connect 24 0 28 0;
#X connect 26 0 16 0;
#X connect 26 0 17 0;
#X connect 26 0 18 0;
#X connect 26 0 19 0;
#X connect 26 0 20 0;
#X connect 26 0 21 0;
#X connect 26 0 22 0;
#X connect 26 0 23 0;
#X connect 27 0 26 0;
#X connect 28 0 31 0;
#X connect 29 0 30 0;
#X connect 30 0 25 0;
#X connect 31 0 29 0;
#X connect 33 0 24 1;
#X connect 34 0 12 1;
#X connect 34 0 32 0;
#X restore 292 333 pd LEFT;
#X obj 345 314 *~ 1;
#X obj 485 324 *~ 1;
#N canvas 348 66 830 530 LEFT 0;
#N canvas 388 22 522 372 comb-1 0;
#X obj 154 146 lop~ 20000;
#X obj 154 169 *~ 0.5;
#X obj 72 37 inlet~;
#X obj 67 234 outlet~;
#X floatatom 259 172 5 0 0 0 - - -;
#X obj 216 112 r \$0-damping5;
#X obj 233 147 r \$0-feedback5;
#X obj 155 61 delread~ \$0-rev33 25.3061;
#X obj 152 208 delwrite~ \$0-rev33 26;
#X connect 0 0 1 0;
#X connect 1 0 3 0;
#X connect 1 0 8 0;
#X connect 2 0 8 0;
#X connect 5 0 0 1;
#X connect 6 0 1 1;
#X connect 6 0 4 0;
#X connect 7 0 0 0;
#X restore -13 181 pd comb-1;
#N canvas 549 236 494 344 comb-2 0;
#X obj 174 127 lop~ 20000;
#X obj 174 150 *~ 0.5;
#X obj 90 36 inlet~;
#X obj 88 231 outlet~;
#X obj 236 93 r \$0-damping5;
#X obj 253 128 r \$0-feedback5;
#X obj 169 63 delread~ \$0-rev34 26.9388;
#X obj 171 202 delwrite~ \$0-rev34 27;
#X connect 0 0 1 0;
#X connect 1 0 3 0;
#X connect 1 0 7 0;
#X connect 2 0 7 0;
#X connect 4 0 0 1;
#X connect 5 0 1 1;
#X connect 6 0 0 0;
#X restore 49 181 pd comb-2;
#N canvas 400 75 490 340 comb-3 0;
#X obj 141 136 lop~ 20000;
#X obj 139 165 *~ 0.5;
#X obj 57 43 inlet~;
#X obj 57 248 outlet~;
#X obj 203 102 r \$0-damping5;
#X obj 220 137 r \$0-feedback5;
#X obj 117 67 delread~ \$0-rev35 28.9569;
#X obj 137 210 delwrite~ \$0-rev35 29;
#X connect 0 0 1 0;
#X connect 1 0 3 0;
#X connect 1 0 7 0;
#X connect 2 0 7 0;
#X connect 4 0 0 1;
#X connect 5 0 1 1;
#X connect 6 0 0 0;
#X restore 110 181 pd comb-3;
#N canvas 746 118 494 344 comb-4 0;
#X obj 182 137 lop~ 20000;
#X obj 182 160 *~ 0.5;
#X obj 90 36 inlet~;
#X obj 88 231 outlet~;
#X obj 244 103 r \$0-damping5;
#X obj 261 138 r \$0-feedback5;
#X obj 175 73 delread~ \$0-rev36 30.7483;
#X obj 171 206 delwrite~ \$0-rev36 31;
#X connect 0 0 1 0;
#X connect 1 0 3 0;
#X connect 1 0 7 0;
#X connect 2 0 7 0;
#X connect 4 0 0 1;
#X connect 5 0 1 1;
#X connect 6 0 0 0;
#X restore 172 181 pd comb-4;
#N canvas 805 59 474 324 comb-5 0;
#X obj 134 129 lop~ 20000;
#X obj 134 152 *~ 0.5;
#X obj 90 36 inlet~;
#X obj 88 231 outlet~;
#X obj 196 95 r \$0-damping5;
#X obj 213 130 r \$0-feedback5;
#X obj 135 61 delread~ \$0-rev37 34.2449;
#X obj 132 203 delwrite~ \$0-rev37 35;
#X connect 0 0 1 0;
#X connect 1 0 3 0;
#X connect 1 0 7 0;
#X connect 2 0 7 0;
#X connect 4 0 0 1;
#X connect 5 0 1 1;
#X connect 6 0 0 0;
#X restore 234 181 pd comb-5;
#N canvas 702 107 474 324 comb-6 0;
#X obj 176 121 lop~ 20000;
#X obj 176 144 *~ 0.5;
#X obj 90 36 inlet~;
#X obj 88 231 outlet~;
#X obj 238 87 r \$0-damping5;
#X obj 255 122 r \$0-feedback5;
#X obj 238 54 delread~ \$0-rev38 33.8095;
#X obj 177 197 delwrite~ \$0-rev38 34;
#X connect 0 0 1 0;
#X connect 1 0 3 0;
#X connect 1 0 7 0;
#X connect 2 0 7 0;
#X connect 4 0 0 1;
#X connect 5 0 1 1;
#X connect 6 0 0 0;
#X restore 296 181 pd comb-6;
#N canvas 552 280 474 324 comb-7 0;
#X obj 131 135 lop~ 20000;
#X obj 131 158 *~ 0.5;
#X obj 80 50 inlet~;
#X obj 88 231 outlet~;
#X obj 193 101 r \$0-damping5;
#X obj 210 136 r \$0-feedback5;
#X obj 194 70 delread~ \$0-rev39 35.7596;
#X obj 129 207 delwrite~ \$0-rev39 36;
#X connect 0 0 1 0;
#X connect 1 0 3 0;
#X connect 1 0 7 0;
#X connect 2 0 7 0;
#X connect 4 0 0 1;
#X connect 5 0 1 1;
#X connect 6 0 0 0;
#X restore 357 181 pd comb-7;
#N canvas 582 455 478 328 comb-8 0;
#X obj 140 134 lop~ 20000;
#X obj 140 157 *~ 0.5;
#X obj 90 36 inlet~;
#X obj 88 231 outlet~;
#X obj 202 100 r \$0-damping5;
#X obj 219 135 r \$0-feedback5;
#X obj 204 67 delread~ \$0-rev40 36.6667;
#X obj 140 205 delwrite~ \$0-rev40 37;
#X connect 0 0 1 0;
#X connect 1 0 3 0;
#X connect 1 0 7 0;
#X connect 2 0 7 0;
#X connect 4 0 0 1;
#X connect 5 0 1 1;
#X connect 6 0 0 0;
#X restore 419 181 pd comb-8;
#N canvas 376 127 648 562 allpass-1 0;
#X obj 186 65 inlet~;
#X obj 245 422 *~ 0.5;
#X obj 175 490 outlet~;
#X obj 168 391 *~ -1;
#X obj 213 389 delread~ \$0-fbcf-17 12.6077;
#X obj 437 474 delwrite~ \$0-fbcf-17 13;
#X connect 0 0 3 0;
#X connect 0 0 5 0;
#X connect 1 0 5 0;
#X connect 3 0 2 0;
#X connect 4 0 1 0;
#X connect 4 0 2 0;
#X restore 241 319 pd allpass-1;
#N canvas 0 22 640 554 allpass-2 0;
#X obj 186 65 inlet~;
#X obj 245 422 *~ 0.5;
#X obj 175 490 outlet~;
#X obj 168 391 *~ -1;
#X obj 213 389 delread~ \$0-fbcf-18 10;
#X obj 439 474 delwrite~ \$0-fbcf-18 11;
#X connect 0 0 3 0;
#X connect 0 0 5 0;
#X connect 1 0 5 0;
#X connect 3 0 2 0;
#X connect 4 0 1 0;
#X connect 4 0 2 0;
#X restore 241 339 pd allpass-2;
#N canvas 0 22 644 558 allpass-3 0;
#X obj 186 65 inlet~;
#X obj 245 422 *~ 0.5;
#X obj 175 490 outlet~;
#X obj 168 391 *~ -1;
#X obj 213 389 delread~ \$0-fbcf-19 7.77324;
#X obj 437 474 delwrite~ \$0-fbcf-19 8;
#X connect 0 0 3 0;
#X connect 0 0 5 0;
#X connect 1 0 5 0;
#X connect 3 0 2 0;
#X connect 4 0 1 0;
#X connect 4 0 2 0;
#X restore 240 360 pd allpass-3;
#N canvas 0 22 636 550 allpass-4 0;
#X obj 186 65 inlet~;
#X obj 245 422 *~ 0.5;
#X obj 175 490 outlet~;
#X obj 168 391 *~ -1;
#X obj 214 389 delread~ \$0-fbcf-20 5.10204;
#X obj 437 474 delwrite~ \$0-fbcf-20 6;
#X connect 0 0 3 0;
#X connect 0 0 5 0;
#X connect 1 0 5 0;
#X connect 3 0 2 0;
#X connect 4 0 1 0;
#X connect 4 0 2 0;
#X restore 242 381 pd allpass-4;
#X obj 241 300 *~ 0.25;
#X obj 234 90 *~ 0.05;
#X obj 244 469 outlet~;
#X obj 217 18 inlet~;
#N canvas 256 222 522 372 comb-9 0;
#X obj 154 146 lop~ 20000;
#X obj 154 169 *~ 0.5;
#X obj 72 37 inlet~;
#X obj 67 234 outlet~;
#X obj 216 112 r \$0-damping6;
#X obj 233 147 r \$0-feedback6;
#X obj 155 61 delread~ \$0-rev41 37.3061;
#X obj 152 208 delwrite~ \$0-rev41 38;
#X connect 0 0 1 0;
#X connect 1 0 3 0;
#X connect 1 0 7 0;
#X connect 2 0 7 0;
#X connect 4 0 0 1;
#X connect 5 0 1 1;
#X connect 6 0 0 0;
#X restore 315 262 pd comb-9;
#N canvas 549 236 494 344 comb-10 0;
#X obj 174 127 lop~ 20000;
#X obj 174 150 *~ 0.5;
#X obj 90 36 inlet~;
#X obj 88 231 outlet~;
#X obj 236 93 r \$0-damping6;
#X obj 253 128 r \$0-feedback6;
#X obj 169 63 delread~ \$0-rev42 38.9388;
#X obj 171 202 delwrite~ \$0-rev42 39;
#X connect 0 0 1 0;
#X connect 1 0 3 0;
#X connect 1 0 7 0;
#X connect 2 0 7 0;
#X connect 4 0 0 1;
#X connect 5 0 1 1;
#X connect 6 0 0 0;
#X restore 377 262 pd comb-10;
#N canvas 400 75 490 340 comb-11 0;
#X obj 141 136 lop~ 20000;
#X obj 139 165 *~ 0.5;
#X obj 57 43 inlet~;
#X obj 57 248 outlet~;
#X obj 203 102 r \$0-damping6;
#X obj 220 137 r \$0-feedback6;
#X obj 117 67 delread~ \$0-rev43 39.9569;
#X obj 137 210 delwrite~ \$0-rev43 40;
#X connect 0 0 1 0;
#X connect 1 0 3 0;
#X connect 1 0 7 0;
#X connect 2 0 7 0;
#X connect 4 0 0 1;
#X connect 5 0 1 1;
#X connect 6 0 0 0;
#X restore 438 262 pd comb-11;
#N canvas 746 118 494 344 comb-12 0;
#X obj 182 137 lop~ 20000;
#X obj 182 160 *~ 0.5;
#X obj 90 36 inlet~;
#X obj 88 231 outlet~;
#X obj 244 103 r \$0-damping6;
#X obj 261 138 r \$0-feedback6;
#X obj 175 73 delread~ \$0-rev44 40.7483;
#X obj 171 206 delwrite~ \$0-rev44 41;
#X connect 0 0 1 0;
#X connect 1 0 3 0;
#X connect 1 0 7 0;
#X connect 2 0 7 0;
#X connect 4 0 0 1;
#X connect 5 0 1 1;
#X connect 6 0 0 0;
#X restore 500 262 pd comb-12;
#N canvas 805 59 474 324 comb-13 0;
#X obj 134 129 lop~ 20000;
#X obj 134 152 *~ 0.5;
#X obj 90 36 inlet~;
#X obj 88 231 outlet~;
#X obj 196 95 r \$0-damping6;
#X obj 213 130 r \$0-feedback6;
#X obj 135 61 delread~ \$0-rev45 41.2449;
#X obj 132 203 delwrite~ \$0-rev45 42;
#X connect 0 0 1 0;
#X connect 1 0 3 0;
#X connect 1 0 7 0;
#X connect 2 0 7 0;
#X connect 4 0 0 1;
#X connect 5 0 1 1;
#X connect 6 0 0 0;
#X restore 562 262 pd comb-13;
#N canvas 702 107 474 324 comb-14 0;
#X obj 176 121 lop~ 20000;
#X obj 176 144 *~ 0.5;
#X obj 90 36 inlet~;
#X obj 88 231 outlet~;
#X obj 238 87 r \$0-damping6;
#X obj 255 122 r \$0-feedback6;
#X obj 238 54 delread~ \$0-rev46 42.8095;
#X obj 177 197 delwrite~ \$0-rev46 43;
#X connect 0 0 1 0;
#X connect 1 0 3 0;
#X connect 1 0 7 0;
#X connect 2 0 7 0;
#X connect 4 0 0 1;
#X connect 5 0 1 1;
#X connect 6 0 0 0;
#X restore 624 262 pd comb-14;
#N canvas 742 153 474 324 comb-15 0;
#X obj 131 135 lop~ 20000;
#X obj 131 158 *~ 0.5;
#X obj 80 50 inlet~;
#X obj 88 231 outlet~;
#X obj 193 101 r \$0-damping6;
#X obj 210 136 r \$0-feedback6;
#X obj 194 70 delread~ \$0-rev47 44.7596;
#X obj 129 207 delwrite~ \$0-rev47 45;
#X connect 0 0 1 0;
#X connect 1 0 3 0;
#X connect 1 0 7 0;
#X connect 2 0 7 0;
#X connect 4 0 0 1;
#X connect 5 0 1 1;
#X connect 6 0 0 0;
#X restore 685 262 pd comb-15;
#N canvas 731 107 478 328 comb-16 0;
#X obj 140 134 lop~ 20000;
#X obj 140 157 *~ 0.5;
#X obj 90 36 inlet~;
#X obj 88 231 outlet~;
#X obj 202 100 r \$0-damping6;
#X obj 219 135 r \$0-feedback6;
#X obj 204 67 delread~ \$0-rev48 46.6667;
#X obj 140 205 delwrite~ \$0-rev48 47;
#X connect 0 0 1 0;
#X connect 1 0 3 0;
#X connect 1 0 7 0;
#X connect 2 0 7 0;
#X connect 4 0 0 1;
#X connect 5 0 1 1;
#X connect 6 0 0 0;
#X restore 747 262 pd comb-16;
#X obj 532 321 *~ 0.25;
#X obj 535 490 outlet~;
#X obj 547 198 *~ 0.05;
#X obj 530 126 inlet~;
#N canvas 376 127 648 562 allpass-5 0;
#X obj 186 65 inlet~;
#X obj 245 422 *~ 0.5;
#X obj 175 490 outlet~;
#X obj 168 391 *~ -1;
#X obj 213 389 delread~ \$0-fbcf-21 12.6077;
#X obj 437 474 delwrite~ \$0-fbcf-21 13;
#X connect 0 0 3 0;
#X connect 0 0 5 0;
#X connect 1 0 5 0;
#X connect 3 0 2 0;
#X connect 4 0 1 0;
#X connect 4 0 2 0;
#X restore 532 340 pd allpass-5;
#N canvas 0 22 644 558 allpass-7 0;
#X obj 186 65 inlet~;
#X obj 245 422 *~ 0.5;
#X obj 175 490 outlet~;
#X obj 168 391 *~ -1;
#X obj 213 389 delread~ \$0-fbcf-23 7.77324;
#X obj 437 474 delwrite~ \$0-fbcf-23 8;
#X connect 0 0 3 0;
#X connect 0 0 5 0;
#X connect 1 0 5 0;
#X connect 3 0 2 0;
#X connect 4 0 1 0;
#X connect 4 0 2 0;
#X restore 531 379 pd allpass-7;
#N canvas 0 22 636 550 allpass-8 0;
#X obj 186 65 inlet~;
#X obj 245 422 *~ 0.5;
#X obj 175 490 outlet~;
#X obj 168 391 *~ -1;
#X obj 214 389 delread~ \$0-fbcf-24 5.10204;
#X obj 437 474 delwrite~ \$0-fbcf-24 6;
#X connect 0 0 3 0;
#X connect 0 0 5 0;
#X connect 1 0 5 0;
#X connect 3 0 2 0;
#X connect 4 0 1 0;
#X connect 4 0 2 0;
#X restore 533 402 pd allpass-8;
#N canvas 0 22 640 554 allpass-6 0;
#X obj 186 65 inlet~;
#X obj 245 422 *~ 0.5;
#X obj 175 490 outlet~;
#X obj 168 391 *~ -1;
#X obj 213 389 delread~ \$0-fbcf-22 10;
#X obj 439 473 delwrite~ \$0-fbcf-22 11;
#X connect 0 0 3 0;
#X connect 0 0 5 0;
#X connect 1 0 5 0;
#X connect 3 0 2 0;
#X connect 4 0 1 0;
#X connect 4 0 2 0;
#X restore 532 360 pd allpass-6;
#X floatatom 167 371 5 0 0 0 - - -;
#X obj 183 318 r \$0-vo;
#X obj 625 326 r \$0-vo1;
#X connect 0 0 12 0;
#X connect 1 0 12 0;
#X connect 2 0 12 0;
#X connect 3 0 12 0;
#X connect 4 0 12 0;
#X connect 5 0 12 0;
#X connect 6 0 12 0;
#X connect 7 0 12 0;
#X connect 8 0 9 0;
#X connect 9 0 10 0;
#X connect 10 0 11 0;
#X connect 11 0 14 0;
#X connect 12 0 8 0;
#X connect 13 0 0 0;
#X connect 13 0 1 0;
#X connect 13 0 2 0;
#X connect 13 0 3 0;
#X connect 13 0 4 0;
#X connect 13 0 5 0;
#X connect 13 0 6 0;
#X connect 13 0 7 0;
#X connect 15 0 13 0;
#X connect 16 0 24 0;
#X connect 17 0 24 0;
#X connect 18 0 24 0;
#X connect 19 0 24 0;
#X connect 20 0 24 0;
#X connect 21 0 24 0;
#X connect 22 0 24 0;
#X connect 23 0 24 0;
#X connect 24 0 28 0;
#X connect 26 0 16 0;
#X connect 26 0 17 0;
#X connect 26 0 18 0;
#X connect 26 0 19 0;
#X connect 26 0 20 0;
#X connect 26 0 21 0;
#X connect 26 0 22 0;
#X connect 26 0 23 0;
#X connect 27 0 26 0;
#X connect 28 0 31 0;
#X connect 29 0 30 0;
#X connect 30 0 25 0;
#X connect 31 0 29 0;
#X connect 33 0 12 1;
#X connect 33 0 32 0;
#X connect 34 0 24 1;
#X restore 525 338 pd LEFT;
#X obj 609 327 *~ 1;
#X obj 273 293 r \$0-dry3;
#X obj 366 294 r \$0-dry4;
#X obj 507 303 r \$0-dry5;
#X obj 627 307 r \$0-dry6;
#X obj 474 667 * 44100;
#X obj 475 645 expr pow($f1 \, 4);
#X obj 475 597 * 0.9;
#X obj 475 621 + 0.1;
#X obj 577 657 * 0.28;
#X obj 577 675 + 0.7;
#X obj 577 585 - 1;
#X obj 577 621 - 1;
#X obj 577 639 abs;
#X obj 577 603 expr pow($f1 \, 4);
#X obj 677 668 * 44100;
#X obj 678 646 expr pow($f1 \, 4);
#X obj 678 598 * 0.9;
#X obj 678 622 + 0.1;
#X obj 779 659 * 0.28;
#X obj 779 677 + 0.7;
#X obj 779 587 - 1;
#X obj 779 623 - 1;
#X obj 779 641 abs;
#X obj 779 605 expr pow($f1 \, 4);
#X obj 894 660 * 44100;
#X obj 895 638 expr pow($f1 \, 4);
#X obj 895 590 * 0.9;
#X obj 895 614 + 0.1;
#X obj 997 650 * 0.28;
#X obj 997 668 + 0.7;
#X obj 997 578 - 1;
#X obj 997 614 - 1;
#X obj 997 632 abs;
#X obj 997 596 expr pow($f1 \, 4);
#X obj 1097 661 * 44100;
#X obj 1098 639 expr pow($f1 \, 4);
#X obj 1098 591 * 0.9;
#X obj 1098 615 + 0.1;
#X obj 1199 652 * 0.28;
#X obj 1199 670 + 0.7;
#X obj 1199 580 - 1;
#X obj 1199 616 - 1;
#X obj 1199 634 abs;
#X obj 1199 598 expr pow($f1 \, 4);
#X obj 476 574 r \$0-dam3;
#X obj 474 692 s \$0-damping3;
#X obj 577 567 r \$0-feb3;
#X obj 577 693 s \$0-feedback3;
#X obj 678 578 r \$0-dam4;
#X obj 677 693 s \$0-damping4;
#X obj 779 569 r \$0-feb4;
#X obj 779 695 s \$0-feedback4;
#X obj 896 567 r \$0-dam5;
#X obj 894 685 s \$0-damping5;
#X obj 997 560 r \$0-feb5;
#X obj 997 686 s \$0-feedback5;
#X obj 1098 571 r \$0-dam6;
#X obj 1097 686 s \$0-damping6;
#X obj 1199 562 r \$0-feb6;
#X obj 1199 688 s \$0-feedback6;
#X obj 286 117 hsl 80 10 0 1 0 0 \$0-dam3 \$0-da3 damping3 5 5 0 10
-146412 -257985 -204800 0 1;
#X obj 287 162 hsl 80 10 0 1 0 0 \$0-feb3 \$0-fb3 feedback3 5 5 0 10
-18015 -261682 -262130 0 1;
#X obj 286 145 hsl 80 10 0 1 0 0 \$0-wet3 \$0-we3 wet3 5 5 0 10 -27055
-257985 -204786 0 1;
#X obj 287 177 hsl 80 10 0 1 0 0 \$0-dry3 \$0-dr3 dry3 5 5 0 10 -97525
-257985 -261234 0 1;
#X obj 376 117 hsl 80 10 0 1 0 0 \$0-dam4 \$0-da4 damping4 5 5 0 10
-146412 -257985 -204800 0 1;
#X obj 375 161 hsl 80 10 0 1 0 0 \$0-feb4 \$0-fb4 feedback4 5 5 0 10
-18015 -261682 -262130 0 1;
#X obj 376 145 hsl 80 10 0 1 0 0 \$0-wet4 \$0-we4 wet4 5 5 0 10 -27055
-257985 -66577 0 1;
#X floatatom 336 100 5 0 0 0 - #0-rnumetda3 #0-numetda3;
#X obj 323 104 tgl 12 0 \$0-metda3 \$0-rmetda3 empty 17 7 0 10 -33289
-257985 -1 0 1;
#X floatatom 426 100 5 0 0 0 - #0-rnumetda4 #0-numetda4;
#X obj 413 104 tgl 12 0 \$0-metda4 \$0-rmetda4 empty 17 7 0 10 -33289
-257985 -1 0 1;
#X obj 375 176 hsl 80 10 0 1 0 0 \$0-dry4 \$0-dr4 dry4 5 5 0 10 -97525
-257985 -261234 0 1;
#X floatatom 336 128 5 0 0 0 - #0-rnumetwet3 #0-numetwet3;
#X obj 323 132 tgl 12 0 \$0-metwet3 \$0-rmetwet3 empty 17 7 0 10 -258113
-257985 -1 0 1;
#X floatatom 426 128 5 0 0 0 - #0-rnumetwet4 #0-numetwet4;
#X obj 413 132 tgl 12 0 \$0-metwet4 \$0-rmetwet4 empty 17 7 0 10 -258113
-257985 -1 0 1;
#X obj 470 117 hsl 80 10 0 1 0 0 \$0-dam5 \$0-da5 damping5 5 5 0 10
-146412 -257985 -204800 0 1;
#X obj 471 162 hsl 80 10 0 1 0 0 \$0-feb5 \$0-fb5 feedback5 5 5 0 10
-18015 -261682 -262130 0 1;
#X obj 470 145 hsl 80 10 0 1 0 0 \$0-wet5 \$0-we5 wet5 5 5 0 10 -27055
-257985 -204786 0 1;
#X obj 471 177 hsl 80 10 0 1 0 0 \$0-dry5 \$0-dr5 dry5 5 5 0 10 -97525
-257985 -261234 0 1;
#X obj 560 117 hsl 80 10 0 1 0 0 \$0-dam6 \$0-da6 damping6 5 5 0 10
-146412 -257985 -204800 0 1;
#X obj 559 161 hsl 80 10 0 1 0 0 \$0-feb6 \$0-fb6 feedback6 5 5 0 10
-18015 -261682 -262130 0 1;
#X obj 560 145 hsl 80 10 0 1 0 0 \$0-wet6 \$0-we6 wet6 5 5 0 10 -27055
-257985 -66577 0 1;
#X floatatom 520 100 5 0 0 0 - #0-rnumetda5 #0-numetda5;
#X obj 507 104 tgl 12 0 \$0-metda5 \$0-rmetda5 empty 17 7 0 10 -33289
-257985 -1 0 1;
#X floatatom 610 100 5 0 0 0 - #0-rnumetda6 #0-numetda6;
#X obj 597 104 tgl 12 0 \$0-metda6 \$0-rmetda6 empty 17 7 0 10 -33289
-257985 -1 0 1;
#X obj 559 176 hsl 80 10 0 1 0 0 \$0-dry6 \$0-dr6 dry6 5 5 0 10 -97525
-257985 -261234 0 1;
#X floatatom 520 128 5 0 0 0 - #0-rnumetwet5 #0-numetwet5;
#X obj 507 132 tgl 12 0 \$0-metwet5 \$0-rmetwet5 empty 17 7 0 10 -258113
-257985 -1 0 1;
#X floatatom 610 128 5 0 0 0 - #0-rnumetwet6 #0-numetwet6;
#X obj 597 132 tgl 12 0 \$0-metwet6 \$0-rmetwet6 empty 17 7 0 10 -258113
-257985 -1 0 1;
#X obj 103 117 hsl 80 10 0 1 0 0 \$0-dam \$0-da damping 5 5 0 10 -146412
-257985 -204800 0 1;
#X obj 104 162 hsl 80 10 0 1 0 0 \$0-feb \$0-fb feedback 5 5 0 10 -18015
-261682 -262130 0 1;
#X obj 103 145 hsl 80 10 0 1 0 0 \$0-wet \$0-we wet 5 5 0 10 -27055
-257985 -204786 0 1;
#X obj 104 177 hsl 80 10 0 1 0 0 \$0-dry \$0-dr dry 5 5 0 10 -97525
-257985 -261234 0 1;
#X obj 193 117 hsl 80 10 0 1 0 0 \$0-dam2 \$0-da2 damping2 5 5 0 10
-146412 -257985 -204800 0 1;
#X obj 192 161 hsl 80 10 0 1 0 0 \$0-feb2 \$0-fb2 feedback2 5 5 0 10
-18015 -261682 -262130 0 1;
#X obj 193 145 hsl 80 10 0 1 0 0 \$0-wet2 \$0-we2 wet2 5 5 0 10 -27055
-257985 -66577 0 1;
#X floatatom 153 100 5 0 0 0 - #0-rnumetda #0-numetda;
#X obj 140 104 tgl 12 0 \$0-metda \$0-rmetda empty 17 7 0 10 -33289
-257985 -1 0 1;
#X floatatom 243 100 5 0 0 0 - #0-rnumetda2 #0-numetda2;
#X obj 230 104 tgl 12 0 \$0-metda2 \$0-rmetda2 empty 17 7 0 10 -33289
-257985 -1 0 1;
#X obj 192 176 hsl 80 10 0 1 0 0 \$0-dry2 \$0-dr2 dry2 5 5 0 10 -97525
-257985 -261234 0 1;
#X floatatom 153 128 5 0 0 0 - #0-rnumetwet #0-numetwet;
#X obj 140 132 tgl 12 0 \$0-metwet \$0-rmetwet empty 17 7 0 10 -258113
-257985 -1 0 1;
#X floatatom 243 128 5 0 0 0 - #0-rnumetwet2 #0-numetwet2;
#X obj 230 132 tgl 12 0 \$0-metwet2 \$0-rmetwet2 empty 17 7 0 10 -258113
-257985 -1 0 1;
#X obj 526 -7 randomF 1;
#X floatatom 525 14 5 0 0 0 - - -;
#X obj 526 -26 metro;
#X obj 604 -5 randomF 1;
#X floatatom 603 16 5 0 0 0 - - -;
#X obj 604 -24 metro;
#X obj 709 -25 randomF 1;
#X floatatom 709 30 5 0 0 0 - - -;
#X obj 709 -44 metro;
#X obj 775 13 randomF 1;
#X obj 775 -6 metro;
#X floatatom 873 84 5 0 0 0 - - -;
#X obj 709 11 line;
#X obj 709 -7 pack 0 500;
#X obj 873 48 pack 0 800;
#X obj 873 66 line;
#X obj 816 32 moses 0.2;
#X floatatom 865 -24 5 0 100 0 - - -;
#X obj 866 -5 / 100;
#X floatatom 866 13 5 0 0 0 - - -;
#X obj 916 -8 randomF 1;
#X floatatom 915 13 5 0 0 0 - - -;
#X obj 916 -27 metro;
#X obj 994 -6 randomF 1;
#X floatatom 993 15 5 0 0 0 - - -;
#X obj 994 -25 metro;
#X obj 1099 -26 randomF 1;
#X floatatom 1099 29 5 0 0 0 - - -;
#X obj 1099 -45 metro;
#X obj 1165 12 randomF 1;
#X obj 1165 -7 metro;
#X floatatom 1263 83 5 0 0 0 - - -;
#X obj 1099 10 line;
#X obj 1099 -8 pack 0 500;
#X obj 1263 47 pack 0 800;
#X obj 1263 65 line;
#X obj 1206 31 moses 0.2;
#X floatatom 1255 -25 5 0 100 0 - - -;
#X obj 1256 -6 / 100;
#X floatatom 1256 12 5 0 0 0 - - -;
#X obj 251 412 *~ 1;
#X obj 329 421 *~ 1;
#X obj 268 390 r \$0-wet3;
#X obj 350 398 r \$0-wet4;
#X obj 489 405 *~ 1;
#X obj 567 414 *~ 1;
#N canvas 584 126 713 449 (subpatch) 0;
#X msg 67 -4 save;
#X obj 215 124 route 0 1 2 3 4 5 6 7;
#X obj 211 303 prepend load;
#X obj 141 105 list prepend;
#X msg 199 75 \$1;
#X obj 79 15 r \$0-my.hero.preset;
#X obj 211 332 s \$0-my.hero.preset;
#X obj 350 124 route 8 9 10 11 12 13 14;
#N canvas 91 22 1124 693 messages 0;
#X obj 34 47 inlet;
#X obj 83 47 inlet;
#X obj 127 47 inlet;
#X obj 172 47 inlet;
#X obj 224 48 inlet;
#X obj 273 48 inlet;
#X obj 317 48 inlet;
#X obj 362 48 inlet;
#X obj 202 541 outlet;
#X msg 319 85;
#X msg 364 85;
#X msg 17 108 rvwet6 0 \, rvwet5 0 \, rvda6 0 \, rvda5 0 \, rvmetwet6
0 \, rvmetda6 0 \, rvmetwet5 0 \, rvmetda5 0 \, rvfeb6 0 \, rvdry6
0 \, rvfeb5 0 \, rvdry5 0 \, rvda3 0 \, rvda4 0 \, rvwet3 0 \, rvwet4
0 \, rvfeb3 0 \, rvfeb4 0 \, rvdry4 0 \, rvdry3 0 \, rvmetda3 0 \,
rvmetda4 0 \, rvmetwet3 0 \, rvmetwet4 0 \, rv2metwet2 0 \, rv2metwet
0 \, rv2metda2 0 \, rv2metda 0 \, rv2swit 0 \, rv2voll 0 \, rv2volr
0 \, rv2dry 0 \, rv2feb2 0 \, rv2feb 0 \, rv2da2 0 \, rv2wet2 0 \,
rv2wet 0 \, rv2da 0 \,;
#X msg 432 252 bsw3 1 \, bmic3 0.979167 \, bsw2 0 \, bmic2 0 \, bdry2
0.714286 \, bdry1 0.714286 \, bTr3 0.84 \, bTl3 0 \, bSr3 0 \, bSl3
0 \, bJr3 0 \, bJl3 0 \, bIr3 0 \, bIl3 0 \, bTr2 0 \, bTl2 0 \, bJr2
0 \, bJl2 0 \, bSr2 0 \, bSl2 0 \, bIr2 0 \, bIl2 0 \, bRl5 0 \, bQr5
0 \, bQl5 0 \, bPr5 0.76 \, bPl5 0.64 \, bOr5 0 \, bOl5 0 \, bNr5 0
\, bNl5 0 \, bMr5 0 \, bMl5 0 \, bLr5 0 \, bLl5 0 \, bKr5 0 \, bKl5
0 \, bHr5 0 \, bHl5 0 \, bGr5 0 \, bGl5 0 \, bFr5 0 \, bFl5 0 \, bEr5
0 \, bEl5 0 \, bDr5 0 \, bDl5 0 \, bCr5 0 \, bCl5 0 \, bBr5 0 \, bBl5
0 \, bAr5 0 \, bAl5 0 \, bRr4 0 \, bRl4 0 \, bQr4 0 \, bQl4 0 \, bPr4
0 \, bPl4 0 \, bOr4 0 \, bOl4 0 \, bNr4 0 \, bNl4 0 \, bMr4 0 \, bMl4
0 \, bLr4 0 \, bLl4 0 \, bKr4 0 \, bKl4 0 \, bHr4 0 \, bHl4 0 \, bGr4
0 \, bGl4 0 \, bFr4 0 \, bFl4 0 \, bEr4 0 \, bEl4 0 \, bDr4 0 \, bDl4
0 \, bCr4 0 \, bCl4 0 \, bBr4 0 \, bBl4 0 \, bAr4 0 \, bAl4 0 \, bRr3
0 \, bRl3 0 \, bQr3 0 \, bQl3 0 \, bPr3 0 \, bPl3 0 \, bOr3 0 \, bOl3
0 \, bNr3 0 \, bNl3 0 \, bMr3 0 \, bMl3 0 \, bLr3 0 \, bLl3 0 \, bKr3
0 \, bKl3 0 \, bHr3 0 \, bHl3 0 \, bGr3 0 \, bGl3 0 \, bFr3 0 \, bFl3
0 \, bEr3 0 \, bEl3 0.02 \, bDr3 0 \, bDl3 0 \, bCr3 0 \, bCl3 0 \,
bBr3 0 \, bBl3 0 \, bAr3 0 \, bAl3 0 \, bRr2 0 \, bRl2 0 \, bQr2 0
\, bQl2 0 \, bPr2 0 \, bPl2 0 \, bOr2 0 \, bOl2 0 \, bNr2 0 \, bNl2
0 \, bMr2 0 \, bMl2 0 \, bLr2 0 \, bLl2 0 \, bKr2 0 \, bKl2 0 \, bHr2
0 \, bHl2 0 \, bGr2 0 \, bGl2 0 \, bFr2 0 \, bFl2 0 \, bEr2 0 \, bEl2
0 \, bDr2 0 \, bDl2 0 \, bCr2 0 \, bCl2 0 \, bBr2 0 \, bBl2 0 \, bAr2
0 \, bAl2 0 \, bSr1 0 \, bSl1 0 \, bRr1 0 \, bRl1 0 \, bQr1 0 \, bQl1
0 \, bPr1 0 \, bPl1 0 \, bOr1 0 \, bOl1 0 \, bNr1 0 \, bNl1 0 \, bMr1
0 \, bMl1 0 \, bLr1 0 \, bLl1 0 \, bKr1 0 \, bKl1 0 \, bIr1 0 \, bIl1
0 \, bHr1 0 \, bHl1 0 \, bGr1 0 \, bGl1 0 \, bFr1 0 \, bFl1 0 \, bEr1
0 \, bEl1 0 \, bDr1 0 \, bDl1 0 \, bCr1 0 \, bCl1 0 \, bBr1 0 \, bBl1
0 \, bAr1 0 \, bAl1 0 \, mQr5 0 \, mQl5 0 \, mPr5 0 \, mPl5 0 \, mOr5
0 \, mOl5 0 \, mNr5 0 \, mNl5 0 \, mMr5 0 \, mMl5 0 \, mLr5 0 \, mLl5
0 \, mKr5 0 \, mKl5 0 \, mGr5 0 \, mGl5 0 \, mFr5 0 \, mFl5 0 \, mEr5
0 \, mEl5 0 \, mDr5 0 \, mDl5 0 \, mCr5 0 \, mCl5 0 \, mBr5 0 \, mBl5
0 \, mAr5 0 \, mAl5 0 \, mQr4 0 \, mQl4 0 \, mPr4 0 \, mPl4 0 \, mOr4
0 \, mOl4 0 \, mNr4 0 \, mNl4 0 \, mMr4 0 \, mMl4 0 \, mLr4 0 \, mLl4
0 \, mKr4 0 \, mKl4 0 \, mGr4 0 \, mGl4 0 \, mFr4 0 \, mFl4 0 \, mEr4
0 \, mEl4 0 \, mDr4 0 \, mDl4 0 \, mCr4 1 \, mCl4 1 \, mBr4 0.04 \,
mBl4 0 \, mAr4 0 \, mAl4 0 \, mQr3 0 \, mQl3 0 \, mPr3 0 \, mPl3 0
\, mOr3 0 \, mOl3 0 \, mNr3 0 \, mNl3 0 \, mMr3 0 \, mMl3 0 \, mLr3
0 \, mLl3 0 \, mKr3 0 \, mKl3 0 \, mGr3 0 \, mGl3 0.02 \, mFr3 0 \,
mFl3 0 \, mEr3 0 \, mEl3 0 \, mDr3 0 \, mDl3 0 \, mCr3 0 \, mCl3 0
\, mBr3 0 \, mBl3 0 \, mAr3 0 \, mAl3 0 \, mQr2 0 \, mQl2 0 \, mPr2
0 \, mPl2 0 \, mOr2 0 \, mOl2 0 \, mNr2 0 \, mNl2 0 \, mMr2 0 \, mMl2
0 \, mLr2 0 \, mLl2 0 \, mKr2 0 \, mKl2 0 \, mGr2 0 \, mGl2 0 \, mFr2
0 \, mFl2 0 \, mEr2 0 \, mEl2 0 \, mDr2 0 \, mDl2 0 \, mCr2 0 \, mCl2
0 \, mBr2 0 \, mBl2 0 \, mAr2 0 \, mAl2 0 \, mQr1 0 \, mQl1 0 \, mPr1
0 \, mPl1 0 \, mOr1 0 \, mOl1 0 \, mNr1 0 \, mNl1 0 \, mMr1 0 \, mMl1
0 \, mLr1 0 \, mLl1 0 \, mKr1 0 \, mKl1 0 \, mGr1 0 \, mGl1 0 \, mFr1
0 \, mFl1 0 \, mEr1 0 \, mEl1 0 \, mDr1 0 \, mDl1 0 \, mCr1 0.4 \,
mCl1 0.4 \, mBr1 0 \, mBl1 0 \, mAr1 0 \, mAl1 0 \,;
#X msg 477 324 togr 1 \, rvwet6 0.6 \, rvwet5 0.3 \, rvda6 0.4 \, rvda5
0.2 \, rvmetwet6 0 \, rvmetda6 0 \, rvnumda6 115 \, rvmetwet5 0 \,
rvmetda5 0 \, rvnumda5 226 \, rvfeb6 0.556962 \, rvdry6 0 \, rvfeb5
0.556962 \, rvdry5 0 \, rvda3 0.2 \, rvda4 0.2 \, rvwet3 0.3 \, rvwet4
0.3 \, rvfeb3 0.582278 \, rvfeb4 0.582278 \, rvdry4 0 \, rvdry3 0 \,
rvnumda3 279 \, rvnumda4 242 \, rvmetda3 0 \, rvmetda4 0 \, rvmetwet3
0 \, rvmetwet4 0 \, rv2metwet2 0 \, rv2metwet 0 \, rv2metda2 0 \, rv2metda
0 \, rv2swit 1 \, rv2numda2 451 \, rv2numda 356 \, rv2voll 0.932203
\, rv2volr 0.932203 \, rv2dry 0 \, rv2feb2 0.56962 \, rv2feb 0.556962
\, rv2da2 0.2 \, rv2wet2 0.3 \, rv2wet 0.3 \, rv2da 0.2 \,;
#X msg 518 107 togr 0 \, rvwet6 0.236709 \, rvwet5 0.224051 \, rvda6
0.384177 \, rvda5 0.482405 \, rvmetwet6 0 \, rvmetda6 1 \, rvnumda6
115 \, rvmetwet5 0 \, rvmetda5 1 \, rvnumda5 226 \, rvfeb6 0.21519
\, rvdry6 0 \, rvfeb5 0.151899 \, rvdry5 0 \, rvda3 0.972658 \, rvda4
0.832152 \, rvwet3 0.3 \, rvwet4 0.3 \, rvfeb3 0.0886076 \, rvfeb4
0.113924 \, rvdry4 0 \, rvdry3 0 \, rvnumda3 279 \, rvnumda4 242 \,
rvmetda3 1 \, rvmetda4 1 \, rvmetwet3 0 \, rvmetwet4 0 \, rv2metwet2
0 \, rv2metwet 0 \, rv2metda2 1 \, rv2metda 1 \, rv2swit 1 \, rv2numda2
451 \, rv2numda 356 \, rv2voll 0.932203 \, rv2volr 0.932203 \, rv2dry
0 \, rv2feb2 0.0886076 \, rv2feb 0.101266 \, rv2da2 0.236835 \, rv2wet2
0.35519 \, rv2wet 0.3 \, rv2da 0.568608 \,;
#X msg 569 106 rvwet6 0.236709 \, rvwet5 0.224051 \, rvda6 0.921646
\, rvda5 0.298734 \, rvmetda6 1 \, rvnumda6 115 \, rvmetda5 1 \, rvnumda5
226 \, rvfeb6 0.21519 \, rvdry6 0 \, rvfeb5 0.151899 \, rvdry5 0 \,
rvda3 0.410886 \, rvda4 0.0111392 \, rvwet3 0.3 \, rvwet4 0.3 \, rvfeb3
0.0886076 \, rvfeb4 0.113924 \, rvdry4 0 \, rvdry3 0 \, rvnumda3 279
\, rvnumda4 242 \, rvmetda3 1 \, rvmetda4 1 \, rv2metda2 0 \, rv2metda
0 \, rv2swit 1 \, rv2numda2 451 \, rv2numda 356 \, rv2voll 0.932203
\, rv2volr 0.932203 \, rv2dry 0 \, rv2feb2 0.0886076 \, rv2feb 0.101266
\, rv2da2 0 \, rv2wet2 0.3 \, rv2wet 0.375949 \, rv2da 0 \,;
#X msg 273 84 togr 0 \, rvwet6 0.3 \, rvwet5 0.3 \, rvda6 0.389873
\, rvda5 0.351899 \, rvmetwet6 0 \, rvmetda6 0 \, rvnumda6 115 \, rvmetwet5
0 \, rvmetda5 0 \, rvnumda5 226 \, rvfeb6 0 \, rvdry6 0 \, rvfeb5 0
\, rvdry5 0 \, rvda3 0.785949 \, rvda4 0.780253 \, rvwet3 0 \, rvwet4
0.6 \, rvfeb3 0.632911 \, rvfeb4 0.531646 \, rvdry4 0 \, rvdry3 0 \,
rvnumda3 1219 \, rvnumda4 957 \, rvmetda3 1 \, rvmetda4 1 \, rvmetwet3
0 \, rvmetwet4 0 \, rv2metwet2 0 \, rv2metwet 0 \, rv2metda2 1 \, rv2metda
1 \, rv2swit 1 \, rv2numda2 1407 \, rv2numda 1064 \, rv2voll 0.440678
\, rv2volr 0.440678 \, rv2dry 0 \, rv2feb2 0.658228 \, rv2feb 0.620253
\, rv2da2 0.126203 \, rv2wet2 0 \, rv2wet 0 \, rv2da 0.0841772 \,;
#X connect 0 0 11 0;
#X connect 1 0 12 0;
#X connect 2 0 13 0;
#X connect 3 0 14 0;
#X connect 4 0 15 0;
#X connect 5 0 16 0;
#X connect 6 0 9 0;
#X connect 7 0 10 0;
#X connect 9 0 8 0;
#X connect 10 0 8 0;
#X connect 11 0 8 0;
#X connect 12 0 8 0;
#X connect 13 0 8 0;
#X connect 14 0 8 0;
#X connect 15 0 8 0;
#X connect 16 0 8 0;
#X restore 241 272 pd messages;
#N canvas 437 456 450 300 messages 0;
#X obj 34 47 inlet;
#X obj 83 47 inlet;
#X obj 127 47 inlet;
#X obj 172 47 inlet;
#X obj 224 48 inlet;
#X obj 273 48 inlet;
#X obj 317 48 inlet;
#X obj 362 48 inlet;
#X obj 196 132 outlet;
#X msg 37 84;
#X msg 83 85;
#X msg 126 85;
#X msg 174 84;
#X msg 224 83;
#X msg 273 84;
#X msg 319 85;
#X msg 364 85;
#X connect 0 0 9 0;
#X connect 1 0 10 0;
#X connect 2 0 11 0;
#X connect 3 0 12 0;
#X connect 4 0 13 0;
#X connect 5 0 14 0;
#X connect 6 0 15 0;
#X connect 7 0 16 0;
#X connect 9 0 8 0;
#X connect 10 0 8 0;
#X connect 11 0 8 0;
#X connect 12 0 8 0;
#X connect 13 0 8 0;
#X connect 14 0 8 0;
#X connect 15 0 8 0;
#X connect 16 0 8 0;
#X restore 346 283 pd messages;
#X msg 211 152 set;
#X obj 128 145 + 1;
#X obj 234 -2 inlet;
#X obj 19 196 s distpre;
#N canvas 437 456 450 300 messages 0;
#X obj 34 47 inlet;
#X obj 83 47 inlet;
#X obj 127 47 inlet;
#X obj 172 47 inlet;
#X obj 224 48 inlet;
#X obj 273 48 inlet;
#X obj 317 48 inlet;
#X obj 362 48 inlet;
#X obj 196 132 outlet;
#X msg 37 84;
#X msg 83 85;
#X msg 126 85;
#X msg 174 84;
#X msg 224 83;
#X msg 273 84;
#X msg 319 85;
#X msg 364 85;
#X connect 0 0 9 0;
#X connect 1 0 10 0;
#X connect 2 0 11 0;
#X connect 3 0 12 0;
#X connect 4 0 13 0;
#X connect 5 0 14 0;
#X connect 6 0 15 0;
#X connect 7 0 16 0;
#X connect 9 0 8 0;
#X connect 10 0 8 0;
#X connect 11 0 8 0;
#X connect 12 0 8 0;
#X connect 13 0 8 0;
#X connect 14 0 8 0;
#X connect 15 0 8 0;
#X connect 16 0 8 0;
#X restore 440 212 pd messages;
#X obj 134 195 gate 16;
#X obj 45 -23 inlet;
#X obj 331 75 inlet;
#X obj 66 46 my.hero.mmb rvrbf;
#X connect 0 0 18 0;
#X connect 1 0 8 0;
#X connect 1 1 8 1;
#X connect 1 2 8 2;
#X connect 1 3 8 3;
#X connect 1 4 8 4;
#X connect 1 5 8 5;
#X connect 1 6 8 6;
#X connect 1 7 8 7;
#X connect 1 8 7 0;
#X connect 2 0 6 0;
#X connect 3 0 1 0;
#X connect 4 0 3 1;
#X connect 5 0 18 0;
#X connect 7 0 9 0;
#X connect 7 1 9 1;
#X connect 7 2 9 2;
#X connect 7 3 9 3;
#X connect 7 4 9 4;
#X connect 7 5 9 5;
#X connect 7 6 9 6;
#X connect 8 0 2 0;
#X connect 9 0 2 0;
#X connect 10 0 15 1;
#X connect 11 0 15 0;
#X connect 11 0 13 0;
#X connect 12 0 4 0;
#X connect 12 0 11 0;
#X connect 12 0 1 0;
#X connect 15 0 8 0;
#X connect 15 1 8 1;
#X connect 15 2 8 2;
#X connect 15 3 8 3;
#X connect 15 4 8 4;
#X connect 15 5 8 5;
#X connect 15 6 8 6;
#X connect 15 7 8 7;
#X connect 15 8 9 0;
#X connect 15 9 9 1;
#X connect 15 10 9 2;
#X connect 15 11 9 3;
#X connect 15 12 9 4;
#X connect 15 13 9 5;
#X connect 15 14 9 6;
#X connect 15 15 9 7;
#X connect 16 0 0 0;
#X connect 17 0 10 0;
#X connect 18 0 3 0;
#X restore 779 243 pd;
#N canvas 584 126 713 449 (subpatch) 0;
#X msg 67 -4 save;
#X obj 215 124 route 0 1 2 3 4 5 6 7;
#X obj 211 303 prepend load;
#X obj 141 105 list prepend;
#X msg 199 75 \$1;
#X obj 79 15 r \$0-my.hero.preset;
#X obj 211 332 s \$0-my.hero.preset;
#X obj 350 124 route 8 9 10 11 12 13 14;
#N canvas 91 22 588 557 messages 0;
#X obj 34 47 inlet;
#X obj 83 47 inlet;
#X obj 127 47 inlet;
#X obj 172 47 inlet;
#X obj 224 48 inlet;
#X obj 273 48 inlet;
#X obj 317 48 inlet;
#X obj 362 48 inlet;
#X obj 202 541 outlet;
#X msg 319 85;
#X msg 364 85;
#X msg 37 178 bsw3 0 \, bmic3 0 \, bdry2 0 \, bdry1 0 \, bTr3 0 \,
bTl3 0 \, bSr3 0 \, bSl3 0 \, bJr3 0 \, bJl3 0 \, bIr3 0 \, bIl3 0
\, bTr2 0 \, bTl2 0 \, bJr2 0 \, bJl2 0 \, bSr2 0 \, bSl2 0 \, bIr2
0 \, bIl2 0 \, bRl5 0 \, bQr5 0 \, bQl5 0 \, bPr5 0 \, bPl5 0 \, bOr5
0 \, bOl5 0 \, bNr5 0 \, bNl5 0 \, bMr5 0 \, bMl5 0 \, bLr5 0 \, bLl5
0 \, bKr5 0 \, bKl5 0 \, bHr5 0 \, bHl5 0 \, bGr5 0 \, bGl5 0 \, bFr5
0 \, bFl5 0 \, bEr5 0 \, bEl5 0 \, bDr5 0 \, bDl5 0 \, bCr5 0 \, bCl5
0 \, bBr5 0 \, bBl5 0 \, bAr5 0 \, bAl5 0 \, bRr4 0 \, bRl4 0 \, bQr4
0 \, bQl4 0 \, bPr4 0 \, bPl4 0 \, bOr4 0 \, bOl4 0 \, bNr4 0 \, bNl4
0 \, bMr4 0 \, bMl4 0 \, bLr4 0 \, bLl4 0 \, bKr4 0 \, bKl4 0 \, bHr4
0 \, bHl4 0 \, bGr4 0 \, bGl4 0 \, bFr4 0 \, bFl4 0 \, bEr4 0 \, bEl4
0 \, bDr4 0 \, bDl4 0 \, bCr4 0 \, bCl4 0 \, bBr4 0 \, bBl4 0 \, bAr4
0 \, bAl4 0 \, bRr3 0 \, bRl3 0 \, bQr3 0 \, bQl3 0 \, bPr3 0 \, bPl3
0 \, bOr3 0 \, bOl3 0 \, bNr3 0 \, bNl3 0 \, bMr3 0 \, bMl3 0 \, bLr3
0 \, bLl3 0 \, bKr3 0 \, bKl3 0 \, bHr3 0 \, bHl3 0 \, bGr3 0 \, bGl3
0 \, bFr3 0 \, bFl3 0 \, bEr3 0 \, bEl3 0.02 \, bDr3 0 \, bDl3 0 \,
bCr3 0 \, bCl3 0 \, bBr3 0 \, bBl3 0 \, bAr3 0 \, bAl3 0 \, bRr2 0
\, bRl2 0 \, bQr2 0 \, bQl2 0 \, bPr2 0 \, bPl2 0 \, bOr2 0 \, bOl2
0 \, bNr2 0 \, bNl2 0 \, bMr2 0 \, bMl2 0 \, bLr2 0 \, bLl2 0 \, bKr2
0 \, bKl2 0 \, bHr2 0 \, bHl2 0 \, bGr2 0 \, bGl2 0 \, bFr2 0 \, bFl2
0 \, bEr2 0 \, bEl2 0 \, bDr2 0 \, bDl2 0 \, bCr2 0 \, bCl2 0 \, bBr2
0 \, bBl2 0 \, bAr2 0 \, bAl2 0 \, bSr1 0 \, bSl1 0 \, bRr1 0 \, bRl1
0 \, bQr1 0 \, bQl1 0 \, bPr1 0 \, bPl1 0 \, bOr1 0 \, bOl1 0 \, bNr1
0 \, bNl1 0 \, bMr1 0 \, bMl1 0 \, bLr1 0 \, bLl1 0 \, bKr1 0 \, bKl1
0 \, bIr1 0 \, bIl1 0 \, bHr1 0 \, bHl1 0 \, bGr1 0 \, bGl1 0 \, bFr1
0 \, bFl1 0 \, bEr1 0 \, bEl1 0 \, bDr1 0 \, bDl1 0 \, bCr1 0 \, bCl1
0 \, bBr1 0 \, bBl1 0 \, bAr1 0 \, bAl1 0 \, mQr5 0 \, mQl5 0 \, mPr5
0 \, mPl5 0 \, mOr5 0 \, mOl5 0 \, mNr5 0 \, mNl5 0 \, mMr5 0 \, mMl5
0 \, mLr5 0 \, mLl5 0 \, mKr5 0 \, mKl5 0 \, mGr5 0 \, mGl5 0 \, mFr5
0 \, mFl5 0 \, mEr5 0 \, mEl5 0 \, mDr5 0 \, mDl5 0 \, mCr5 0 \, mCl5
0 \, mBr5 0 \, mBl5 0 \, mAr5 0 \, mAl5 0 \, mQr4 0 \, mQl4 0 \, mPr4
0 \, mPl4 0 \, mOr4 0 \, mOl4 0 \, mNr4 0 \, mNl4 0 \, mMr4 0 \, mMl4
0 \, mLr4 0 \, mLl4 0 \, mKr4 0 \, mKl4 0 \, mGr4 0 \, mGl4 0 \, mFr4
0 \, mFl4 0 \, mEr4 0 \, mEl4 0 \, mDr4 0 \, mDl4 0 \, mCr4 0 \, mCl4
0 \, mBr4 0 \, mBl4 0 \, mAr4 0 \, mAl4 0 \, mQr3 0 \, mQl3 0 \, mPr3
0 \, mPl3 0 \, mOr3 0 \, mOl3 0 \, mNr3 0 \, mNl3 0 \, mMr3 0 \, mMl3
0 \, mLr3 0 \, mLl3 0 \, mKr3 0 \, mKl3 0 \, mGr3 0 \, mGl3 0.02 \,
mFr3 0 \, mFl3 0 \, mEr3 0 \, mEl3 0 \, mDr3 0 \, mDl3 0 \, mCr3 0
\, mCl3 0 \, mBr3 0 \, mBl3 0 \, mAr3 0 \, mAl3 0 \, mQr2 0 \, mQl2
0 \, mPr2 0 \, mPl2 0 \, mOr2 0 \, mOl2 0 \, mNr2 0 \, mNl2 0 \, mMr2
0 \, mMl2 0 \, mLr2 0 \, mLl2 0 \, mKr2 0 \, mKl2 0 \, mGr2 0 \, mGl2
0 \, mFr2 0 \, mFl2 0 \, mEr2 0 \, mEl2 0 \, mDr2 0 \, mDl2 0 \, mCr2
0 \, mCl2 0 \, mBr2 0 \, mBl2 0 \, mAr2 0 \, mAl2 0 \, mQr1 0 \, mQl1
0 \, mPr1 0 \, mPl1 0 \, mOr1 0 \, mOl1 0 \, mNr1 0 \, mNl1 0 \, mMr1
0 \, mMl1 0 \, mLr1 0 \, mLl1 0 \, mKr1 0 \, mKl1 0 \, mGr1 0 \, mGl1
0 \, mFr1 0 \, mFl1 0 \, mEr1 0 \, mEl1 0 \, mDr1 0 \, mDl1 0 \, mCr1
0 \, mCl1 0 \, mBr1 0 \, mBl1 0 \, mAr1 0 \, mAl1 0 \,;
#X msg 88 229 bsw3 1 \, bmic3 0.979167 \, bsw2 0 \, bmic2 0 \, bdry2
0.714286 \, bdry1 0.714286 \, bTr3 0.84 \, bTl3 0 \, bSr3 0 \, bSl3
0 \, bJr3 0 \, bJl3 0 \, bIr3 0 \, bIl3 0 \, bTr2 0 \, bTl2 0 \, bJr2
0 \, bJl2 0 \, bSr2 0 \, bSl2 0 \, bIr2 0 \, bIl2 0 \, bRl5 0 \, bQr5
0 \, bQl5 0 \, bPr5 0.76 \, bPl5 0.64 \, bOr5 0 \, bOl5 0 \, bNr5 0
\, bNl5 0 \, bMr5 0 \, bMl5 0 \, bLr5 0 \, bLl5 0 \, bKr5 0 \, bKl5
0 \, bHr5 0 \, bHl5 0 \, bGr5 0 \, bGl5 0 \, bFr5 0 \, bFl5 0 \, bEr5
0 \, bEl5 0 \, bDr5 0 \, bDl5 0 \, bCr5 0 \, bCl5 0 \, bBr5 0 \, bBl5
0 \, bAr5 0 \, bAl5 0 \, bRr4 0 \, bRl4 0 \, bQr4 0 \, bQl4 0 \, bPr4
0 \, bPl4 0 \, bOr4 0 \, bOl4 0 \, bNr4 0 \, bNl4 0 \, bMr4 0 \, bMl4
0 \, bLr4 0 \, bLl4 0 \, bKr4 0 \, bKl4 0 \, bHr4 0 \, bHl4 0 \, bGr4
0 \, bGl4 0 \, bFr4 0 \, bFl4 0 \, bEr4 0 \, bEl4 0 \, bDr4 0 \, bDl4
0 \, bCr4 0 \, bCl4 0 \, bBr4 0 \, bBl4 0 \, bAr4 0 \, bAl4 0 \, bRr3
0 \, bRl3 0 \, bQr3 0 \, bQl3 0 \, bPr3 0 \, bPl3 0 \, bOr3 0 \, bOl3
0 \, bNr3 0 \, bNl3 0 \, bMr3 0 \, bMl3 0 \, bLr3 0 \, bLl3 0 \, bKr3
0 \, bKl3 0 \, bHr3 0 \, bHl3 0 \, bGr3 0 \, bGl3 0 \, bFr3 0 \, bFl3
0 \, bEr3 0 \, bEl3 0.02 \, bDr3 0 \, bDl3 0 \, bCr3 0 \, bCl3 0 \,
bBr3 0 \, bBl3 0 \, bAr3 0 \, bAl3 0 \, bRr2 0 \, bRl2 0 \, bQr2 0
\, bQl2 0 \, bPr2 0 \, bPl2 0 \, bOr2 0 \, bOl2 0 \, bNr2 0 \, bNl2
0 \, bMr2 0 \, bMl2 0 \, bLr2 0 \, bLl2 0 \, bKr2 0 \, bKl2 0 \, bHr2
0 \, bHl2 0 \, bGr2 0 \, bGl2 0 \, bFr2 0 \, bFl2 0 \, bEr2 0 \, bEl2
0 \, bDr2 0 \, bDl2 0 \, bCr2 0 \, bCl2 0 \, bBr2 0 \, bBl2 0 \, bAr2
0 \, bAl2 0 \, bSr1 0 \, bSl1 0 \, bRr1 0 \, bRl1 0 \, bQr1 0 \, bQl1
0 \, bPr1 0 \, bPl1 0 \, bOr1 0 \, bOl1 0 \, bNr1 0 \, bNl1 0 \, bMr1
0 \, bMl1 0 \, bLr1 0 \, bLl1 0 \, bKr1 0 \, bKl1 0 \, bIr1 0 \, bIl1
0 \, bHr1 0 \, bHl1 0 \, bGr1 0 \, bGl1 0 \, bFr1 0 \, bFl1 0 \, bEr1
0 \, bEl1 0 \, bDr1 0 \, bDl1 0 \, bCr1 0 \, bCl1 0 \, bBr1 0 \, bBl1
0 \, bAr1 0 \, bAl1 0 \, mQr5 0 \, mQl5 0 \, mPr5 0 \, mPl5 0 \, mOr5
0 \, mOl5 0 \, mNr5 0 \, mNl5 0 \, mMr5 0 \, mMl5 0 \, mLr5 0 \, mLl5
0 \, mKr5 0 \, mKl5 0 \, mGr5 0 \, mGl5 0 \, mFr5 0 \, mFl5 0 \, mEr5
0 \, mEl5 0 \, mDr5 0 \, mDl5 0 \, mCr5 0 \, mCl5 0 \, mBr5 0 \, mBl5
0 \, mAr5 0 \, mAl5 0 \, mQr4 0 \, mQl4 0 \, mPr4 0 \, mPl4 0 \, mOr4
0 \, mOl4 0 \, mNr4 0 \, mNl4 0 \, mMr4 0 \, mMl4 0 \, mLr4 0 \, mLl4
0 \, mKr4 0 \, mKl4 0 \, mGr4 0 \, mGl4 0 \, mFr4 0 \, mFl4 0 \, mEr4
0 \, mEl4 0 \, mDr4 0 \, mDl4 0 \, mCr4 1 \, mCl4 1 \, mBr4 0.04 \,
mBl4 0 \, mAr4 0 \, mAl4 0 \, mQr3 0 \, mQl3 0 \, mPr3 0 \, mPl3 0
\, mOr3 0 \, mOl3 0 \, mNr3 0 \, mNl3 0 \, mMr3 0 \, mMl3 0 \, mLr3
0 \, mLl3 0 \, mKr3 0 \, mKl3 0 \, mGr3 0 \, mGl3 0.02 \, mFr3 0 \,
mFl3 0 \, mEr3 0 \, mEl3 0 \, mDr3 0 \, mDl3 0 \, mCr3 0 \, mCl3 0
\, mBr3 0 \, mBl3 0 \, mAr3 0 \, mAl3 0 \, mQr2 0 \, mQl2 0 \, mPr2
0 \, mPl2 0 \, mOr2 0 \, mOl2 0 \, mNr2 0 \, mNl2 0 \, mMr2 0 \, mMl2
0 \, mLr2 0 \, mLl2 0 \, mKr2 0 \, mKl2 0 \, mGr2 0 \, mGl2 0 \, mFr2
0 \, mFl2 0 \, mEr2 0 \, mEl2 0 \, mDr2 0 \, mDl2 0 \, mCr2 0 \, mCl2
0 \, mBr2 0 \, mBl2 0 \, mAr2 0 \, mAl2 0 \, mQr1 0 \, mQl1 0 \, mPr1
0 \, mPl1 0 \, mOr1 0 \, mOl1 0 \, mNr1 0 \, mNl1 0 \, mMr1 0 \, mMl1
0 \, mLr1 0 \, mLl1 0 \, mKr1 0 \, mKl1 0 \, mGr1 0 \, mGl1 0 \, mFr1
0 \, mFl1 0 \, mEr1 0 \, mEl1 0 \, mDr1 0 \, mDl1 0 \, mCr1 0.4 \,
mCl1 0.4 \, mBr1 0 \, mBl1 0 \, mAr1 0 \, mAl1 0 \,;
#X msg 133 301;
#X msg 174 84;
#X msg 225 83;
#X msg 273 84;
#X connect 0 0 11 0;
#X connect 1 0 12 0;
#X connect 2 0 13 0;
#X connect 3 0 14 0;
#X connect 4 0 15 0;
#X connect 5 0 16 0;
#X connect 6 0 9 0;
#X connect 7 0 10 0;
#X connect 9 0 8 0;
#X connect 10 0 8 0;
#X connect 11 0 8 0;
#X connect 12 0 8 0;
#X connect 13 0 8 0;
#X connect 14 0 8 0;
#X connect 15 0 8 0;
#X connect 16 0 8 0;
#X restore 241 272 pd messages;
#N canvas 437 456 450 300 messages 0;
#X obj 34 47 inlet;
#X obj 83 47 inlet;
#X obj 127 47 inlet;
#X obj 172 47 inlet;
#X obj 224 48 inlet;
#X obj 273 48 inlet;
#X obj 317 48 inlet;
#X obj 362 48 inlet;
#X obj 196 132 outlet;
#X msg 37 84;
#X msg 83 85;
#X msg 126 85;
#X msg 174 84;
#X msg 224 83;
#X msg 273 84;
#X msg 319 85;
#X msg 364 85;
#X connect 0 0 9 0;
#X connect 1 0 10 0;
#X connect 2 0 11 0;
#X connect 3 0 12 0;
#X connect 4 0 13 0;
#X connect 5 0 14 0;
#X connect 6 0 15 0;
#X connect 7 0 16 0;
#X connect 9 0 8 0;
#X connect 10 0 8 0;
#X connect 11 0 8 0;
#X connect 12 0 8 0;
#X connect 13 0 8 0;
#X connect 14 0 8 0;
#X connect 15 0 8 0;
#X connect 16 0 8 0;
#X restore 346 283 pd messages;
#X msg 211 152 set;
#X obj 128 145 + 1;
#X obj 234 -2 inlet;
#X obj 19 196 s distpre;
#N canvas 437 456 450 300 messages 0;
#X obj 34 47 inlet;
#X obj 83 47 inlet;
#X obj 127 47 inlet;
#X obj 172 47 inlet;
#X obj 224 48 inlet;
#X obj 273 48 inlet;
#X obj 317 48 inlet;
#X obj 362 48 inlet;
#X obj 196 132 outlet;
#X msg 37 84;
#X msg 83 85;
#X msg 126 85;
#X msg 174 84;
#X msg 224 83;
#X msg 273 84;
#X msg 319 85;
#X msg 364 85;
#X connect 0 0 9 0;
#X connect 1 0 10 0;
#X connect 2 0 11 0;
#X connect 3 0 12 0;
#X connect 4 0 13 0;
#X connect 5 0 14 0;
#X connect 6 0 15 0;
#X connect 7 0 16 0;
#X connect 9 0 8 0;
#X connect 10 0 8 0;
#X connect 11 0 8 0;
#X connect 12 0 8 0;
#X connect 13 0 8 0;
#X connect 14 0 8 0;
#X connect 15 0 8 0;
#X connect 16 0 8 0;
#X restore 440 212 pd messages;
#X obj 134 195 gate 16;
#X obj 45 -23 inlet;
#X obj 331 75 inlet;
#X obj 66 46 my.hero.mmb bolas;
#X connect 0 0 18 0;
#X connect 1 0 8 0;
#X connect 1 1 8 1;
#X connect 1 2 8 2;
#X connect 1 3 8 3;
#X connect 1 4 8 4;
#X connect 1 5 8 5;
#X connect 1 6 8 6;
#X connect 1 7 8 7;
#X connect 1 8 7 0;
#X connect 2 0 6 0;
#X connect 3 0 1 0;
#X connect 4 0 3 1;
#X connect 5 0 18 0;
#X connect 7 0 9 0;
#X connect 7 1 9 1;
#X connect 7 2 9 2;
#X connect 7 3 9 3;
#X connect 7 4 9 4;
#X connect 7 5 9 5;
#X connect 7 6 9 6;
#X connect 8 0 2 0;
#X connect 9 0 2 0;
#X connect 10 0 15 1;
#X connect 11 0 15 0;
#X connect 11 0 13 0;
#X connect 12 0 4 0;
#X connect 12 0 11 0;
#X connect 12 0 1 0;
#X connect 15 0 8 0;
#X connect 15 1 8 1;
#X connect 15 2 8 2;
#X connect 15 3 8 3;
#X connect 15 4 8 4;
#X connect 15 5 8 5;
#X connect 15 6 8 6;
#X connect 15 7 8 7;
#X connect 15 8 9 0;
#X connect 15 9 9 1;
#X connect 15 10 9 2;
#X connect 15 11 9 3;
#X connect 15 12 9 4;
#X connect 15 13 9 5;
#X connect 15 14 9 6;
#X connect 15 15 9 7;
#X connect 16 0 0 0;
#X connect 17 0 10 0;
#X connect 18 0 3 0;
#X restore 124 693 pd;
#X obj 193 192 c.radio @size 494 12 @fontname Monaco @fontweight normal
@fontslant roman @fontsize 11 @idname (null) @presetname (null) @nitems
25 @mode 0 @bgcolor 0.75 0.75 0.75 1 @bdcolor 0.25 0.51 0.5 1 @itcolor
0.3 0.55 0.65 1;
#X obj 101 192 bng 12 250 50 0 empty empty rec 17 7 0 10 -262144 -1
-1;
#X obj 142 192 bng 12 250 50 0 empty empty clear 17 7 0 10 -262144
-1 -1;
#X obj 526 -44 r \$0-metda3;
#X obj 553 -61 r \$0-numetda3;
#X obj 604 -43 r \$0-metda4;
#X obj 631 -60 r \$0-numetda4;
#X obj 709 -77 r \$0-metwet3;
#X obj 736 -62 r \$0-numetwet3;
#X obj 775 -44 r \$0-metwet4;
#X obj 774 -25 r \$0-numetwet4;
#X obj 943 -62 r \$0-numetda5;
#X obj 916 -45 r \$0-metda5;
#X obj 1021 -61 r \$0-numetda6;
#X obj 994 -44 r \$0-metda6;
#X obj 1099 -79 r \$0-metwet5;
#X obj 1126 -63 r \$0-numetwet5;
#X obj 1165 -45 r \$0-metwet6;
#X obj 1164 -26 r \$0-numetwet6;
#X obj 506 383 r \$0-wet5;
#X obj 588 391 r \$0-wet6;
#X obj 484 460 throw~ master3L;
#X obj 33 438 throw~ master1L;
#X obj 62 462 throw~ master1R;
#X obj 248 450 throw~ master2R;
#X obj 277 474 throw~ master3R;
#X obj 513 484 throw~ master2L;
#N canvas 147 163 1411 814 metro 0;
#X obj 11 367 line 0 2;
#X obj 281 225 gate 6;
#X msg 349 108 1;
#X obj 349 132 +;
#X obj 388 132 % 6;
#X obj 9 300 t b b b;
#X floatatom 351 163 5 0 0 0 - - -;
#X obj 232 103 tgl 15 0 empty empty empty 17 7 0 10 -262144 -1 -1 0
1;
#X obj 123 368 line 0 2;
#X obj 121 301 t b b b;
#X obj 235 369 line 0 2;
#X obj 233 302 t b b b;
#X obj 348 371 line 0 2;
#X obj 346 304 t b b b;
#X obj 461 372 line 0 2;
#X obj 459 305 t b b b;
#X obj 576 373 line 0 2;
#X obj 574 306 t b b b;
#X obj 275 85 t b b;
#X obj 16 484 outlet;
#X obj 100 487 outlet;
#X obj 242 486 outlet;
#X obj 326 489 outlet;
#X obj 458 495 outlet;
#X obj 542 498 outlet;
#X obj 698 384 line 0 2;
#X obj 937 256 gate 6;
#X msg 1036 125 1;
#X obj 1036 149 +;
#X obj 1075 149 % 6;
#X obj 696 317 t b b b;
#X floatatom 1038 180 5 0 0 0 - - -;
#X msg 697 361 0.6 1000;
#X obj 810 385 line 0 2;
#X obj 808 318 t b b b;
#X msg 809 362 0.6 1000;
#X obj 922 386 line 0 2;
#X obj 920 319 t b b b;
#X msg 921 363 0.6 1000;
#X obj 1035 388 line 0 2;
#X obj 1033 321 t b b b;
#X msg 1034 365 0.6 1000;
#X obj 1148 389 line 0 2;
#X obj 1146 322 t b b b;
#X obj 1263 390 line 0 2;
#X obj 1261 323 t b b b;
#X obj 703 501 outlet;
#X obj 787 504 outlet;
#X obj 929 503 outlet;
#X obj 1013 506 outlet;
#X obj 1145 512 outlet;
#X obj 1229 515 outlet;
#X obj 936 113 t b b;
#X obj 276 63 t b b;
#X obj 67 325 del 2000;
#X obj 179 326 del 2000;
#X obj 291 327 del 2000;
#X obj 404 329 del 2000;
#X obj 517 330 del 2000;
#X obj 632 331 del 2000;
#X obj 754 342 del 2000;
#X obj 866 343 del 2000;
#X obj 978 344 del 2000;
#X obj 1091 346 del 2000;
#X obj 1204 347 del 2000;
#X obj 1319 348 del 2000;
#X msg 69 345 0.2 3000;
#X msg 181 346 0.2 3000;
#X msg 293 347 0.2 3000;
#X msg 406 349 0.2 3000;
#X msg 519 350 0.2 3000;
#X msg 634 351 0.2 3000;
#X msg 756 362 0.3 3000;
#X msg 868 363 0.3 3000;
#X msg 980 364 0.3 3000;
#X msg 1093 366 0.3 3000;
#X msg 1206 367 0.3 3000;
#X msg 1321 368 0.3 3000;
#X msg 1147 366 0.6 1000;
#X msg 1262 367 0.6 1000;
#X obj 276 34 metro 3000;
#X msg 10 344 0.4 1000;
#X msg 122 345 0.4 1000;
#X msg 234 346 0.4 1000;
#X msg 347 348 0.4 1000;
#X msg 460 349 0.4 1000;
#X msg 575 350 0.4 1000;
#X obj 156 -25 save.me.mmb togr rvrbf;
#X obj 541 192 gate 4;
#X obj 539 139 random 4;
#X obj 539 162 + 1;
#X obj 643 129 t b b;
#X obj 670 150 del 100;
#X msg 670 173 0;
#X obj 564 112 t b b;
#X obj 564 74 metro 200;
#X msg 643 173 0.6;
#X obj 118 102 tgl 15 0 empty empty empty 17 7 0 10 -262144 -1 -1 0
1;
#X connect 0 0 19 0;
#X connect 1 0 5 0;
#X connect 1 1 9 0;
#X connect 1 2 11 0;
#X connect 1 3 13 0;
#X connect 1 4 15 0;
#X connect 1 5 17 0;
#X connect 2 0 3 0;
#X connect 3 0 4 0;
#X connect 3 0 6 0;
#X connect 4 0 3 1;
#X connect 5 0 81 0;
#X connect 5 1 54 0;
#X connect 6 0 1 0;
#X connect 7 0 80 0;
#X connect 7 0 87 0;
#X connect 8 0 20 0;
#X connect 9 0 82 0;
#X connect 9 1 55 0;
#X connect 10 0 21 0;
#X connect 11 0 83 0;
#X connect 11 1 56 0;
#X connect 12 0 22 0;
#X connect 13 0 84 0;
#X connect 13 1 57 0;
#X connect 14 0 23 0;
#X connect 15 0 85 0;
#X connect 15 1 58 0;
#X connect 16 0 24 0;
#X connect 17 0 86 0;
#X connect 17 1 59 0;
#X connect 18 0 1 1;
#X connect 18 1 2 0;
#X connect 25 0 46 0;
#X connect 26 0 30 0;
#X connect 26 1 34 0;
#X connect 26 2 37 0;
#X connect 26 3 40 0;
#X connect 26 4 43 0;
#X connect 26 5 45 0;
#X connect 27 0 28 0;
#X connect 28 0 29 0;
#X connect 28 0 31 0;
#X connect 29 0 28 1;
#X connect 30 0 32 0;
#X connect 30 1 60 0;
#X connect 31 0 26 0;
#X connect 32 0 25 0;
#X connect 33 0 47 0;
#X connect 34 0 35 0;
#X connect 34 1 61 0;
#X connect 35 0 33 0;
#X connect 36 0 48 0;
#X connect 37 0 38 0;
#X connect 37 1 62 0;
#X connect 38 0 36 0;
#X connect 39 0 49 0;
#X connect 40 0 41 0;
#X connect 40 1 63 0;
#X connect 41 0 39 0;
#X connect 42 0 50 0;
#X connect 43 0 78 0;
#X connect 43 1 64 0;
#X connect 44 0 51 0;
#X connect 45 0 79 0;
#X connect 45 1 65 0;
#X connect 52 0 26 1;
#X connect 52 1 27 0;
#X connect 53 0 18 0;
#X connect 53 1 52 0;
#X connect 54 0 66 0;
#X connect 55 0 67 0;
#X connect 56 0 68 0;
#X connect 57 0 69 0;
#X connect 58 0 70 0;
#X connect 59 0 71 0;
#X connect 60 0 72 0;
#X connect 61 0 73 0;
#X connect 62 0 74 0;
#X connect 63 0 75 0;
#X connect 64 0 76 0;
#X connect 65 0 77 0;
#X connect 66 0 0 0;
#X connect 67 0 8 0;
#X connect 68 0 10 0;
#X connect 69 0 12 0;
#X connect 70 0 14 0;
#X connect 71 0 16 0;
#X connect 72 0 25 0;
#X connect 73 0 33 0;
#X connect 74 0 36 0;
#X connect 75 0 39 0;
#X connect 76 0 42 0;
#X connect 77 0 44 0;
#X connect 78 0 42 0;
#X connect 79 0 44 0;
#X connect 80 0 53 0;
#X connect 81 0 0 0;
#X connect 82 0 8 0;
#X connect 83 0 10 0;
#X connect 84 0 12 0;
#X connect 85 0 14 0;
#X connect 86 0 16 0;
#X connect 87 0 7 0;
#X connect 88 0 46 0;
#X connect 88 1 47 0;
#X connect 88 2 48 0;
#X connect 88 3 49 0;
#X connect 89 0 90 0;
#X connect 90 0 88 0;
#X connect 91 0 96 0;
#X connect 91 1 92 0;
#X connect 92 0 93 0;
#X connect 93 0 88 1;
#X connect 94 0 91 0;
#X connect 94 1 89 0;
#X connect 95 0 94 0;
#X connect 96 0 88 1;
#X connect 97 0 95 0;
#X coords 0 -1 1 1 150 20 1 100 100;
#X restore 77 60 pd metro diffusion;
#X obj 127 8 moses 0.9;
#X obj 206 11 moses 0.9;
#X obj 797 172 r flutepres;
#X connect 3 0 1 0;
#X connect 4 0 3 0;
#X connect 5 0 6 0;
#X connect 6 0 4 0;
#X connect 7 0 8 0;
#X connect 8 0 261 0;
#X connect 9 0 8 0;
#X connect 9 1 28 0;
#X connect 10 0 11 0;
#X connect 11 0 2 0;
#X connect 12 0 15 0;
#X connect 13 0 14 0;
#X connect 14 0 10 0;
#X connect 15 0 13 0;
#X connect 16 0 20 0;
#X connect 17 0 16 0;
#X connect 18 0 19 0;
#X connect 19 0 17 0;
#X connect 21 0 22 0;
#X connect 22 0 27 0;
#X connect 23 0 26 0;
#X connect 24 0 25 0;
#X connect 25 0 21 0;
#X connect 26 0 24 0;
#X connect 28 0 262 0;
#X connect 29 0 267 0;
#X connect 30 0 67 0;
#X connect 31 0 29 0;
#X connect 32 0 268 0;
#X connect 33 0 67 1;
#X connect 34 0 32 0;
#X connect 35 0 28 0;
#X connect 36 0 18 0;
#X connect 37 0 5 0;
#X connect 38 0 12 0;
#X connect 39 0 23 0;
#X connect 40 0 47 0;
#X connect 41 0 67 2;
#X connect 42 0 40 0;
#X connect 43 0 50 0;
#X connect 44 0 43 0;
#X connect 45 0 67 3;
#X connect 46 0 41 0;
#X connect 47 0 46 0;
#X connect 48 0 49 0;
#X connect 49 0 45 0;
#X connect 50 1 48 0;
#X connect 52 0 53 0;
#X connect 53 0 54 0;
#X connect 54 0 50 1;
#X connect 58 0 57 0;
#X connect 59 0 31 0;
#X connect 60 0 31 1;
#X connect 61 0 34 0;
#X connect 62 0 34 1;
#X connect 63 0 42 0;
#X connect 64 0 42 1;
#X connect 65 0 44 0;
#X connect 66 0 44 1;
#X connect 68 0 8 1;
#X connect 69 0 28 1;
#X connect 70 0 7 1;
#X connect 71 0 35 1;
#X connect 72 0 7 0;
#X connect 72 0 35 0;
#X connect 72 0 9 0;
#X connect 72 0 9 1;
#X connect 72 0 77 0;
#X connect 72 0 78 0;
#X connect 72 0 78 1;
#X connect 72 0 79 0;
#X connect 72 0 80 0;
#X connect 72 0 81 0;
#X connect 72 0 81 1;
#X connect 72 0 82 0;
#X connect 73 0 74 0;
#X connect 74 0 75 0;
#X connect 74 1 76 0;
#X connect 77 0 231 0;
#X connect 78 0 231 0;
#X connect 78 1 232 0;
#X connect 79 0 232 0;
#X connect 80 0 235 0;
#X connect 81 0 235 0;
#X connect 81 1 236 0;
#X connect 82 0 236 0;
#X connect 83 0 77 1;
#X connect 84 0 79 1;
#X connect 85 0 80 1;
#X connect 86 0 82 1;
#X connect 87 0 128 0;
#X connect 88 0 87 0;
#X connect 89 0 90 0;
#X connect 90 0 88 0;
#X connect 91 0 92 0;
#X connect 92 0 130 0;
#X connect 93 0 96 0;
#X connect 94 0 95 0;
#X connect 95 0 91 0;
#X connect 96 0 94 0;
#X connect 97 0 132 0;
#X connect 98 0 97 0;
#X connect 99 0 100 0;
#X connect 100 0 98 0;
#X connect 101 0 102 0;
#X connect 102 0 134 0;
#X connect 103 0 106 0;
#X connect 104 0 105 0;
#X connect 105 0 101 0;
#X connect 106 0 104 0;
#X connect 107 0 136 0;
#X connect 108 0 107 0;
#X connect 109 0 110 0;
#X connect 110 0 108 0;
#X connect 111 0 112 0;
#X connect 112 0 138 0;
#X connect 113 0 116 0;
#X connect 114 0 115 0;
#X connect 115 0 111 0;
#X connect 116 0 114 0;
#X connect 117 0 140 0;
#X connect 118 0 117 0;
#X connect 119 0 120 0;
#X connect 120 0 118 0;
#X connect 121 0 122 0;
#X connect 122 0 142 0;
#X connect 123 0 126 0;
#X connect 124 0 125 0;
#X connect 125 0 121 0;
#X connect 126 0 124 0;
#X connect 127 0 89 0;
#X connect 129 0 93 0;
#X connect 131 0 99 0;
#X connect 133 0 103 0;
#X connect 135 0 109 0;
#X connect 137 0 113 0;
#X connect 139 0 119 0;
#X connect 141 0 123 0;
#X connect 191 0 192 0;
#X connect 192 0 67 4;
#X connect 193 0 191 0;
#X connect 194 0 195 0;
#X connect 195 0 67 5;
#X connect 196 0 194 0;
#X connect 197 0 204 0;
#X connect 198 0 67 6;
#X connect 199 0 197 0;
#X connect 200 0 207 0;
#X connect 201 0 200 0;
#X connect 202 0 67 7;
#X connect 203 0 198 0;
#X connect 204 0 203 0;
#X connect 205 0 206 0;
#X connect 206 0 202 0;
#X connect 207 1 205 0;
#X connect 208 0 209 0;
#X connect 209 0 210 0;
#X connect 210 0 207 1;
#X connect 211 0 212 0;
#X connect 212 0 67 8;
#X connect 213 0 211 0;
#X connect 214 0 215 0;
#X connect 215 0 67 9;
#X connect 216 0 214 0;
#X connect 217 0 224 0;
#X connect 218 0 67 10;
#X connect 219 0 217 0;
#X connect 220 0 227 0;
#X connect 221 0 220 0;
#X connect 222 0 67 11;
#X connect 223 0 218 0;
#X connect 224 0 223 0;
#X connect 225 0 226 0;
#X connect 226 0 222 0;
#X connect 227 1 225 0;
#X connect 228 0 229 0;
#X connect 229 0 230 0;
#X connect 230 0 227 1;
#X connect 231 0 263 0;
#X connect 232 0 264 0;
#X connect 233 0 231 1;
#X connect 234 0 232 1;
#X connect 235 0 260 0;
#X connect 236 0 265 0;
#X connect 239 0 237 1;
#X connect 240 0 237 0;
#X connect 242 0 193 0;
#X connect 243 0 193 1;
#X connect 244 0 196 0;
#X connect 245 0 196 1;
#X connect 246 0 199 0;
#X connect 247 0 199 1;
#X connect 248 0 201 0;
#X connect 249 0 201 1;
#X connect 250 0 213 1;
#X connect 251 0 213 0;
#X connect 252 0 216 1;
#X connect 253 0 216 0;
#X connect 254 0 219 0;
#X connect 255 0 219 1;
#X connect 256 0 221 0;
#X connect 257 0 221 1;
#X connect 258 0 235 1;
#X connect 259 0 236 1;
#X connect 266 0 175 0;
#X connect 266 1 179 0;
#X connect 266 2 143 0;
#X connect 266 3 147 0;
#X connect 266 4 159 0;
#X connect 266 5 163 0;
#X connect 266 6 177 0;
#X connect 266 7 181 0;
#X connect 266 8 145 0;
#X connect 266 9 149 0;
#X connect 266 10 161 0;
#X connect 266 11 165 0;
#X connect 267 0 30 0;
#X connect 268 0 33 0;
#X connect 269 0 239 0;
#X coords 0 -1 1 1 590 110 1 100 100;
