#N canvas 166 88 1191 734 10;
#X obj 178 261 t l;
#X obj 108 300 list trim;
#X obj 107 163 bng 15 250 50 0 empty empty empty 17 7 0 10 -262144
-1 -1;
#X obj 178 221 bng 15 250 50 0 empty empty empty 17 7 0 10 -262144
-1 -1;
#X obj 108 242 list prepend;
#X obj 107 102 bng 15 250 50 0 empty empty empty 17 7 0 10 -262144
-1 -1;
#X obj 54 355 metroplus;
#X msg 53 317 start;
#X obj 55 373 bng 15 250 50 0 empty empty empty 17 7 0 10 -262144 -1
-1;
#X msg 54 336 stop;
#X obj 159 355 list length;
#X floatatom 160 375 5 0 0 0 - - -;
#X msg 108 325 537 69 823 718 748 743 297 154 50 456 768 339 1049 1151
854 1124 699 581;
#X obj 127 443 sel \$1;
#X obj 96 408 +;
#X msg 96 388 1;
#X obj 123 408 % \$1;
#X floatatom 96 427 5 0 0 0 - - -;
#X obj 27 460 bng 15 250 50 0 empty empty empty 17 7 0 10 -262144 -1
-1;
#X obj 140 162 del 10;
#X obj 183 162 del 20;
#X obj 107 121 spigot;
#X obj 107 140 t b b b b b;
#X msg 193 129 0;
#X obj 128 102 tgl 15 0 empty empty empty 17 7 0 10 -262144 -1 -1 0
1;
#X msg 142 60 1;
#X obj 142 37 loadbang;
#X obj 93 57 inlet;
#X obj 107 182 many_bang 5 20;
#X obj 29 506 del 20;
#X obj 18 133 inlet;
#X obj 29 480 t b b b b;
#X obj 255 126 spigot;
#X obj 155 102 tgl 15 0 empty empty loop 17 7 0 10 -262144 -1 -1 1
1;
#X obj 267 617 throw~ master1L;
#X obj 431 673 throw~ master2R;
#X obj 308 635 throw~ master1R;
#X obj 364 653 throw~ master2L;
#X msg 235 489 0;
#X obj 81 500 del 50;
#X obj 284 507 pack 0 100;
#X obj 365 508 pack 0 100;
#X obj 448 508 pack 0 100;
#X obj 526 509 pack 0 100;
#X msg 331 465 0;
#X msg 396 464 0;
#X msg 460 463 0;
#X msg 525 462 0;
#X obj 108 202 random 250;
#X msg 314 142 \$1;
#X obj 359 83 metro 10000;
#X obj 365 126 cycle 4;
#X msg 363 107 reset;
#X msg 360 183 250;
#X msg 415 185 1200;
#X msg 504 185 2000;
#X obj 202 102 tgl 15 0 empty empty empty 17 7 0 10 -262144 -1 -1 0
1;
#X obj 365 152 t b b;
#X obj 413 150 t b b;
#X obj 467 154 t b b;
#X obj 531 156 t b b;
#X msg 367 208 60;
#X msg 417 208 100;
#X obj 466 116 bng 15 250 50 0 empty empty empty 17 7 0 10 -262144
-1 -1;
#X msg 467 184 180;
#X msg 473 213 70;
#X obj 99 519 spigot;
#X obj 148 655 expr $f1 \; if ( $f1 == 0 \, 1 \, 0) \;;
#X obj 756 124 metro 5000;
#X msg 756 147 reset;
#X obj 726 266 del 3000;
#X obj 667 265 t b b;
#X obj 856 268 del 3000;
#X obj 797 267 t b b;
#X obj 988 269 del 3000;
#X obj 929 268 t b b;
#X obj 1118 271 del 3000;
#X obj 1059 270 t b b;
#X obj 755 105 tgl 15 0 empty empty empty 17 7 0 10 -262144 -1 -1 1
1;
#X msg 858 80 3000;
#X obj 197 546 r~ cortdisL;
#X obj 520 572 r~ cortdisR;
#X msg 432 463 0.8;
#X msg 497 462 0.8;
#X msg 813 78 1500;
#X msg 725 288 0 3000;
#X msg 856 290 0 3000;
#X msg 988 291 0 3000;
#X msg 1118 293 0 3000;
#X msg 368 464 0.8;
#X obj 472 41 save.me.mmb loopdis distrib;
#X obj 29 3 r distribpres;
#X obj 30 30 sel 3;
#X obj 22 113 del 200;
#X obj 79 30 sel 1;
#X obj 280 46 t b b b;
#X obj 256 65 del 200;
#X obj 149 11 sel 2;
#X msg 202 27 1;
#X obj 28 53 t b b b b;
#X msg 213 69 0;
#X msg 303 465 0.8;
#X obj 389 -3 sel 4;
#X obj 383 16 t b b b;
#X msg 392 46 1;
#X obj 266 14 sel 0;
#X msg 317 22 0;
#X obj 365 394 random 4;
#X obj 366 422 sel 0 1 2 3;
#X obj 757 170 cycle 4;
#X obj 465 10 sel 8;
#X msg 755 83 1;
#X obj 805 405 bng 15 250 50 0 empty empty empty 17 7 0 10 -262144
-1 -1;
#X obj 755 27 t b b;
#X msg 667 288 0.6 3000;
#X obj 284 538 line~;
#X obj 365 539 line~;
#X obj 448 538 line~;
#X obj 526 536 line~;
#X obj 267 593 *~;
#X obj 308 593 *~;
#X obj 360 593 *~;
#X obj 424 592 *~;
#X obj 108 278 list prepend set;
#X msg 797 290 0.6 3000;
#X msg 929 291 0.6 3000;
#X msg 1059 293 0.6 3000;
#X connect 0 0 4 1;
#X connect 1 0 12 0;
#X connect 2 0 28 0;
#X connect 3 0 4 1;
#X connect 4 0 0 0;
#X connect 4 0 123 0;
#X connect 5 0 21 0;
#X connect 6 0 8 0;
#X connect 7 0 6 0;
#X connect 8 0 15 0;
#X connect 8 0 107 0;
#X connect 9 0 6 0;
#X connect 10 0 11 0;
#X connect 11 0 13 1;
#X connect 11 0 16 1;
#X connect 12 0 6 1;
#X connect 12 0 10 0;
#X connect 13 0 18 0;
#X connect 14 0 16 0;
#X connect 14 0 17 0;
#X connect 15 0 14 0;
#X connect 16 0 14 1;
#X connect 17 0 13 0;
#X connect 18 0 31 0;
#X connect 19 0 12 0;
#X connect 20 0 7 0;
#X connect 21 0 22 0;
#X connect 22 0 2 0;
#X connect 22 1 3 0;
#X connect 22 2 19 0;
#X connect 22 3 20 0;
#X connect 22 4 23 0;
#X connect 23 0 24 0;
#X connect 24 0 21 1;
#X connect 25 0 24 0;
#X connect 26 0 25 0;
#X connect 27 0 5 0;
#X connect 28 0 48 0;
#X connect 29 0 66 0;
#X connect 30 0 18 0;
#X connect 31 0 29 0;
#X connect 31 1 25 0;
#X connect 31 2 9 0;
#X connect 31 3 39 0;
#X connect 32 0 5 0;
#X connect 33 0 32 1;
#X connect 33 0 67 0;
#X connect 33 0 90 0;
#X connect 38 0 40 0;
#X connect 38 0 41 0;
#X connect 38 0 42 0;
#X connect 38 0 43 0;
#X connect 39 0 32 0;
#X connect 40 0 115 0;
#X connect 41 0 116 0;
#X connect 42 0 117 0;
#X connect 43 0 118 0;
#X connect 44 0 40 0;
#X connect 45 0 41 0;
#X connect 46 0 42 0;
#X connect 47 0 43 0;
#X connect 48 0 4 0;
#X connect 49 0 48 1;
#X connect 50 0 52 0;
#X connect 51 0 57 0;
#X connect 51 1 58 0;
#X connect 51 2 59 0;
#X connect 51 3 60 0;
#X connect 52 0 51 0;
#X connect 53 0 48 1;
#X connect 54 0 48 1;
#X connect 55 0 48 1;
#X connect 56 0 50 0;
#X connect 57 0 53 0;
#X connect 57 1 61 0;
#X connect 58 0 54 0;
#X connect 58 1 62 0;
#X connect 59 0 64 0;
#X connect 59 1 65 0;
#X connect 60 0 55 0;
#X connect 60 1 62 0;
#X connect 61 0 40 1;
#X connect 61 0 41 1;
#X connect 61 0 42 1;
#X connect 61 0 43 1;
#X connect 62 0 40 1;
#X connect 62 0 41 1;
#X connect 62 0 42 1;
#X connect 62 0 43 1;
#X connect 63 0 59 0;
#X connect 64 0 48 1;
#X connect 65 0 40 1;
#X connect 65 0 41 1;
#X connect 65 0 42 1;
#X connect 65 0 43 1;
#X connect 66 0 38 0;
#X connect 67 1 66 1;
#X connect 68 0 69 0;
#X connect 69 0 109 0;
#X connect 70 0 85 0;
#X connect 71 0 114 0;
#X connect 71 1 70 0;
#X connect 72 0 86 0;
#X connect 73 0 124 0;
#X connect 73 1 72 0;
#X connect 74 0 87 0;
#X connect 75 0 125 0;
#X connect 75 1 74 0;
#X connect 76 0 88 0;
#X connect 77 0 126 0;
#X connect 77 1 76 0;
#X connect 78 0 68 0;
#X connect 79 0 68 1;
#X connect 80 0 119 0;
#X connect 80 0 120 0;
#X connect 80 0 121 0;
#X connect 80 0 122 0;
#X connect 81 0 119 0;
#X connect 81 0 120 0;
#X connect 81 0 121 0;
#X connect 81 0 122 0;
#X connect 82 0 42 0;
#X connect 83 0 43 0;
#X connect 84 0 68 1;
#X connect 85 0 115 0;
#X connect 86 0 116 0;
#X connect 87 0 117 0;
#X connect 88 0 118 0;
#X connect 89 0 41 0;
#X connect 90 0 33 0;
#X connect 91 0 92 0;
#X connect 91 0 94 0;
#X connect 91 0 97 0;
#X connect 91 0 102 0;
#X connect 91 0 105 0;
#X connect 91 0 110 0;
#X connect 92 0 99 0;
#X connect 93 0 5 0;
#X connect 94 0 95 0;
#X connect 95 0 61 0;
#X connect 95 1 53 0;
#X connect 95 2 96 0;
#X connect 96 0 5 0;
#X connect 97 0 98 0;
#X connect 98 0 56 0;
#X connect 99 0 62 0;
#X connect 99 1 55 0;
#X connect 99 2 93 0;
#X connect 99 3 100 0;
#X connect 100 0 56 0;
#X connect 101 0 40 0;
#X connect 102 0 103 0;
#X connect 103 0 5 0;
#X connect 103 1 104 0;
#X connect 103 2 58 0;
#X connect 104 0 33 0;
#X connect 105 0 106 0;
#X connect 106 0 33 0;
#X connect 107 0 108 0;
#X connect 108 0 101 0;
#X connect 108 0 45 0;
#X connect 108 0 46 0;
#X connect 108 0 47 0;
#X connect 108 1 44 0;
#X connect 108 1 89 0;
#X connect 108 1 46 0;
#X connect 108 1 47 0;
#X connect 108 2 44 0;
#X connect 108 2 45 0;
#X connect 108 2 82 0;
#X connect 108 2 47 0;
#X connect 108 3 44 0;
#X connect 108 3 45 0;
#X connect 108 3 83 0;
#X connect 108 3 46 0;
#X connect 109 0 73 0;
#X connect 109 0 112 0;
#X connect 109 1 71 0;
#X connect 109 2 75 0;
#X connect 109 3 77 0;
#X connect 110 0 113 0;
#X connect 111 0 78 0;
#X connect 113 0 111 0;
#X connect 113 1 84 0;
#X connect 114 0 115 0;
#X connect 115 0 119 1;
#X connect 116 0 120 1;
#X connect 117 0 121 1;
#X connect 118 0 122 1;
#X connect 119 0 34 0;
#X connect 120 0 36 0;
#X connect 121 0 37 0;
#X connect 122 0 35 0;
#X connect 123 0 1 0;
#X connect 124 0 116 0;
#X connect 125 0 117 0;
#X connect 126 0 118 0;
#X coords 0 -1 1 1 120 20 2 100 100;
