#N canvas 209 296 1272 811 10;
#X obj 178 261 t l;
#X obj 108 300 list trim;
#X obj 107 163 bng 15 250 50 0 empty empty empty 17 7 0 10 -262144
-1 -1;
#X obj 171 226 bng 15 250 50 0 empty empty empty 17 7 0 10 -262144
-1 -1;
#X obj 102 244 list prepend;
#X obj 107 102 bng 15 250 50 0 empty empty empty 17 7 0 10 -262144
-1 -1;
#X obj 54 355 metroplus;
#X msg 53 317 start;
#X obj 55 373 bng 15 250 50 0 empty empty empty 17 7 0 10 -262144 -1
-1;
#X msg 54 336 stop;
#X obj 159 355 list length;
#X floatatom 160 375 5 0 0 0 - - -;
#X msg 108 325 296 1703 433 351 622 1957 376 1816 1992 1077 1879;
#X obj 127 443 sel \$1;
#X obj 96 408 +;
#X msg 96 388 1;
#X obj 123 408 % \$1;
#X floatatom 96 427 5 0 0 0 - - -;
#X obj 27 460 bng 15 250 50 0 empty empty empty 17 7 0 10 -262144 -1
-1;
#X obj 140 162 del 10;
#X obj 183 162 del 20;
#X obj 107 121 spigot;
#X obj 107 140 t b b b b b;
#X msg 193 129 0;
#X obj 128 102 tgl 15 0 empty empty empty 17 7 0 10 -262144 -1 -1 1
1;
#X msg 145 82 1;
#X obj 145 -31 loadbang;
#X obj 66 85 inlet;
#X obj 107 182 many_bang 5 20;
#X obj 29 506 del 20;
#X obj 25 134 inlet;
#X obj 29 480 t b b b b;
#X obj 224 120 spigot;
#X obj 154 102 tgl 15 0 empty empty loop 17 7 0 10 -262144 -1 -1 0
1;
#X obj 267 617 throw~ master1L;
#X obj 308 635 throw~ master1R;
#X msg 223 495 0;
#X obj 93 498 del 50;
#X msg 312 471 0;
#X msg 396 464 0;
#X msg 460 463 0;
#X msg 701 439 0;
#X obj 108 202 random 250;
#X obj 365 93 metro 10000;
#X obj 365 134 cycle 4;
#X msg 365 115 reset;
#X msg 365 171 250;
#X msg 413 170 1200;
#X msg 531 169 2000;
#X obj 203 105 tgl 15 0 empty empty empty 17 7 0 10 -262144 -1 -1 0
1;
#X obj 365 152 t b b;
#X obj 413 151 t b b;
#X obj 467 150 t b b;
#X obj 531 150 t b b;
#X msg 467 169 180;
#X obj 99 519 spigot;
#X obj 148 655 expr $f1 \; if ( $f1 == 0 \, 1 \, 0) \;;
#X obj 229 103 tgl 15 0 empty empty empty 17 7 0 10 -262144 -1 -1 0
1;
#X obj 520 572 r~ pedazosR;
#X obj 183 549 r~ pedazosL;
#X obj 247 63 save.me.mmb mettour escargot;
#X msg 55 42 1;
#X obj 26 -30 r escapres;
#X msg 79 15 0;
#X obj 26 -11 sel 2 0 5;
#X obj 107 49 del 100;
#X obj 107 15 t b b b;
#X msg 232 32 0;
#X obj 699 487 r \$0-pack;
#X msg 392 202 60;
#X msg 494 201 75;
#X obj 684 220 s \$0-pack;
#X obj 284 530 r \$0-line1;
#X obj 355 531 r \$0-line2;
#X obj 423 531 r \$0-line3;
#X obj 663 527 r \$0-line6;
#X text 332 269 comment;
#X obj 109 223 moses 50;
#X obj 187 206 r \$0-moses;
#N canvas 440 117 945 665 (subpatch) 0;
#X obj 246 -167 cycle 6;
#X obj 244 -221 metro 5000;
#X msg 245 -190 reset;
#X msg -198 6 0.7 3000;
#X obj -141 4 del 3000;
#X obj -167 -15 t b b;
#X msg -54 24 0.7 3000;
#X obj 5 2 del 3000;
#X obj -54 -15 t b b;
#X obj 150 -5 del 3000;
#X obj 91 -6 t b b;
#X obj 284 -4 del 3000;
#X obj 225 -5 t b b;
#X msg 355 19 0.7 3000;
#X obj 414 -3 del 3000;
#X obj 355 -4 t b b;
#X msg 485 21 0.7 3000;
#X obj 544 -1 del 3000;
#X obj 485 -2 t b b;
#X msg -141 24 0 5000;
#X msg 5 24 0 5000;
#X msg 91 17 0.7 3000;
#X msg 150 17 0 5000;
#X msg 284 18 0 5000;
#X msg 414 19 0 5000;
#X msg 544 21 0 5000;
#X msg 317 -271 3000;
#X msg 225 18 0.5 3000;
#X obj -141 234 s \$0-line1;
#X obj -54 236 s \$0-line2;
#X obj 86 243 s \$0-line3;
#X obj 224 242 s \$0-line4;
#X obj 357 247 s \$0-line5;
#X obj 490 234 s \$0-line6;
#X obj -43 -218 r \$0-del;
#X obj -132 -217 r \$0-uptime;
#X obj 53 -223 r \$0-downtime;
#X obj 244 -312 inlet;
#X connect 0 0 5 0;
#X connect 0 1 8 0;
#X connect 0 2 10 0;
#X connect 0 3 12 0;
#X connect 0 4 15 0;
#X connect 0 5 18 0;
#X connect 1 0 2 0;
#X connect 2 0 0 0;
#X connect 3 0 28 0;
#X connect 4 0 19 0;
#X connect 5 0 3 0;
#X connect 5 1 4 0;
#X connect 6 0 29 0;
#X connect 7 0 20 0;
#X connect 8 0 6 0;
#X connect 8 1 7 0;
#X connect 9 0 22 0;
#X connect 10 0 21 0;
#X connect 10 1 9 0;
#X connect 11 0 23 0;
#X connect 12 0 27 0;
#X connect 12 1 11 0;
#X connect 13 0 32 0;
#X connect 14 0 24 0;
#X connect 15 0 13 0;
#X connect 15 1 14 0;
#X connect 16 0 33 0;
#X connect 17 0 25 0;
#X connect 18 0 16 0;
#X connect 18 1 17 0;
#X connect 19 0 28 0;
#X connect 20 0 29 0;
#X connect 21 0 30 0;
#X connect 22 0 30 0;
#X connect 23 0 31 0;
#X connect 24 0 32 0;
#X connect 25 0 33 0;
#X connect 26 0 1 1;
#X connect 27 0 31 0;
#X connect 34 0 11 1;
#X connect 34 0 17 1;
#X connect 34 0 14 1;
#X connect 34 0 9 1;
#X connect 34 0 7 1;
#X connect 34 0 4 1;
#X connect 35 0 3 0;
#X connect 35 0 6 0;
#X connect 35 0 21 0;
#X connect 35 0 27 0;
#X connect 35 0 13 0;
#X connect 35 0 16 0;
#X connect 36 0 19 0;
#X connect 36 0 20 0;
#X connect 36 0 22 0;
#X connect 36 0 23 0;
#X connect 36 0 24 0;
#X connect 36 0 25 0;
#X connect 37 0 1 0;
#X restore 619 115 pd;
#X obj 487 63 s \$0-uptime;
#X msg 486 42 3000;
#X obj 562 63 s \$0-del;
#X msg 562 44 3000;
#X obj 619 63 s \$0-downtime;
#X msg 619 44 5000;
#X obj 487 17 t b b b;
#X obj 487 -5 loadbang;
#X obj 252 180 r \$0-random;
#X obj 605 185 s \$0-random;
#X obj 360 655 throw~ master2R;
#X obj 572 648 throw~ master2L;
#X obj 26 15 t b b b;
#X msg 440 203 200;
#X obj 365 394 random 4;
#X obj 366 422 sel 0 1 2 3;
#X obj 492 239 r metroplus2;
#X obj 749 223 r metrotime2;
#X obj 511 342 t b b;
#X msg 511 387 0.6;
#X msg 538 387 0;
#X obj 538 365 del;
#X obj 572 342 t b b;
#X msg 572 387 0.6;
#X msg 599 387 0;
#X obj 599 365 del;
#X obj 629 342 t b b;
#X msg 629 387 0.6;
#X msg 656 387 0;
#X obj 656 365 del;
#X obj 690 342 t b b;
#X msg 690 387 0.6;
#X msg 717 387 0;
#X obj 717 365 del;
#X obj 491 293 random 4;
#X obj 492 317 sel 0 1 2 3;
#X floatatom 588 291 5 0 0 0 - - -;
#X floatatom 753 330 5 0 0 0 - - -;
#X obj 284 511 pack 0 5;
#X obj 355 512 pack 0 5;
#X obj 423 512 pack 0 5;
#X obj 625 508 pack 0 5;
#X obj 770 243 sel 350;
#X obj 491 272 spigot;
#X obj 544 268 tgl 15 0 empty empty empty 17 7 0 10 -262144 -1 -1 0
1;
#X msg 891 380 1;
#X msg 849 398 0;
#X msg 920 343 1000;
#X obj 863 354 del 1000;
#X obj 848 260 t b b b b;
#X obj 882 322 t b b b b;
#X obj 762 63 metro 5000;
#X msg 762 83 reset;
#X obj 822 135 del 3000;
#X obj 763 134 t b b;
#X obj 952 137 del 3000;
#X obj 893 136 t b b;
#X obj 1084 138 del 3000;
#X obj 1025 137 t b b;
#X obj 1214 140 del 3000;
#X obj 1155 139 t b b;
#X obj 852 16 tgl 15 0 empty empty empty 17 7 0 10 -262144 -1 -1 0
1;
#X msg 819 41 3000;
#X msg 821 157 0 3000;
#X msg 952 159 0 3000;
#X msg 1084 160 0 3000;
#X msg 1214 162 0 3000;
#X obj 763 106 cycle 4;
#X msg 860 46 1600;
#X msg 1025 160 0.6 3000;
#X msg 1155 162 0.6 3000;
#X msg 910 53 5000;
#X msg 763 157 0.7 3000;
#X msg 893 159 0.7 3000;
#X obj 653 -13 sel 13;
#X obj 676 12 t b b;
#X msg 748 15 1;
#X obj 284 549 line~;
#X obj 267 593 *~;
#X obj 355 550 line~;
#X obj 306 593 *~;
#X obj 423 551 line~;
#X obj 360 593 *~;
#X obj 625 549 line~;
#X obj 572 606 *~;
#X obj 108 278 list prepend set;
#X msg 284 471 0.6;
#X msg 368 464 0.6;
#X msg 432 463 0.6;
#X msg 673 439 0.6;
#X connect 0 0 4 1;
#X connect 1 0 12 0;
#X connect 2 0 28 0;
#X connect 3 0 4 1;
#X connect 4 0 0 0;
#X connect 4 0 165 0;
#X connect 5 0 21 0;
#X connect 6 0 8 0;
#X connect 7 0 6 0;
#X connect 8 0 15 0;
#X connect 8 0 94 0;
#X connect 9 0 6 0;
#X connect 10 0 11 0;
#X connect 11 0 13 1;
#X connect 11 0 16 1;
#X connect 12 0 6 1;
#X connect 12 0 10 0;
#X connect 13 0 18 0;
#X connect 14 0 16 0;
#X connect 14 0 17 0;
#X connect 15 0 14 0;
#X connect 16 0 14 1;
#X connect 17 0 13 0;
#X connect 18 0 31 0;
#X connect 19 0 12 0;
#X connect 20 0 7 0;
#X connect 21 0 22 0;
#X connect 22 0 2 0;
#X connect 22 1 3 0;
#X connect 22 2 19 0;
#X connect 22 3 20 0;
#X connect 22 4 23 0;
#X connect 23 0 24 0;
#X connect 24 0 21 1;
#X connect 25 0 24 0;
#X connect 26 0 25 0;
#X connect 27 0 5 0;
#X connect 28 0 42 0;
#X connect 29 0 55 0;
#X connect 30 0 18 0;
#X connect 31 0 29 0;
#X connect 31 1 25 0;
#X connect 31 2 9 0;
#X connect 31 3 37 0;
#X connect 32 0 5 0;
#X connect 33 0 32 1;
#X connect 33 0 56 0;
#X connect 36 0 118 0;
#X connect 36 0 119 0;
#X connect 36 0 120 0;
#X connect 36 0 121 0;
#X connect 37 0 32 0;
#X connect 38 0 118 0;
#X connect 39 0 119 0;
#X connect 40 0 120 0;
#X connect 41 0 121 0;
#X connect 42 0 77 0;
#X connect 43 0 45 0;
#X connect 44 0 50 0;
#X connect 44 1 51 0;
#X connect 44 2 52 0;
#X connect 44 3 53 0;
#X connect 45 0 44 0;
#X connect 46 0 89 0;
#X connect 47 0 89 0;
#X connect 48 0 89 0;
#X connect 49 0 43 0;
#X connect 50 0 46 0;
#X connect 50 1 69 0;
#X connect 51 0 47 0;
#X connect 51 1 93 0;
#X connect 52 0 54 0;
#X connect 52 1 70 0;
#X connect 53 0 48 0;
#X connect 53 1 93 0;
#X connect 54 0 89 0;
#X connect 55 0 36 0;
#X connect 56 1 55 1;
#X connect 57 0 60 0;
#X connect 57 0 79 0;
#X connect 58 0 158 0;
#X connect 58 0 160 0;
#X connect 58 0 162 0;
#X connect 58 0 164 0;
#X connect 59 0 158 0;
#X connect 59 0 160 0;
#X connect 59 0 162 0;
#X connect 59 0 164 0;
#X connect 60 0 57 0;
#X connect 61 0 33 0;
#X connect 62 0 64 0;
#X connect 62 0 154 0;
#X connect 63 0 33 0;
#X connect 64 0 92 0;
#X connect 64 1 63 0;
#X connect 64 2 66 0;
#X connect 65 0 5 0;
#X connect 66 0 65 0;
#X connect 66 1 33 0;
#X connect 66 2 67 0;
#X connect 67 0 57 0;
#X connect 68 0 118 1;
#X connect 68 0 119 1;
#X connect 68 0 120 1;
#X connect 68 0 121 1;
#X connect 69 0 71 0;
#X connect 70 0 71 0;
#X connect 72 0 157 0;
#X connect 73 0 159 0;
#X connect 74 0 161 0;
#X connect 75 0 163 0;
#X connect 77 1 4 0;
#X connect 78 0 77 1;
#X connect 81 0 80 0;
#X connect 83 0 82 0;
#X connect 85 0 84 0;
#X connect 86 0 81 0;
#X connect 86 1 83 0;
#X connect 86 2 85 0;
#X connect 87 0 86 0;
#X connect 88 0 42 1;
#X connect 92 0 5 0;
#X connect 92 1 61 0;
#X connect 92 2 53 0;
#X connect 93 0 71 0;
#X connect 94 0 95 0;
#X connect 95 0 166 0;
#X connect 95 0 39 0;
#X connect 95 0 40 0;
#X connect 95 0 41 0;
#X connect 95 1 38 0;
#X connect 95 1 167 0;
#X connect 95 1 40 0;
#X connect 95 1 41 0;
#X connect 95 2 38 0;
#X connect 95 2 39 0;
#X connect 95 2 168 0;
#X connect 95 2 41 0;
#X connect 95 3 38 0;
#X connect 95 3 39 0;
#X connect 95 3 40 0;
#X connect 95 3 41 0;
#X connect 95 4 41 0;
#X connect 96 0 123 0;
#X connect 97 0 101 1;
#X connect 97 0 105 1;
#X connect 97 0 109 1;
#X connect 97 0 113 1;
#X connect 97 0 117 0;
#X connect 97 0 122 0;
#X connect 98 0 99 0;
#X connect 98 1 101 0;
#X connect 99 0 118 0;
#X connect 100 0 118 0;
#X connect 101 0 100 0;
#X connect 102 0 103 0;
#X connect 102 1 105 0;
#X connect 103 0 119 0;
#X connect 104 0 119 0;
#X connect 105 0 104 0;
#X connect 106 0 107 0;
#X connect 106 1 109 0;
#X connect 107 0 120 0;
#X connect 108 0 120 0;
#X connect 109 0 108 0;
#X connect 110 0 111 0;
#X connect 110 1 113 0;
#X connect 111 0 121 0;
#X connect 112 0 121 0;
#X connect 113 0 112 0;
#X connect 114 0 115 0;
#X connect 114 0 116 0;
#X connect 115 0 98 0;
#X connect 115 1 102 0;
#X connect 115 2 106 0;
#X connect 115 3 110 0;
#X connect 118 0 157 0;
#X connect 119 0 159 0;
#X connect 120 0 161 0;
#X connect 121 0 163 0;
#X connect 122 0 129 0;
#X connect 123 0 114 0;
#X connect 124 0 123 1;
#X connect 125 0 124 0;
#X connect 126 0 124 0;
#X connect 127 0 113 1;
#X connect 127 0 109 1;
#X connect 127 0 105 1;
#X connect 127 0 101 1;
#X connect 128 0 125 0;
#X connect 129 0 126 0;
#X connect 129 1 128 0;
#X connect 129 2 130 0;
#X connect 129 3 127 0;
#X connect 130 0 98 0;
#X connect 130 1 102 0;
#X connect 130 2 106 0;
#X connect 130 3 110 0;
#X connect 131 0 132 0;
#X connect 132 0 147 0;
#X connect 133 0 143 0;
#X connect 134 0 152 0;
#X connect 134 1 133 0;
#X connect 135 0 144 0;
#X connect 136 0 153 0;
#X connect 136 1 135 0;
#X connect 137 0 145 0;
#X connect 138 0 149 0;
#X connect 138 1 137 0;
#X connect 139 0 146 0;
#X connect 140 0 150 0;
#X connect 140 1 139 0;
#X connect 141 0 131 0;
#X connect 142 0 131 1;
#X connect 143 0 157 0;
#X connect 144 0 159 0;
#X connect 145 0 161 0;
#X connect 146 0 163 0;
#X connect 147 0 136 0;
#X connect 147 1 134 0;
#X connect 147 2 138 0;
#X connect 147 3 140 0;
#X connect 148 0 131 1;
#X connect 149 0 161 0;
#X connect 150 0 163 0;
#X connect 151 0 131 1;
#X connect 152 0 157 0;
#X connect 153 0 159 0;
#X connect 154 0 155 0;
#X connect 155 0 156 0;
#X connect 155 1 142 0;
#X connect 156 0 141 0;
#X connect 157 0 158 1;
#X connect 158 0 34 0;
#X connect 159 0 160 1;
#X connect 160 0 35 0;
#X connect 161 0 162 1;
#X connect 162 0 90 0;
#X connect 163 0 164 1;
#X connect 164 0 91 0;
#X connect 165 0 1 0;
#X connect 166 0 118 0;
#X connect 167 0 119 0;
#X connect 168 0 120 0;
#X connect 169 0 121 0;
#X coords 0 -1 1 1 150 20 2 100 100;
