#N canvas 483 229 601 744 10;
#X obj 171 319 t l;
#X obj 101 358 list trim;
#X obj 101 169 bng 15 250 50 0 empty empty empty 17 7 0 10 -262144
-1 -1;
#X obj 171 279 bng 15 250 50 0 empty empty empty 17 7 0 10 -262144
-1 -1;
#X obj 101 300 list prepend;
#X obj 101 103 bng 15 250 50 0 empty empty empty 17 7 0 10 -262144
-1 -1;
#X obj 47 413 metroplus;
#X msg 46 375 start;
#X obj 47 436 bng 15 250 50 0 empty empty empty 17 7 0 10 -262144 -1
-1;
#X msg 47 394 stop;
#X obj 152 408 list length;
#X floatatom 152 433 5 0 0 0 - - -;
#X obj 101 336 list prepend set \$1;
#X msg 101 378 0 1110 1110 1110 1110 1110 777 1110 1110 1110 1110 6660
1110 1110 1110 4440 6660 4440;
#X obj 104 466 +;
#X msg 104 446 1;
#X obj 131 466 % \$1;
#X floatatom 104 485 5 0 0 0 - - -;
#X obj 132 168 del 10;
#X obj 175 168 del 20;
#X obj 101 127 spigot;
#X obj 101 146 t b b b b b;
#X msg 186 149 0;
#X obj 122 103 tgl 15 0 empty empty empty 17 7 0 10 -262144 -1 -1 0
1;
#X msg 122 61 1;
#X obj 122 38 loadbang;
#X obj 49 86 inlet;
#X obj 101 188 many_bang 5 20;
#X obj 167 123 spigot;
#X obj 149 103 tgl 15 0 empty empty loop 17 7 0 10 -262144 -1 -1 1
1;
#X obj 149 83 save.me.mmb loopdis distrib;
#X msg 238 252 777;
#X msg 265 252 888;
#X obj 102 208 random 17;
#X obj 102 230 sel 0 1 2 3 4 5 6 7 8 9 10;
#X obj 119 509 sel \$1;
#X msg 122 554 1;
#X obj 119 537 t b b b;
#X obj 167 554 del 50;
#X obj 65 592 outlet;
#X msg 102 252 1110;
#X msg 129 252 2220;
#X msg 156 252 4440;
#X msg 183 252 5550;
#X msg 210 252 6660;
#X connect 0 0 4 1;
#X connect 1 0 13 0;
#X connect 2 0 27 0;
#X connect 3 0 4 1;
#X connect 4 0 0 0;
#X connect 4 0 12 0;
#X connect 5 0 20 0;
#X connect 6 0 8 0;
#X connect 7 0 6 0;
#X connect 8 0 15 0;
#X connect 8 0 39 0;
#X connect 9 0 6 0;
#X connect 10 0 11 0;
#X connect 11 0 16 1;
#X connect 11 0 35 1;
#X connect 12 0 1 0;
#X connect 13 0 6 1;
#X connect 13 0 10 0;
#X connect 14 0 16 0;
#X connect 14 0 17 0;
#X connect 15 0 14 0;
#X connect 16 0 14 1;
#X connect 17 0 35 0;
#X connect 18 0 13 0;
#X connect 19 0 7 0;
#X connect 20 0 21 0;
#X connect 21 0 2 0;
#X connect 21 1 3 0;
#X connect 21 2 18 0;
#X connect 21 3 19 0;
#X connect 21 4 22 0;
#X connect 22 0 23 0;
#X connect 23 0 20 1;
#X connect 24 0 23 0;
#X connect 25 0 24 0;
#X connect 26 0 5 0;
#X connect 27 0 33 0;
#X connect 28 0 5 0;
#X connect 29 0 28 1;
#X connect 29 0 30 0;
#X connect 30 0 29 0;
#X connect 31 0 4 0;
#X connect 32 0 4 0;
#X connect 33 0 34 0;
#X connect 34 0 40 0;
#X connect 34 1 41 0;
#X connect 34 2 42 0;
#X connect 34 3 43 0;
#X connect 34 4 44 0;
#X connect 34 5 31 0;
#X connect 34 6 32 0;
#X connect 34 7 40 0;
#X connect 34 8 40 0;
#X connect 34 9 40 0;
#X connect 34 10 40 0;
#X connect 34 11 40 0;
#X connect 35 0 37 0;
#X connect 36 0 23 0;
#X connect 37 0 9 0;
#X connect 37 1 36 0;
#X connect 37 2 38 0;
#X connect 38 0 28 0;
#X connect 40 0 4 0;
#X connect 41 0 4 0;
#X connect 42 0 4 0;
#X connect 43 0 4 0;
#X connect 44 0 4 0;
#X coords 0 -1 1 1 90 20 2 100 100;
