#N canvas 329 139 982 509 10;
#X obj 119 63 r~ tufsmic;
#X obj 135 87 r~ airmic;
#X obj 149 111 r~ hydromic;
#X obj 76 239 s~ escdryL;
#X obj 71 260 s~ escdryR;
#X text 55 237 0;
#X text 42 264 1;
#X text 423 270 12;
#X text 426 298 13;
#X obj 157 220 matrix~ 17 20 1...........................;
#X text 756 30 MATRIX-ESCARGOT;
#X obj 29 173 r matrixescargot;
#X text 99 63 0;
#X text 112 91 1;
#X text 119 114 2;
#X text 210 49 3;
#X text 208 72 4;
#X obj 32 203 r matrixescargot2;
#X obj 439 269 s~ pedazosL;
#X obj 441 295 s~ pedazosR;
#X obj 179 307 s~ frvrl2;
#X obj 193 286 s~ frvrr2;
#X obj 277 134 r~ frvrbl2;
#X obj 281 160 r~ frvrbr2;
#X connect 0 0 9 0;
#X connect 1 0 9 1;
#X connect 2 0 9 2;
#X connect 9 0 3 0;
#X connect 9 1 4 0;
#X connect 9 2 20 0;
#X connect 9 3 21 0;
#X connect 9 12 18 0;
#X connect 9 13 19 0;
#X connect 11 0 9 0;
#X connect 17 0 9 0;
#X connect 22 0 9 3;
#X connect 23 0 9 4;
