#N canvas 349 228 982 509 10;
#X text 55 237 0;
#X text 42 264 1;
#X text 286 394 8;
#X text 286 417 9;
#X text 99 63 0;
#X text 112 91 1;
#X text 119 114 2;
#X text 210 49 3;
#X text 208 72 4;
#X obj 157 220 matrix~ 18 20 1...........................;
#X text 122 138 13;
#X obj 119 63 r~ plaques;
#X obj 135 87 r~ bols;
#X obj 149 111 r~ bolagua;
#X obj 76 239 s~ lunadryL;
#X obj 139 277 s~ lunadryR;
#X text 756 30 MATRIX-LUNA;
#X obj 29 173 r matrixluna;
#X obj 32 203 r matrixluna2;
#X obj 164 135 r~ luna4;
#X obj 298 392 s~ cortolunL;
#X obj 300 416 s~ cortolunR;
#X msg 306 142 2 1 1 100;
#X connect 9 0 14 0;
#X connect 9 1 15 0;
#X connect 9 8 20 0;
#X connect 9 9 21 0;
#X connect 11 0 9 0;
#X connect 12 0 9 1;
#X connect 13 0 9 2;
#X connect 17 0 9 0;
#X connect 18 0 9 0;
#X connect 19 0 9 13;
#X connect 22 0 9 0;
