#N canvas 349 228 982 509 10;
#X text 55 237 0;
#X text 42 264 1;
#X text 63 315 2;
#X text 65 335 3;
#X text 139 378 4;
#X text 140 401 5;
#X text 203 317 6;
#X text 207 340 7;
#X text 322 323 11;
#X text 318 301 10;
#X text 286 394 8;
#X text 286 417 9;
#X text 645 286 16;
#X text 657 313 17;
#X text 763 290 18;
#X text 781 316 19;
#X text 99 63 0;
#X text 112 91 1;
#X text 119 114 2;
#X text 210 49 3;
#X text 208 72 4;
#X text 241 104 5;
#X text 242 127 6;
#X text 275 158 7;
#X text 275 181 8;
#X text 353 47 9;
#X text 357 69 10;
#X text 403 108 11;
#X text 406 135 12;
#X obj 157 220 matrix~ 18 20 1...........................;
#X text 122 138 13;
#X obj 119 63 r~ plaques;
#X obj 135 87 r~ bols;
#X obj 149 111 r~ bolagua;
#X obj 76 239 s~ lunadryL;
#X obj 71 260 s~ lunadryR;
#X obj 85 314 s~ frelunL;
#X obj 83 335 s~ frelunlR;
#X obj 158 380 s~ revlunL;
#X obj 157 401 s~ revlunR;
#X obj 222 315 s~ pitch1lunL;
#X obj 224 339 s~ pitch1lunR;
#X obj 336 299 s~ dellunL;
#X obj 337 321 s~ dellunR;
#X obj 670 287 s~ outfxlun1L;
#X obj 681 311 s~ outfxlun1R;
#X obj 787 292 s~ outfxlun2L;
#X obj 799 315 s~ outfxlun2R;
#X obj 226 52 r~ rfrelunL;
#X obj 224 73 r~ rfrelunR;
#X obj 257 109 r~ rrevlunL;
#X obj 256 130 r~ rrevlunR;
#X obj 287 158 r~ rpitch1lunL;
#X obj 289 182 r~ rpitch1lunR;
#X obj 375 49 r~ rpitch2lunL;
#X obj 377 73 r~ rpitch2lunR;
#X obj 424 111 r~ rdellunL;
#X obj 425 133 r~ rdellunR;
#X text 756 30 MATRIX-LUNA;
#X obj 29 173 r matrixluna;
#X obj 32 203 r matrixluna2;
#X obj 164 135 r~ luna4;
#X obj 298 392 s~ cortolunL;
#X obj 300 416 s~ cortolunR;
#X connect 29 0 34 0;
#X connect 29 1 35 0;
#X connect 29 2 36 0;
#X connect 29 3 37 0;
#X connect 29 4 38 0;
#X connect 29 5 39 0;
#X connect 29 6 40 0;
#X connect 29 7 41 0;
#X connect 29 8 62 0;
#X connect 29 9 63 0;
#X connect 29 10 42 0;
#X connect 29 11 43 0;
#X connect 29 16 44 0;
#X connect 29 17 45 0;
#X connect 29 18 46 0;
#X connect 29 19 47 0;
#X connect 31 0 29 0;
#X connect 32 0 29 1;
#X connect 33 0 29 2;
#X connect 48 0 29 3;
#X connect 49 0 29 4;
#X connect 50 0 29 5;
#X connect 51 0 29 6;
#X connect 52 0 29 7;
#X connect 53 0 29 8;
#X connect 54 0 29 9;
#X connect 55 0 29 10;
#X connect 56 0 29 11;
#X connect 57 0 29 12;
#X connect 59 0 29 0;
#X connect 60 0 29 0;
#X connect 61 0 29 13;
