#N canvas 697 22 982 509 10;
#X text -16 232 0;
#X text -29 259 1;
#X text -24 312 2;
#X text -22 332 3;
#X text -23 392 4;
#X text -22 415 5;
#X text 107 352 6;
#X text 111 375 7;
#X text 256 373 11;
#X text 252 351 10;
#X text 169 446 8;
#X text 169 469 9;
#X text 321 421 12;
#X text 347 338 14;
#X text 348 362 15;
#X text 324 449 13;
#X text 772 75 comment;
#X text -30 -1 0;
#X text 5 24 1;
#X text 39 51 2;
#X text 82 74 3;
#X text 128 99 4;
#X text 170 121 5;
#X text 217 144 6;
#X text 275 158 7;
#X text 275 181 8;
#X text 335 6 9;
#X text 339 28 10;
#X text 341 65 11;
#X text 340 89 12;
#X text 384 115 13;
#X text 384 142 14;
#X text 488 10 15;
#X text 496 40 16;
#X obj 98 77 r~ guit2;
#X obj 144 100 r~ guit3;
#X obj 186 124 r~ cordht;
#X obj 231 147 r~ dom;
#X obj 1 234 s~ boldryL;
#X obj 0 255 s~ boldryR;
#X obj -2 311 s~ freebolL;
#X obj -4 332 s~ freebolR;
#X obj -4 394 s~ revbolL;
#X obj -5 415 s~ revbolR;
#X obj 126 350 s~ pitch1bolL;
#X obj 128 374 s~ pitch1bolR;
#X obj 181 444 s~ pitch2bolL;
#X obj 183 468 s~ pitch2bolR;
#X obj 270 349 s~ delbolL;
#X obj 271 371 s~ delbolR;
#X obj 337 420 s~ cotbolL;
#X obj 339 446 s~ cotbolR;
#X text 444 413 16;
#X text 449 440 17;
#X text 497 344 18;
#X text 515 370 19;
#X obj 462 414 s~ granoL;
#X obj 465 440 s~ granoR;
#X obj 521 346 s~ equabolL;
#X obj 533 369 s~ equabolR;
#X text 776 432 comment;
#X text 657 293 20;
#X text 660 317 21;
#X text 622 349 22;
#X text 628 375 23;
#X text 756 30 MATRIX-BOLAS;
#X obj 287 158 r~ rfreebolL;
#X obj 289 182 r~ rfreebolR;
#X obj 357 8 r~ rrevbolL;
#X obj 359 31 r~ rrevbolR;
#X obj 364 68 r~ rpitch1bolL;
#X obj 365 90 r~ rpitch1bolR;
#X obj 402 142 r~ rpitch2bolR;
#X obj 400 116 r~ rpitch2bolL;
#X obj 513 10 r~ rdelbolL;
#X obj 517 35 r~ rdelbolR;
#X obj 209 236 matrix~ 25 24 1...........................;
#X obj 519 84 r~ rcotbolL;
#X obj 521 110 r~ rcotbolR;
#X text 503 87 17;
#X text 504 111 18;
#X obj 366 338 s~ bdistoL;
#X obj 366 363 s~ bdistoR;
#X obj 529 194 r~ rdistoL;
#X obj 529 219 r~ rdistoR;
#X text 510 194 19;
#X text 511 218 20;
#X text 625 79 21;
#X text 630 106 22;
#X obj 643 80 r~ rgranoL;
#X obj 646 106 r~ rgranoR;
#X text 643 190 23;
#X text 642 219 24;
#X obj 661 194 r~ requabolL;
#X obj 663 217 r~ requabolR;
#X obj 29 173 r matrixbolas;
#X obj 30 199 r matrixbolas2;
#X obj 640 350 s~ outfxbol2L;
#X obj 642 373 s~ outfxbol2R;
#X obj 674 292 s~ outfxbol1L;
#X obj 675 316 s~ outfxbol1R;
#X msg 36 106 dump;
#X obj 728 255 print;
#X obj 55 53 r~ guitmic;
#X obj -18 1 r~ takmic;
#X obj 18 27 r~ cbasmic;
#X connect 34 0 76 3;
#X connect 35 0 76 4;
#X connect 36 0 76 5;
#X connect 37 0 76 6;
#X connect 66 0 76 7;
#X connect 67 0 76 8;
#X connect 68 0 76 9;
#X connect 69 0 76 10;
#X connect 70 0 76 11;
#X connect 71 0 76 12;
#X connect 72 0 76 14;
#X connect 73 0 76 13;
#X connect 74 0 76 15;
#X connect 75 0 76 16;
#X connect 76 0 38 0;
#X connect 76 1 39 0;
#X connect 76 2 40 0;
#X connect 76 3 41 0;
#X connect 76 4 42 0;
#X connect 76 5 43 0;
#X connect 76 6 44 0;
#X connect 76 7 45 0;
#X connect 76 8 46 0;
#X connect 76 9 47 0;
#X connect 76 10 48 0;
#X connect 76 11 49 0;
#X connect 76 12 50 0;
#X connect 76 13 51 0;
#X connect 76 14 81 0;
#X connect 76 15 82 0;
#X connect 76 16 56 0;
#X connect 76 17 57 0;
#X connect 76 18 58 0;
#X connect 76 19 59 0;
#X connect 76 20 99 0;
#X connect 76 21 100 0;
#X connect 76 22 97 0;
#X connect 76 23 98 0;
#X connect 76 24 102 0;
#X connect 77 0 76 17;
#X connect 78 0 76 18;
#X connect 83 0 76 19;
#X connect 84 0 76 20;
#X connect 89 0 76 21;
#X connect 90 0 76 22;
#X connect 93 0 76 23;
#X connect 94 0 76 24;
#X connect 95 0 76 0;
#X connect 96 0 76 0;
#X connect 101 0 76 0;
#X connect 103 0 76 2;
#X connect 104 0 76 0;
#X connect 105 0 76 1;
