#N canvas 240 210 1179 610 10;
#X text 65 247 0;
#X text 52 274 1;
#X text 73 325 2;
#X text 75 345 3;
#X text 433 280 12;
#X text 546 292 14;
#X text 555 322 15;
#X text 436 308 13;
#X text 122 101 1;
#X text 129 124 2;
#X text 63 65 0 = vacillo;
#X obj 86 249 s~ disdryL;
#X obj 81 270 s~ disdryR;
#X text 766 40 MATRIX-DISTRIB;
#X obj 39 183 r matrixdistrib;
#X obj 42 213 r matrixdistrib2;
#X msg 52 76 dump;
#X obj 608 188 print;
#X obj 167 230 matrix~ 17 20 ...........................;
#X obj 145 97 r~ capt1;
#X obj 159 121 r~ capt2;
#X obj 451 305 s~ cortdisR;
#X obj 449 279 s~ cortdisL;
#X obj 252 95 r~ frvrbl;
#X obj 262 120 r~ frvrbr;
#X obj 171 290 s~ frvrl;
#X obj 223 290 s~ frvrr;
#X connect 14 0 18 0;
#X connect 15 0 18 0;
#X connect 16 0 18 0;
#X connect 18 0 11 0;
#X connect 18 1 12 0;
#X connect 18 2 25 0;
#X connect 18 3 26 0;
#X connect 18 12 22 0;
#X connect 18 13 21 0;
#X connect 18 20 17 0;
#X connect 19 0 18 1;
#X connect 20 0 18 2;
#X connect 23 0 18 3;
#X connect 24 0 18 4;
