#N canvas 406 23 982 509 10;
#X text -16 232 0;
#X text -29 259 1;
#X text 321 421 12;
#X text 347 338 14;
#X text 348 362 15;
#X text 324 449 13;
#X text 772 75 comment;
#X text -30 -1 0;
#X text 5 24 1;
#X text 39 51 2;
#X text 170 121 5;
#X text 217 144 6;
#X text 275 158 7;
#X text 275 181 8;
#X obj 186 124 r~ cordht;
#X obj 231 147 r~ dom;
#X obj 1 234 s~ boldryL;
#X obj 0 255 s~ boldryR;
#X obj 337 420 s~ cotbolL;
#X obj 339 446 s~ cotbolR;
#X text 776 432 comment;
#X text 756 30 MATRIX-BOLAS;
#X obj 209 236 matrix~ 25 24 1...........................;
#X obj 29 173 r matrixbolas;
#X obj 30 199 r matrixbolas2;
#X msg 36 106 dump;
#X obj 728 255 print;
#X obj 55 53 r~ guitmic;
#X obj -18 1 r~ takmic;
#X obj 18 27 r~ cbasmic;
#X connect 14 0 22 5;
#X connect 15 0 22 6;
#X connect 22 0 16 0;
#X connect 22 1 17 0;
#X connect 22 12 18 0;
#X connect 22 13 19 0;
#X connect 22 24 26 0;
#X connect 23 0 22 0;
#X connect 24 0 22 0;
#X connect 25 0 22 0;
#X connect 27 0 22 2;
#X connect 28 0 22 0;
#X connect 29 0 22 1;
