#N canvas 240 210 1179 610 10;
#X text 65 247 0;
#X text 52 274 1;
#X text 73 325 2;
#X text 75 345 3;
#X text 149 388 4;
#X text 150 411 5;
#X text 213 327 6;
#X text 217 350 7;
#X text 332 333 11;
#X text 328 311 10;
#X text 296 404 8;
#X text 296 427 9;
#X text 433 280 12;
#X text 546 292 14;
#X text 555 322 15;
#X text 436 308 13;
#X text 423 169 comment;
#X text 655 296 16;
#X text 667 323 17;
#X text 773 300 18;
#X text 791 326 19;
#X obj 529 67 r~ rdistoR;
#X obj 525 42 r~ rdistoL;
#X text 122 101 1;
#X text 129 124 2;
#X text 220 59 3;
#X text 218 82 4;
#X text 251 114 5;
#X text 252 137 6;
#X text 285 168 7;
#X text 285 191 8;
#X text 363 57 9;
#X text 367 79 10;
#X text 413 118 11;
#X text 416 145 12;
#X text 440 169 13;
#X text 445 190 14;
#X text 495 42 15;
#X text 504 65 16;
#X text 63 65 0 = vacillo;
#X obj 86 249 s~ disdryL;
#X obj 81 270 s~ disdryR;
#X obj 95 324 s~ fredisL;
#X obj 93 345 s~ freedisR;
#X obj 168 390 s~ revdisL;
#X obj 167 411 s~ revdisR;
#X obj 232 325 s~ pitch1disL;
#X obj 234 349 s~ pitch1disR;
#X obj 308 402 s~ pitch2disL;
#X obj 310 426 s~ pitch2disR;
#X obj 346 309 s~ deldisL;
#X obj 347 331 s~ deldisR;
#X obj 570 298 s~ disdistoL;
#X obj 573 323 s~ disdistoR;
#X obj 680 297 s~ outfxdis1L;
#X obj 691 321 s~ outfxdisR;
#X obj 797 302 s~ outfxdis2L;
#X obj 809 325 s~ outfxdis2R;
#X obj 236 62 r~ rfredisL;
#X obj 234 83 r~ rfredisR;
#X obj 267 119 r~ rrevdisL;
#X obj 266 140 r~ rrevdisR;
#X obj 297 168 r~ rpitch1disL;
#X obj 299 192 r~ rpitch1disR;
#X obj 385 59 r~ rpitch2disL;
#X obj 387 83 r~ rpitch2disR;
#X obj 434 121 r~ rdeldisL;
#X obj 435 143 r~ rdeldisR;
#X obj 466 168 r~ reqdisL;
#X obj 468 194 r~ reqdisR;
#X text 766 40 MATRIX-DISTRIB;
#X obj 39 183 r matrixdistrib;
#X obj 42 213 r matrixdistrib2;
#X msg 52 76 dump;
#X obj 608 188 print;
#X obj 167 230 matrix~ 17 20 ...........................;
#X obj 34 386 unpack f f f;
#X floatatom 75 432 5 0 0 0 - - -;
#X obj 145 97 r~ capt1;
#X obj 159 121 r~ capt2;
#X obj 451 305 s~ cortdisR;
#X obj 449 279 s~ cortdisL;
#X connect 21 0 75 16;
#X connect 22 0 75 15;
#X connect 58 0 75 3;
#X connect 59 0 75 4;
#X connect 60 0 75 5;
#X connect 61 0 75 6;
#X connect 62 0 75 7;
#X connect 63 0 75 8;
#X connect 64 0 75 9;
#X connect 65 0 75 10;
#X connect 66 0 75 11;
#X connect 67 0 75 12;
#X connect 68 0 75 13;
#X connect 69 0 75 14;
#X connect 71 0 75 0;
#X connect 71 0 76 0;
#X connect 72 0 75 0;
#X connect 73 0 75 0;
#X connect 75 0 40 0;
#X connect 75 1 41 0;
#X connect 75 2 42 0;
#X connect 75 3 43 0;
#X connect 75 4 44 0;
#X connect 75 5 45 0;
#X connect 75 6 46 0;
#X connect 75 7 47 0;
#X connect 75 8 48 0;
#X connect 75 9 49 0;
#X connect 75 10 50 0;
#X connect 75 11 51 0;
#X connect 75 12 81 0;
#X connect 75 13 80 0;
#X connect 75 14 52 0;
#X connect 75 15 53 0;
#X connect 75 16 54 0;
#X connect 75 17 55 0;
#X connect 75 18 56 0;
#X connect 75 19 57 0;
#X connect 75 20 74 0;
#X connect 76 2 77 0;
#X connect 78 0 75 1;
#X connect 79 0 75 2;
