#N canvas 227 351 982 509 10;
#X obj 119 63 r~ tufsmic;
#X obj 135 87 r~ airmic;
#X obj 149 111 r~ hydromic;
#X obj 76 239 s~ escdryL;
#X obj 71 260 s~ escdryR;
#X obj 85 314 s~ freescL;
#X obj 83 335 s~ freesclR;
#X obj 158 380 s~ revescL;
#X obj 157 401 s~ revescR;
#X obj 222 315 s~ pitch1escL;
#X obj 224 339 s~ pitch1escR;
#X obj 298 392 s~ pitch2escL;
#X obj 300 416 s~ pitch2escR;
#X obj 336 299 s~ delescL;
#X obj 337 321 s~ delescR;
#X obj 560 288 s~ distoL;
#X obj 563 313 s~ distoR;
#X text 55 237 0;
#X text 42 264 1;
#X text 63 315 2;
#X text 65 335 3;
#X text 139 378 4;
#X text 140 401 5;
#X text 203 317 6;
#X text 207 340 7;
#X text 322 323 11;
#X text 318 301 10;
#X text 286 394 8;
#X text 286 417 9;
#X text 423 270 12;
#X text 536 282 14;
#X text 545 312 15;
#X text 426 298 13;
#X text 413 159 comment;
#X obj 670 287 s~ outfxesc1L;
#X obj 681 311 s~ outfxesc1R;
#X obj 787 292 s~ outfxesc2L;
#X obj 799 315 s~ outfxesc2R;
#X text 645 286 16;
#X text 657 313 17;
#X text 763 290 18;
#X text 781 316 19;
#X obj 157 220 matrix~ 17 20 1...........................;
#X obj 519 57 r~ rdistoR;
#X obj 515 32 r~ rdistoL;
#X obj 458 184 r~ rcotescR;
#X obj 456 158 r~ rcotescL;
#X obj 425 133 r~ rdelescR;
#X obj 424 111 r~ rdelescL;
#X obj 289 182 r~ rpitch1escR;
#X obj 287 158 r~ rpitch1escL;
#X obj 256 130 r~ rrevescR;
#X obj 257 109 r~ rrevescL;
#X obj 224 73 r~ rfreesclR;
#X obj 226 52 r~ rfreescL;
#X obj 375 49 r~ rpitch2escL;
#X obj 377 73 r~ rpitch2escR;
#X text 756 30 MATRIX-ESCARGOT;
#X obj 29 173 r matrixescargot;
#X text 99 63 0;
#X text 112 91 1;
#X text 119 114 2;
#X text 210 49 3;
#X text 208 72 4;
#X text 241 104 5;
#X text 242 127 6;
#X text 275 158 7;
#X text 275 181 8;
#X text 353 47 9;
#X text 357 69 10;
#X text 403 108 11;
#X text 406 135 12;
#X text 430 159 13;
#X text 435 180 14;
#X text 485 32 15;
#X text 494 55 16;
#X obj 32 203 r matrixescargot2;
#X obj 439 269 s~ pedazosL;
#X obj 441 295 s~ pedazosR;
#X connect 0 0 42 0;
#X connect 1 0 42 1;
#X connect 2 0 42 2;
#X connect 42 0 3 0;
#X connect 42 1 4 0;
#X connect 42 2 5 0;
#X connect 42 3 6 0;
#X connect 42 4 7 0;
#X connect 42 5 8 0;
#X connect 42 6 9 0;
#X connect 42 7 10 0;
#X connect 42 8 11 0;
#X connect 42 9 12 0;
#X connect 42 10 13 0;
#X connect 42 11 14 0;
#X connect 42 12 77 0;
#X connect 42 13 78 0;
#X connect 42 14 15 0;
#X connect 42 15 16 0;
#X connect 42 16 34 0;
#X connect 42 17 35 0;
#X connect 42 18 36 0;
#X connect 42 19 37 0;
#X connect 43 0 42 16;
#X connect 44 0 42 15;
#X connect 45 0 42 14;
#X connect 46 0 42 13;
#X connect 47 0 42 12;
#X connect 48 0 42 11;
#X connect 49 0 42 8;
#X connect 50 0 42 7;
#X connect 51 0 42 6;
#X connect 52 0 42 5;
#X connect 53 0 42 4;
#X connect 54 0 42 3;
#X connect 55 0 42 9;
#X connect 56 0 42 10;
#X connect 58 0 42 0;
#X connect 76 0 42 0;
