#N canvas 0 22 1142 693 10;
#X obj 127 103 inlet;
#X obj 329 153 inlet~;
#X obj 187 400 line~;
#X obj 318 417 *~;
#X obj 331 181 hip~ 3;
#X obj 252 593 outlet~;
#X obj 318 468 clip~ -1 1;
#X obj 355 298 hsl 128 15 0 8 0 0 empty factor2 compander-factor 20
8 0 10 -262144 -260097 -1 4762 0;
#X obj 390 327 hsl 128 15 -96 -20 0 0 empty point2 compander-point
20 8 0 10 -262144 -260097 -1 12700 0;
#X obj 318 443 qompander~ 3;
#X obj 802 117 loadbang;
#X obj 126 141 vsl 17 30 0 1 0 0 \$0-vl1 \$0-v1 empty 0 3 0 8 -72627
-233461 -262130 0 1;
#X obj 382 579 - 100;
#X obj 382 559 env~;
#X obj 382 602 outlet;
#X msg 802 138 \; factor2 8 \; point2 -54.3 \; noiset 0.001 \; noiseg
0.181 \;;
#X msg 1148 200 0.344;
#X obj 99 299 switch~;
#X obj 126 175 tgl 17 0 empty Sw1 empty 17 7 0 10 -262144 -1 -1 0 1
;
#X obj 318 594 s~ P1;
#X obj 318 533 *~;
#X floatatom 263 396 5 0 0 0 - - -;
#X obj 187 379 pack 0 50;
#X connect 0 0 11 0;
#X connect 1 0 4 0;
#X connect 2 0 3 0;
#X connect 2 0 20 1;
#X connect 3 0 9 0;
#X connect 4 0 3 1;
#X connect 6 0 20 0;
#X connect 7 0 9 1;
#X connect 8 0 9 2;
#X connect 9 0 6 0;
#X connect 10 0 15 0;
#X connect 11 0 22 0;
#X connect 12 0 14 0;
#X connect 13 0 12 0;
#X connect 18 0 17 0;
#X connect 20 0 5 0;
#X connect 20 0 13 0;
#X connect 20 0 19 0;
#X connect 22 0 2 0;
#X connect 22 0 21 0;
