#N canvas 378 70 447 401 10;
#X obj 283 12 inlet~;
#X obj 101 239 pack 0 50;
#X obj 283 249 clip~ -1 1;
#X obj 283 223 qompander~ 3;
#X obj 283 337 - 100;
#X obj 283 317 env~;
#X obj 283 360 outlet;
#X obj 101 179 switch~;
#X obj 101 155 tgl 17 0 empty empty empty 17 7 0 10 -262144 -1 -1 0
1;
#X obj 181 294 outlet~;
#X obj 3 155 outlet;
#X obj 150 172 outlet;
#X obj 17 84 inlet;
#X obj 130 138 inlet;
#X obj 285 146 c.slider @size 120 15 @fontname Monaco @fontweight normal
@fontslant roman @fontsize 11 @idname (null) @presetname factor @mode
0 @min 0 @max 8 @bgcolor 0.75 0.75 0.75 1 @bdcolor 0.5 0.5 0.5 1 @kncolor
0.5 0.5 0.5 1;
#X obj 285 166 c.slider @size 120 15 @fontname Monaco @fontweight normal
@fontslant roman @fontsize 11 @idname (null) @presetname point @mode
0 @min -96 @max -20 @bgcolor 0.75 0.75 0.75 1 @bdcolor 0.5 0.5 0.5
1 @kncolor 0.5 0.5 0.5 1;
#X obj 283 277 *~ 0;
#X obj 101 260 line;
#X obj 285 186 c.slider @size 120 15 @fontname Monaco @fontweight normal
@fontslant roman @fontsize 11 @idname (null) @presetname response @mode
0 @min 7.39 @max 1 @bgcolor 0.75 0.75 0.75 1 @bdcolor 0.5 0.5 0.5 1
@kncolor 0.5 0.5 0.5 1;
#X obj 285 206 c.slider @size 120 15 @fontname Monaco @fontweight normal
@fontslant roman @fontsize 11 @idname (null) @presetname recovery @mode
0 @min 20 @max 400 @bgcolor 0.75 0.75 0.75 1 @bdcolor 0.5 0.5 0.5 1
@kncolor 0.5 0.5 0.5 1;
#X obj 186 91 c.preset @size 15 69 @fontname Monaco @fontweight normal
@fontslant roman @fontsize 10 @idname (null) @bgcolor 0.5 0.6 0.6 0
@bdcolor 0.5 0.5 0.5 0.5 @textcolor 0 0 0 1 @emcolor 0.85 0.85 0.85
1 @stcolor 0.5 0.8 0.9 1 @secolor 0.3 0.9 0.7 1 @preset [ @index 0
@factor c.slider float 0.8 @point c.slider float -96 @response c.slider
float 7.39 @recovery c.slider float 20 @index 1 @factor c.slider float
1 @point c.slider float -20 @response c.slider float 7.39 @recovery
c.slider float 20 @index 2 @factor c.slider float 3 @point c.slider
float -20 @response c.slider float 7.33675 @recovery c.slider float
20 @index 3 @factor c.slider float 4 @point c.slider float -70.0333
@response c.slider float 3.0235 @recovery c.slider float 20 ];
#X text 209 87 limiter;
#X text 210 106 gate;
#X text 210 122 gate;
#X text 210 142 punch;
#X obj 103 103 c.slider @size 15 50 @fontname Monaco @fontweight normal
@fontslant roman @fontsize 11 @idname (null) @presetname mic @mode
0 @min 0 @max 1 @bgcolor 0.45 0.75 0.75 1 @bdcolor 0.5 0.5 0.5 1 @kncolor
0.5 0.5 0.5 1;
#X connect 0 0 3 0;
#X connect 1 0 17 0;
#X connect 2 0 16 0;
#X connect 3 0 2 0;
#X connect 4 0 6 0;
#X connect 5 0 4 0;
#X connect 8 0 7 0;
#X connect 8 0 11 0;
#X connect 12 0 25 0;
#X connect 13 0 8 0;
#X connect 14 0 3 1;
#X connect 15 0 3 2;
#X connect 16 0 5 0;
#X connect 16 0 9 0;
#X connect 17 0 16 1;
#X connect 18 0 3 3;
#X connect 19 0 3 4;
#X connect 25 0 1 0;
#X connect 25 0 10 0;
#X coords 0 -1 1 1 20 72 1 100 100;
