#N canvas 378 70 392 345 10;
#X obj 283 169 inlet~;
#X obj 226 239 pack 0 50;
#X obj 173 187 switch~;
#X obj 237 294 outlet~;
#X obj 283 277 *~ 0;
#X obj 226 260 line;
#X obj 173 168 inlet;
#X obj 227 169 inlet;
#X obj 312 294 env~;
#X obj 312 317 outlet;
#X connect 0 0 4 0;
#X connect 1 0 5 0;
#X connect 4 0 3 0;
#X connect 4 0 8 0;
#X connect 5 0 4 1;
#X connect 6 0 2 0;
#X connect 7 0 1 0;
#X connect 8 0 9 0;
#X coords 0 -1 1 1 30 15 2 100 100;
