#N canvas 217 122 611 431 10;
#X obj 111 103 vsl 15 49 0 1 0 0 empty empty empty 0 -9 0 10 -117680
-1 -1 2880 1;
#X obj 111 155 tgl 15 0 empty empty empty 17 7 0 10 -261234 -1 -1 0
1;
#X obj 100 170 mic4;
#X obj 38 255 s~ flute;
#X obj 140 103 vsl 15 49 0 1 0 0 empty empty empty 0 -9 0 10 -117680
-1 -1 1200 1;
#X obj 140 155 tgl 15 0 empty empty empty 17 7 0 10 -261234 -1 -1 0
1;
#X obj 131 227 s~ flute2;
#X obj 181 -26 r flutepres;
#X msg 201 119 1;
#X floatatom 66 155 5 0 0 0 - - -;
#X msg 50 93 0.6;
#X obj 181 69 sel 2 3;
#X obj 361 88 adc~ 2;
#X floatatom 185 154 5 0 0 0 - - -;
#X msg 68 70 1;
#X obj 111 14 t b b b;
#X msg 193 28 0;
#X obj 193 3 sel 0;
#X msg 111 74 0.645;
#X obj 111 -9 sel 1;
#X obj 182 91 t b b b;
#X obj 129 171 mic4;
#X obj 12 152 adc~ 3;
#X msg 230 120 0.25;
#X msg 140 44 0.337;
#X connect 0 0 2 1;
#X connect 0 0 9 0;
#X connect 1 0 2 0;
#X connect 4 0 13 0;
#X connect 4 0 21 1;
#X connect 5 0 21 0;
#X connect 7 0 11 0;
#X connect 7 0 17 0;
#X connect 7 0 19 0;
#X connect 8 0 1 0;
#X connect 10 0 0 0;
#X connect 11 0 20 0;
#X connect 11 1 20 0;
#X connect 12 0 21 2;
#X connect 14 0 1 0;
#X connect 14 0 5 0;
#X connect 15 0 18 0;
#X connect 15 1 24 0;
#X connect 15 2 14 0;
#X connect 16 0 4 0;
#X connect 16 0 0 0;
#X connect 16 0 5 0;
#X connect 16 0 1 0;
#X connect 17 0 16 0;
#X connect 18 0 0 0;
#X connect 19 0 15 0;
#X connect 20 0 10 0;
#X connect 20 1 8 0;
#X connect 20 2 23 0;
#X connect 21 0 6 0;
#X connect 22 0 3 0;
#X connect 23 0 4 0;
#X connect 24 0 4 0;
#X coords 0 -1 1 1 57 70 2 100 100;
