#N canvas 133 122 611 431 10;
#X obj 111 103 vsl 15 49 0 1 0 0 empty empty empty 0 -9 0 10 -117680
-1 -1 0 1;
#X obj 111 155 tgl 15 0 empty empty empty 17 7 0 10 -261234 -1 -1 0
1;
#X obj 100 170 mic4;
#X obj 142 102 vsl 15 49 0 1 0 0 empty empty empty 0 -9 0 10 -117680
-1 -1 0 1;
#X obj 142 155 tgl 15 0 empty empty empty 17 7 0 10 -261234 -1 -1 0
1;
#X obj 131 170 mic4;
#N canvas 181 306 1031 539 20-save.me.mmb 0;
#X obj -1251 69 inlet;
#X obj -1210 69 inlet;
#X obj -1167 69 inlet;
#X obj -1126 69 inlet;
#X obj -1260 423 outlet;
#X obj -1215 423 outlet;
#X obj -1171 423 outlet;
#X obj -1126 423 outlet;
#X obj -1249 157 save.me.mmb dmic1 distrib;
#X obj -1248 177 save.me.mmb dsw1 distrib;
#X obj -1165 198 save.me.mmb dmic2 distrib;
#X obj -1165 224 save.me.mmb dsw2 distrib;
#X connect 0 0 8 0;
#X connect 1 0 9 0;
#X connect 2 0 10 0;
#X connect 3 0 11 0;
#X connect 8 0 4 0;
#X connect 9 0 5 0;
#X connect 10 0 6 0;
#X connect 11 0 7 0;
#X restore 177 156 pd 20-save.me.mmb .........;
#X obj 46 225 s~ capt1;
#X obj 132 229 s~ capt2;
#X obj 68 29 adc~ 7;
#X obj 150 45 adc~ 8;
#X connect 0 0 2 1;
#X connect 0 0 6 0;
#X connect 1 0 2 0;
#X connect 1 0 6 1;
#X connect 2 0 7 0;
#X connect 3 0 5 1;
#X connect 3 0 6 2;
#X connect 4 0 5 0;
#X connect 4 0 6 3;
#X connect 5 0 8 0;
#X connect 6 0 0 0;
#X connect 6 1 1 0;
#X connect 6 2 3 0;
#X connect 6 3 4 0;
#X connect 9 0 2 2;
#X connect 10 0 5 2;
#X coords 0 -1 1 1 57 70 2 100 100;
