#N canvas 455 173 611 431 10;
#N canvas 397 334 1031 539 20-save.me.mmb 0;
#X obj -1251 69 inlet;
#X obj -1210 69 inlet;
#X obj -1086 69 inlet;
#X obj -1045 69 inlet;
#X obj -1260 423 outlet;
#X obj -1215 423 outlet;
#X obj -1080 423 outlet;
#X obj -1035 423 outlet;
#X obj -1249 157 save.me.mmb mic1 escargot;
#X obj -1248 177 save.me.mmb sw1 escargot;
#X obj -1077 244 save.me.mmb mic3 escargot;
#X obj -1077 264 save.me.mmb sw3 escargot;
#X connect 0 0 8 0;
#X connect 1 0 9 0;
#X connect 2 0 10 0;
#X connect 3 0 11 0;
#X connect 8 0 4 0;
#X connect 9 0 5 0;
#X connect 10 0 6 0;
#X connect 11 0 7 0;
#X restore 227 171 pd 20-save.me.mmb .........;
#X obj 125 35 adc~ 1;
#X obj 57 192 s~ airmic;
#X obj 147 105 vsl 15 50 0 1 0 0 empty rtufsmic empty 0 -9 0 10 -154799
-262130 -1 0 0;
#X obj 147 159 tgl 15 0 empty rtufsmics empty 17 7 0 10 -261234 -1
-1 0 1;
#X obj 114 106 vsl 15 50 0 1 0 0 empty rairmic empty 0 -9 0 10 -154799
-262130 -1 0 0;
#X obj 114 160 tgl 15 0 empty rairmics empty 17 7 0 10 -261234 -1 -1
0 1;
#X obj 101 176 mic4;
#X obj 136 177 mic4;
#X obj 158 54 adc~ 5;
#X obj 136 202 s~ tufsmic;
#X connect 0 0 5 0;
#X connect 0 1 6 0;
#X connect 0 2 3 0;
#X connect 0 3 4 0;
#X connect 1 0 7 2;
#X connect 3 0 0 2;
#X connect 3 0 8 1;
#X connect 4 0 0 3;
#X connect 4 0 8 0;
#X connect 5 0 0 0;
#X connect 5 0 7 1;
#X connect 6 0 0 1;
#X connect 6 0 7 0;
#X connect 7 0 2 0;
#X connect 8 0 10 0;
#X connect 9 0 8 2;
#X coords 0 -1 1 1 80 76 2 100 100;
