#N canvas 280 102 611 431 10;
#N canvas 184 171 1031 539 20-save.me.mmb 0;
#X obj -1251 69 inlet;
#X obj -1210 69 inlet;
#X obj -1167 69 inlet;
#X obj -1126 69 inlet;
#X obj -1086 69 inlet;
#X obj -1045 69 inlet;
#X obj -1260 423 outlet;
#X obj -1215 423 outlet;
#X obj -1171 423 outlet;
#X obj -1126 423 outlet;
#X obj -1080 423 outlet;
#X obj -1035 423 outlet;
#X obj -914 76 inlet;
#X obj -873 76 inlet;
#X obj -833 76 inlet;
#X obj -792 76 inlet;
#X obj -918 430 outlet;
#X obj -873 430 outlet;
#X obj -827 430 outlet;
#X obj -782 430 outlet;
#X obj -1249 157 save.me.mmb bmic1 bolas;
#X obj -1248 177 save.me.mmb bsw1 bolas;
#X obj -1165 198 save.me.mmb bmic2 bolas;
#X obj -1165 224 save.me.mmb bsw2 bolas;
#X obj -1077 244 save.me.mmb bmic3 bolas;
#X obj -1077 264 save.me.mmb bsw3 bolas;
#X obj -912 205 save.me.mmb bmic4 bolas;
#X obj -912 231 save.me.mmb bsw4 bolas;
#X obj -824 251 save.me.mmb bmic5 bolas;
#X obj -824 271 save.me.mmb bsw5 bolas;
#X connect 0 0 20 0;
#X connect 1 0 21 0;
#X connect 2 0 22 0;
#X connect 3 0 23 0;
#X connect 4 0 24 0;
#X connect 5 0 25 0;
#X connect 12 0 26 0;
#X connect 13 0 27 0;
#X connect 14 0 28 0;
#X connect 15 0 29 0;
#X connect 20 0 6 0;
#X connect 21 0 7 0;
#X connect 22 0 8 0;
#X connect 23 0 9 0;
#X connect 24 0 10 0;
#X connect 25 0 11 0;
#X connect 26 0 16 0;
#X connect 27 0 17 0;
#X connect 28 0 18 0;
#X connect 29 0 19 0;
#X restore 157 356 pd 20-save.me.mmb .........;
#X obj 46 225 s~ takmic;
#X obj 126 292 s~ guitmic;
#X obj 111 103 vsl 15 49 0.01 1 0 0 empty rtakmic empty 0 -9 0 10 -117680
-1 -1 0 0;
#X obj 111 155 tgl 15 0 empty rtakmics empty 17 7 0 10 -261234 -1 -1
0 1;
#X obj 143 103 vsl 15 49 0 10 0 0 empty rguitmic empty 0 -9 0 10 -117680
-1 -1 0 0;
#X obj 143 155 tgl 15 0 empty rguitmics empty 17 7 0 10 -261234 -1
-1 0 1;
#X obj 174 103 vsl 15 49 0 1 0 0 empty rcordht empty 0 -9 0 10 -117680
-1 -1 600 0;
#X obj 174 155 tgl 15 0 empty rcordhts empty 17 7 0 10 -261234 -1 -1
1 1;
#X obj 205 103 vsl 15 49 0 1 0 0 empty rdom empty 0 -9 0 10 -117680
-1 -1 1100 0;
#X obj 205 155 tgl 15 0 empty rdoms empty 17 7 0 10 -261234 -1 -1 1
1;
#X obj 45 33 adc~ 14;
#X obj 177 258 s~ cordht;
#X obj 252 257 s~ dom;
#X obj 100 170 mic4;
#X obj 132 170 mic4;
#X obj 163 170 mic4;
#X obj 194 171 mic4;
#X obj 316 15 r linecdht;
#X floatatom 313 249 5 0 0 0 - - -;
#X obj 153 48 adc~ 13;
#X obj 116 19 adc~ 11;
#X obj 476 187 pvu~;
#X obj 518 238 vu 15 120 empty empty -1 -8 0 10 -66577 -1 1 0;
#X obj 219 29 adc~ 12;
#X floatatom 299 149 5 0 0 0 - - -;
#X obj 292 84 r linedom;
#X connect 0 0 3 0;
#X connect 0 1 4 0;
#X connect 0 4 5 0;
#X connect 0 5 6 0;
#X connect 0 6 7 0;
#X connect 0 7 8 0;
#X connect 0 8 9 0;
#X connect 0 9 10 0;
#X connect 3 0 0 0;
#X connect 3 0 14 1;
#X connect 4 0 0 1;
#X connect 4 0 14 0;
#X connect 5 0 0 4;
#X connect 5 0 15 1;
#X connect 6 0 0 5;
#X connect 6 0 15 0;
#X connect 7 0 0 6;
#X connect 7 0 16 1;
#X connect 7 0 19 0;
#X connect 8 0 0 7;
#X connect 8 0 16 0;
#X connect 9 0 0 8;
#X connect 9 0 17 1;
#X connect 9 0 25 0;
#X connect 10 0 0 9;
#X connect 10 0 17 0;
#X connect 11 0 14 2;
#X connect 14 0 1 0;
#X connect 14 0 22 0;
#X connect 15 0 2 0;
#X connect 16 0 12 0;
#X connect 17 0 13 0;
#X connect 18 0 7 0;
#X connect 20 0 16 2;
#X connect 21 0 15 2;
#X connect 22 0 23 0;
#X connect 24 0 17 2;
#X connect 26 0 9 0;
#X coords 0 -1 1 1 150 70 2 100 100;
