#N canvas 408 297 611 431 10;
#N canvas 181 306 1031 539 20-save.me.mmb 0;
#X obj -1251 69 inlet;
#X obj -1210 69 inlet;
#X obj -1167 69 inlet;
#X obj -1126 69 inlet;
#X obj -1086 69 inlet;
#X obj -1045 69 inlet;
#X obj -1260 423 outlet;
#X obj -1215 423 outlet;
#X obj -1171 423 outlet;
#X obj -1126 423 outlet;
#X obj -1080 423 outlet;
#X obj -1035 423 outlet;
#X obj -914 76 inlet;
#X obj -873 76 inlet;
#X obj -918 430 outlet;
#X obj -873 430 outlet;
#X obj -1249 157 save.me.mmb lmic1 luna;
#X obj -1248 177 save.me.mmb lsw1 luna;
#X obj -1165 198 save.me.mmb lmic2 luna;
#X obj -1165 224 save.me.mmb lsw2 luna;
#X obj -1078 244 save.me.mmb lmic3 luna;
#X obj -1077 264 save.me.mmb lsw3 luna;
#X obj -912 205 save.me.mmb lmic4 luna;
#X obj -912 231 save.me.mmb lsw4 luna;
#X connect 0 0 16 0;
#X connect 1 0 17 0;
#X connect 2 0 18 0;
#X connect 3 0 19 0;
#X connect 4 0 20 0;
#X connect 5 0 21 0;
#X connect 12 0 22 0;
#X connect 13 0 23 0;
#X connect 16 0 6 0;
#X connect 17 0 7 0;
#X connect 18 0 8 0;
#X connect 19 0 9 0;
#X connect 20 0 10 0;
#X connect 21 0 11 0;
#X connect 22 0 14 0;
#X connect 23 0 15 0;
#X restore 307 151 pd 20-save.me.mmb .........;
#X obj 111 103 vsl 15 49 0 2 0 0 empty \$0-rplak empty 0 -9 0 10 -117680
-1 -1 0 1;
#X obj 111 155 tgl 15 0 empty \$0-rplaks empty 17 7 0 10 -261234 -1
-1 0 1;
#X obj 141 103 vsl 15 49 0 1 0 0 empty \$0-rbol empty 0 -9 0 10 -117680
-1 -1 0 1;
#X obj 141 155 tgl 15 0 empty \$0-rbols empty 17 7 0 10 -261234 -1
-1 0 1;
#X obj 172 102 vsl 15 49 0 1 0 0 empty \$0-rbolagua empty 0 -9 0 10
-117680 -1 -1 0 1;
#X obj 172 154 tgl 15 0 empty \$0-rbolaguas empty 17 7 0 10 -261234
-1 -1 0 1;
#X obj 203 102 vsl 15 49 0 1 0 0 empty \$0-rpiezo empty 0 -9 0 10 -117680
-1 -1 0 1;
#X obj 203 154 tgl 15 0 empty \$0-rpiezos empty 17 7 0 10 -261234 -1
-1 0 1;
#X obj 241 255 s~ luna4;
#X obj 100 170 mic4;
#X obj 130 170 mic4;
#X obj 161 169 mic4;
#X obj 192 169 mic4;
#X obj 46 225 s~ plaques;
#X obj 136 257 s~ bols;
#X obj 171 291 s~ bolagua;
#X obj 329 56 adc~ 17;
#X obj 168 45 adc~ 15;
#X obj 236 47 adc~ 16;
#X obj 95 44 adc~ 18;
#X connect 0 0 1 0;
#X connect 0 1 2 0;
#X connect 0 2 3 0;
#X connect 0 3 4 0;
#X connect 0 4 5 0;
#X connect 0 5 6 0;
#X connect 0 6 7 0;
#X connect 0 7 8 0;
#X connect 1 0 0 0;
#X connect 1 0 10 1;
#X connect 2 0 0 1;
#X connect 2 0 10 0;
#X connect 3 0 0 2;
#X connect 3 0 11 1;
#X connect 4 0 0 3;
#X connect 4 0 11 0;
#X connect 5 0 0 4;
#X connect 5 0 12 1;
#X connect 6 0 0 5;
#X connect 6 0 12 0;
#X connect 7 0 0 6;
#X connect 7 0 13 1;
#X connect 8 0 0 7;
#X connect 8 0 13 0;
#X connect 10 0 14 0;
#X connect 11 0 15 0;
#X connect 12 0 16 0;
#X connect 13 0 9 0;
#X connect 17 0 13 2;
#X connect 18 0 11 2;
#X connect 19 0 12 2;
#X connect 20 0 10 2;
#X coords 0 -1 1 1 120 70 2 100 100;
