#N canvas 365 445 987 165 10;
#N canvas 287 322 1038 228 tufs 1;
#X obj 111 144 outlet pack;
#X msg 5 109 send /fl1 \$1;
#X msg 88 109 send /fl2 \$1;
#X msg 171 109 send /fl3 \$1;
#X msg 253 109 send /fl4 \$1;
#X msg 334 109 send /fl5 \$1;
#X msg 414 109 send /fl6 \$1;
#X msg 495 109 send /fl7 \$1;
#X msg 576 109 send /fl8 \$1;
#X msg 659 109 send /fl9 \$1;
#X msg 740 109 send /fl10 \$1;
#X msg 828 109 send /fl11 \$1;
#X msg 915 109 send /fl12 \$1;
#X msg 5 92 0;
#X obj 88 90 t f f;
#X obj 125 90 t f f;
#X obj 162 90 t f f;
#X obj 199 90 t f f;
#X obj 237 90 t f f;
#X obj 278 90 t f f;
#X obj 316 90 t f f;
#X obj 354 90 t f f;
#X obj 392 90 t f f;
#X obj 431 90 t f f;
#X obj 469 90 t f f;
#X obj 507 90 t f f;
#X obj 546 90 t f f;
#X obj 584 90 t f f;
#X obj 622 90 t f f;
#X msg 390 55 0;
#X msg 364 41 1;
#X obj 431 36 t b b;
#X obj 365 -24 spigot;
#X msg 430 56 1;
#X msg 412 -20 0;
#X obj 325 42 + 1;
#X obj 389 16 del 70;
#X obj 405 -37 tgl 15 0 empty empty empty 17 7 0 10 -262144 -1 -1 0
1;
#X obj 661 90 t b b b b b b;
#X obj 325 72 gate 28;
#X obj 365 -50 bng 15 250 50 0 empty empty empty 17 7 0 10 -262144
-1 -1;
#X obj 325 17 random 28;
#X obj 365 -2 t b b b b b;
#X obj 442 -1 random 200;
#X connect 1 0 0 0;
#X connect 2 0 0 0;
#X connect 3 0 0 0;
#X connect 4 0 0 0;
#X connect 5 0 0 0;
#X connect 6 0 0 0;
#X connect 7 0 0 0;
#X connect 8 0 0 0;
#X connect 9 0 0 0;
#X connect 10 0 0 0;
#X connect 11 0 0 0;
#X connect 12 0 0 0;
#X connect 13 0 12 0;
#X connect 13 0 11 0;
#X connect 13 0 10 0;
#X connect 13 0 9 0;
#X connect 13 0 8 0;
#X connect 13 0 7 0;
#X connect 13 0 6 0;
#X connect 13 0 5 0;
#X connect 13 0 4 0;
#X connect 13 0 3 0;
#X connect 13 0 2 0;
#X connect 13 0 1 0;
#X connect 14 0 1 0;
#X connect 14 1 3 0;
#X connect 15 0 1 0;
#X connect 15 1 5 0;
#X connect 16 0 1 0;
#X connect 16 1 7 0;
#X connect 17 0 1 0;
#X connect 17 1 9 0;
#X connect 18 0 1 0;
#X connect 18 1 11 0;
#X connect 19 0 3 0;
#X connect 19 1 5 0;
#X connect 20 0 3 0;
#X connect 20 1 7 0;
#X connect 21 0 3 0;
#X connect 21 1 9 0;
#X connect 22 0 3 0;
#X connect 22 1 11 0;
#X connect 23 0 5 0;
#X connect 23 1 7 0;
#X connect 24 0 5 0;
#X connect 24 1 9 0;
#X connect 25 0 9 0;
#X connect 25 1 11 0;
#X connect 26 0 7 0;
#X connect 26 1 9 0;
#X connect 27 0 7 0;
#X connect 27 1 11 0;
#X connect 28 0 9 0;
#X connect 28 1 11 0;
#X connect 29 0 39 1;
#X connect 30 0 39 1;
#X connect 31 0 33 0;
#X connect 31 1 29 0;
#X connect 32 0 42 0;
#X connect 33 0 37 0;
#X connect 34 0 37 0;
#X connect 35 0 39 0;
#X connect 36 0 31 0;
#X connect 37 0 32 1;
#X connect 38 0 2 0;
#X connect 38 1 4 0;
#X connect 38 2 6 0;
#X connect 38 3 8 0;
#X connect 38 4 10 0;
#X connect 38 5 12 0;
#X connect 39 0 14 0;
#X connect 39 1 15 0;
#X connect 39 2 16 0;
#X connect 39 3 17 0;
#X connect 39 4 18 0;
#X connect 39 5 19 0;
#X connect 39 6 20 0;
#X connect 39 7 21 0;
#X connect 39 8 22 0;
#X connect 39 9 23 0;
#X connect 39 10 24 0;
#X connect 39 11 25 0;
#X connect 39 12 26 0;
#X connect 39 13 27 0;
#X connect 39 14 28 0;
#X connect 39 15 1 0;
#X connect 39 16 2 0;
#X connect 39 17 3 0;
#X connect 39 18 4 0;
#X connect 39 19 5 0;
#X connect 39 20 6 0;
#X connect 39 21 7 0;
#X connect 39 22 8 0;
#X connect 39 23 9 0;
#X connect 39 24 10 0;
#X connect 39 25 11 0;
#X connect 39 26 12 0;
#X connect 39 27 38 0;
#X connect 40 0 32 0;
#X connect 41 0 35 0;
#X connect 42 0 30 0;
#X connect 42 1 36 0;
#X connect 42 2 41 0;
#X connect 42 3 34 0;
#X connect 42 4 43 0;
#X connect 43 0 36 1;
#X restore 123 44 pd tufs declencheur;
