#N canvas 313 135 830 461 10;
#X obj 104 114 bng 15 250 50 0 empty empty empty 17 7 0 10 -262144
-1 -1;
#X floatatom 103 212 5 0 0 0 - - -;
#X obj 104 177 counter 0 100;
#X msg 122 154 0;
#X msg 151 154 1;
#X text 122 137 up;
#X text 150 138 down;
#X floatatom 222 159 5 0 0 2 min - -;
#X floatatom 188 113 5 0 0 2 max - -;
#X obj 101 251 sel 0 100;
#X obj 104 79 inlet;
#X text -66 313 limites basses et hautes;
#X obj 265 190 bng 15 250 50 0 empty empty empty 17 7 0 10 -262144
-1 -1;
#X obj 265 145 r posmotor;
#X obj 259 241 spigot;
#X obj 292 218 tgl 15 0 empty empty empty 17 7 0 10 -262144 -1 -1 0
1;
#X msg 292 189 1;
#X msg -23 160 goto \$1;
#X obj 132 114 bng 15 250 50 0 empty empty up 3 -7 0 10 -262144 -1
-1;
#X obj 156 114 bng 15 250 50 0 empty empty down 1 -7 0 10 -262144 -1
-1;
#X obj 265 166 t b b b;
#X obj 351 182 del 500;
#X msg 351 201 0;
#X obj -23 139 + 1;
#X obj -23 116 r setmotor3;
#X obj 304 258 s posmotor3;
#X floatatom 225 113 5 0 0 0 - - -;
#X obj 101 369 outlet;
#X msg 136 339 2;
#X msg 101 339 1;
#X obj 101 296 t b b;
#X obj 146 295 t b b;
#X msg 182 340 0;
#X obj 182 369 outlet;
#X text -67 334 comment;
#X obj 144 77 inlet;
#X obj 193 76 inlet;
#X connect 0 0 2 0;
#X connect 1 0 9 0;
#X connect 1 0 14 0;
#X connect 1 0 26 0;
#X connect 2 0 1 0;
#X connect 3 0 2 1;
#X connect 4 0 2 1;
#X connect 7 0 2 2;
#X connect 8 0 2 4;
#X connect 9 0 3 0;
#X connect 9 0 30 0;
#X connect 9 1 4 0;
#X connect 9 1 31 0;
#X connect 10 0 0 0;
#X connect 12 0 1 0;
#X connect 13 0 20 0;
#X connect 14 0 25 0;
#X connect 15 0 14 1;
#X connect 16 0 15 0;
#X connect 17 0 2 0;
#X connect 18 0 3 0;
#X connect 19 0 4 0;
#X connect 20 0 12 0;
#X connect 20 1 16 0;
#X connect 20 2 21 0;
#X connect 21 0 22 0;
#X connect 22 0 15 0;
#X connect 23 0 17 0;
#X connect 24 0 23 0;
#X connect 28 0 27 0;
#X connect 29 0 27 0;
#X connect 30 0 29 0;
#X connect 30 1 32 0;
#X connect 31 0 28 0;
#X connect 31 1 32 0;
#X connect 32 0 33 0;
#X connect 35 0 18 0;
#X connect 36 0 19 0;
#X coords 0 -1 1 1 160 32 2 100 100;
