#N canvas 157 137 1160 625 10;
#X msg 26 297 1;
#X msg 57 299 0;
#X msg 113 296 1;
#X msg 144 298 0;
#X msg 205 294 1;
#X msg 236 296 0;
#X msg 296 294 1;
#X msg 327 296 0;
#X obj 26 161 cycle 4;
#X msg 26 140 reset;
#X msg 26 333 digital 2 \$1;
#X msg 113 332 digital 3 \$1;
#X msg 205 330 digital 4 \$1;
#X msg 296 330 digital 5 \$1;
#X obj 249 191 cycle 4;
#X msg 249 170 reset;
#X obj 102 103 tgl 15 0 empty empty empty 17 7 0 10 -262144 -1 -1 0
1;
#X obj 139 103 tgl 15 0 empty empty empty 17 7 0 10 -262144 -1 -1 0
1;
#X msg -190 176 set 0;
#X msg -148 176 set 1;
#X msg -107 177 set 2;
#X msg -66 176 set 3;
#X msg -194 206 set 0;
#X msg -152 206 set 1;
#X msg -111 206 set 2;
#X msg -70 206 set 3;
#X obj 57 278 del 20;
#X obj 144 277 del 20;
#X obj 236 275 del 20;
#X obj 327 275 del 20;
#X obj 26 372 outlet;
#X obj 26 260 t b b b;
#X obj 113 257 t b b b;
#X obj 205 255 t b b b;
#X obj 296 255 t b b b;
#X obj 385 146 sel 1;
#X obj 436 147 sel 1;
#X msg 385 186 0;
#X msg 436 187 1;
#X text 392 124 for counter;
#X obj 385 232 outlet;
#X obj 87 -50 inlet;
#X obj -76 306 outlet;
#X obj 10 63 del 3000;
#X obj -29 46 t b b;
#X msg 10 86 0;
#X msg -29 85 1;
#X obj -29 10 t b b;
#X obj 22 27 random 5000;
#X obj -29 -12 bng 15 250 50 0 empty empty empty 17 7 0 10 -262144
-1 -1;
#X obj -73 112 gate 2;
#X obj 325 63 del 3000;
#X obj 286 46 t b b;
#X msg 325 86 0;
#X msg 286 85 1;
#X obj 286 10 t b b;
#X obj 337 27 random 5000;
#X obj 286 -12 bng 15 250 50 0 empty empty empty 17 7 0 10 -262144
-1 -1;
#X obj 87 -29 gate 2;
#X obj 120 103 bng 15 250 50 0 empty empty empty 17 7 0 10 -262144
-1 -1;
#X text -31 -31 up;
#X text 313 -19 down;
#X obj 137 -49 inlet;
#X obj 249 149 metro 60;
#X obj 26 118 metro 60;
#X text 556 -17 recibe un bang por darle entre 0 y 5 secundas de funcionamento.
Cuando llega a 0 emopiez a subir y a 100 a bajar \, eso se cambia en
el counter.;
#X connect 0 0 10 0;
#X connect 1 0 10 0;
#X connect 2 0 11 0;
#X connect 3 0 11 0;
#X connect 4 0 12 0;
#X connect 5 0 12 0;
#X connect 6 0 13 0;
#X connect 7 0 13 0;
#X connect 8 0 18 0;
#X connect 8 0 31 0;
#X connect 8 1 19 0;
#X connect 8 1 32 0;
#X connect 8 2 20 0;
#X connect 8 2 33 0;
#X connect 8 3 21 0;
#X connect 8 3 34 0;
#X connect 9 0 8 0;
#X connect 10 0 30 0;
#X connect 11 0 30 0;
#X connect 12 0 30 0;
#X connect 13 0 30 0;
#X connect 14 0 25 0;
#X connect 14 0 34 0;
#X connect 14 1 24 0;
#X connect 14 1 33 0;
#X connect 14 2 23 0;
#X connect 14 2 32 0;
#X connect 14 3 22 0;
#X connect 14 3 31 0;
#X connect 15 0 14 0;
#X connect 16 0 35 0;
#X connect 16 0 64 0;
#X connect 17 0 36 0;
#X connect 17 0 63 0;
#X connect 18 0 14 0;
#X connect 19 0 14 0;
#X connect 20 0 14 0;
#X connect 21 0 14 0;
#X connect 22 0 8 0;
#X connect 23 0 8 0;
#X connect 24 0 8 0;
#X connect 25 0 8 0;
#X connect 26 0 1 0;
#X connect 27 0 3 0;
#X connect 28 0 5 0;
#X connect 29 0 7 0;
#X connect 31 0 0 0;
#X connect 31 1 26 0;
#X connect 31 2 42 0;
#X connect 32 0 2 0;
#X connect 32 1 27 0;
#X connect 32 2 42 0;
#X connect 33 0 4 0;
#X connect 33 1 28 0;
#X connect 33 2 42 0;
#X connect 34 0 6 0;
#X connect 34 1 29 0;
#X connect 34 2 42 0;
#X connect 35 0 37 0;
#X connect 36 0 38 0;
#X connect 37 0 40 0;
#X connect 38 0 40 0;
#X connect 41 0 58 0;
#X connect 43 0 45 0;
#X connect 44 0 46 0;
#X connect 44 1 43 0;
#X connect 45 0 16 0;
#X connect 46 0 16 0;
#X connect 47 0 44 0;
#X connect 47 1 48 0;
#X connect 48 0 43 1;
#X connect 49 0 47 0;
#X connect 51 0 53 0;
#X connect 52 0 54 0;
#X connect 52 1 51 0;
#X connect 53 0 17 0;
#X connect 54 0 17 0;
#X connect 55 0 52 0;
#X connect 55 1 56 0;
#X connect 56 0 51 1;
#X connect 57 0 55 0;
#X connect 58 0 49 0;
#X connect 58 1 57 0;
#X connect 59 0 58 1;
#X connect 62 0 17 0;
#X connect 62 0 16 0;
#X connect 63 0 15 0;
#X connect 64 0 9 0;
#X coords 0 -1 1 1 60 22 2 100 100;
