#N canvas 530 22 772 681 10;
#X obj 133 138 c.slider @size 10 50 @fontname Monaco @fontweight normal
@fontslant roman @fontsize 11 @idname mic1 @presetname slid1L @mode
0 @min 0 @max 1 @bgcolor 1 0.75 0.75 1 @bdcolor 0.5 0.5 0.5 1 @kncolor
0.5 0.5 0.5 1;
#X obj 148 138 c.slider @size 10 50 @fontname Monaco @fontweight normal
@fontslant roman @fontsize 11 @idname (null) @presetname slid1R @mode
0 @min 0 @max 1 @bgcolor 1 0.75 0.75 1 @bdcolor 0.5 0.5 0.5 1 @kncolor
0.5 0.5 0.5 1;
#X obj 133 198 c.slider @size 10 50 @fontname Monaco @fontweight normal
@fontslant roman @fontsize 11 @idname (null) @presetname slid2L @mode
0 @min 0 @max 1 @bgcolor 1 0.7 0.8 1 @bdcolor 0.5 0.5 0.5 1 @kncolor
0.5 0.5 0.5 1;
#X obj 148 198 c.slider @size 10 50 @fontname Monaco @fontweight normal
@fontslant roman @fontsize 11 @idname (null) @presetname slid2R @mode
0 @min 0 @max 1 @bgcolor 1 0.7 0.8 1 @bdcolor 0.5 0.5 0.5 1 @kncolor
0.5 0.5 0.5 1;
#X obj 174 198 c.slider @size 10 50 @fontname Monaco @fontweight normal
@fontslant roman @fontsize 11 @idname (null) @presetname slid10L @mode
0 @min 0 @max 1 @bgcolor 1 0.7 0.8 1 @bdcolor 0.5 0.5 0.5 1 @kncolor
0.5 0.5 0.5 1;
#X obj 189 198 c.slider @size 10 50 @fontname Monaco @fontweight normal
@fontslant roman @fontsize 11 @idname (null) @presetname slid10R @mode
0 @min 0 @max 1 @bgcolor 1 0.7 0.8 1 @bdcolor 0.5 0.5 0.5 1 @kncolor
0.5 0.5 0.5 1;
#X obj 215 198 c.slider @size 10 50 @fontname Monaco @fontweight normal
@fontslant roman @fontsize 11 @idname (null) @presetname slid18L @mode
0 @min 0 @max 1 @bgcolor 1 0.7 0.8 1 @bdcolor 0.5 0.5 0.5 1 @kncolor
0.5 0.5 0.5 1;
#X obj 230 198 c.slider @size 10 50 @fontname Monaco @fontweight normal
@fontslant roman @fontsize 11 @idname (null) @presetname slid18R @mode
0 @min 0 @max 1 @bgcolor 1 0.7 0.8 1 @bdcolor 0.5 0.5 0.5 1 @kncolor
0.5 0.5 0.5 1;
#X obj 133 258 c.slider @size 10 50 @fontname Monaco @fontweight normal
@fontslant roman @fontsize 11 @idname (null) @presetname slid3L @mode
0 @min 0 @max 1 @bgcolor 1 0.9 0.9 1 @bdcolor 0.5 0.5 0.5 1 @kncolor
0.5 0.5 0.5 1;
#X obj 148 258 c.slider @size 10 50 @fontname Monaco @fontweight normal
@fontslant roman @fontsize 11 @idname (null) @presetname slid3R @mode
0 @min 0 @max 1 @bgcolor 1 0.9 0.9 1 @bdcolor 0.5 0.5 0.5 1 @kncolor
0.5 0.5 0.5 1;
#X obj 174 258 c.slider @size 10 50 @fontname Monaco @fontweight normal
@fontslant roman @fontsize 11 @idname (null) @presetname slid11L @mode
0 @min 0 @max 1 @bgcolor 1 0.9 0.9 1 @bdcolor 0.5 0.5 0.5 1 @kncolor
0.5 0.5 0.5 1;
#X obj 189 258 c.slider @size 10 50 @fontname Monaco @fontweight normal
@fontslant roman @fontsize 11 @idname (null) @presetname slid11R @mode
0 @min 0 @max 1 @bgcolor 1 0.9 0.9 1 @bdcolor 0.5 0.5 0.5 1 @kncolor
0.5 0.5 0.5 1;
#X obj 215 258 c.slider @size 10 50 @fontname Monaco @fontweight normal
@fontslant roman @fontsize 11 @idname (null) @presetname slid19L @mode
0 @min 0 @max 1 @bgcolor 1 0.9 0.9 1 @bdcolor 0.5 0.5 0.5 1 @kncolor
0.5 0.5 0.5 1;
#X obj 230 258 c.slider @size 10 50 @fontname Monaco @fontweight normal
@fontslant roman @fontsize 11 @idname (null) @presetname slid19R @mode
0 @min 0 @max 1 @bgcolor 1 0.9 0.9 1 @bdcolor 0.5 0.5 0.5 1 @kncolor
0.5 0.5 0.5 1;
#X obj 134 320 c.slider @size 10 50 @fontname Monaco @fontweight normal
@fontslant roman @fontsize 11 @idname (null) @presetname slid4L @mode
0 @min 0 @max 1 @bgcolor 0.8 0.9 0.9 1 @bdcolor 0.5 0.5 0.5 1 @kncolor
0.5 0.5 0.5 1;
#X obj 149 320 c.slider @size 10 50 @fontname Monaco @fontweight normal
@fontslant roman @fontsize 11 @idname (null) @presetname slid4R @mode
0 @min 0 @max 1 @bgcolor 0.8 0.9 0.9 1 @bdcolor 0.5 0.5 0.5 1 @kncolor
0.5 0.5 0.5 1;
#X obj 175 320 c.slider @size 10 50 @fontname Monaco @fontweight normal
@fontslant roman @fontsize 11 @idname (null) @presetname slid12L @mode
0 @min 0 @max 1 @bgcolor 0.8 0.9 0.9 1 @bdcolor 0.5 0.5 0.5 1 @kncolor
0.5 0.5 0.5 1;
#X obj 190 320 c.slider @size 10 50 @fontname Monaco @fontweight normal
@fontslant roman @fontsize 11 @idname (null) @presetname slid12R @mode
0 @min 0 @max 1 @bgcolor 0.8 0.9 0.9 1 @bdcolor 0.5 0.5 0.5 1 @kncolor
0.5 0.5 0.5 1;
#X obj 216 320 c.slider @size 10 50 @fontname Monaco @fontweight normal
@fontslant roman @fontsize 11 @idname (null) @presetname slid20L @mode
0 @min 0 @max 1 @bgcolor 0.8 0.9 0.9 1 @bdcolor 0.5 0.5 0.5 1 @kncolor
0.5 0.5 0.5 1;
#X obj 231 320 c.slider @size 10 50 @fontname Monaco @fontweight normal
@fontslant roman @fontsize 11 @idname (null) @presetname slid20R @mode
0 @min 0 @max 1 @bgcolor 0.8 0.9 0.9 1 @bdcolor 0.5 0.5 0.5 1 @kncolor
0.5 0.5 0.5 1;
#X obj 134 380 c.slider @size 10 50 @fontname Monaco @fontweight normal
@fontslant roman @fontsize 11 @idname (null) @presetname slid5L @mode
0 @min 0 @max 1 @bgcolor 0.6 0.9 0.9 1 @bdcolor 0.5 0.5 0.5 1 @kncolor
0.5 0.5 0.5 1;
#X obj 149 380 c.slider @size 10 50 @fontname Monaco @fontweight normal
@fontslant roman @fontsize 11 @idname (null) @presetname slid5R @mode
0 @min 0 @max 1 @bgcolor 0.6 0.9 0.9 1 @bdcolor 0.5 0.5 0.5 1 @kncolor
0.5 0.5 0.5 1;
#X obj 175 380 c.slider @size 10 50 @fontname Monaco @fontweight normal
@fontslant roman @fontsize 11 @idname (null) @presetname slid13L @mode
0 @min 0 @max 1 @bgcolor 0.6 0.9 0.9 1 @bdcolor 0.5 0.5 0.5 1 @kncolor
0.5 0.5 0.5 1;
#X obj 190 380 c.slider @size 10 50 @fontname Monaco @fontweight normal
@fontslant roman @fontsize 11 @idname (null) @presetname slid13R @mode
0 @min 0 @max 1 @bgcolor 0.6 0.9 0.9 1 @bdcolor 0.5 0.5 0.5 1 @kncolor
0.5 0.5 0.5 1;
#X obj 216 380 c.slider @size 10 50 @fontname Monaco @fontweight normal
@fontslant roman @fontsize 11 @idname (null) @presetname slid21L @mode
0 @min 0 @max 1 @bgcolor 0.6 0.9 0.9 1 @bdcolor 0.5 0.5 0.5 1 @kncolor
0.5 0.5 0.5 1;
#X obj 231 380 c.slider @size 10 50 @fontname Monaco @fontweight normal
@fontslant roman @fontsize 11 @idname (null) @presetname slid21R @mode
0 @min 0 @max 1 @bgcolor 0.6 0.9 0.9 1 @bdcolor 0.5 0.5 0.5 1 @kncolor
0.5 0.5 0.5 1;
#X obj 134 440 c.slider @size 10 50 @fontname Monaco @fontweight normal
@fontslant roman @fontsize 11 @idname (null) @presetname slid6L @mode
0 @min 0 @max 1 @bgcolor 0.5 0.7 0.8 1 @bdcolor 0.5 0.5 0.5 1 @kncolor
0.5 0.5 0.5 1;
#X obj 149 440 c.slider @size 10 50 @fontname Monaco @fontweight normal
@fontslant roman @fontsize 11 @idname (null) @presetname slid6R @mode
0 @min 0 @max 1 @bgcolor 0.5 0.7 0.8 1 @bdcolor 0.5 0.5 0.5 1 @kncolor
0.5 0.5 0.5 1;
#X obj 175 440 c.slider @size 10 50 @fontname Monaco @fontweight normal
@fontslant roman @fontsize 11 @idname (null) @presetname slid14L @mode
0 @min 0 @max 1 @bgcolor 0.5 0.7 0.8 1 @bdcolor 0.5 0.5 0.5 1 @kncolor
0.5 0.5 0.5 1;
#X obj 190 440 c.slider @size 10 50 @fontname Monaco @fontweight normal
@fontslant roman @fontsize 11 @idname (null) @presetname slid14R @mode
0 @min 0 @max 1 @bgcolor 0.5 0.7 0.8 1 @bdcolor 0.5 0.5 0.5 1 @kncolor
0.5 0.5 0.5 1;
#X obj 216 440 c.slider @size 10 50 @fontname Monaco @fontweight normal
@fontslant roman @fontsize 11 @idname (null) @presetname slid22L @mode
0 @min 0 @max 1 @bgcolor 0.5 0.7 0.8 1 @bdcolor 0.5 0.5 0.5 1 @kncolor
0.5 0.5 0.5 1;
#X obj 231 440 c.slider @size 10 50 @fontname Monaco @fontweight normal
@fontslant roman @fontsize 11 @idname (null) @presetname slid22R @mode
0 @min 0 @max 1 @bgcolor 0.5 0.7 0.8 1 @bdcolor 0.5 0.5 0.5 1 @kncolor
0.5 0.5 0.5 1;
#X obj 133 499 c.slider @size 10 50 @fontname Monaco @fontweight normal
@fontslant roman @fontsize 11 @idname (null) @presetname slid7L @mode
0 @min 0 @max 1 @bgcolor 0.25 0.65 0.7 0.3 @bdcolor 0.5 0.5 0.5 1 @kncolor
0.5 0.5 0.5 1;
#X obj 148 499 c.slider @size 10 50 @fontname Monaco @fontweight normal
@fontslant roman @fontsize 11 @idname (null) @presetname slid7R @mode
0 @min 0 @max 1 @bgcolor 0.25 0.65 0.7 0.3 @bdcolor 0.5 0.5 0.5 1 @kncolor
0.5 0.5 0.5 1;
#X obj 174 499 c.slider @size 10 50 @fontname Monaco @fontweight normal
@fontslant roman @fontsize 11 @idname (null) @presetname slid15L @mode
0 @min 0 @max 1 @bgcolor 0.25 0.65 0.7 0.3 @bdcolor 0.5 0.5 0.5 1 @kncolor
0.5 0.5 0.5 1;
#X obj 189 499 c.slider @size 10 50 @fontname Monaco @fontweight normal
@fontslant roman @fontsize 11 @idname (null) @presetname slid15R @mode
0 @min 0 @max 1 @bgcolor 0.25 0.65 0.7 0.3 @bdcolor 0.5 0.5 0.5 1 @kncolor
0.5 0.5 0.5 1;
#X obj 215 499 c.slider @size 10 50 @fontname Monaco @fontweight normal
@fontslant roman @fontsize 11 @idname (null) @presetname slid23L @mode
0 @min 0 @max 1 @bgcolor 0.25 0.65 0.7 0.3 @bdcolor 0.5 0.5 0.5 1 @kncolor
0.5 0.5 0.5 1;
#X obj 230 499 c.slider @size 10 50 @fontname Monaco @fontweight normal
@fontslant roman @fontsize 11 @idname (null) @presetname slid23R @mode
0 @min 0 @max 1 @bgcolor 0.25 0.65 0.7 0.3 @bdcolor 0.5 0.5 0.5 1 @kncolor
0.5 0.5 0.5 1;
#X obj 133 559 c.slider @size 10 50 @fontname Monaco @fontweight normal
@fontslant roman @fontsize 11 @idname (null) @presetname slid8L @mode
0 @min 0 @max 1 @bgcolor 1 0.55 0.6 0 @bdcolor 0.5 0.5 0.5 1 @kncolor
0.5 0.5 0.5 1;
#X obj 148 559 c.slider @size 10 50 @fontname Monaco @fontweight normal
@fontslant roman @fontsize 11 @idname (null) @presetname slid8R @mode
0 @min 0 @max 1 @bgcolor 1 0.55 0.6 0 @bdcolor 0.5 0.5 0.5 1 @kncolor
0.5 0.5 0.5 1;
#X obj 174 559 c.slider @size 10 50 @fontname Monaco @fontweight normal
@fontslant roman @fontsize 11 @idname (null) @presetname slid16L @mode
0 @min 0 @max 1 @bgcolor 1 0.55 0.6 0 @bdcolor 0.5 0.5 0.5 1 @kncolor
0.5 0.5 0.5 1;
#X obj 189 559 c.slider @size 10 50 @fontname Monaco @fontweight normal
@fontslant roman @fontsize 11 @idname (null) @presetname slid16R @mode
0 @min 0 @max 1 @bgcolor 1 0.55 0.6 0 @bdcolor 0.5 0.5 0.5 1 @kncolor
0.5 0.5 0.5 1;
#X obj 215 559 c.slider @size 10 50 @fontname Monaco @fontweight normal
@fontslant roman @fontsize 11 @idname (null) @presetname slid24L @mode
0 @min 0 @max 1 @bgcolor 1 0.55 0.6 0 @bdcolor 0.5 0.5 0.5 1 @kncolor
0.5 0.5 0.5 1;
#X obj 230 559 c.slider @size 10 50 @fontname Monaco @fontweight normal
@fontslant roman @fontsize 11 @idname (null) @presetname slid24R @mode
0 @min 0 @max 1 @bgcolor 1 0.55 0.6 0 @bdcolor 0.5 0.5 0.5 1 @kncolor
0.5 0.5 0.5 1;
#X text 248 148 OUTDRY;
#X text 251 206 FREEVERB;
#X text 253 266 REVERB;
#X text 258 330 PITCH 1;
#X text 262 388 PITCH 2;
#X text 262 447 DELAY;
#X text 262 512 PEDAZOS;
#X text 261 571 DISTO;
#X obj 174 138 c.slider @size 10 50 @fontname Monaco @fontweight normal
@fontslant roman @fontsize 11 @idname (null) @presetname slid9L @mode
0 @min 0 @max 1 @bgcolor 1 0.75 0.75 1 @bdcolor 0.5 0.5 0.5 1 @kncolor
0.5 0.5 0.5 1;
#X obj 189 138 c.slider @size 10 50 @fontname Monaco @fontweight normal
@fontslant roman @fontsize 11 @idname (null) @presetname slid9R @mode
0 @min 0 @max 1 @bgcolor 1 0.75 0.75 1 @bdcolor 0.5 0.5 0.5 1 @kncolor
0.5 0.5 0.5 1;
#X obj 216 138 c.slider @size 10 50 @fontname Monaco @fontweight normal
@fontslant roman @fontsize 11 @idname mic1 @presetname slid17L @mode
0 @min 0 @max 1 @bgcolor 1 0.75 0.75 1 @bdcolor 0.5 0.5 0.5 1 @kncolor
0.5 0.5 0.5 1;
#X obj 231 138 c.slider @size 10 50 @fontname Monaco @fontweight normal
@fontslant roman @fontsize 11 @idname (null) @presetname slid17R @mode
0 @min 0 @max 1 @bgcolor 1 0.75 0.75 1 @bdcolor 0.5 0.5 0.5 1 @kncolor
0.5 0.5 0.5 1;
#X msg 311 132 0 0 \$1 100;
#X msg 312 151 0 1 \$1 100;
#X msg 312 200 0 2 \$1 100;
#X msg 313 219 0 3 \$1 100;
#X msg 313 261 0 4 \$1 100;
#X msg 314 280 0 5 \$1 100;
#X msg 313 322 0 6 \$1 100;
#X msg 313 341 0 7 \$1 100;
#X msg 313 381 0 8 \$1 100;
#X msg 313 400 0 9 \$1 100;
#X msg 312 443 0 10 \$1 100;
#X msg 312 462 0 11 \$1 100;
#X msg 312 506 0 12 \$1 100;
#X msg 312 525 0 13 \$1 100;
#X msg 312 564 0 14 \$1 100;
#X msg 312 583 0 15 \$1 100;
#X msg 396 132 1 0 \$1 100;
#X msg 397 151 1 1 \$1 100;
#X msg 398 200 1 2 \$1 100;
#X msg 399 219 1 3 \$1 100;
#X msg 398 261 1 4 \$1 100;
#X msg 399 280 1 5 \$1 100;
#X msg 398 322 1 6 \$1 100;
#X msg 398 341 1 7 \$1 100;
#X msg 398 381 1 8 \$1 100;
#X msg 398 400 1 9 \$1 100;
#X msg 397 443 1 10 \$1 100;
#X msg 397 462 1 11 \$1 100;
#X msg 397 506 1 12 \$1 100;
#X msg 397 525 1 13 \$1 100;
#X msg 397 564 1 14 \$1 100;
#X msg 397 583 1 15 \$1 100;
#X msg 479 131 2 0 \$1 100;
#X msg 480 152 2 1 \$1 100;
#X msg 488 199 2 2 \$1 100;
#X msg 489 218 2 3 \$1 100;
#X msg 488 260 2 4 \$1 100;
#X msg 489 279 2 5 \$1 100;
#X msg 488 321 2 6 \$1 100;
#X msg 488 340 2 7 \$1 100;
#X msg 488 380 2 8 \$1 100;
#X msg 488 399 2 9 \$1 100;
#X msg 487 442 2 10 \$1 100;
#X msg 487 461 2 11 \$1 100;
#X msg 487 505 2 12 \$1 100;
#X msg 487 524 2 13 \$1 100;
#X msg 487 563 2 14 \$1 100;
#X msg 487 583 2 15 \$1 100;
#X obj 669 397 s matrixescargot;
#X text 120 107 tufles;
#X text 172 108 air;
#N canvas 181 306 1031 539 20-save.me.mmb 0;
#X obj -1251 69 inlet;
#X obj -1210 69 inlet;
#X obj -1167 69 inlet;
#X obj -1126 69 inlet;
#X obj -1086 69 inlet;
#X obj -1045 69 inlet;
#X obj -1260 423 outlet;
#X obj -1215 423 outlet;
#X obj -1171 423 outlet;
#X obj -1126 423 outlet;
#X obj -1080 423 outlet;
#X obj -1035 423 outlet;
#X obj -1249 157 save.me.mmb esmAl1 escargot;
#X obj -1248 177 save.me.mmb esmAr1 escargot;
#X obj -1165 198 save.me.mmb esmBl1 escargot;
#X obj -1165 224 save.me.mmb esmBr1 escargot;
#X obj -1077 244 save.me.mmb esmCl1 escargot;
#X obj -1077 264 save.me.mmb esmCr1 escargot;
#X connect 0 0 12 0;
#X connect 1 0 13 0;
#X connect 2 0 14 0;
#X connect 3 0 15 0;
#X connect 4 0 16 0;
#X connect 5 0 17 0;
#X connect 12 0 6 0;
#X connect 13 0 7 0;
#X connect 14 0 8 0;
#X connect 15 0 9 0;
#X connect 16 0 10 0;
#X connect 17 0 11 0;
#X restore -65 156 pd 20-save.me.mmb .........;
#N canvas 289 195 1075 633 2-20-save.me.mmb 0;
#X obj -1251 69 inlet;
#X obj -1210 69 inlet;
#X obj -1167 69 inlet;
#X obj -1126 69 inlet;
#X obj -1086 69 inlet;
#X obj -1045 69 inlet;
#X obj -1260 423 outlet;
#X obj -1215 423 outlet;
#X obj -1171 423 outlet;
#X obj -1126 423 outlet;
#X obj -1080 423 outlet;
#X obj -1035 423 outlet;
#X obj -1249 158 save.me.mmb esmKl1 escargot;
#X obj -1248 177 save.me.mmb esmKr1 escargot;
#X obj -1165 204 save.me.mmb esmLl1 escargot;
#X obj -1165 224 save.me.mmb esmLr1 escargot;
#X obj -1077 244 save.me.mmb esmMl1 escargot;
#X obj -1077 264 save.me.mmb esmMr1 escargot;
#X connect 0 0 12 0;
#X connect 1 0 13 0;
#X connect 2 0 14 0;
#X connect 3 0 15 0;
#X connect 4 0 16 0;
#X connect 5 0 17 0;
#X connect 12 0 6 0;
#X connect 13 0 7 0;
#X connect 14 0 8 0;
#X connect 15 0 9 0;
#X connect 16 0 10 0;
#X connect 17 0 11 0;
#X restore -77 218 pd 2-20-save.me.mmb .........;
#N canvas 289 195 1031 539 3-20-save.me.mmb 0;
#X obj -1251 69 inlet;
#X obj -1210 69 inlet;
#X obj -1167 69 inlet;
#X obj -1126 69 inlet;
#X obj -1086 69 inlet;
#X obj -1045 69 inlet;
#X obj -1260 423 outlet;
#X obj -1215 423 outlet;
#X obj -1171 423 outlet;
#X obj -1126 423 outlet;
#X obj -1080 423 outlet;
#X obj -1035 423 outlet;
#X obj -1249 157 save.me.mmb esmAl2 escargot;
#X obj -1248 177 save.me.mmb esmAr2 escargot;
#X obj -1165 202 save.me.mmb esmBl2 escargot;
#X obj -1165 224 save.me.mmb esmBr2 escargot;
#X obj -1077 244 save.me.mmb esmCl2 escargot;
#X obj -1077 260 save.me.mmb esmCr2 escargot;
#X connect 0 0 12 0;
#X connect 1 0 13 0;
#X connect 2 0 14 0;
#X connect 3 0 15 0;
#X connect 4 0 16 0;
#X connect 5 0 17 0;
#X connect 12 0 6 0;
#X connect 13 0 7 0;
#X connect 14 0 8 0;
#X connect 15 0 9 0;
#X connect 16 0 10 0;
#X connect 17 0 11 0;
#X restore -81 269 pd 3-20-save.me.mmb .........;
#N canvas 280 369 1075 633 4-20-save.me.mmb 0;
#X obj -1251 69 inlet;
#X obj -1210 69 inlet;
#X obj -1167 69 inlet;
#X obj -1126 69 inlet;
#X obj -1086 69 inlet;
#X obj -1045 69 inlet;
#X obj -1260 423 outlet;
#X obj -1215 423 outlet;
#X obj -1171 423 outlet;
#X obj -1126 423 outlet;
#X obj -1080 423 outlet;
#X obj -1035 423 outlet;
#X obj -1249 157 save.me.mmb esmKl2 escargot;
#X obj -1248 177 save.me.mmb esmKr2 escargot;
#X obj -1165 204 save.me.mmb esmLl2 escargot;
#X obj -1165 224 save.me.mmb esmLr2 escargot;
#X obj -1077 244 save.me.mmb esmMl2 escargot;
#X obj -1077 264 save.me.mmb esmMr2 escargot;
#X connect 0 0 12 0;
#X connect 1 0 13 0;
#X connect 2 0 14 0;
#X connect 3 0 15 0;
#X connect 4 0 16 0;
#X connect 5 0 17 0;
#X connect 12 0 6 0;
#X connect 13 0 7 0;
#X connect 14 0 8 0;
#X connect 15 0 9 0;
#X connect 16 0 10 0;
#X connect 17 0 11 0;
#X restore -83 336 pd 4-20-save.me.mmb .........;
#N canvas 289 195 1031 539 20-save.me.mmb 0;
#X obj -1251 69 inlet;
#X obj -1210 69 inlet;
#X obj -1167 69 inlet;
#X obj -1126 69 inlet;
#X obj -1086 69 inlet;
#X obj -1045 69 inlet;
#X obj -1260 423 outlet;
#X obj -1215 423 outlet;
#X obj -1171 423 outlet;
#X obj -1126 423 outlet;
#X obj -1080 423 outlet;
#X obj -1035 423 outlet;
#X obj -1249 157 save.me.mmb esmAl3 escargot;
#X obj -1248 177 save.me.mmb esmAr3 escargot;
#X obj -1165 204 save.me.mmb esmBl3 escargot;
#X obj -1165 224 save.me.mmb esmBr3 escargot;
#X obj -1077 244 save.me.mmb esmCl3 escargot;
#X obj -1077 264 save.me.mmb esmCr3 escargot;
#X connect 0 0 12 0;
#X connect 1 0 13 0;
#X connect 2 0 14 0;
#X connect 3 0 15 0;
#X connect 4 0 16 0;
#X connect 5 0 17 0;
#X connect 12 0 6 0;
#X connect 13 0 7 0;
#X connect 14 0 8 0;
#X connect 15 0 9 0;
#X connect 16 0 10 0;
#X connect 17 0 11 0;
#X restore -77 397 pd 20-save.me.mmb .........;
#N canvas 289 195 1075 633 2-20-save.me.mmb 0;
#X obj -1251 69 inlet;
#X obj -1210 69 inlet;
#X obj -1167 69 inlet;
#X obj -1126 69 inlet;
#X obj -1086 69 inlet;
#X obj -1045 69 inlet;
#X obj -1260 423 outlet;
#X obj -1215 423 outlet;
#X obj -1171 423 outlet;
#X obj -1126 423 outlet;
#X obj -1080 423 outlet;
#X obj -1035 423 outlet;
#X obj -1249 157 save.me.mmb esmKl3 escargot;
#X obj -1248 177 save.me.mmb esmKr3 escargot;
#X obj -1165 204 save.me.mmb esmLl3 escargot;
#X obj -1165 224 save.me.mmb esmLr3 escargot;
#X obj -1077 243 save.me.mmb esmMl3 escargot;
#X obj -1077 264 save.me.mmb esmMr3 escargot;
#X connect 0 0 12 0;
#X connect 1 0 13 0;
#X connect 2 0 14 0;
#X connect 3 0 15 0;
#X connect 4 0 16 0;
#X connect 5 0 17 0;
#X connect 12 0 6 0;
#X connect 13 0 7 0;
#X connect 14 0 8 0;
#X connect 15 0 9 0;
#X connect 16 0 10 0;
#X connect 17 0 11 0;
#X restore -77 464 pd 2-20-save.me.mmb .........;
#N canvas 289 195 1031 539 3-20-save.me.mmb 0;
#X obj -1251 69 inlet;
#X obj -1210 69 inlet;
#X obj -1167 69 inlet;
#X obj -1126 69 inlet;
#X obj -1086 69 inlet;
#X obj -1045 69 inlet;
#X obj -1260 423 outlet;
#X obj -1215 423 outlet;
#X obj -1171 423 outlet;
#X obj -1126 423 outlet;
#X obj -1080 423 outlet;
#X obj -1035 423 outlet;
#X obj -1249 157 save.me.mmb esmAl4 escargot;
#X obj -1248 177 save.me.mmb esmAr4 escargot;
#X obj -1165 204 save.me.mmb esmBl4 escargot;
#X obj -1165 224 save.me.mmb esmBr4 escargot;
#X obj -1077 244 save.me.mmb esmCl4 escargot;
#X obj -1077 264 save.me.mmb esmCr4 escargot;
#X connect 0 0 12 0;
#X connect 1 0 13 0;
#X connect 2 0 14 0;
#X connect 3 0 15 0;
#X connect 4 0 16 0;
#X connect 5 0 17 0;
#X connect 12 0 6 0;
#X connect 13 0 7 0;
#X connect 14 0 8 0;
#X connect 15 0 9 0;
#X connect 16 0 10 0;
#X connect 17 0 11 0;
#X restore -79 522 pd 3-20-save.me.mmb .........;
#N canvas 289 195 1075 633 4-20-save.me.mmb 0;
#X obj -1251 69 inlet;
#X obj -1210 69 inlet;
#X obj -1167 69 inlet;
#X obj -1126 69 inlet;
#X obj -1086 69 inlet;
#X obj -1045 69 inlet;
#X obj -1260 423 outlet;
#X obj -1215 423 outlet;
#X obj -1171 423 outlet;
#X obj -1126 423 outlet;
#X obj -1080 423 outlet;
#X obj -1035 423 outlet;
#X obj -1249 157 save.me.mmb esmKl4 escargot;
#X obj -1248 177 save.me.mmb esmKr4 escargot;
#X obj -1165 204 save.me.mmb esmLl4 escargot;
#X obj -1165 224 save.me.mmb esmLr4 escargot;
#X obj -1077 244 save.me.mmb esmMl4 escargot;
#X obj -1077 264 save.me.mmb esmMr4 escargot;
#X connect 0 0 12 0;
#X connect 1 0 13 0;
#X connect 2 0 14 0;
#X connect 3 0 15 0;
#X connect 4 0 16 0;
#X connect 5 0 17 0;
#X connect 12 0 6 0;
#X connect 13 0 7 0;
#X connect 14 0 8 0;
#X connect 15 0 9 0;
#X connect 16 0 10 0;
#X connect 17 0 11 0;
#X restore -87 570 pd 4-20-save.me.mmb .........;
#X text 224 109 411;
#X connect 0 0 56 0;
#X connect 0 0 107 0;
#X connect 1 0 57 0;
#X connect 1 0 107 1;
#X connect 2 0 58 0;
#X connect 2 0 108 0;
#X connect 3 0 59 0;
#X connect 3 0 108 1;
#X connect 4 0 74 0;
#X connect 4 0 108 2;
#X connect 5 0 75 0;
#X connect 5 0 108 3;
#X connect 6 0 90 0;
#X connect 6 0 108 4;
#X connect 7 0 91 0;
#X connect 7 0 108 5;
#X connect 8 0 60 0;
#X connect 8 0 109 0;
#X connect 9 0 61 0;
#X connect 9 0 109 1;
#X connect 10 0 76 0;
#X connect 10 0 109 2;
#X connect 11 0 77 0;
#X connect 11 0 109 3;
#X connect 12 0 92 0;
#X connect 12 0 109 4;
#X connect 13 0 93 0;
#X connect 13 0 109 5;
#X connect 14 0 62 0;
#X connect 14 0 110 0;
#X connect 15 0 63 0;
#X connect 15 0 110 1;
#X connect 16 0 78 0;
#X connect 16 0 110 2;
#X connect 17 0 79 0;
#X connect 17 0 110 3;
#X connect 18 0 94 0;
#X connect 18 0 110 4;
#X connect 19 0 95 0;
#X connect 19 0 110 5;
#X connect 20 0 64 0;
#X connect 20 0 111 0;
#X connect 21 0 65 0;
#X connect 21 0 111 1;
#X connect 22 0 80 0;
#X connect 22 0 111 2;
#X connect 23 0 81 0;
#X connect 23 0 111 3;
#X connect 24 0 96 0;
#X connect 24 0 111 4;
#X connect 25 0 97 0;
#X connect 26 0 66 0;
#X connect 26 0 112 0;
#X connect 27 0 67 0;
#X connect 27 0 112 1;
#X connect 28 0 82 0;
#X connect 28 0 112 2;
#X connect 29 0 83 0;
#X connect 29 0 112 3;
#X connect 30 0 98 0;
#X connect 30 0 112 4;
#X connect 31 0 99 0;
#X connect 31 0 112 5;
#X connect 32 0 68 0;
#X connect 32 0 113 0;
#X connect 33 0 69 0;
#X connect 33 0 113 1;
#X connect 34 0 84 0;
#X connect 34 0 113 2;
#X connect 35 0 85 0;
#X connect 35 0 113 3;
#X connect 36 0 100 0;
#X connect 36 0 113 4;
#X connect 37 0 101 0;
#X connect 37 0 113 5;
#X connect 38 0 70 0;
#X connect 38 0 114 0;
#X connect 39 0 71 0;
#X connect 39 0 114 1;
#X connect 40 0 86 0;
#X connect 40 0 114 2;
#X connect 41 0 87 0;
#X connect 41 0 114 3;
#X connect 42 0 102 0;
#X connect 42 0 114 4;
#X connect 43 0 103 0;
#X connect 43 0 114 5;
#X connect 52 0 72 0;
#X connect 52 0 107 2;
#X connect 53 0 73 0;
#X connect 53 0 107 3;
#X connect 54 0 88 0;
#X connect 54 0 107 4;
#X connect 55 0 107 5;
#X connect 55 0 89 0;
#X connect 56 0 104 0;
#X connect 57 0 104 0;
#X connect 58 0 104 0;
#X connect 59 0 104 0;
#X connect 60 0 104 0;
#X connect 61 0 104 0;
#X connect 62 0 104 0;
#X connect 63 0 104 0;
#X connect 64 0 104 0;
#X connect 65 0 104 0;
#X connect 66 0 104 0;
#X connect 67 0 104 0;
#X connect 68 0 104 0;
#X connect 69 0 104 0;
#X connect 70 0 104 0;
#X connect 71 0 104 0;
#X connect 72 0 104 0;
#X connect 73 0 104 0;
#X connect 74 0 104 0;
#X connect 75 0 104 0;
#X connect 76 0 104 0;
#X connect 77 0 104 0;
#X connect 78 0 104 0;
#X connect 79 0 104 0;
#X connect 80 0 104 0;
#X connect 81 0 104 0;
#X connect 82 0 104 0;
#X connect 83 0 104 0;
#X connect 84 0 104 0;
#X connect 85 0 104 0;
#X connect 86 0 104 0;
#X connect 87 0 104 0;
#X connect 88 0 104 0;
#X connect 89 0 104 0;
#X connect 90 0 104 0;
#X connect 91 0 104 0;
#X connect 92 0 104 0;
#X connect 93 0 104 0;
#X connect 94 0 104 0;
#X connect 95 0 104 0;
#X connect 96 0 104 0;
#X connect 97 0 104 0;
#X connect 98 0 104 0;
#X connect 99 0 104 0;
#X connect 100 0 104 0;
#X connect 101 0 104 0;
#X connect 102 0 104 0;
#X connect 103 0 104 0;
#X connect 107 0 0 0;
#X connect 107 1 1 0;
#X connect 107 2 52 0;
#X connect 107 3 53 0;
#X connect 107 4 54 0;
#X connect 107 5 55 0;
#X connect 108 0 2 0;
#X connect 108 1 3 0;
#X connect 108 2 4 0;
#X connect 108 3 5 0;
#X connect 108 4 6 0;
#X connect 108 5 7 0;
#X connect 109 0 8 0;
#X connect 109 1 9 0;
#X connect 109 2 10 0;
#X connect 109 3 11 0;
#X connect 109 4 12 0;
#X connect 109 5 13 0;
#X connect 110 0 14 0;
#X connect 110 1 15 0;
#X connect 110 2 16 0;
#X connect 110 3 17 0;
#X connect 110 4 18 0;
#X connect 110 5 19 0;
#X connect 111 0 20 0;
#X connect 111 1 21 0;
#X connect 111 2 22 0;
#X connect 111 3 23 0;
#X connect 111 4 24 0;
#X connect 111 5 25 0;
#X connect 112 0 26 0;
#X connect 112 1 27 0;
#X connect 112 2 28 0;
#X connect 112 3 29 0;
#X connect 112 4 30 0;
#X connect 112 5 31 0;
#X connect 113 0 32 0;
#X connect 113 1 33 0;
#X connect 113 2 34 0;
#X connect 113 3 35 0;
#X connect 113 4 36 0;
#X connect 113 5 37 0;
#X connect 114 0 38 0;
#X connect 114 1 39 0;
#X connect 114 2 40 0;
#X connect 114 3 41 0;
#X connect 114 4 42 0;
#X connect 114 5 43 0;
#X coords 0 -1 1 1 210 520 2 100 100;
