#N canvas 513 22 1021 838 10;
#X obj 131 139 c.slider @size 10 50 @fontname Monaco @fontweight normal
@fontslant roman @fontsize 11 @idname mic1 @presetname slid1L @mode
0 @min 0 @max 1 @bgcolor 1 0.75 0.75 1 @bdcolor 0.5 0.5 0.5 1 @kncolor
0.5 0.5 0.5 1;
#X obj 146 139 c.slider @size 10 50 @fontname Monaco @fontweight normal
@fontslant roman @fontsize 11 @idname (null) @presetname slid1R @mode
0 @min 0 @max 1 @bgcolor 1 0.75 0.75 1 @bdcolor 0.5 0.5 0.5 1 @kncolor
0.5 0.5 0.5 1;
#X obj 182 255 c.slider @size 10 50 @fontname Monaco @fontweight normal
@fontslant roman @fontsize 11 @idname (null) @presetname slid10L @mode
0 @min 0 @max 1 @bgcolor 1 0.7 0.8 1 @bdcolor 0.5 0.5 0.5 1 @kncolor
0.5 0.5 0.5 1;
#X obj 197 255 c.slider @size 10 50 @fontname Monaco @fontweight normal
@fontslant roman @fontsize 11 @idname (null) @presetname slid10R @mode
0 @min 0 @max 1 @bgcolor 1 0.7 0.8 1 @bdcolor 0.5 0.5 0.5 1 @kncolor
0.5 0.5 0.5 1;
#X obj 231 255 c.slider @size 10 50 @fontname Monaco @fontweight normal
@fontslant roman @fontsize 11 @idname (null) @presetname slid18L @mode
0 @min 0 @max 1 @bgcolor 1 0.7 0.8 1 @bdcolor 0.5 0.5 0.5 1 @kncolor
0.5 0.5 0.5 1;
#X obj 246 255 c.slider @size 10 50 @fontname Monaco @fontweight normal
@fontslant roman @fontsize 11 @idname (null) @presetname slid18R @mode
0 @min 0 @max 1 @bgcolor 1 0.7 0.8 1 @bdcolor 0.5 0.5 0.5 1 @kncolor
0.5 0.5 0.5 1;
#X obj 132 315 c.slider @size 10 50 @fontname Monaco @fontweight normal
@fontslant roman @fontsize 11 @idname (null) @presetname slid3L @mode
0 @min 0 @max 1 @bgcolor 1 0.9 0.9 1 @bdcolor 0.5 0.5 0.5 1 @kncolor
0.5 0.5 0.5 1;
#X obj 147 315 c.slider @size 10 50 @fontname Monaco @fontweight normal
@fontslant roman @fontsize 11 @idname (null) @presetname slid3R @mode
0 @min 0 @max 1 @bgcolor 1 0.9 0.9 1 @bdcolor 0.5 0.5 0.5 1 @kncolor
0.5 0.5 0.5 1;
#X obj 231 315 c.slider @size 10 50 @fontname Monaco @fontweight normal
@fontslant roman @fontsize 11 @idname (null) @presetname slid19L @mode
0 @min 0 @max 1 @bgcolor 1 0.9 0.9 1 @bdcolor 0.5 0.5 0.5 1 @kncolor
0.5 0.5 0.5 1;
#X obj 246 315 c.slider @size 10 50 @fontname Monaco @fontweight normal
@fontslant roman @fontsize 11 @idname (null) @presetname slid19R @mode
0 @min 0 @max 1 @bgcolor 1 0.9 0.9 1 @bdcolor 0.5 0.5 0.5 1 @kncolor
0.5 0.5 0.5 1;
#X obj 133 377 c.slider @size 10 50 @fontname Monaco @fontweight normal
@fontslant roman @fontsize 11 @idname (null) @presetname slid4L @mode
0 @min 0 @max 1 @bgcolor 0.8 0.9 0.9 1 @bdcolor 0.5 0.5 0.5 1 @kncolor
0.5 0.5 0.5 1;
#X obj 148 377 c.slider @size 10 50 @fontname Monaco @fontweight normal
@fontslant roman @fontsize 11 @idname (null) @presetname slid4R @mode
0 @min 0 @max 1 @bgcolor 0.8 0.9 0.9 1 @bdcolor 0.5 0.5 0.5 1 @kncolor
0.5 0.5 0.5 1;
#X obj 183 377 c.slider @size 10 50 @fontname Monaco @fontweight normal
@fontslant roman @fontsize 11 @idname (null) @presetname slid12L @mode
0 @min 0 @max 1 @bgcolor 0.8 0.9 0.9 1 @bdcolor 0.5 0.5 0.5 1 @kncolor
0.5 0.5 0.5 1;
#X obj 198 377 c.slider @size 10 50 @fontname Monaco @fontweight normal
@fontslant roman @fontsize 11 @idname (null) @presetname slid12R @mode
0 @min 0 @max 1 @bgcolor 0.8 0.9 0.9 1 @bdcolor 0.5 0.5 0.5 1 @kncolor
0.5 0.5 0.5 1;
#X obj 133 437 c.slider @size 10 50 @fontname Monaco @fontweight normal
@fontslant roman @fontsize 11 @idname (null) @presetname slid5L @mode
0 @min 0 @max 1 @bgcolor 0.6 0.9 0.9 1 @bdcolor 0.5 0.5 0.5 1 @kncolor
0.5 0.5 0.5 1;
#X obj 148 437 c.slider @size 10 50 @fontname Monaco @fontweight normal
@fontslant roman @fontsize 11 @idname (null) @presetname slid5R @mode
0 @min 0 @max 1 @bgcolor 0.6 0.9 0.9 1 @bdcolor 0.5 0.5 0.5 1 @kncolor
0.5 0.5 0.5 1;
#X obj 183 437 c.slider @size 10 50 @fontname Monaco @fontweight normal
@fontslant roman @fontsize 11 @idname (null) @presetname slid13L @mode
0 @min 0 @max 1 @bgcolor 0.6 0.9 0.9 1 @bdcolor 0.5 0.5 0.5 1 @kncolor
0.5 0.5 0.5 1;
#X obj 198 437 c.slider @size 10 50 @fontname Monaco @fontweight normal
@fontslant roman @fontsize 11 @idname (null) @presetname slid13R @mode
0 @min 0 @max 1 @bgcolor 0.6 0.9 0.9 1 @bdcolor 0.5 0.5 0.5 1 @kncolor
0.5 0.5 0.5 1;
#X obj 232 437 c.slider @size 10 50 @fontname Monaco @fontweight normal
@fontslant roman @fontsize 11 @idname (null) @presetname slid21L @mode
0 @min 0 @max 1 @bgcolor 0.6 0.9 0.9 1 @bdcolor 0.5 0.5 0.5 1 @kncolor
0.5 0.5 0.5 1;
#X obj 247 437 c.slider @size 10 50 @fontname Monaco @fontweight normal
@fontslant roman @fontsize 11 @idname (null) @presetname slid21R @mode
0 @min 0 @max 1 @bgcolor 0.6 0.9 0.9 1 @bdcolor 0.5 0.5 0.5 1 @kncolor
0.5 0.5 0.5 1;
#X obj 133 497 c.slider @size 10 50 @fontname Monaco @fontweight normal
@fontslant roman @fontsize 11 @idname (null) @presetname slid6L @mode
0 @min 0 @max 1 @bgcolor 0.5 0.7 0.8 1 @bdcolor 0.5 0.5 0.5 1 @kncolor
0.5 0.5 0.5 1;
#X obj 148 497 c.slider @size 10 50 @fontname Monaco @fontweight normal
@fontslant roman @fontsize 11 @idname (null) @presetname slid6R @mode
0 @min 0 @max 1 @bgcolor 0.5 0.7 0.8 1 @bdcolor 0.5 0.5 0.5 1 @kncolor
0.5 0.5 0.5 1;
#X obj 183 497 c.slider @size 10 50 @fontname Monaco @fontweight normal
@fontslant roman @fontsize 11 @idname (null) @presetname slid14L @mode
0 @min 0 @max 1 @bgcolor 0.5 0.7 0.8 1 @bdcolor 0.5 0.5 0.5 1 @kncolor
0.5 0.5 0.5 1;
#X obj 198 497 c.slider @size 10 50 @fontname Monaco @fontweight normal
@fontslant roman @fontsize 11 @idname (null) @presetname slid14R @mode
0 @min 0 @max 1 @bgcolor 0.5 0.7 0.8 1 @bdcolor 0.5 0.5 0.5 1 @kncolor
0.5 0.5 0.5 1;
#X obj 232 497 c.slider @size 10 50 @fontname Monaco @fontweight normal
@fontslant roman @fontsize 11 @idname (null) @presetname slid22L @mode
0 @min 0 @max 1 @bgcolor 0.5 0.7 0.8 1 @bdcolor 0.5 0.5 0.5 1 @kncolor
0.5 0.5 0.5 1;
#X obj 247 497 c.slider @size 10 50 @fontname Monaco @fontweight normal
@fontslant roman @fontsize 11 @idname (null) @presetname slid22R @mode
0 @min 0 @max 1 @bgcolor 0.5 0.7 0.8 1 @bdcolor 0.5 0.5 0.5 1 @kncolor
0.5 0.5 0.5 1;
#X obj 132 556 c.slider @size 10 50 @fontname Monaco @fontweight normal
@fontslant roman @fontsize 11 @idname (null) @presetname slid7L @mode
0 @min 0 @max 1 @bgcolor 0.25 0.65 0.7 0.3 @bdcolor 0.5 0.5 0.5 1 @kncolor
0.5 0.5 0.5 1;
#X obj 147 556 c.slider @size 10 50 @fontname Monaco @fontweight normal
@fontslant roman @fontsize 11 @idname (null) @presetname slid7R @mode
0 @min 0 @max 1 @bgcolor 0.25 0.65 0.7 0.3 @bdcolor 0.5 0.5 0.5 1 @kncolor
0.5 0.5 0.5 1;
#X obj 182 556 c.slider @size 10 50 @fontname Monaco @fontweight normal
@fontslant roman @fontsize 11 @idname (null) @presetname slid15L @mode
0 @min 0 @max 1 @bgcolor 0.25 0.65 0.7 0.3 @bdcolor 0.5 0.5 0.5 1 @kncolor
0.5 0.5 0.5 1;
#X obj 197 556 c.slider @size 10 50 @fontname Monaco @fontweight normal
@fontslant roman @fontsize 11 @idname (null) @presetname slid15R @mode
0 @min 0 @max 1 @bgcolor 0.25 0.65 0.7 0.3 @bdcolor 0.5 0.5 0.5 1 @kncolor
0.5 0.5 0.5 1;
#X obj 231 556 c.slider @size 10 50 @fontname Monaco @fontweight normal
@fontslant roman @fontsize 11 @idname (null) @presetname slid23L @mode
0 @min 0 @max 1 @bgcolor 0.25 0.65 0.7 0.3 @bdcolor 0.5 0.5 0.5 1 @kncolor
0.5 0.5 0.5 1;
#X obj 246 556 c.slider @size 10 50 @fontname Monaco @fontweight normal
@fontslant roman @fontsize 11 @idname (null) @presetname slid23R @mode
0 @min 0 @max 1 @bgcolor 0.25 0.65 0.7 0.3 @bdcolor 0.5 0.5 0.5 1 @kncolor
0.5 0.5 0.5 1;
#X obj 132 616 c.slider @size 10 50 @fontname Monaco @fontweight normal
@fontslant roman @fontsize 11 @idname (null) @presetname slid8L @mode
0 @min 0 @max 1 @bgcolor 1 0.55 0.6 0 @bdcolor 0.5 0.5 0.5 1 @kncolor
0.5 0.5 0.5 1;
#X obj 147 616 c.slider @size 10 50 @fontname Monaco @fontweight normal
@fontslant roman @fontsize 11 @idname (null) @presetname slid8R @mode
0 @min 0 @max 1 @bgcolor 1 0.55 0.6 0 @bdcolor 0.5 0.5 0.5 1 @kncolor
0.5 0.5 0.5 1;
#X obj 182 616 c.slider @size 10 50 @fontname Monaco @fontweight normal
@fontslant roman @fontsize 11 @idname (null) @presetname slid16L @mode
0 @min 0 @max 1 @bgcolor 1 0.55 0.6 0 @bdcolor 0.5 0.5 0.5 1 @kncolor
0.5 0.5 0.5 1;
#X obj 197 616 c.slider @size 10 50 @fontname Monaco @fontweight normal
@fontslant roman @fontsize 11 @idname (null) @presetname slid16R @mode
0 @min 0 @max 1 @bgcolor 1 0.55 0.6 0 @bdcolor 0.5 0.5 0.5 1 @kncolor
0.5 0.5 0.5 1;
#X obj 231 616 c.slider @size 10 50 @fontname Monaco @fontweight normal
@fontslant roman @fontsize 11 @idname (null) @presetname slid24L @mode
0 @min 0 @max 1 @bgcolor 1 0.55 0.6 0 @bdcolor 0.5 0.5 0.5 1 @kncolor
0.5 0.5 0.5 1;
#X obj 246 616 c.slider @size 10 50 @fontname Monaco @fontweight normal
@fontslant roman @fontsize 11 @idname (null) @presetname slid24R @mode
0 @min 0 @max 1 @bgcolor 1 0.55 0.6 0 @bdcolor 0.5 0.5 0.5 1 @kncolor
0.5 0.5 0.5 1;
#X obj 180 139 c.slider @size 10 50 @fontname Monaco @fontweight normal
@fontslant roman @fontsize 11 @idname (null) @presetname slid9L @mode
0 @min 0 @max 1 @bgcolor 1 0.75 0.75 1 @bdcolor 0.5 0.5 0.5 1 @kncolor
0.5 0.5 0.5 1;
#X obj 195 139 c.slider @size 10 50 @fontname Monaco @fontweight normal
@fontslant roman @fontsize 11 @idname (null) @presetname slid9R @mode
0 @min 0 @max 1 @bgcolor 1 0.75 0.75 1 @bdcolor 0.5 0.5 0.5 1 @kncolor
0.5 0.5 0.5 1;
#X obj 229 139 c.slider @size 10 50 @fontname Monaco @fontweight normal
@fontslant roman @fontsize 11 @idname mic1 @presetname slid17L @mode
0 @min 0 @max 1 @bgcolor 1 0.75 0.75 1 @bdcolor 0.5 0.5 0.5 1 @kncolor
0.5 0.5 0.5 1;
#X obj 244 139 c.slider @size 10 50 @fontname Monaco @fontweight normal
@fontslant roman @fontsize 11 @idname (null) @presetname slid17R @mode
0 @min 0 @max 1 @bgcolor 1 0.75 0.75 1 @bdcolor 0.5 0.5 0.5 1 @kncolor
0.5 0.5 0.5 1;
#X text 106 110 freeverb;
#X text 168 110 reverb;
#X text 219 109 pitch1;
#X text 267 108 pitch 2;
#X obj 275 139 c.slider @size 10 50 @fontname Monaco @fontweight normal
@fontslant roman @fontsize 11 @idname mic1 @presetname s1l @mode 0
@min 0 @max 1 @bgcolor 1 0.75 0.75 1 @bdcolor 0.5 0.5 0.5 1 @kncolor
0.5 0.5 0.5 1;
#X obj 290 139 c.slider @size 10 50 @fontname Monaco @fontweight normal
@fontslant roman @fontsize 11 @idname (null) @presetname s1r @mode
0 @min 0 @max 1 @bgcolor 1 0.75 0.75 1 @bdcolor 0.5 0.5 0.5 1 @kncolor
0.5 0.5 0.5 1;
#X obj 278 255 c.slider @size 10 50 @fontname Monaco @fontweight normal
@fontslant roman @fontsize 11 @idname (null) @presetname s3l @mode
0 @min 0 @max 1 @bgcolor 1 0.7 0.8 1 @bdcolor 0.5 0.5 0.5 1 @kncolor
0.5 0.5 0.5 1;
#X obj 293 255 c.slider @size 10 50 @fontname Monaco @fontweight normal
@fontslant roman @fontsize 11 @idname (null) @presetname s3r @mode
0 @min 0 @max 1 @bgcolor 1 0.7 0.8 1 @bdcolor 0.5 0.5 0.5 1 @kncolor
0.5 0.5 0.5 1;
#X obj 327 255 c.slider @size 10 50 @fontname Monaco @fontweight normal
@fontslant roman @fontsize 11 @idname (null) @presetname s12l @mode
0 @min 0 @max 1 @bgcolor 1 0.7 0.8 1 @bdcolor 0.5 0.5 0.5 1 @kncolor
0.5 0.5 0.5 1;
#X obj 342 255 c.slider @size 10 50 @fontname Monaco @fontweight normal
@fontslant roman @fontsize 11 @idname (null) @presetname s12r @mode
0 @min 0 @max 1 @bgcolor 1 0.7 0.8 1 @bdcolor 0.5 0.5 0.5 1 @kncolor
0.5 0.5 0.5 1;
#X obj 377 255 c.slider @size 10 50 @fontname Monaco @fontweight normal
@fontslant roman @fontsize 11 @idname (null) @presetname s21l @mode
0 @min 0 @max 1 @bgcolor 1 0.7 0.8 1 @bdcolor 0.5 0.5 0.5 1 @kncolor
0.5 0.5 0.5 1;
#X obj 392 255 c.slider @size 10 50 @fontname Monaco @fontweight normal
@fontslant roman @fontsize 11 @idname (null) @presetname s21r @mode
0 @min 0 @max 1 @bgcolor 1 0.7 0.8 1 @bdcolor 0.5 0.5 0.5 1 @kncolor
0.5 0.5 0.5 1;
#X obj 278 315 c.slider @size 10 50 @fontname Monaco @fontweight normal
@fontslant roman @fontsize 11 @idname (null) @presetname s4l @mode
0 @min 0 @max 1 @bgcolor 1 0.9 0.9 1 @bdcolor 0.5 0.5 0.5 1 @kncolor
0.5 0.5 0.5 1;
#X obj 293 315 c.slider @size 10 50 @fontname Monaco @fontweight normal
@fontslant roman @fontsize 11 @idname (null) @presetname s4r @mode
0 @min 0 @max 1 @bgcolor 1 0.9 0.9 1 @bdcolor 0.5 0.5 0.5 1 @kncolor
0.5 0.5 0.5 1;
#X obj 327 315 c.slider @size 10 50 @fontname Monaco @fontweight normal
@fontslant roman @fontsize 11 @idname (null) @presetname s13l @mode
0 @min 0 @max 1 @bgcolor 1 0.9 0.9 1 @bdcolor 0.5 0.5 0.5 1 @kncolor
0.5 0.5 0.5 1;
#X obj 342 315 c.slider @size 10 50 @fontname Monaco @fontweight normal
@fontslant roman @fontsize 11 @idname (null) @presetname s13r @mode
0 @min 0 @max 1 @bgcolor 1 0.9 0.9 1 @bdcolor 0.5 0.5 0.5 1 @kncolor
0.5 0.5 0.5 1;
#X obj 377 315 c.slider @size 10 50 @fontname Monaco @fontweight normal
@fontslant roman @fontsize 11 @idname (null) @presetname s22l @mode
0 @min 0 @max 1 @bgcolor 1 0.9 0.9 1 @bdcolor 0.5 0.5 0.5 1 @kncolor
0.5 0.5 0.5 1;
#X obj 392 315 c.slider @size 10 50 @fontname Monaco @fontweight normal
@fontslant roman @fontsize 11 @idname (null) @presetname s22r @mode
0 @min 0 @max 1 @bgcolor 1 0.9 0.9 1 @bdcolor 0.5 0.5 0.5 1 @kncolor
0.5 0.5 0.5 1;
#X obj 279 377 c.slider @size 10 50 @fontname Monaco @fontweight normal
@fontslant roman @fontsize 11 @idname (null) @presetname s5l @mode
0 @min 0 @max 1 @bgcolor 0.8 0.9 0.9 1 @bdcolor 0.5 0.5 0.5 1 @kncolor
0.5 0.5 0.5 1;
#X obj 294 377 c.slider @size 10 50 @fontname Monaco @fontweight normal
@fontslant roman @fontsize 11 @idname (null) @presetname s5r @mode
0 @min 0 @max 1 @bgcolor 0.8 0.9 0.9 1 @bdcolor 0.5 0.5 0.5 1 @kncolor
0.5 0.5 0.5 1;
#X obj 328 377 c.slider @size 10 50 @fontname Monaco @fontweight normal
@fontslant roman @fontsize 11 @idname (null) @presetname s14l @mode
0 @min 0 @max 1 @bgcolor 0.8 0.9 0.9 1 @bdcolor 0.5 0.5 0.5 1 @kncolor
0.5 0.5 0.5 1;
#X obj 343 377 c.slider @size 10 50 @fontname Monaco @fontweight normal
@fontslant roman @fontsize 11 @idname (null) @presetname s14r @mode
0 @min 0 @max 1 @bgcolor 0.8 0.9 0.9 1 @bdcolor 0.5 0.5 0.5 1 @kncolor
0.5 0.5 0.5 1;
#X obj 378 377 c.slider @size 10 50 @fontname Monaco @fontweight normal
@fontslant roman @fontsize 11 @idname (null) @presetname s23l @mode
0 @min 0 @max 1 @bgcolor 0.8 0.9 0.9 1 @bdcolor 0.5 0.5 0.5 1 @kncolor
0.5 0.5 0.5 1;
#X obj 393 377 c.slider @size 10 50 @fontname Monaco @fontweight normal
@fontslant roman @fontsize 11 @idname (null) @presetname s23r @mode
0 @min 0 @max 1 @bgcolor 0.8 0.9 0.9 1 @bdcolor 0.5 0.5 0.5 1 @kncolor
0.5 0.5 0.5 1;
#X obj 328 437 c.slider @size 10 50 @fontname Monaco @fontweight normal
@fontslant roman @fontsize 11 @idname (null) @presetname s15l @mode
0 @min 0 @max 1 @bgcolor 0.6 0.9 0.9 1 @bdcolor 0.5 0.5 0.5 1 @kncolor
0.5 0.5 0.5 1;
#X obj 343 437 c.slider @size 10 50 @fontname Monaco @fontweight normal
@fontslant roman @fontsize 11 @idname (null) @presetname s15r @mode
0 @min 0 @max 1 @bgcolor 0.6 0.9 0.9 1 @bdcolor 0.5 0.5 0.5 1 @kncolor
0.5 0.5 0.5 1;
#X obj 378 437 c.slider @size 10 50 @fontname Monaco @fontweight normal
@fontslant roman @fontsize 11 @idname (null) @presetname s24l @mode
0 @min 0 @max 1 @bgcolor 0.6 0.9 0.9 1 @bdcolor 0.5 0.5 0.5 1 @kncolor
0.5 0.5 0.5 1;
#X obj 393 437 c.slider @size 10 50 @fontname Monaco @fontweight normal
@fontslant roman @fontsize 11 @idname (null) @presetname s24l @mode
0 @min 0 @max 1 @bgcolor 0.6 0.9 0.9 1 @bdcolor 0.5 0.5 0.5 1 @kncolor
0.5 0.5 0.5 1;
#X obj 279 497 c.slider @size 10 50 @fontname Monaco @fontweight normal
@fontslant roman @fontsize 11 @idname (null) @presetname s7l @mode
0 @min 0 @max 1 @bgcolor 0.5 0.7 0.8 1 @bdcolor 0.5 0.5 0.5 1 @kncolor
0.5 0.5 0.5 1;
#X obj 294 497 c.slider @size 10 50 @fontname Monaco @fontweight normal
@fontslant roman @fontsize 11 @idname (null) @presetname s7r @mode
0 @min 0 @max 1 @bgcolor 0.5 0.7 0.8 1 @bdcolor 0.5 0.5 0.5 1 @kncolor
0.5 0.5 0.5 1;
#X obj 378 497 c.slider @size 10 50 @fontname Monaco @fontweight normal
@fontslant roman @fontsize 11 @idname (null) @presetname s25l @mode
0 @min 0 @max 1 @bgcolor 0.5 0.7 0.8 1 @bdcolor 0.5 0.5 0.5 1 @kncolor
0.5 0.5 0.5 1;
#X obj 393 497 c.slider @size 10 50 @fontname Monaco @fontweight normal
@fontslant roman @fontsize 11 @idname (null) @presetname s25l @mode
0 @min 0 @max 1 @bgcolor 0.5 0.7 0.8 1 @bdcolor 0.5 0.5 0.5 1 @kncolor
0.5 0.5 0.5 1;
#X obj 278 556 c.slider @size 10 50 @fontname Monaco @fontweight normal
@fontslant roman @fontsize 11 @idname (null) @presetname s8l @mode
0 @min 0 @max 1 @bgcolor 0.25 0.65 0.7 0.3 @bdcolor 0.5 0.5 0.5 1 @kncolor
0.5 0.5 0.5 1;
#X obj 293 556 c.slider @size 10 50 @fontname Monaco @fontweight normal
@fontslant roman @fontsize 11 @idname (null) @presetname s8r @mode
0 @min 0 @max 1 @bgcolor 0.25 0.65 0.7 0.3 @bdcolor 0.5 0.5 0.5 1 @kncolor
0.5 0.5 0.5 1;
#X obj 327 556 c.slider @size 10 50 @fontname Monaco @fontweight normal
@fontslant roman @fontsize 11 @idname (null) @presetname s17l @mode
0 @min 0 @max 1 @bgcolor 0.25 0.65 0.7 0.3 @bdcolor 0.5 0.5 0.5 1 @kncolor
0.5 0.5 0.5 1;
#X obj 342 556 c.slider @size 10 50 @fontname Monaco @fontweight normal
@fontslant roman @fontsize 11 @idname (null) @presetname s17r @mode
0 @min 0 @max 1 @bgcolor 0.25 0.65 0.7 0.3 @bdcolor 0.5 0.5 0.5 1 @kncolor
0.5 0.5 0.5 1;
#X obj 278 616 c.slider @size 10 50 @fontname Monaco @fontweight normal
@fontslant roman @fontsize 11 @idname (null) @presetname s9l @mode
0 @min 0 @max 1 @bgcolor 1 0.55 0.6 0 @bdcolor 0.5 0.5 0.5 1 @kncolor
0.5 0.5 0.5 1;
#X obj 293 616 c.slider @size 10 50 @fontname Monaco @fontweight normal
@fontslant roman @fontsize 11 @idname (null) @presetname s9r @mode
0 @min 0 @max 1 @bgcolor 1 0.55 0.6 0 @bdcolor 0.5 0.5 0.5 1 @kncolor
0.5 0.5 0.5 1;
#X obj 327 616 c.slider @size 10 50 @fontname Monaco @fontweight normal
@fontslant roman @fontsize 11 @idname (null) @presetname s18l @mode
0 @min 0 @max 1 @bgcolor 1 0.55 0.6 0 @bdcolor 0.5 0.5 0.5 1 @kncolor
0.5 0.5 0.5 1;
#X obj 342 616 c.slider @size 10 50 @fontname Monaco @fontweight normal
@fontslant roman @fontsize 11 @idname (null) @presetname s18r @mode
0 @min 0 @max 1 @bgcolor 1 0.55 0.6 0 @bdcolor 0.5 0.5 0.5 1 @kncolor
0.5 0.5 0.5 1;
#X obj 377 616 c.slider @size 10 50 @fontname Monaco @fontweight normal
@fontslant roman @fontsize 11 @idname (null) @presetname s27l @mode
0 @min 0 @max 1 @bgcolor 1 0.55 0.6 0 @bdcolor 0.5 0.5 0.5 1 @kncolor
0.5 0.5 0.5 1;
#X obj 392 616 c.slider @size 10 50 @fontname Monaco @fontweight normal
@fontslant roman @fontsize 11 @idname (null) @presetname s27r @mode
0 @min 0 @max 1 @bgcolor 1 0.55 0.6 0 @bdcolor 0.5 0.5 0.5 1 @kncolor
0.5 0.5 0.5 1;
#X obj 324 139 c.slider @size 10 50 @fontname Monaco @fontweight normal
@fontslant roman @fontsize 11 @idname s10l @presetname slid1L @mode
0 @min 0 @max 1 @bgcolor 1 0.75 0.75 1 @bdcolor 0.5 0.5 0.5 1 @kncolor
0.5 0.5 0.5 1;
#X obj 339 139 c.slider @size 10 50 @fontname Monaco @fontweight normal
@fontslant roman @fontsize 11 @idname (null) @presetname s10r @mode
0 @min 0 @max 1 @bgcolor 1 0.75 0.75 1 @bdcolor 0.5 0.5 0.5 1 @kncolor
0.5 0.5 0.5 1;
#X obj 375 139 c.slider @size 10 50 @fontname Monaco @fontweight normal
@fontslant roman @fontsize 11 @idname mic1 @presetname s19l @mode 0
@min 0 @max 1 @bgcolor 1 0.75 0.75 1 @bdcolor 0.5 0.5 0.5 1 @kncolor
0.5 0.5 0.5 1;
#X obj 390 139 c.slider @size 10 50 @fontname Monaco @fontweight normal
@fontslant roman @fontsize 11 @idname (null) @presetname s19r @mode
0 @min 0 @max 1 @bgcolor 1 0.75 0.75 1 @bdcolor 0.5 0.5 0.5 1 @kncolor
0.5 0.5 0.5 1;
#X obj 131 197 c.slider @size 10 50 @fontname Monaco @fontweight normal
@fontslant roman @fontsize 11 @idname mic1 @presetname slidB1L @mode
0 @min 0 @max 1 @bgcolor 1 0.75 0.75 1 @bdcolor 0.5 0.5 0.5 1 @kncolor
0.5 0.5 0.5 1;
#X obj 147 197 c.slider @size 10 50 @fontname Monaco @fontweight normal
@fontslant roman @fontsize 11 @idname (null) @presetname slidB1R @mode
0 @min 0 @max 1 @bgcolor 1 0.75 0.75 1 @bdcolor 0.5 0.5 0.5 1 @kncolor
0.5 0.5 0.5 1;
#X obj 181 197 c.slider @size 10 50 @fontname Monaco @fontweight normal
@fontslant roman @fontsize 11 @idname (null) @presetname slid9BL @mode
0 @min 0 @max 1 @bgcolor 1 0.75 0.75 1 @bdcolor 0.5 0.5 0.5 1 @kncolor
0.5 0.5 0.5 1;
#X obj 196 197 c.slider @size 10 50 @fontname Monaco @fontweight normal
@fontslant roman @fontsize 11 @idname (null) @presetname slidB9R @mode
0 @min 0 @max 1 @bgcolor 1 0.75 0.75 1 @bdcolor 0.5 0.5 0.5 1 @kncolor
0.5 0.5 0.5 1;
#X obj 230 197 c.slider @size 10 50 @fontname Monaco @fontweight normal
@fontslant roman @fontsize 11 @idname (null) @presetname slidB17L @mode
0 @min 0 @max 1 @bgcolor 1 0.75 0.75 1 @bdcolor 0.5 0.5 0.5 1 @kncolor
0.5 0.5 0.5 1;
#X obj 245 197 c.slider @size 10 50 @fontname Monaco @fontweight normal
@fontslant roman @fontsize 11 @idname (null) @presetname slidB17R @mode
0 @min 0 @max 1 @bgcolor 1 0.75 0.75 1 @bdcolor 0.5 0.5 0.5 1 @kncolor
0.5 0.5 0.5 1;
#X obj 276 197 c.slider @size 10 50 @fontname Monaco @fontweight normal
@fontslant roman @fontsize 11 @idname mic1 @presetname s2l @mode 0
@min 0 @max 1 @bgcolor 1 0.75 0.75 1 @bdcolor 0.5 0.5 0.5 1 @kncolor
0.5 0.5 0.5 1;
#X obj 291 197 c.slider @size 10 50 @fontname Monaco @fontweight normal
@fontslant roman @fontsize 11 @idname (null) @presetname s2r @mode
0 @min 0 @max 1 @bgcolor 1 0.75 0.75 1 @bdcolor 0.5 0.5 0.5 1 @kncolor
0.5 0.5 0.5 1;
#X obj 325 197 c.slider @size 10 50 @fontname Monaco @fontweight normal
@fontslant roman @fontsize 11 @idname (null) @presetname s11l @mode
0 @min 0 @max 1 @bgcolor 1 0.75 0.75 1 @bdcolor 0.5 0.5 0.5 1 @kncolor
0.5 0.5 0.5 1;
#X obj 340 197 c.slider @size 10 50 @fontname Monaco @fontweight normal
@fontslant roman @fontsize 11 @idname (null) @presetname s11r @mode
0 @min 0 @max 1 @bgcolor 1 0.75 0.75 1 @bdcolor 0.5 0.5 0.5 1 @kncolor
0.5 0.5 0.5 1;
#X obj 376 197 c.slider @size 10 50 @fontname Monaco @fontweight normal
@fontslant roman @fontsize 11 @idname mic1 @presetname s20l @mode 0
@min 0 @max 1 @bgcolor 1 0.75 0.75 1 @bdcolor 0.5 0.5 0.5 1 @kncolor
0.5 0.5 0.5 1;
#X obj 391 197 c.slider @size 10 50 @fontname Monaco @fontweight normal
@fontslant roman @fontsize 11 @idname (null) @presetname s20r @mode
0 @min 0 @max 1 @bgcolor 1 0.75 0.75 1 @bdcolor 0.5 0.5 0.5 1 @kncolor
0.5 0.5 0.5 1;
#X text 322 108 delay;
#X obj 433 255 c.slider @size 10 50 @fontname Monaco @fontweight normal
@fontslant roman @fontsize 11 @idname (null) @presetname s31l @mode
0 @min 0 @max 1 @bgcolor 1 0.7 0.8 1 @bdcolor 0.5 0.5 0.5 1 @kncolor
0.5 0.5 0.5 1;
#X obj 448 255 c.slider @size 10 50 @fontname Monaco @fontweight normal
@fontslant roman @fontsize 11 @idname (null) @presetname s31r @mode
0 @min 0 @max 1 @bgcolor 1 0.7 0.8 1 @bdcolor 0.5 0.5 0.5 1 @kncolor
0.5 0.5 0.5 1;
#X obj 433 315 c.slider @size 10 50 @fontname Monaco @fontweight normal
@fontslant roman @fontsize 11 @idname (null) @presetname s32l @mode
0 @min 0 @max 1 @bgcolor 1 0.9 0.9 1 @bdcolor 0.5 0.5 0.5 1 @kncolor
0.5 0.5 0.5 1;
#X obj 448 315 c.slider @size 10 50 @fontname Monaco @fontweight normal
@fontslant roman @fontsize 11 @idname (null) @presetname s32r @mode
0 @min 0 @max 1 @bgcolor 1 0.9 0.9 1 @bdcolor 0.5 0.5 0.5 1 @kncolor
0.5 0.5 0.5 1;
#X obj 434 377 c.slider @size 10 50 @fontname Monaco @fontweight normal
@fontslant roman @fontsize 11 @idname (null) @presetname s33l @mode
0 @min 0 @max 1 @bgcolor 0.8 0.9 0.9 1 @bdcolor 0.5 0.5 0.5 1 @kncolor
0.5 0.5 0.5 1;
#X obj 449 377 c.slider @size 10 50 @fontname Monaco @fontweight normal
@fontslant roman @fontsize 11 @idname (null) @presetname s33r @mode
0 @min 0 @max 1 @bgcolor 0.8 0.9 0.9 1 @bdcolor 0.5 0.5 0.5 1 @kncolor
0.5 0.5 0.5 1;
#X obj 434 437 c.slider @size 10 50 @fontname Monaco @fontweight normal
@fontslant roman @fontsize 11 @idname (null) @presetname s34l @mode
0 @min 0 @max 1 @bgcolor 0.6 0.9 0.9 1 @bdcolor 0.5 0.5 0.5 1 @kncolor
0.5 0.5 0.5 1;
#X obj 449 437 c.slider @size 10 50 @fontname Monaco @fontweight normal
@fontslant roman @fontsize 11 @idname (null) @presetname s34r @mode
0 @min 0 @max 1 @bgcolor 0.6 0.9 0.9 1 @bdcolor 0.5 0.5 0.5 1 @kncolor
0.5 0.5 0.5 1;
#X obj 434 497 c.slider @size 10 50 @fontname Monaco @fontweight normal
@fontslant roman @fontsize 11 @idname (null) @presetname s35l @mode
0 @min 0 @max 1 @bgcolor 0.5 0.7 0.8 1 @bdcolor 0.5 0.5 0.5 1 @kncolor
0.5 0.5 0.5 1;
#X obj 449 497 c.slider @size 10 50 @fontname Monaco @fontweight normal
@fontslant roman @fontsize 11 @idname (null) @presetname s35r @mode
0 @min 0 @max 1 @bgcolor 0.5 0.7 0.8 1 @bdcolor 0.5 0.5 0.5 1 @kncolor
0.5 0.5 0.5 1;
#X obj 433 556 c.slider @size 10 50 @fontname Monaco @fontweight normal
@fontslant roman @fontsize 11 @idname (null) @presetname s36l @mode
0 @min 0 @max 1 @bgcolor 0.25 0.65 0.7 0.3 @bdcolor 0.5 0.5 0.5 1 @kncolor
0.5 0.5 0.5 1;
#X obj 448 556 c.slider @size 10 50 @fontname Monaco @fontweight normal
@fontslant roman @fontsize 11 @idname (null) @presetname s36r @mode
0 @min 0 @max 1 @bgcolor 0.25 0.65 0.7 0.3 @bdcolor 0.5 0.5 0.5 1 @kncolor
0.5 0.5 0.5 1;
#X obj 431 139 c.slider @size 10 50 @fontname Monaco @fontweight normal
@fontslant roman @fontsize 11 @idname (null) @presetname s28l @mode
0 @min 0 @max 1 @bgcolor 1 0.75 0.75 1 @bdcolor 0.5 0.5 0.5 1 @kncolor
0.5 0.5 0.5 1;
#X obj 446 139 c.slider @size 10 50 @fontname Monaco @fontweight normal
@fontslant roman @fontsize 11 @idname (null) @presetname s29r @mode
0 @min 0 @max 1 @bgcolor 1 0.75 0.75 1 @bdcolor 0.5 0.5 0.5 1 @kncolor
0.5 0.5 0.5 1;
#X obj 432 197 c.slider @size 10 50 @fontname Monaco @fontweight normal
@fontslant roman @fontsize 11 @idname mic1 @presetname s30l @mode 0
@min 0 @max 1 @bgcolor 1 0.75 0.75 1 @bdcolor 0.5 0.5 0.5 1 @kncolor
0.5 0.5 0.5 1;
#X obj 447 197 c.slider @size 10 50 @fontname Monaco @fontweight normal
@fontslant roman @fontsize 11 @idname (null) @presetname s30r @mode
0 @min 0 @max 1 @bgcolor 1 0.75 0.75 1 @bdcolor 0.5 0.5 0.5 1 @kncolor
0.5 0.5 0.5 1;
#X text 426 109 disto;
#X text 475 148 OUTFX 1;
#X text 476 211 OUTFX 2;
#X text 475 271 FREEVERB;
#X text 483 328 REVERB;
#X text 481 390 PITCH 1;
#X text 480 445 PITCH 2;
#X text 482 509 DELAY;
#X text 486 632 DISTO;
#X msg 540 140 3 16 \$1 100;
#X msg 540 161 4 17 \$1 100;
#X msg 540 196 3 18 \$1 100;
#X msg 540 217 4 19 \$1 100;
#X msg 541 320 3 4 \$1 100;
#X msg 541 341 4 5 \$1 100;
#X msg 541 376 3 6 \$1 100;
#X msg 541 397 4 7 \$1 100;
#X msg 541 435 3 8 \$1 100;
#X msg 541 456 4 9 \$1 100;
#X msg 541 490 3 10 \$1 100;
#X msg 541 512 4 11 \$1 100;
#X msg 543 559 3 12 \$1 100;
#X msg 543 580 4 13 \$1 100;
#X msg 543 614 3 14 \$1 100;
#X msg 543 636 4 15 \$1 100;
#X msg 623 140 5 16 \$1 100;
#X msg 623 162 6 17 \$1 100;
#X msg 623 197 5 18 \$1 100;
#X msg 623 218 6 19 \$1 100;
#X msg 624 253 5 2 \$1 100;
#X msg 624 274 6 3 \$1 100;
#X msg 624 377 5 6 \$1 100;
#X msg 624 398 6 7 \$1 100;
#X msg 624 436 5 8 \$1 100;
#X msg 624 457 6 9 \$1 100;
#X msg 624 491 5 10 \$1 100;
#X msg 624 513 6 11 \$1 100;
#X msg 626 560 5 12 \$1 100;
#X msg 626 581 6 13 \$1 100;
#X msg 626 615 5 14 \$1 100;
#X msg 626 637 6 15 \$1 100;
#X msg 706 140 7 16 \$1 100;
#X msg 706 161 8 17 \$1 100;
#X msg 706 196 7 18 \$1 100;
#X msg 706 217 8 19 \$1 100;
#X msg 707 252 7 2 \$1 100;
#X msg 707 273 8 3 \$1 100;
#X msg 706 320 7 4 \$1 100;
#X msg 706 341 8 5 \$1 100;
#X msg 707 435 7 8 \$1 100;
#X msg 707 456 8 9 \$1 100;
#X msg 707 490 7 10 \$1 100;
#X msg 707 512 8 11 \$1 100;
#X msg 709 559 7 12 \$1 100;
#X msg 709 580 8 13 \$1 100;
#X msg 709 614 7 14 \$1 100;
#X msg 709 636 8 15 \$1 100;
#X msg 788 140 9 16 \$1 100;
#X msg 788 161 10 17 \$1 100;
#X msg 788 196 9 18 \$1 100;
#X msg 788 217 10 19 \$1 100;
#X msg 789 252 9 2 \$1 100;
#X msg 789 273 10 3 \$1 100;
#X msg 788 320 9 4 \$1 100;
#X msg 788 341 10 5 \$1 100;
#X msg 790 377 9 6 \$1 100;
#X msg 790 398 10 7 \$1 100;
#X msg 789 490 9 10 \$1 100;
#X msg 789 512 10 11 \$1 100;
#X msg 791 559 9 12 \$1 100;
#X msg 791 580 10 13 \$1 100;
#X msg 791 614 9 14 \$1 100;
#X msg 791 636 10 15 \$1 100;
#X msg 875 140 11 16 \$1 100;
#X msg 875 161 12 17 \$1 100;
#X msg 875 196 11 18 \$1 100;
#X msg 875 217 12 19 \$1 100;
#X msg 876 252 11 2 \$1 100;
#X msg 876 273 12 3 \$1 100;
#X msg 875 320 11 4 \$1 100;
#X msg 875 341 12 5 \$1 100;
#X msg 877 377 11 6 \$1 100;
#X msg 877 398 12 7 \$1 100;
#X msg 876 436 11 8 \$1 100;
#X msg 876 458 12 9 \$1 100;
#X msg 878 559 11 12 \$1 100;
#X msg 878 580 12 13 \$1 100;
#X msg 878 614 11 14 \$1 100;
#X msg 878 636 12 15 \$1 100;
#X msg 960 140 13 16 \$1 100;
#X msg 960 161 14 17 \$1 100;
#X msg 960 196 13 18 \$1 100;
#X msg 960 217 14 19 \$1 100;
#X msg 961 252 13 2 \$1 100;
#X msg 961 273 14 3 \$1 100;
#X msg 960 320 13 4 \$1 100;
#X msg 960 341 14 5 \$1 100;
#X msg 962 377 13 6 \$1 100;
#X msg 962 398 14 7 \$1 100;
#X msg 961 436 13 8 \$1 100;
#X msg 961 458 14 9 \$1 100;
#X msg 961 490 13 10 \$1 100;
#X msg 961 511 14 11 \$1 100;
#X msg 963 614 13 14 \$1 100;
#X msg 963 636 14 15 \$1 100;
#X msg 1046 140 15 16 \$1 100;
#X msg 1046 161 16 17 \$1 100;
#X msg 1046 196 15 18 \$1 100;
#X msg 1046 217 16 19 \$1 100;
#X msg 1047 252 15 2 \$1 100;
#X msg 1047 273 16 3 \$1 100;
#X msg 1046 320 15 4 \$1 100;
#X msg 1046 341 16 5 \$1 100;
#X msg 1048 377 15 6 \$1 100;
#X msg 1048 398 16 7 \$1 100;
#X msg 1047 436 15 8 \$1 100;
#X msg 1047 458 16 9 \$1 100;
#X msg 1047 490 15 10 \$1 100;
#X msg 1049 512 16 11 \$1 100;
#X msg 1050 560 15 12 \$1 100;
#X msg 1050 582 16 13 \$1 100;
#X text 368 108 equa;
#X text 482 570 EQUA;
#X obj 1103 654 s matrixdistrib2;
#X obj -997 147 save.me.mmb Al1 distrib;
#X obj -996 167 save.me.mmb Ar1 distrib;
#X obj -996 193 save.me.mmb Bl1 distrib;
#X obj -996 213 save.me.mmb Br1 distrib;
#X obj -998 326 save.me.mmb Cl1 distrib;
#X obj -998 346 save.me.mmb Cr1 distrib;
#X obj -998 380 save.me.mmb Dl1 distrib;
#X obj -999 401 save.me.mmb Dr1 distrib;
#X obj -999 439 save.me.mmb El1 distrib;
#X obj -999 460 save.me.mmb Er1 distrib;
#X obj -999 501 save.me.mmb Fl1 distrib;
#X obj -999 521 save.me.mmb Fr1 distrib;
#X obj -1001 558 save.me.mmb Gl1 distrib;
#X obj -1000 582 save.me.mmb Gr1 distrib;
#X obj -1001 625 save.me.mmb Hl1 distrib;
#X obj -1001 646 save.me.mmb Hr1 distrib;
#X obj -851 147 save.me.mmb Il1 distrib;
#X obj -850 167 save.me.mmb Ir1 distrib;
#X obj -850 193 save.me.mmb Jl1 distrib;
#X obj -850 213 save.me.mmb Jr1 distrib;
#X obj -852 253 save.me.mmb Kl1 distrib;
#X obj -852 273 save.me.mmb Kr1 distrib;
#X obj -852 380 save.me.mmb Ll1 distrib;
#X obj -853 401 save.me.mmb Lr1 distrib;
#X obj -853 439 save.me.mmb Ml1 distrib;
#X obj -853 460 save.me.mmb Mr1 distrib;
#X obj -853 501 save.me.mmb Nl1 distrib;
#X obj -853 521 save.me.mmb Nr1 distrib;
#X obj -855 558 save.me.mmb Ol1 distrib;
#X obj -854 582 save.me.mmb Or1 distrib;
#X obj -855 625 save.me.mmb Pl1 distrib;
#X obj -855 646 save.me.mmb Pr1 distrib;
#X obj -688 147 save.me.mmb Al2 distrib;
#X obj -687 167 save.me.mmb Ar2 distrib;
#X obj -687 193 save.me.mmb Bl2 distrib;
#X obj -687 213 save.me.mmb Br2 distrib;
#X obj -689 253 save.me.mmb Cl2 distrib;
#X obj -689 273 save.me.mmb Cr2 distrib;
#X obj -689 307 save.me.mmb Dl2 distrib;
#X obj -690 328 save.me.mmb Dr2 distrib;
#X obj -690 439 save.me.mmb El2 distrib;
#X obj -690 460 save.me.mmb Er2 distrib;
#X obj -690 501 save.me.mmb Fl2 distrib;
#X obj -690 521 save.me.mmb Fr2 distrib;
#X obj -692 558 save.me.mmb Gl2 distrib;
#X obj -691 582 save.me.mmb Gr2 distrib;
#X obj -692 625 save.me.mmb Hl2 distrib;
#X obj -692 646 save.me.mmb Hr2 distrib;
#X obj -529 147 save.me.mmb Il2 distrib;
#X obj -528 167 save.me.mmb Ir2 distrib;
#X obj -528 193 save.me.mmb Jl2 distrib;
#X obj -528 213 save.me.mmb Jr2 distrib;
#X obj -530 253 save.me.mmb Kl2 distrib;
#X obj -530 273 save.me.mmb Kr2 distrib;
#X obj -530 307 save.me.mmb Ll2 distrib;
#X obj -531 328 save.me.mmb Lr2 distrib;
#X obj -531 366 save.me.mmb Ml2 distrib;
#X obj -531 387 save.me.mmb Mr2 distrib;
#X obj -531 501 save.me.mmb Nl2 distrib;
#X obj -531 521 save.me.mmb Nr2 distrib;
#X obj -533 558 save.me.mmb Ol2 distrib;
#X obj -532 582 save.me.mmb Or3 distrib;
#X obj -533 625 save.me.mmb Pl3 distrib;
#X obj -533 646 save.me.mmb Pr3 distrib;
#X obj -372 148 save.me.mmb Il3 distrib;
#X obj -371 168 save.me.mmb Ir3 distrib;
#X obj -371 194 save.me.mmb Jl3 distrib;
#X obj -371 214 save.me.mmb Jr3 distrib;
#X obj -373 254 save.me.mmb Kl3 distrib;
#X obj -373 274 save.me.mmb Kr3 distrib;
#X obj -373 309 save.me.mmb Ll3 distrib;
#X obj -374 330 save.me.mmb Lr3 distrib;
#X obj -374 368 save.me.mmb Ml3 distrib;
#X obj -374 389 save.me.mmb Mr3 distrib;
#X obj -374 430 save.me.mmb Nl3 distrib;
#X obj -374 450 save.me.mmb Nr3 distrib;
#X obj -376 559 save.me.mmb Ol3 distrib;
#X obj -375 583 save.me.mmb Or3 distrib;
#X obj -376 626 save.me.mmb Pl3 distrib;
#X obj -376 647 save.me.mmb Pr3 distrib;
#X obj -218 147 save.me.mmb Al4 distrib;
#X obj -217 169 save.me.mmb Ar4 distrib;
#X obj -217 195 save.me.mmb Bl4 distrib;
#X obj -217 215 save.me.mmb Br4 distrib;
#X obj -219 255 save.me.mmb Cl4 distrib;
#X obj -219 278 save.me.mmb Cr4 distrib;
#X obj -219 309 save.me.mmb Dl4 distrib;
#X obj -220 330 save.me.mmb Dr4 distrib;
#X obj -220 368 save.me.mmb El4 distrib;
#X obj -220 389 save.me.mmb Er4 distrib;
#X obj -220 430 save.me.mmb Fl4 distrib;
#X obj -220 450 save.me.mmb Fr4 distrib;
#X obj -222 487 save.me.mmb Gl4 distrib;
#X obj -221 511 save.me.mmb Gr4 distrib;
#X obj -222 628 save.me.mmb Hl4 distrib;
#X obj -222 648 save.me.mmb Hr4 distrib;
#X obj -59 149 save.me.mmb Il4 distrib;
#X obj -58 169 save.me.mmb Ir4 distrib;
#X obj -58 195 save.me.mmb Jl4 distrib;
#X obj -58 215 save.me.mmb Jr4 distrib;
#X obj -60 255 save.me.mmb Kl4 distrib;
#X obj -60 278 save.me.mmb Kr4 distrib;
#X obj -60 309 save.me.mmb Ll4 distrib;
#X obj -61 330 save.me.mmb Lr4 distrib;
#X obj -61 368 save.me.mmb Ml4 distrib;
#X obj -61 389 save.me.mmb Mr4 distrib;
#X obj -61 430 save.me.mmb Nl4 distrib;
#X obj -61 450 save.me.mmb Nr4 distrib;
#X obj -63 487 save.me.mmb Ol4 distrib;
#X obj -62 511 save.me.mmb Or4 distrib;
#X obj -63 554 save.me.mmb Pl4 distrib;
#X obj -63 575 save.me.mmb Pr4 distrib;
#X connect 0 0 126 0;
#X connect 0 0 241 0;
#X connect 1 0 127 0;
#X connect 1 0 242 0;
#X connect 2 0 146 0;
#X connect 2 0 261 0;
#X connect 3 0 147 0;
#X connect 3 0 262 0;
#X connect 4 0 162 0;
#X connect 4 0 277 0;
#X connect 5 0 163 0;
#X connect 5 0 278 0;
#X connect 6 0 130 0;
#X connect 6 0 245 0;
#X connect 7 0 131 0;
#X connect 7 0 246 0;
#X connect 8 0 164 0;
#X connect 8 0 279 0;
#X connect 9 0 165 0;
#X connect 9 0 280 0;
#X connect 10 0 132 0;
#X connect 10 0 247 0;
#X connect 11 0 133 0;
#X connect 11 0 248 0;
#X connect 12 0 148 0;
#X connect 12 0 263 0;
#X connect 13 0 149 0;
#X connect 13 0 264 0;
#X connect 14 0 134 0;
#X connect 14 0 249 0;
#X connect 15 0 135 0;
#X connect 15 0 250 0;
#X connect 16 0 150 0;
#X connect 16 0 265 0;
#X connect 17 0 151 0;
#X connect 17 0 266 0;
#X connect 18 0 166 0;
#X connect 18 0 281 0;
#X connect 19 0 167 0;
#X connect 19 0 282 0;
#X connect 20 0 136 0;
#X connect 20 0 251 0;
#X connect 21 0 137 0;
#X connect 21 0 252 0;
#X connect 22 0 152 0;
#X connect 22 0 267 0;
#X connect 23 0 153 0;
#X connect 23 0 268 0;
#X connect 24 0 168 0;
#X connect 24 0 283 0;
#X connect 25 0 169 0;
#X connect 25 0 284 0;
#X connect 26 0 138 0;
#X connect 26 0 253 0;
#X connect 27 0 139 0;
#X connect 27 0 254 0;
#X connect 28 0 154 0;
#X connect 28 0 269 0;
#X connect 29 0 155 0;
#X connect 29 0 270 0;
#X connect 30 0 170 0;
#X connect 30 0 285 0;
#X connect 31 0 171 0;
#X connect 31 0 286 0;
#X connect 32 0 140 0;
#X connect 32 0 255 0;
#X connect 33 0 141 0;
#X connect 33 0 256 0;
#X connect 34 0 156 0;
#X connect 34 0 271 0;
#X connect 35 0 157 0;
#X connect 35 0 272 0;
#X connect 36 0 172 0;
#X connect 36 0 287 0;
#X connect 37 0 173 0;
#X connect 37 0 288 0;
#X connect 38 0 142 0;
#X connect 38 0 257 0;
#X connect 39 0 143 0;
#X connect 39 0 258 0;
#X connect 40 0 158 0;
#X connect 40 0 273 0;
#X connect 41 0 159 0;
#X connect 41 0 274 0;
#X connect 46 0 174 0;
#X connect 46 0 289 0;
#X connect 47 0 175 0;
#X connect 47 0 290 0;
#X connect 48 0 178 0;
#X connect 48 0 293 0;
#X connect 49 0 179 0;
#X connect 49 0 294 0;
#X connect 50 0 194 0;
#X connect 50 0 309 0;
#X connect 51 0 195 0;
#X connect 51 0 310 0;
#X connect 52 0 210 0;
#X connect 52 0 325 0;
#X connect 53 0 211 0;
#X connect 53 0 326 0;
#X connect 54 0 180 0;
#X connect 54 0 295 0;
#X connect 55 0 181 0;
#X connect 55 0 296 0;
#X connect 56 0 196 0;
#X connect 56 0 311 0;
#X connect 57 0 197 0;
#X connect 57 0 312 0;
#X connect 58 0 212 0;
#X connect 58 0 327 0;
#X connect 59 0 213 0;
#X connect 59 0 328 0;
#X connect 60 0 182 0;
#X connect 60 0 297 0;
#X connect 61 0 183 0;
#X connect 61 0 298 0;
#X connect 62 0 198 0;
#X connect 62 0 313 0;
#X connect 63 0 199 0;
#X connect 63 0 314 0;
#X connect 64 0 214 0;
#X connect 64 0 329 0;
#X connect 65 0 215 0;
#X connect 65 0 330 0;
#X connect 66 0 200 0;
#X connect 66 0 315 0;
#X connect 67 0 201 0;
#X connect 67 0 316 0;
#X connect 68 0 216 0;
#X connect 68 0 331 0;
#X connect 69 0 217 0;
#X connect 69 0 332 0;
#X connect 70 0 184 0;
#X connect 70 0 299 0;
#X connect 71 0 185 0;
#X connect 71 0 300 0;
#X connect 72 0 218 0;
#X connect 72 0 333 0;
#X connect 73 0 219 0;
#X connect 73 0 334 0;
#X connect 74 0 186 0;
#X connect 74 0 301 0;
#X connect 75 0 187 0;
#X connect 75 0 302 0;
#X connect 76 0 202 0;
#X connect 76 0 317 0;
#X connect 77 0 203 0;
#X connect 77 0 318 0;
#X connect 78 0 188 0;
#X connect 78 0 303 0;
#X connect 79 0 189 0;
#X connect 79 0 304 0;
#X connect 80 0 204 0;
#X connect 80 0 319 0;
#X connect 81 0 205 0;
#X connect 81 0 320 0;
#X connect 82 0 220 0;
#X connect 82 0 335 0;
#X connect 83 0 221 0;
#X connect 83 0 336 0;
#X connect 84 0 190 0;
#X connect 84 0 305 0;
#X connect 85 0 191 0;
#X connect 85 0 306 0;
#X connect 86 0 206 0;
#X connect 86 0 321 0;
#X connect 87 0 207 0;
#X connect 87 0 322 0;
#X connect 88 0 128 0;
#X connect 88 0 243 0;
#X connect 89 0 129 0;
#X connect 89 0 244 0;
#X connect 90 0 144 0;
#X connect 90 0 259 0;
#X connect 91 0 145 0;
#X connect 91 0 260 0;
#X connect 92 0 160 0;
#X connect 92 0 275 0;
#X connect 93 0 161 0;
#X connect 93 0 276 0;
#X connect 94 0 176 0;
#X connect 94 0 291 0;
#X connect 95 0 177 0;
#X connect 95 0 292 0;
#X connect 95 0 308 0;
#X connect 96 0 192 0;
#X connect 96 0 307 0;
#X connect 97 0 193 0;
#X connect 98 0 208 0;
#X connect 98 0 323 0;
#X connect 99 0 209 0;
#X connect 99 0 324 0;
#X connect 101 0 226 0;
#X connect 101 0 341 0;
#X connect 102 0 227 0;
#X connect 102 0 342 0;
#X connect 103 0 228 0;
#X connect 103 0 343 0;
#X connect 104 0 229 0;
#X connect 104 0 344 0;
#X connect 105 0 230 0;
#X connect 105 0 345 0;
#X connect 106 0 231 0;
#X connect 106 0 346 0;
#X connect 107 0 232 0;
#X connect 107 0 347 0;
#X connect 108 0 233 0;
#X connect 108 0 348 0;
#X connect 109 0 234 0;
#X connect 109 0 349 0;
#X connect 110 0 235 0;
#X connect 110 0 350 0;
#X connect 111 0 236 0;
#X connect 111 0 351 0;
#X connect 112 0 237 0;
#X connect 112 0 352 0;
#X connect 113 0 222 0;
#X connect 113 0 337 0;
#X connect 114 0 223 0;
#X connect 114 0 338 0;
#X connect 115 0 224 0;
#X connect 115 0 339 0;
#X connect 116 0 225 0;
#X connect 116 0 340 0;
#X connect 126 0 240 0;
#X connect 127 0 240 0;
#X connect 128 0 240 0;
#X connect 129 0 240 0;
#X connect 130 0 240 0;
#X connect 131 0 240 0;
#X connect 132 0 240 0;
#X connect 133 0 240 0;
#X connect 134 0 240 0;
#X connect 135 0 240 0;
#X connect 136 0 240 0;
#X connect 137 0 240 0;
#X connect 138 0 240 0;
#X connect 139 0 240 0;
#X connect 140 0 240 0;
#X connect 141 0 240 0;
#X connect 142 0 240 0;
#X connect 143 0 240 0;
#X connect 144 0 240 0;
#X connect 145 0 240 0;
#X connect 146 0 240 0;
#X connect 147 0 240 0;
#X connect 148 0 240 0;
#X connect 149 0 240 0;
#X connect 150 0 240 0;
#X connect 151 0 240 0;
#X connect 152 0 240 0;
#X connect 153 0 240 0;
#X connect 154 0 240 0;
#X connect 155 0 240 0;
#X connect 156 0 240 0;
#X connect 157 0 240 0;
#X connect 158 0 240 0;
#X connect 159 0 240 0;
#X connect 160 0 240 0;
#X connect 161 0 240 0;
#X connect 162 0 240 0;
#X connect 163 0 240 0;
#X connect 164 0 240 0;
#X connect 165 0 240 0;
#X connect 166 0 240 0;
#X connect 167 0 240 0;
#X connect 168 0 240 0;
#X connect 169 0 240 0;
#X connect 170 0 240 0;
#X connect 171 0 240 0;
#X connect 172 0 240 0;
#X connect 173 0 240 0;
#X connect 174 0 240 0;
#X connect 175 0 240 0;
#X connect 176 0 240 0;
#X connect 177 0 240 0;
#X connect 178 0 240 0;
#X connect 179 0 240 0;
#X connect 180 0 240 0;
#X connect 181 0 240 0;
#X connect 182 0 240 0;
#X connect 183 0 240 0;
#X connect 184 0 240 0;
#X connect 185 0 240 0;
#X connect 186 0 240 0;
#X connect 187 0 240 0;
#X connect 188 0 240 0;
#X connect 189 0 240 0;
#X connect 190 0 240 0;
#X connect 191 0 240 0;
#X connect 192 0 240 0;
#X connect 193 0 240 0;
#X connect 194 0 240 0;
#X connect 195 0 240 0;
#X connect 196 0 240 0;
#X connect 197 0 240 0;
#X connect 198 0 240 0;
#X connect 199 0 240 0;
#X connect 200 0 240 0;
#X connect 201 0 240 0;
#X connect 202 0 240 0;
#X connect 203 0 240 0;
#X connect 204 0 240 0;
#X connect 205 0 240 0;
#X connect 206 0 240 0;
#X connect 207 0 240 0;
#X connect 208 0 240 0;
#X connect 209 0 240 0;
#X connect 210 0 240 0;
#X connect 211 0 240 0;
#X connect 212 0 240 0;
#X connect 213 0 240 0;
#X connect 214 0 240 0;
#X connect 215 0 240 0;
#X connect 216 0 240 0;
#X connect 217 0 240 0;
#X connect 218 0 240 0;
#X connect 219 0 240 0;
#X connect 220 0 240 0;
#X connect 221 0 240 0;
#X connect 222 0 240 0;
#X connect 223 0 240 0;
#X connect 224 0 240 0;
#X connect 225 0 240 0;
#X connect 226 0 240 0;
#X connect 227 0 240 0;
#X connect 228 0 240 0;
#X connect 229 0 240 0;
#X connect 230 0 240 0;
#X connect 231 0 240 0;
#X connect 232 0 240 0;
#X connect 233 0 240 0;
#X connect 234 0 240 0;
#X connect 235 0 240 0;
#X connect 236 0 240 0;
#X connect 237 0 240 0;
#X connect 241 0 0 0;
#X connect 242 0 1 0;
#X connect 243 0 88 0;
#X connect 244 0 89 0;
#X connect 245 0 6 0;
#X connect 246 0 7 0;
#X connect 247 0 10 0;
#X connect 248 0 11 0;
#X connect 249 0 14 0;
#X connect 250 0 15 0;
#X connect 251 0 20 0;
#X connect 252 0 21 0;
#X connect 253 0 26 0;
#X connect 254 0 27 0;
#X connect 255 0 32 0;
#X connect 256 0 33 0;
#X connect 257 0 38 0;
#X connect 258 0 39 0;
#X connect 259 0 90 0;
#X connect 260 0 91 0;
#X connect 261 0 2 0;
#X connect 262 0 3 0;
#X connect 263 0 12 0;
#X connect 264 0 13 0;
#X connect 265 0 16 0;
#X connect 266 0 17 0;
#X connect 267 0 22 0;
#X connect 268 0 23 0;
#X connect 269 0 28 0;
#X connect 270 0 29 0;
#X connect 271 0 34 0;
#X connect 272 0 35 0;
#X connect 273 0 40 0;
#X connect 274 0 41 0;
#X connect 275 0 92 0;
#X connect 276 0 93 0;
#X connect 277 0 4 0;
#X connect 278 0 5 0;
#X connect 279 0 8 0;
#X connect 280 0 9 0;
#X connect 281 0 18 0;
#X connect 282 0 19 0;
#X connect 283 0 24 0;
#X connect 284 0 25 0;
#X connect 285 0 30 0;
#X connect 286 0 31 0;
#X connect 287 0 36 0;
#X connect 288 0 37 0;
#X connect 289 0 46 0;
#X connect 290 0 47 0;
#X connect 291 0 94 0;
#X connect 292 0 95 0;
#X connect 293 0 48 0;
#X connect 294 0 49 0;
#X connect 295 0 54 0;
#X connect 296 0 55 0;
#X connect 297 0 60 0;
#X connect 298 0 61 0;
#X connect 299 0 70 0;
#X connect 300 0 71 0;
#X connect 301 0 74 0;
#X connect 302 0 75 0;
#X connect 303 0 78 0;
#X connect 304 0 79 0;
#X connect 305 0 84 0;
#X connect 306 0 85 0;
#X connect 307 0 96 0;
#X connect 308 0 95 0;
#X connect 309 0 50 0;
#X connect 310 0 51 0;
#X connect 311 0 56 0;
#X connect 312 0 57 0;
#X connect 313 0 62 0;
#X connect 314 0 63 0;
#X connect 315 0 66 0;
#X connect 316 0 67 0;
#X connect 317 0 76 0;
#X connect 318 0 77 0;
#X connect 319 0 80 0;
#X connect 320 0 81 0;
#X connect 321 0 86 0;
#X connect 322 0 87 0;
#X connect 323 0 98 0;
#X connect 324 0 99 0;
#X connect 325 0 52 0;
#X connect 326 0 53 0;
#X connect 327 0 58 0;
#X connect 328 0 59 0;
#X connect 329 0 64 0;
#X connect 330 0 65 0;
#X connect 331 0 68 0;
#X connect 332 0 69 0;
#X connect 333 0 72 0;
#X connect 334 0 73 0;
#X connect 335 0 82 0;
#X connect 336 0 83 0;
#X connect 337 0 113 0;
#X connect 338 0 114 0;
#X connect 339 0 115 0;
#X connect 340 0 116 0;
#X connect 341 0 101 0;
#X connect 342 0 102 0;
#X connect 343 0 103 0;
#X connect 344 0 104 0;
#X connect 345 0 105 0;
#X connect 346 0 106 0;
#X connect 347 0 107 0;
#X connect 348 0 108 0;
#X connect 349 0 109 0;
#X connect 350 0 110 0;
#X connect 351 0 111 0;
#X connect 352 0 112 0;
#X coords 0 -1 1 1 430 600 1 100 100;
