#N canvas 225 22 1048 645 10;
#X obj 109 216 c.slider @size 10 50 @fontname Monaco @fontweight normal
@fontslant roman @fontsize 11 @idname (null) @presetname slid15L @mode
0 @min 0 @max 1 @bgcolor 0.25 0.65 0.7 0.3 @bdcolor 0.5 0.5 0.5 1 @kncolor
0.5 0.5 0.5 1;
#X obj 124 216 c.slider @size 10 50 @fontname Monaco @fontweight normal
@fontslant roman @fontsize 11 @idname (null) @presetname slid15R @mode
0 @min 0 @max 1 @bgcolor 0.25 0.65 0.7 0.3 @bdcolor 0.5 0.5 0.5 1 @kncolor
0.5 0.5 0.5 1;
#X obj 150 216 c.slider @size 10 50 @fontname Monaco @fontweight normal
@fontslant roman @fontsize 11 @idname (null) @presetname slid23L @mode
0 @min 0 @max 1 @bgcolor 0.25 0.65 0.7 0.3 @bdcolor 0.5 0.5 0.5 1 @kncolor
0.5 0.5 0.5 1;
#X obj 167 216 c.slider @size 10 50 @fontname Monaco @fontweight normal
@fontslant roman @fontsize 11 @idname (null) @presetname slid23R @mode
0 @min 0 @max 1 @bgcolor 0.25 0.65 0.7 0.3 @bdcolor 0.5 0.5 0.5 1 @kncolor
0.5 0.5 0.5 1;
#X text 105 100 MIC 2;
#X text 157 101 MIC 3;
#X text 185 140 OUTDRY;
#X text 188 229 PEDAZOS;
#X obj 109 130 c.slider @size 10 50 @fontname Monaco @fontweight normal
@fontslant roman @fontsize 11 @idname (null) @presetname slid9L @mode
0 @min 0 @max 1 @bgcolor 1 0.75 0.75 1 @bdcolor 0.5 0.5 0.5 1 @kncolor
0.5 0.5 0.5 1;
#X obj 122 130 c.slider @size 10 50 @fontname Monaco @fontweight normal
@fontslant roman @fontsize 11 @idname (null) @presetname slid9R @mode
0 @min 0 @max 1 @bgcolor 1 0.75 0.75 1 @bdcolor 0.5 0.5 0.5 1 @kncolor
0.5 0.5 0.5 1;
#X obj 149 129 c.slider @size 10 50 @fontname Monaco @fontweight normal
@fontslant roman @fontsize 11 @idname mic1 @presetname slid17L @mode
0 @min 0 @max 1 @bgcolor 1 0.75 0.75 1 @bdcolor 0.5 0.5 0.5 1 @kncolor
0.5 0.5 0.5 1;
#X obj 165 130 c.slider @size 10 50 @fontname Monaco @fontweight normal
@fontslant roman @fontsize 11 @idname (null) @presetname slid17R @mode
0 @min 0 @max 1 @bgcolor 1 0.75 0.75 1 @bdcolor 0.5 0.5 0.5 1 @kncolor
0.5 0.5 0.5 1;
#X msg 332 223 1 12 \$1 100;
#X msg 332 242 1 13 \$1 100;
#X msg 422 222 2 12 \$1 100;
#X msg 422 241 2 13 \$1 100;
#X obj 602 389 s matrixdistrib;
#X obj -163 71 save.me.mmb AL distrib;
#X obj -159 93 save.me.mmb AR distrib;
#X obj -167 174 save.me.mmb GL distrib;
#X obj -169 200 save.me.mmb GR distrib;
#X msg 330 164 1 1 \$1 100;
#X msg 420 163 2 1 \$1 100;
#X msg 419 144 2 0 \$1 100;
#X msg 330 139 1 0 \$1 100;
#X obj -333 64 save.me.mmb AL1 distrib;
#X obj -332 84 save.me.mmb AR1 distrib;
#X obj -337 163 save.me.mmb GL1 distrib;
#X obj -339 187 save.me.mmb GR1 distrib;
#X obj 110 286 c.slider @size 10 50 @fontname Monaco @fontweight normal
@fontslant roman @fontsize 11 @idname (null) @presetname slid15L @mode
0 @min 0 @max 1 @bgcolor 0.25 0.65 0.7 0.3 @bdcolor 0.5 0.5 0.5 1 @kncolor
0.5 0.5 0.5 1;
#X obj 125 286 c.slider @size 10 50 @fontname Monaco @fontweight normal
@fontslant roman @fontsize 11 @idname (null) @presetname slid15R @mode
0 @min 0 @max 1 @bgcolor 0.25 0.65 0.7 0.3 @bdcolor 0.5 0.5 0.5 1 @kncolor
0.5 0.5 0.5 1;
#X obj 151 286 c.slider @size 10 50 @fontname Monaco @fontweight normal
@fontslant roman @fontsize 11 @idname (null) @presetname slid23L @mode
0 @min 0 @max 1 @bgcolor 0.25 0.65 0.7 0.3 @bdcolor 0.5 0.5 0.5 1 @kncolor
0.5 0.5 0.5 1;
#X obj 168 286 c.slider @size 10 50 @fontname Monaco @fontweight normal
@fontslant roman @fontsize 11 @idname (null) @presetname slid23R @mode
0 @min 0 @max 1 @bgcolor 0.25 0.65 0.7 0.3 @bdcolor 0.5 0.5 0.5 1 @kncolor
0.5 0.5 0.5 1;
#X msg 336 299 1 2 \$1 100;
#X msg 336 318 1 3 \$1 100;
#X msg 426 298 2 2 \$1 100;
#X msg 426 317 2 3 \$1 100;
#X obj -330 265 save.me.mmb rv1 distrib;
#X obj -332 289 save.me.mmb rvr1 distrib;
#X obj -160 276 save.me.mmb rv distrib;
#X obj -162 302 save.me.mmb rvr distrib;
#X text 189 299 mic to free;
#X obj 229 130 c.slider @size 10 50 @fontname Monaco @fontweight normal
@fontslant roman @fontsize 11 @idname (null) @presetname slid9L @mode
0 @min 0 @max 1 @bgcolor 1 0.75 0.75 1 @bdcolor 0.5 0.5 0.5 1 @kncolor
0.5 0.5 0.5 1;
#X obj 242 130 c.slider @size 10 50 @fontname Monaco @fontweight normal
@fontslant roman @fontsize 11 @idname (null) @presetname slid9R @mode
0 @min 0 @max 1 @bgcolor 1 0.75 0.75 1 @bdcolor 0.5 0.5 0.5 1 @kncolor
0.5 0.5 0.5 1;
#X msg 503 146 3 0 \$1 100;
#X msg 504 165 4 1 \$1 100;
#X obj 11 51 save.me.mmb freeo distrib;
#X obj 15 73 save.me.mmb free distrib;
#X connect 0 0 12 0;
#X connect 0 0 19 0;
#X connect 1 0 13 0;
#X connect 1 0 20 0;
#X connect 2 0 14 0;
#X connect 2 0 27 0;
#X connect 3 0 15 0;
#X connect 3 0 28 0;
#X connect 8 0 17 0;
#X connect 8 0 24 0;
#X connect 9 0 21 0;
#X connect 9 0 18 0;
#X connect 10 0 23 0;
#X connect 10 0 25 0;
#X connect 11 0 26 0;
#X connect 11 0 22 0;
#X connect 12 0 16 0;
#X connect 13 0 16 0;
#X connect 14 0 16 0;
#X connect 15 0 16 0;
#X connect 17 0 8 0;
#X connect 18 0 9 0;
#X connect 19 0 0 0;
#X connect 20 0 1 0;
#X connect 21 0 16 0;
#X connect 22 0 16 0;
#X connect 23 0 16 0;
#X connect 24 0 16 0;
#X connect 25 0 10 0;
#X connect 26 0 11 0;
#X connect 27 0 2 0;
#X connect 28 0 3 0;
#X connect 29 0 33 0;
#X connect 29 0 37 0;
#X connect 30 0 34 0;
#X connect 30 0 38 0;
#X connect 31 0 35 0;
#X connect 31 0 39 0;
#X connect 32 0 36 0;
#X connect 32 0 40 0;
#X connect 33 0 16 0;
#X connect 34 0 16 0;
#X connect 35 0 16 0;
#X connect 36 0 16 0;
#X connect 37 0 29 0;
#X connect 38 0 30 0;
#X connect 39 0 31 0;
#X connect 40 0 32 0;
#X connect 42 0 44 0;
#X connect 42 0 46 0;
#X connect 43 0 45 0;
#X connect 43 0 47 0;
#X connect 44 0 16 0;
#X connect 45 0 16 0;
#X connect 46 0 42 0;
#X connect 47 0 43 0;
#X coords 0 -1 1 1 160 240 2 100 100;
