#N canvas 178 28 860 681 10;
#X obj 133 138 c.slider @size 10 50 @fontname Monaco @fontweight normal
@fontslant roman @fontsize 11 @idname mic1 @presetname slid1L @mode
0 @min 0 @max 1 @bgcolor 1 0.75 0.75 1 @bdcolor 0.5 0.5 0.5 1 @kncolor
0.5 0.5 0.5 1;
#X obj 148 138 c.slider @size 10 50 @fontname Monaco @fontweight normal
@fontslant roman @fontsize 11 @idname (null) @presetname slid1R @mode
0 @min 0 @max 1 @bgcolor 1 0.75 0.75 1 @bdcolor 0.5 0.5 0.5 1 @kncolor
0.5 0.5 0.5 1;
#X obj 135 207 c.slider @size 10 50 @fontname Monaco @fontweight normal
@fontslant roman @fontsize 11 @idname (null) @presetname slid7L @mode
0 @min 0 @max 1 @bgcolor 0.25 0.65 0.7 0.3 @bdcolor 0.5 0.5 0.5 1 @kncolor
0.5 0.5 0.5 1;
#X obj 150 207 c.slider @size 10 50 @fontname Monaco @fontweight normal
@fontslant roman @fontsize 11 @idname (null) @presetname slid7R @mode
0 @min 0 @max 1 @bgcolor 0.25 0.65 0.7 0.3 @bdcolor 0.5 0.5 0.5 1 @kncolor
0.5 0.5 0.5 1;
#X obj 176 207 c.slider @size 10 50 @fontname Monaco @fontweight normal
@fontslant roman @fontsize 11 @idname (null) @presetname slid15L @mode
0 @min 0 @max 1 @bgcolor 0.25 0.65 0.7 0.3 @bdcolor 0.5 0.5 0.5 1 @kncolor
0.5 0.5 0.5 1;
#X obj 191 207 c.slider @size 10 50 @fontname Monaco @fontweight normal
@fontslant roman @fontsize 11 @idname (null) @presetname slid15R @mode
0 @min 0 @max 1 @bgcolor 0.25 0.65 0.7 0.3 @bdcolor 0.5 0.5 0.5 1 @kncolor
0.5 0.5 0.5 1;
#X obj 217 207 c.slider @size 10 50 @fontname Monaco @fontweight normal
@fontslant roman @fontsize 11 @idname (null) @presetname slid23L @mode
0 @min 0 @max 1 @bgcolor 0.25 0.65 0.7 0.3 @bdcolor 0.5 0.5 0.5 1 @kncolor
0.5 0.5 0.5 1;
#X obj 232 207 c.slider @size 10 50 @fontname Monaco @fontweight normal
@fontslant roman @fontsize 11 @idname (null) @presetname slid23R @mode
0 @min 0 @max 1 @bgcolor 0.25 0.65 0.7 0.3 @bdcolor 0.5 0.5 0.5 1 @kncolor
0.5 0.5 0.5 1;
#X text 248 148 OUTDRY;
#X text 264 220 PEDAZOS;
#X obj 174 138 c.slider @size 10 50 @fontname Monaco @fontweight normal
@fontslant roman @fontsize 11 @idname (null) @presetname slid9L @mode
0 @min 0 @max 1 @bgcolor 1 0.75 0.75 1 @bdcolor 0.5 0.5 0.5 1 @kncolor
0.5 0.5 0.5 1;
#X obj 189 138 c.slider @size 10 50 @fontname Monaco @fontweight normal
@fontslant roman @fontsize 11 @idname (null) @presetname slid9R @mode
0 @min 0 @max 1 @bgcolor 1 0.75 0.75 1 @bdcolor 0.5 0.5 0.5 1 @kncolor
0.5 0.5 0.5 1;
#X obj 216 138 c.slider @size 10 50 @fontname Monaco @fontweight normal
@fontslant roman @fontsize 11 @idname mic1 @presetname slid17L @mode
0 @min 0 @max 1 @bgcolor 1 0.75 0.75 1 @bdcolor 0.5 0.5 0.5 1 @kncolor
0.5 0.5 0.5 1;
#X obj 231 138 c.slider @size 10 50 @fontname Monaco @fontweight normal
@fontslant roman @fontsize 11 @idname (null) @presetname slid17R @mode
0 @min 0 @max 1 @bgcolor 1 0.75 0.75 1 @bdcolor 0.5 0.5 0.5 1 @kncolor
0.5 0.5 0.5 1;
#X msg 401 132 0 0 \$1 100;
#X msg 402 151 0 1 \$1 100;
#X msg 343 214 0 12 \$1 100;
#X msg 343 233 0 13 \$1 100;
#X msg 486 132 1 0 \$1 100;
#X msg 487 151 1 1 \$1 100;
#X msg 428 214 1 12 \$1 100;
#X msg 428 233 1 13 \$1 100;
#X msg 569 131 2 0 \$1 100;
#X msg 570 152 2 1 \$1 100;
#X msg 518 213 2 12 \$1 100;
#X msg 518 232 2 13 \$1 100;
#X obj 669 397 s matrixescargot;
#X text 120 107 tufles;
#X text 172 108 air;
#N canvas 181 306 1031 539 20-save.me.mmb 0;
#X obj -1251 69 inlet;
#X obj -1210 69 inlet;
#X obj -1167 69 inlet;
#X obj -1126 69 inlet;
#X obj -1086 69 inlet;
#X obj -1045 69 inlet;
#X obj -1260 423 outlet;
#X obj -1215 423 outlet;
#X obj -1171 423 outlet;
#X obj -1126 423 outlet;
#X obj -1080 423 outlet;
#X obj -1035 423 outlet;
#X obj -1249 157 save.me.mmb esmAl1 escargot;
#X obj -1248 177 save.me.mmb esmAr1 escargot;
#X obj -1165 198 save.me.mmb esmBl1 escargot;
#X obj -1165 224 save.me.mmb esmBr1 escargot;
#X obj -1077 244 save.me.mmb esmCl1 escargot;
#X obj -1077 264 save.me.mmb esmCr1 escargot;
#X obj -1004 73 inlet;
#X obj -963 73 inlet;
#X obj -993 425 outlet;
#X obj -948 425 outlet;
#X obj -995 285 save.me.mmb esrevout escargot;
#X obj -995 305 save.me.mmb esrevout2 escargot;
#X connect 0 0 12 0;
#X connect 1 0 13 0;
#X connect 2 0 14 0;
#X connect 3 0 15 0;
#X connect 4 0 16 0;
#X connect 5 0 17 0;
#X connect 12 0 6 0;
#X connect 13 0 7 0;
#X connect 14 0 8 0;
#X connect 15 0 9 0;
#X connect 16 0 10 0;
#X connect 17 0 11 0;
#X connect 18 0 22 0;
#X connect 19 0 23 0;
#X connect 22 0 20 0;
#X connect 23 0 21 0;
#X restore -65 156 pd 20-save.me.mmb .........;
#N canvas 289 195 1031 539 3-20-save.me.mmb 0;
#X obj -1251 69 inlet;
#X obj -1210 69 inlet;
#X obj -1167 69 inlet;
#X obj -1126 69 inlet;
#X obj -1086 69 inlet;
#X obj -1045 69 inlet;
#X obj -1260 423 outlet;
#X obj -1215 423 outlet;
#X obj -1171 423 outlet;
#X obj -1126 423 outlet;
#X obj -1080 423 outlet;
#X obj -1035 423 outlet;
#X obj -1249 157 save.me.mmb esmAl4 escargot;
#X obj -1248 177 save.me.mmb esmAr4 escargot;
#X obj -1165 204 save.me.mmb esmBl4 escargot;
#X obj -1165 224 save.me.mmb esmBr4 escargot;
#X obj -1077 244 save.me.mmb esmCl4 escargot;
#X obj -1077 264 save.me.mmb esmCr4 escargot;
#X connect 0 0 12 0;
#X connect 1 0 13 0;
#X connect 2 0 14 0;
#X connect 3 0 15 0;
#X connect 4 0 16 0;
#X connect 5 0 17 0;
#X connect 12 0 6 0;
#X connect 13 0 7 0;
#X connect 14 0 8 0;
#X connect 15 0 9 0;
#X connect 16 0 10 0;
#X connect 17 0 11 0;
#X restore -77 230 pd 3-20-save.me.mmb .........;
#X text 224 109 411;
#X obj 136 279 c.slider @size 10 50 @fontname Monaco @fontweight normal
@fontslant roman @fontsize 11 @idname (null) @presetname slid7L @mode
0 @min 0 @max 1 @bgcolor 0.25 0.65 0.7 0.3 @bdcolor 0.5 0.5 0.5 1 @kncolor
0.5 0.5 0.5 1;
#X obj 151 279 c.slider @size 10 50 @fontname Monaco @fontweight normal
@fontslant roman @fontsize 11 @idname (null) @presetname slid7R @mode
0 @min 0 @max 1 @bgcolor 0.25 0.65 0.7 0.3 @bdcolor 0.5 0.5 0.5 1 @kncolor
0.5 0.5 0.5 1;
#X obj 177 279 c.slider @size 10 50 @fontname Monaco @fontweight normal
@fontslant roman @fontsize 11 @idname (null) @presetname slid15L @mode
0 @min 0 @max 1 @bgcolor 0.25 0.65 0.7 0.3 @bdcolor 0.5 0.5 0.5 1 @kncolor
0.5 0.5 0.5 1;
#X obj 192 279 c.slider @size 10 50 @fontname Monaco @fontweight normal
@fontslant roman @fontsize 11 @idname (null) @presetname slid15R @mode
0 @min 0 @max 1 @bgcolor 0.25 0.65 0.7 0.3 @bdcolor 0.5 0.5 0.5 1 @kncolor
0.5 0.5 0.5 1;
#X obj 218 279 c.slider @size 10 50 @fontname Monaco @fontweight normal
@fontslant roman @fontsize 11 @idname (null) @presetname slid23L @mode
0 @min 0 @max 1 @bgcolor 0.25 0.65 0.7 0.3 @bdcolor 0.5 0.5 0.5 1 @kncolor
0.5 0.5 0.5 1;
#X obj 233 279 c.slider @size 10 50 @fontname Monaco @fontweight normal
@fontslant roman @fontsize 11 @idname (null) @presetname slid23R @mode
0 @min 0 @max 1 @bgcolor 0.25 0.65 0.7 0.3 @bdcolor 0.5 0.5 0.5 1 @kncolor
0.5 0.5 0.5 1;
#N canvas 289 195 1031 539 3-20-save.me.mmb 0;
#X obj -1251 69 inlet;
#X obj -1210 69 inlet;
#X obj -1167 69 inlet;
#X obj -1126 69 inlet;
#X obj -1086 69 inlet;
#X obj -1045 69 inlet;
#X obj -1260 423 outlet;
#X obj -1215 423 outlet;
#X obj -1171 423 outlet;
#X obj -1126 423 outlet;
#X obj -1080 423 outlet;
#X obj -1035 423 outlet;
#X obj -1249 157 save.me.mmb esrev escargot;
#X obj -1248 177 save.me.mmb esmrev1 escargot;
#X obj -1165 204 save.me.mmb esrev2 escargot;
#X obj -1165 224 save.me.mmb esrev3 escargot;
#X obj -1077 244 save.me.mmb esrev4 escargot;
#X obj -1077 264 save.me.mmb esrev5 escargot;
#X connect 0 0 12 0;
#X connect 1 0 13 0;
#X connect 2 0 14 0;
#X connect 3 0 15 0;
#X connect 4 0 16 0;
#X connect 5 0 17 0;
#X connect 12 0 6 0;
#X connect 13 0 7 0;
#X connect 14 0 8 0;
#X connect 15 0 9 0;
#X connect 16 0 10 0;
#X connect 17 0 11 0;
#X restore -76 302 pd 3-20-save.me.mmb .........;
#X text 265 292 freeverb;
#X msg 344 286 0 2 \$1 100;
#X msg 344 305 0 3 \$1 100;
#X msg 429 286 1 2 \$1 100;
#X msg 429 305 1 3 \$1 100;
#X msg 519 285 2 2 \$1 100;
#X msg 519 304 2 3 \$1 100;
#X obj 297 138 c.slider @size 10 50 @fontname Monaco @fontweight normal
@fontslant roman @fontsize 11 @idname mic1 @presetname slid17L @mode
0 @min 0 @max 1 @bgcolor 1 0.75 0.75 1 @bdcolor 0.5 0.5 0.5 1 @kncolor
0.5 0.5 0.5 1;
#X obj 312 138 c.slider @size 10 50 @fontname Monaco @fontweight normal
@fontslant roman @fontsize 11 @idname (null) @presetname slid17R @mode
0 @min 0 @max 1 @bgcolor 1 0.75 0.75 1 @bdcolor 0.5 0.5 0.5 1 @kncolor
0.5 0.5 0.5 1;
#X text 343 94;
#X msg 647 131 3 0 \$1 100;
#X msg 648 152 4 1 \$1 100;
#X connect 0 0 14 0;
#X connect 0 0 29 0;
#X connect 1 0 15 0;
#X connect 1 0 29 1;
#X connect 2 0 16 0;
#X connect 2 0 30 0;
#X connect 3 0 17 0;
#X connect 3 0 30 1;
#X connect 4 0 20 0;
#X connect 4 0 30 2;
#X connect 5 0 21 0;
#X connect 5 0 30 3;
#X connect 6 0 24 0;
#X connect 6 0 30 4;
#X connect 7 0 25 0;
#X connect 7 0 30 5;
#X connect 10 0 18 0;
#X connect 10 0 29 2;
#X connect 11 0 19 0;
#X connect 11 0 29 3;
#X connect 12 0 22 0;
#X connect 12 0 29 4;
#X connect 13 0 29 5;
#X connect 13 0 23 0;
#X connect 14 0 26 0;
#X connect 15 0 26 0;
#X connect 16 0 26 0;
#X connect 17 0 26 0;
#X connect 18 0 26 0;
#X connect 19 0 26 0;
#X connect 20 0 26 0;
#X connect 21 0 26 0;
#X connect 22 0 26 0;
#X connect 23 0 26 0;
#X connect 24 0 26 0;
#X connect 25 0 26 0;
#X connect 29 0 0 0;
#X connect 29 1 1 0;
#X connect 29 2 10 0;
#X connect 29 3 11 0;
#X connect 29 4 12 0;
#X connect 29 5 13 0;
#X connect 29 6 46 0;
#X connect 29 7 47 0;
#X connect 30 0 2 0;
#X connect 30 1 3 0;
#X connect 30 2 4 0;
#X connect 30 3 5 0;
#X connect 30 4 6 0;
#X connect 30 5 7 0;
#X connect 32 0 40 0;
#X connect 32 0 38 0;
#X connect 33 0 41 0;
#X connect 33 0 38 1;
#X connect 34 0 42 0;
#X connect 34 0 38 2;
#X connect 35 0 43 0;
#X connect 35 0 38 3;
#X connect 36 0 44 0;
#X connect 36 0 38 4;
#X connect 37 0 45 0;
#X connect 37 0 38 5;
#X connect 38 0 32 0;
#X connect 38 1 33 0;
#X connect 38 2 34 0;
#X connect 38 3 35 0;
#X connect 38 4 36 0;
#X connect 38 5 37 0;
#X connect 40 0 26 0;
#X connect 41 0 26 0;
#X connect 42 0 26 0;
#X connect 43 0 26 0;
#X connect 44 0 26 0;
#X connect 45 0 26 0;
#X connect 46 0 49 0;
#X connect 46 0 29 6;
#X connect 47 0 50 0;
#X connect 47 0 29 7;
#X connect 49 0 26 0;
#X connect 50 0 26 0;
#X coords 0 -1 1 1 230 250 2 100 100;
