#N canvas 151 25 1249 393 10;
#X obj 139 138 c.slider @size 10 50 @fontname Monaco @fontweight normal
@fontslant roman @fontsize 11 @idname mic1 @presetname slid1L @mode
0 @min 0 @max 1 @bgcolor 1 0.75 0.75 1 @bdcolor 0.5 0.5 0.5 1 @kncolor
0.5 0.5 0.5 1;
#X obj 154 138 c.slider @size 10 50 @fontname Monaco @fontweight normal
@fontslant roman @fontsize 11 @idname (null) @presetname slid1R @mode
0 @min 0 @max 1 @bgcolor 1 0.75 0.75 1 @bdcolor 0.5 0.5 0.5 1 @kncolor
0.5 0.5 0.5 1;
#X obj 141 208 c.slider @size 10 50 @fontname Monaco @fontweight normal
@fontslant roman @fontsize 11 @idname (null) @presetname slid7L @mode
0 @min 0 @max 1 @bgcolor 0.25 0.65 0.7 0.3 @bdcolor 0.5 0.5 0.5 1 @kncolor
0.5 0.5 0.5 1;
#X obj 156 208 c.slider @size 10 50 @fontname Monaco @fontweight normal
@fontslant roman @fontsize 11 @idname (null) @presetname slid7R @mode
0 @min 0 @max 1 @bgcolor 0.25 0.65 0.7 0.3 @bdcolor 0.5 0.5 0.5 1 @kncolor
0.5 0.5 0.5 1;
#X obj 191 208 c.slider @size 10 50 @fontname Monaco @fontweight normal
@fontslant roman @fontsize 11 @idname (null) @presetname slid15L @mode
0 @min 0 @max 1 @bgcolor 0.25 0.65 0.7 0.3 @bdcolor 0.5 0.5 0.5 1 @kncolor
0.5 0.5 0.5 1;
#X obj 206 208 c.slider @size 10 50 @fontname Monaco @fontweight normal
@fontslant roman @fontsize 11 @idname (null) @presetname slid15R @mode
0 @min 0 @max 1 @bgcolor 0.25 0.65 0.7 0.3 @bdcolor 0.5 0.5 0.5 1 @kncolor
0.5 0.5 0.5 1;
#X obj 240 208 c.slider @size 10 50 @fontname Monaco @fontweight normal
@fontslant roman @fontsize 11 @idname (null) @presetname slid23L @mode
0 @min 0 @max 1 @bgcolor 0.25 0.65 0.7 0.3 @bdcolor 0.5 0.5 0.5 1 @kncolor
0.5 0.5 0.5 1;
#X obj 255 208 c.slider @size 10 50 @fontname Monaco @fontweight normal
@fontslant roman @fontsize 11 @idname (null) @presetname slid23R @mode
0 @min 0 @max 1 @bgcolor 0.25 0.65 0.7 0.3 @bdcolor 0.5 0.5 0.5 1 @kncolor
0.5 0.5 0.5 1;
#X obj 188 138 c.slider @size 10 50 @fontname Monaco @fontweight normal
@fontslant roman @fontsize 11 @idname (null) @presetname slid9L @mode
0 @min 0 @max 1 @bgcolor 1 0.75 0.75 1 @bdcolor 0.5 0.5 0.5 1 @kncolor
0.5 0.5 0.5 1;
#X obj 203 138 c.slider @size 10 50 @fontname Monaco @fontweight normal
@fontslant roman @fontsize 11 @idname (null) @presetname slid9R @mode
0 @min 0 @max 1 @bgcolor 1 0.75 0.75 1 @bdcolor 0.5 0.5 0.5 1 @kncolor
0.5 0.5 0.5 1;
#X obj 237 138 c.slider @size 10 50 @fontname Monaco @fontweight normal
@fontslant roman @fontsize 11 @idname mic1 @presetname slid17L @mode
0 @min 0 @max 1 @bgcolor 1 0.75 0.75 1 @bdcolor 0.5 0.5 0.5 1 @kncolor
0.5 0.5 0.5 1;
#X obj 252 138 c.slider @size 10 50 @fontname Monaco @fontweight normal
@fontslant roman @fontsize 11 @idname (null) @presetname slid17R @mode
0 @min 0 @max 1 @bgcolor 1 0.75 0.75 1 @bdcolor 0.5 0.5 0.5 1 @kncolor
0.5 0.5 0.5 1;
#X obj 283 138 c.slider @size 10 50 @fontname Monaco @fontweight normal
@fontslant roman @fontsize 11 @idname mic1 @presetname s1l @mode 0
@min 0 @max 1 @bgcolor 1 0.75 0.75 1 @bdcolor 0.5 0.5 0.5 1 @kncolor
0.5 0.5 0.5 1;
#X obj 298 138 c.slider @size 10 50 @fontname Monaco @fontweight normal
@fontslant roman @fontsize 11 @idname (null) @presetname s1r @mode
0 @min 0 @max 1 @bgcolor 1 0.75 0.75 1 @bdcolor 0.5 0.5 0.5 1 @kncolor
0.5 0.5 0.5 1;
#X obj 287 208 c.slider @size 10 50 @fontname Monaco @fontweight normal
@fontslant roman @fontsize 11 @idname (null) @presetname s8l @mode
0 @min 0 @max 1 @bgcolor 0.25 0.65 0.7 0.3 @bdcolor 0.5 0.5 0.5 1 @kncolor
0.5 0.5 0.5 1;
#X obj 302 208 c.slider @size 10 50 @fontname Monaco @fontweight normal
@fontslant roman @fontsize 11 @idname (null) @presetname s8r @mode
0 @min 0 @max 1 @bgcolor 0.25 0.65 0.7 0.3 @bdcolor 0.5 0.5 0.5 1 @kncolor
0.5 0.5 0.5 1;
#X obj 336 208 c.slider @size 10 50 @fontname Monaco @fontweight normal
@fontslant roman @fontsize 11 @idname (null) @presetname s17l @mode
0 @min 0 @max 1 @bgcolor 0.25 0.65 0.7 0.3 @bdcolor 0.5 0.5 0.5 1 @kncolor
0.5 0.5 0.5 1;
#X obj 351 208 c.slider @size 10 50 @fontname Monaco @fontweight normal
@fontslant roman @fontsize 11 @idname (null) @presetname s17r @mode
0 @min 0 @max 1 @bgcolor 0.25 0.65 0.7 0.3 @bdcolor 0.5 0.5 0.5 1 @kncolor
0.5 0.5 0.5 1;
#X obj 332 138 c.slider @size 10 50 @fontname Monaco @fontweight normal
@fontslant roman @fontsize 11 @idname s10l @presetname slid1L @mode
0 @min 0 @max 1 @bgcolor 1 0.75 0.75 1 @bdcolor 0.5 0.5 0.5 1 @kncolor
0.5 0.5 0.5 1;
#X obj 347 138 c.slider @size 10 50 @fontname Monaco @fontweight normal
@fontslant roman @fontsize 11 @idname (null) @presetname s10r @mode
0 @min 0 @max 1 @bgcolor 1 0.75 0.75 1 @bdcolor 0.5 0.5 0.5 1 @kncolor
0.5 0.5 0.5 1;
#X obj 383 138 c.slider @size 10 50 @fontname Monaco @fontweight normal
@fontslant roman @fontsize 11 @idname mic1 @presetname s19l @mode 0
@min 0 @max 1 @bgcolor 1 0.75 0.75 1 @bdcolor 0.5 0.5 0.5 1 @kncolor
0.5 0.5 0.5 1;
#X obj 400 138 c.slider @size 10 50 @fontname Monaco @fontweight normal
@fontslant roman @fontsize 11 @idname (null) @presetname s19r @mode
0 @min 0 @max 1 @bgcolor 1 0.75 0.75 1 @bdcolor 0.5 0.5 0.5 1 @kncolor
0.5 0.5 0.5 1;
#X obj 442 208 c.slider @size 10 50 @fontname Monaco @fontweight normal
@fontslant roman @fontsize 11 @idname (null) @presetname s36l @mode
0 @min 0 @max 1 @bgcolor 0.25 0.65 0.7 0.3 @bdcolor 0.5 0.5 0.5 1 @kncolor
0.5 0.5 0.5 1;
#X obj 457 208 c.slider @size 10 50 @fontname Monaco @fontweight normal
@fontslant roman @fontsize 11 @idname (null) @presetname s36r @mode
0 @min 0 @max 1 @bgcolor 0.25 0.65 0.7 0.3 @bdcolor 0.5 0.5 0.5 1 @kncolor
0.5 0.5 0.5 1;
#X obj 439 138 c.slider @size 10 50 @fontname Monaco @fontweight normal
@fontslant roman @fontsize 11 @idname (null) @presetname s28l @mode
0 @min 0 @max 1 @bgcolor 1 0.75 0.75 1 @bdcolor 0.5 0.5 0.5 1 @kncolor
0.5 0.5 0.5 1;
#X obj 454 138 c.slider @size 10 50 @fontname Monaco @fontweight normal
@fontslant roman @fontsize 11 @idname (null) @presetname s29r @mode
0 @min 0 @max 1 @bgcolor 1 0.75 0.75 1 @bdcolor 0.5 0.5 0.5 1 @kncolor
0.5 0.5 0.5 1;
#X text 491 222 CORTES;
#X msg 544 232 4 13 \$1 100;
#X text 139 109 Tak;
#X text 376 107 crdht;
#X text 434 108 dome;
#X text 483 147 OUTDRY;
#X obj 386 208 c.slider @size 10 50 @fontname Monaco @fontweight normal
@fontslant roman @fontsize 11 @idname (null) @presetname s26l @mode
0 @min 0 @max 1 @bgcolor 0.25 0.65 0.7 0.3 @bdcolor 0.5 0.5 0.5 1 @kncolor
0.5 0.5 0.5 1;
#X obj 401 208 c.slider @size 10 50 @fontname Monaco @fontweight normal
@fontslant roman @fontsize 11 @idname (null) @presetname s26r @mode
0 @min 0 @max 1 @bgcolor 0.25 0.65 0.7 0.3 @bdcolor 0.5 0.5 0.5 1 @kncolor
0.5 0.5 0.5 1;
#X msg 540 139 0 0 \$1 100;
#X msg 540 160 0 1 \$1 100;
#X msg 544 211 0 12 \$1 100;
#X msg 627 212 1 12 \$1 100;
#X msg 627 233 1 13 \$1 100;
#X msg 623 139 1 0 \$1 100;
#X msg 623 161 1 1 \$1 100;
#X msg 710 211 2 12 \$1 100;
#X msg 710 232 2 13 \$1 100;
#X msg 706 139 2 0 \$1 100;
#X obj 682 361 s matrixbolas;
#X msg 788 139 3 0 \$1 100;
#X msg 788 160 3 1 \$1 100;
#X msg 792 211 3 12 \$1 100;
#X msg 792 232 3 13 \$1 100;
#X msg 875 139 4 0 \$1 100;
#X msg 875 160 4 1 \$1 100;
#X msg 879 211 4 12 \$1 100;
#X msg 879 232 4 13 \$1 100;
#X msg 960 139 5 0 \$1 100;
#X msg 960 160 5 1 \$1 100;
#X msg 965 206 5 12 \$1 100;
#X msg 965 227 5 13 \$1 100;
#X msg 1046 139 6 0 \$1 100;
#X msg 1046 160 6 1 \$1 100;
#X msg 1049 207 6 12 \$1 100;
#X msg 1049 229 6 13 \$1 100;
#N canvas 181 306 1031 539 20-save.me.mmb 0;
#X obj -1251 69 inlet;
#X obj -1210 69 inlet;
#X obj -1167 69 inlet;
#X obj -1126 69 inlet;
#X obj -1086 69 inlet;
#X obj -1045 69 inlet;
#X obj -1002 69 inlet;
#X obj -961 69 inlet;
#X obj -920 69 inlet;
#X obj -879 69 inlet;
#X obj -836 69 inlet;
#X obj -795 69 inlet;
#X obj -752 69 inlet;
#X obj -711 69 inlet;
#X obj -1260 423 outlet;
#X obj -1215 423 outlet;
#X obj -1171 423 outlet;
#X obj -1126 423 outlet;
#X obj -1080 423 outlet;
#X obj -1035 423 outlet;
#X obj -991 423 outlet;
#X obj -946 423 outlet;
#X obj -901 423 outlet;
#X obj -856 423 outlet;
#X obj -812 423 outlet;
#X obj -767 423 outlet;
#X obj -721 423 outlet;
#X obj -676 423 outlet;
#X obj -1249 157 save.me.mmb mAl1 bolas;
#X obj -1248 177 save.me.mmb mAr1 bolas;
#X obj -1165 204 save.me.mmb mBl1 bolas;
#X obj -1165 224 save.me.mmb mBr1 bolas;
#X obj -1077 244 save.me.mmb mCl1 bolas;
#X obj -1077 264 save.me.mmb mCr1 bolas;
#X obj -1002 294 save.me.mmb mDl1 bolas;
#X obj -1002 315 save.me.mmb mDr1 bolas;
#X obj -918 343 save.me.mmb mEl1 bolas;
#X obj -918 364 save.me.mmb mEr1 bolas;
#X obj -835 302 save.me.mmb mFl1 bolas;
#X obj -835 322 save.me.mmb mFr1 bolas;
#X obj -752 242 save.me.mmb mGl1 bolas;
#X obj -751 267 save.me.mmb mGr1 bolas;
#X connect 0 0 28 0;
#X connect 1 0 29 0;
#X connect 2 0 30 0;
#X connect 3 0 31 0;
#X connect 4 0 32 0;
#X connect 5 0 33 0;
#X connect 6 0 34 0;
#X connect 7 0 35 0;
#X connect 8 0 36 0;
#X connect 9 0 37 0;
#X connect 10 0 38 0;
#X connect 11 0 39 0;
#X connect 12 0 40 0;
#X connect 13 0 41 0;
#X connect 28 0 14 0;
#X connect 29 0 15 0;
#X connect 30 0 16 0;
#X connect 31 0 17 0;
#X connect 32 0 18 0;
#X connect 33 0 19 0;
#X connect 34 0 20 0;
#X connect 35 0 21 0;
#X connect 36 0 22 0;
#X connect 37 0 23 0;
#X connect 38 0 24 0;
#X connect 39 0 25 0;
#X connect 40 0 26 0;
#X connect 41 0 27 0;
#X restore -66 162 pd 20-save.me.mmb .........;
#N canvas 289 195 1031 539 3-20-save.me.mmb 0;
#X obj -1251 69 inlet;
#X obj -1210 69 inlet;
#X obj -1167 69 inlet;
#X obj -1126 69 inlet;
#X obj -1086 69 inlet;
#X obj -1045 69 inlet;
#X obj -1002 69 inlet;
#X obj -961 69 inlet;
#X obj -920 69 inlet;
#X obj -879 69 inlet;
#X obj -836 69 inlet;
#X obj -795 69 inlet;
#X obj -752 69 inlet;
#X obj -711 69 inlet;
#X obj -1260 423 outlet;
#X obj -1215 423 outlet;
#X obj -1171 423 outlet;
#X obj -1126 423 outlet;
#X obj -1080 423 outlet;
#X obj -1035 423 outlet;
#X obj -991 423 outlet;
#X obj -946 423 outlet;
#X obj -901 423 outlet;
#X obj -856 423 outlet;
#X obj -812 423 outlet;
#X obj -767 423 outlet;
#X obj -721 423 outlet;
#X obj -676 423 outlet;
#X obj -1249 157 save.me.mmb mAl4 bolas;
#X obj -1248 177 save.me.mmb mAr4 bolas;
#X obj -1165 204 save.me.mmb mBl4 bolas;
#X obj -1165 224 save.me.mmb mBr4 bolas;
#X obj -1077 244 save.me.mmb mCl4 bolas;
#X obj -1077 264 save.me.mmb mCr4 bolas;
#X obj -1002 294 save.me.mmb mDl4 bolas;
#X obj -1002 315 save.me.mmb mDr4 bolas;
#X obj -918 343 save.me.mmb mEl4 bolas;
#X obj -918 364 save.me.mmb mEr4 bolas;
#X obj -835 302 save.me.mmb mFl4 bolas;
#X obj -835 322 save.me.mmb mFr4 bolas;
#X obj -752 242 save.me.mmb mGl4 bolas;
#X obj -751 267 save.me.mmb mGr4 bolas;
#X connect 0 0 28 0;
#X connect 1 0 29 0;
#X connect 2 0 30 0;
#X connect 3 0 31 0;
#X connect 4 0 32 0;
#X connect 5 0 33 0;
#X connect 6 0 34 0;
#X connect 7 0 35 0;
#X connect 8 0 36 0;
#X connect 9 0 37 0;
#X connect 10 0 38 0;
#X connect 11 0 39 0;
#X connect 12 0 40 0;
#X connect 13 0 41 0;
#X connect 28 0 14 0;
#X connect 29 0 15 0;
#X connect 30 0 16 0;
#X connect 31 0 17 0;
#X connect 32 0 18 0;
#X connect 33 0 19 0;
#X connect 34 0 20 0;
#X connect 35 0 21 0;
#X connect 36 0 22 0;
#X connect 37 0 23 0;
#X connect 38 0 24 0;
#X connect 39 0 25 0;
#X connect 40 0 26 0;
#X connect 41 0 27 0;
#X restore -77 244 pd 3-20-save.me.mmb .........;
#X text 185 109 c-bas;
#X text 227 108 guit;
#X text 275 107 comment;
#X text 330 106 comment;
#X msg 706 160 2 1 \$1 100;
#X connect 0 0 34 0;
#X connect 0 0 61 0;
#X connect 1 0 35 0;
#X connect 1 0 61 1;
#X connect 2 0 36 0;
#X connect 2 0 62 0;
#X connect 3 0 27 0;
#X connect 3 0 62 1;
#X connect 4 0 37 0;
#X connect 4 0 62 2;
#X connect 5 0 38 0;
#X connect 5 0 62 3;
#X connect 6 0 41 0;
#X connect 6 0 62 4;
#X connect 7 0 42 0;
#X connect 7 0 62 5;
#X connect 8 0 39 0;
#X connect 8 0 61 2;
#X connect 9 0 40 0;
#X connect 9 0 61 3;
#X connect 10 0 43 0;
#X connect 10 0 61 4;
#X connect 11 0 67 0;
#X connect 11 0 61 5;
#X connect 12 0 45 0;
#X connect 12 0 61 6;
#X connect 13 0 46 0;
#X connect 13 0 61 7;
#X connect 14 0 47 0;
#X connect 14 0 62 6;
#X connect 15 0 48 0;
#X connect 15 0 62 7;
#X connect 16 0 51 0;
#X connect 16 0 62 8;
#X connect 17 0 52 0;
#X connect 17 0 62 9;
#X connect 18 0 49 0;
#X connect 18 0 61 8;
#X connect 19 0 50 0;
#X connect 19 0 61 9;
#X connect 20 0 53 0;
#X connect 20 0 61 10;
#X connect 21 0 54 0;
#X connect 21 0 61 11;
#X connect 22 0 59 0;
#X connect 22 0 62 12;
#X connect 23 0 60 0;
#X connect 23 0 62 13;
#X connect 24 0 57 0;
#X connect 24 0 61 12;
#X connect 25 0 58 0;
#X connect 25 0 61 13;
#X connect 27 0 44 0;
#X connect 32 0 55 0;
#X connect 32 0 62 10;
#X connect 33 0 56 0;
#X connect 33 0 62 11;
#X connect 34 0 44 0;
#X connect 35 0 44 0;
#X connect 36 0 44 0;
#X connect 37 0 44 0;
#X connect 38 0 44 0;
#X connect 39 0 44 0;
#X connect 40 0 44 0;
#X connect 41 0 44 0;
#X connect 42 0 44 0;
#X connect 43 0 44 0;
#X connect 45 0 44 0;
#X connect 46 0 44 0;
#X connect 47 0 44 0;
#X connect 48 0 44 0;
#X connect 49 0 44 0;
#X connect 50 0 44 0;
#X connect 51 0 44 0;
#X connect 52 0 44 0;
#X connect 53 0 44 0;
#X connect 54 0 44 0;
#X connect 55 0 44 0;
#X connect 56 0 44 0;
#X connect 57 0 44 0;
#X connect 58 0 44 0;
#X connect 59 0 44 0;
#X connect 60 0 44 0;
#X connect 61 0 0 0;
#X connect 61 1 1 0;
#X connect 61 2 8 0;
#X connect 61 3 9 0;
#X connect 61 4 10 0;
#X connect 61 5 11 0;
#X connect 61 6 12 0;
#X connect 61 7 13 0;
#X connect 61 8 18 0;
#X connect 61 9 19 0;
#X connect 61 10 20 0;
#X connect 61 11 21 0;
#X connect 61 12 24 0;
#X connect 61 13 25 0;
#X connect 62 0 2 0;
#X connect 62 1 3 0;
#X connect 62 2 4 0;
#X connect 62 3 5 0;
#X connect 62 4 6 0;
#X connect 62 5 7 0;
#X connect 62 6 14 0;
#X connect 62 7 15 0;
#X connect 62 8 16 0;
#X connect 62 9 17 0;
#X connect 62 10 32 0;
#X connect 62 11 33 0;
#X connect 62 12 22 0;
#X connect 62 13 23 0;
#X connect 67 0 44 0;
#X coords 0 -1 1 1 430 200 2 100 100;
