#N canvas 71 22 1321 824 10;
#X obj 133 193 c.slider @size 10 50 @fontname Monaco @fontweight normal
@fontslant roman @fontsize 11 @idname mic1 @presetname slid1L @mode
0 @min 0 @max 1 @bgcolor 1 0.75 0.75 1 @bdcolor 0.5 0.5 0.5 1 @kncolor
0.5 0.5 0.5 1;
#X obj 148 193 c.slider @size 10 50 @fontname Monaco @fontweight normal
@fontslant roman @fontsize 11 @idname (null) @presetname slid1R @mode
0 @min 0 @max 1 @bgcolor 1 0.75 0.75 1 @bdcolor 0.5 0.5 0.5 1 @kncolor
0.5 0.5 0.5 1;
#X obj 182 262 c.slider @size 10 50 @fontname Monaco @fontweight normal
@fontslant roman @fontsize 11 @idname (null) @presetname slid10L @mode
0 @min 0 @max 1 @bgcolor 1 0.7 0.8 1 @bdcolor 0.5 0.5 0.5 1 @kncolor
0.5 0.5 0.5 1;
#X obj 197 262 c.slider @size 10 50 @fontname Monaco @fontweight normal
@fontslant roman @fontsize 11 @idname (null) @presetname slid10R @mode
0 @min 0 @max 1 @bgcolor 1 0.7 0.8 1 @bdcolor 0.5 0.5 0.5 1 @kncolor
0.5 0.5 0.5 1;
#X obj 231 262 c.slider @size 10 50 @fontname Monaco @fontweight normal
@fontslant roman @fontsize 11 @idname (null) @presetname slid18L @mode
0 @min 0 @max 1 @bgcolor 1 0.7 0.8 1 @bdcolor 0.5 0.5 0.5 1 @kncolor
0.5 0.5 0.5 1;
#X obj 246 262 c.slider @size 10 50 @fontname Monaco @fontweight normal
@fontslant roman @fontsize 11 @idname (null) @presetname slid18R @mode
0 @min 0 @max 1 @bgcolor 1 0.7 0.8 1 @bdcolor 0.5 0.5 0.5 1 @kncolor
0.5 0.5 0.5 1;
#X obj 132 322 c.slider @size 10 50 @fontname Monaco @fontweight normal
@fontslant roman @fontsize 11 @idname (null) @presetname slid3L @mode
0 @min 0 @max 1 @bgcolor 1 0.9 0.9 1 @bdcolor 0.5 0.5 0.5 1 @kncolor
0.5 0.5 0.5 1;
#X obj 147 322 c.slider @size 10 50 @fontname Monaco @fontweight normal
@fontslant roman @fontsize 11 @idname (null) @presetname slid3R @mode
0 @min 0 @max 1 @bgcolor 1 0.9 0.9 1 @bdcolor 0.5 0.5 0.5 1 @kncolor
0.5 0.5 0.5 1;
#X obj 231 322 c.slider @size 10 50 @fontname Monaco @fontweight normal
@fontslant roman @fontsize 11 @idname (null) @presetname slid19L @mode
0 @min 0 @max 1 @bgcolor 1 0.9 0.9 1 @bdcolor 0.5 0.5 0.5 1 @kncolor
0.5 0.5 0.5 1;
#X obj 246 322 c.slider @size 10 50 @fontname Monaco @fontweight normal
@fontslant roman @fontsize 11 @idname (null) @presetname slid19R @mode
0 @min 0 @max 1 @bgcolor 1 0.9 0.9 1 @bdcolor 0.5 0.5 0.5 1 @kncolor
0.5 0.5 0.5 1;
#X obj 133 384 c.slider @size 10 50 @fontname Monaco @fontweight normal
@fontslant roman @fontsize 11 @idname (null) @presetname slid4L @mode
0 @min 0 @max 1 @bgcolor 0.8 0.9 0.9 1 @bdcolor 0.5 0.5 0.5 1 @kncolor
0.5 0.5 0.5 1;
#X obj 148 384 c.slider @size 10 50 @fontname Monaco @fontweight normal
@fontslant roman @fontsize 11 @idname (null) @presetname slid4R @mode
0 @min 0 @max 1 @bgcolor 0.8 0.9 0.9 1 @bdcolor 0.5 0.5 0.5 1 @kncolor
0.5 0.5 0.5 1;
#X obj 183 384 c.slider @size 10 50 @fontname Monaco @fontweight normal
@fontslant roman @fontsize 11 @idname (null) @presetname slid12L @mode
0 @min 0 @max 1 @bgcolor 0.8 0.9 0.9 1 @bdcolor 0.5 0.5 0.5 1 @kncolor
0.5 0.5 0.5 1;
#X obj 198 384 c.slider @size 10 50 @fontname Monaco @fontweight normal
@fontslant roman @fontsize 11 @idname (null) @presetname slid12R @mode
0 @min 0 @max 1 @bgcolor 0.8 0.9 0.9 1 @bdcolor 0.5 0.5 0.5 1 @kncolor
0.5 0.5 0.5 1;
#X obj 133 444 c.slider @size 10 50 @fontname Monaco @fontweight normal
@fontslant roman @fontsize 11 @idname (null) @presetname slid5L @mode
0 @min 0 @max 1 @bgcolor 0.6 0.9 0.9 1 @bdcolor 0.5 0.5 0.5 1 @kncolor
0.5 0.5 0.5 1;
#X obj 148 444 c.slider @size 10 50 @fontname Monaco @fontweight normal
@fontslant roman @fontsize 11 @idname (null) @presetname slid5R @mode
0 @min 0 @max 1 @bgcolor 0.6 0.9 0.9 1 @bdcolor 0.5 0.5 0.5 1 @kncolor
0.5 0.5 0.5 1;
#X obj 183 444 c.slider @size 10 50 @fontname Monaco @fontweight normal
@fontslant roman @fontsize 11 @idname (null) @presetname slid13L @mode
0 @min 0 @max 1 @bgcolor 0.6 0.9 0.9 1 @bdcolor 0.5 0.5 0.5 1 @kncolor
0.5 0.5 0.5 1;
#X obj 198 444 c.slider @size 10 50 @fontname Monaco @fontweight normal
@fontslant roman @fontsize 11 @idname (null) @presetname slid13R @mode
0 @min 0 @max 1 @bgcolor 0.6 0.9 0.9 1 @bdcolor 0.5 0.5 0.5 1 @kncolor
0.5 0.5 0.5 1;
#X obj 232 444 c.slider @size 10 50 @fontname Monaco @fontweight normal
@fontslant roman @fontsize 11 @idname (null) @presetname slid21L @mode
0 @min 0 @max 1 @bgcolor 0.6 0.9 0.9 1 @bdcolor 0.5 0.5 0.5 1 @kncolor
0.5 0.5 0.5 1;
#X obj 247 444 c.slider @size 10 50 @fontname Monaco @fontweight normal
@fontslant roman @fontsize 11 @idname (null) @presetname slid21R @mode
0 @min 0 @max 1 @bgcolor 0.6 0.9 0.9 1 @bdcolor 0.5 0.5 0.5 1 @kncolor
0.5 0.5 0.5 1;
#X obj 133 504 c.slider @size 10 50 @fontname Monaco @fontweight normal
@fontslant roman @fontsize 11 @idname (null) @presetname slid6L @mode
0 @min 0 @max 1 @bgcolor 0.5 0.7 0.8 1 @bdcolor 0.5 0.5 0.5 1 @kncolor
0.5 0.5 0.5 1;
#X obj 148 504 c.slider @size 10 50 @fontname Monaco @fontweight normal
@fontslant roman @fontsize 11 @idname (null) @presetname slid6R @mode
0 @min 0 @max 1 @bgcolor 0.5 0.7 0.8 1 @bdcolor 0.5 0.5 0.5 1 @kncolor
0.5 0.5 0.5 1;
#X obj 183 504 c.slider @size 10 50 @fontname Monaco @fontweight normal
@fontslant roman @fontsize 11 @idname (null) @presetname slid14L @mode
0 @min 0 @max 1 @bgcolor 0.5 0.7 0.8 1 @bdcolor 0.5 0.5 0.5 1 @kncolor
0.5 0.5 0.5 1;
#X obj 198 504 c.slider @size 10 50 @fontname Monaco @fontweight normal
@fontslant roman @fontsize 11 @idname (null) @presetname slid14R @mode
0 @min 0 @max 1 @bgcolor 0.5 0.7 0.8 1 @bdcolor 0.5 0.5 0.5 1 @kncolor
0.5 0.5 0.5 1;
#X obj 232 504 c.slider @size 10 50 @fontname Monaco @fontweight normal
@fontslant roman @fontsize 11 @idname (null) @presetname slid22L @mode
0 @min 0 @max 1 @bgcolor 0.5 0.7 0.8 1 @bdcolor 0.5 0.5 0.5 1 @kncolor
0.5 0.5 0.5 1;
#X obj 247 504 c.slider @size 10 50 @fontname Monaco @fontweight normal
@fontslant roman @fontsize 11 @idname (null) @presetname slid22R @mode
0 @min 0 @max 1 @bgcolor 0.5 0.7 0.8 1 @bdcolor 0.5 0.5 0.5 1 @kncolor
0.5 0.5 0.5 1;
#X obj 132 563 c.slider @size 10 50 @fontname Monaco @fontweight normal
@fontslant roman @fontsize 11 @idname (null) @presetname slid7L @mode
0 @min 0 @max 1 @bgcolor 0.25 0.65 0.7 0.3 @bdcolor 0.5 0.5 0.5 1 @kncolor
0.5 0.5 0.5 1;
#X obj 147 563 c.slider @size 10 50 @fontname Monaco @fontweight normal
@fontslant roman @fontsize 11 @idname (null) @presetname slid7R @mode
0 @min 0 @max 1 @bgcolor 0.25 0.65 0.7 0.3 @bdcolor 0.5 0.5 0.5 1 @kncolor
0.5 0.5 0.5 1;
#X obj 182 563 c.slider @size 10 50 @fontname Monaco @fontweight normal
@fontslant roman @fontsize 11 @idname (null) @presetname slid15L @mode
0 @min 0 @max 1 @bgcolor 0.25 0.65 0.7 0.3 @bdcolor 0.5 0.5 0.5 1 @kncolor
0.5 0.5 0.5 1;
#X obj 197 563 c.slider @size 10 50 @fontname Monaco @fontweight normal
@fontslant roman @fontsize 11 @idname (null) @presetname slid15R @mode
0 @min 0 @max 1 @bgcolor 0.25 0.65 0.7 0.3 @bdcolor 0.5 0.5 0.5 1 @kncolor
0.5 0.5 0.5 1;
#X obj 231 563 c.slider @size 10 50 @fontname Monaco @fontweight normal
@fontslant roman @fontsize 11 @idname (null) @presetname slid23L @mode
0 @min 0 @max 1 @bgcolor 0.25 0.65 0.7 0.3 @bdcolor 0.5 0.5 0.5 1 @kncolor
0.5 0.5 0.5 1;
#X obj 246 563 c.slider @size 10 50 @fontname Monaco @fontweight normal
@fontslant roman @fontsize 11 @idname (null) @presetname slid23R @mode
0 @min 0 @max 1 @bgcolor 0.25 0.65 0.7 0.3 @bdcolor 0.5 0.5 0.5 1 @kncolor
0.5 0.5 0.5 1;
#X obj 132 623 c.slider @size 10 50 @fontname Monaco @fontweight normal
@fontslant roman @fontsize 11 @idname (null) @presetname slid8L @mode
0 @min 0 @max 1 @bgcolor 1 0.55 0.6 0 @bdcolor 0.5 0.5 0.5 1 @kncolor
0.5 0.5 0.5 1;
#X obj 147 623 c.slider @size 10 50 @fontname Monaco @fontweight normal
@fontslant roman @fontsize 11 @idname (null) @presetname slid8R @mode
0 @min 0 @max 1 @bgcolor 1 0.55 0.6 0 @bdcolor 0.5 0.5 0.5 1 @kncolor
0.5 0.5 0.5 1;
#X obj 182 623 c.slider @size 10 50 @fontname Monaco @fontweight normal
@fontslant roman @fontsize 11 @idname (null) @presetname slid16L @mode
0 @min 0 @max 1 @bgcolor 1 0.55 0.6 0 @bdcolor 0.5 0.5 0.5 1 @kncolor
0.5 0.5 0.5 1;
#X obj 197 623 c.slider @size 10 50 @fontname Monaco @fontweight normal
@fontslant roman @fontsize 11 @idname (null) @presetname slid16R @mode
0 @min 0 @max 1 @bgcolor 1 0.55 0.6 0 @bdcolor 0.5 0.5 0.5 1 @kncolor
0.5 0.5 0.5 1;
#X obj 231 623 c.slider @size 10 50 @fontname Monaco @fontweight normal
@fontslant roman @fontsize 11 @idname (null) @presetname slid24L @mode
0 @min 0 @max 1 @bgcolor 1 0.55 0.6 0 @bdcolor 0.5 0.5 0.5 1 @kncolor
0.5 0.5 0.5 1;
#X obj 246 623 c.slider @size 10 50 @fontname Monaco @fontweight normal
@fontslant roman @fontsize 11 @idname (null) @presetname slid24R @mode
0 @min 0 @max 1 @bgcolor 1 0.55 0.6 0 @bdcolor 0.5 0.5 0.5 1 @kncolor
0.5 0.5 0.5 1;
#X obj 182 193 c.slider @size 10 50 @fontname Monaco @fontweight normal
@fontslant roman @fontsize 11 @idname (null) @presetname slid9L @mode
0 @min 0 @max 1 @bgcolor 1 0.75 0.75 1 @bdcolor 0.5 0.5 0.5 1 @kncolor
0.5 0.5 0.5 1;
#X obj 197 193 c.slider @size 8 50 @fontname Monaco @fontweight normal
@fontslant roman @fontsize 11 @idname (null) @presetname slid9R @mode
0 @min 0 @max 1 @bgcolor 1 0.75 0.75 1 @bdcolor 0.5 0.5 0.5 1 @kncolor
0.5 0.5 0.5 1;
#X obj 231 193 c.slider @size 10 50 @fontname Monaco @fontweight normal
@fontslant roman @fontsize 11 @idname mic1 @presetname slid17L @mode
0 @min 0 @max 1 @bgcolor 1 0.75 0.75 1 @bdcolor 0.5 0.5 0.5 1 @kncolor
0.5 0.5 0.5 1;
#X obj 246 193 c.slider @size 10 50 @fontname Monaco @fontweight normal
@fontslant roman @fontsize 11 @idname (null) @presetname slid17R @mode
0 @min 0 @max 1 @bgcolor 1 0.75 0.75 1 @bdcolor 0.5 0.5 0.5 1 @kncolor
0.5 0.5 0.5 1;
#X obj 277 193 c.slider @size 10 50 @fontname Monaco @fontweight normal
@fontslant roman @fontsize 11 @idname mic1 @presetname s1l @mode 0
@min 0 @max 1 @bgcolor 1 0.75 0.75 1 @bdcolor 0.5 0.5 0.5 1 @kncolor
0.5 0.5 0.5 1;
#X obj 292 193 c.slider @size 10 50 @fontname Monaco @fontweight normal
@fontslant roman @fontsize 11 @idname (null) @presetname s1r @mode
0 @min 0 @max 1 @bgcolor 1 0.75 0.75 1 @bdcolor 0.5 0.5 0.5 1 @kncolor
0.5 0.5 0.5 1;
#X obj 278 262 c.slider @size 10 50 @fontname Monaco @fontweight normal
@fontslant roman @fontsize 11 @idname (null) @presetname s3l @mode
0 @min 0 @max 1 @bgcolor 1 0.7 0.8 1 @bdcolor 0.5 0.5 0.5 1 @kncolor
0.5 0.5 0.5 1;
#X obj 293 262 c.slider @size 10 50 @fontname Monaco @fontweight normal
@fontslant roman @fontsize 11 @idname (null) @presetname s3r @mode
0 @min 0 @max 1 @bgcolor 1 0.7 0.8 1 @bdcolor 0.5 0.5 0.5 1 @kncolor
0.5 0.5 0.5 1;
#X obj 327 262 c.slider @size 10 50 @fontname Monaco @fontweight normal
@fontslant roman @fontsize 11 @idname (null) @presetname s12l @mode
0 @min 0 @max 1 @bgcolor 1 0.7 0.8 1 @bdcolor 0.5 0.5 0.5 1 @kncolor
0.5 0.5 0.5 1;
#X obj 342 262 c.slider @size 10 50 @fontname Monaco @fontweight normal
@fontslant roman @fontsize 11 @idname (null) @presetname s12r @mode
0 @min 0 @max 1 @bgcolor 1 0.7 0.8 1 @bdcolor 0.5 0.5 0.5 1 @kncolor
0.5 0.5 0.5 1;
#X obj 377 262 c.slider @size 10 50 @fontname Monaco @fontweight normal
@fontslant roman @fontsize 11 @idname (null) @presetname s21l @mode
0 @min 0 @max 1 @bgcolor 1 0.7 0.8 1 @bdcolor 0.5 0.5 0.5 1 @kncolor
0.5 0.5 0.5 1;
#X obj 392 262 c.slider @size 10 50 @fontname Monaco @fontweight normal
@fontslant roman @fontsize 11 @idname (null) @presetname s21r @mode
0 @min 0 @max 1 @bgcolor 1 0.7 0.8 1 @bdcolor 0.5 0.5 0.5 1 @kncolor
0.5 0.5 0.5 1;
#X obj 278 322 c.slider @size 10 50 @fontname Monaco @fontweight normal
@fontslant roman @fontsize 11 @idname (null) @presetname s4l @mode
0 @min 0 @max 1 @bgcolor 1 0.9 0.9 1 @bdcolor 0.5 0.5 0.5 1 @kncolor
0.5 0.5 0.5 1;
#X obj 293 322 c.slider @size 10 50 @fontname Monaco @fontweight normal
@fontslant roman @fontsize 11 @idname (null) @presetname s4r @mode
0 @min 0 @max 1 @bgcolor 1 0.9 0.9 1 @bdcolor 0.5 0.5 0.5 1 @kncolor
0.5 0.5 0.5 1;
#X obj 327 322 c.slider @size 10 50 @fontname Monaco @fontweight normal
@fontslant roman @fontsize 11 @idname (null) @presetname s13l @mode
0 @min 0 @max 1 @bgcolor 1 0.9 0.9 1 @bdcolor 0.5 0.5 0.5 1 @kncolor
0.5 0.5 0.5 1;
#X obj 342 322 c.slider @size 10 50 @fontname Monaco @fontweight normal
@fontslant roman @fontsize 11 @idname (null) @presetname s13r @mode
0 @min 0 @max 1 @bgcolor 1 0.9 0.9 1 @bdcolor 0.5 0.5 0.5 1 @kncolor
0.5 0.5 0.5 1;
#X obj 377 322 c.slider @size 10 50 @fontname Monaco @fontweight normal
@fontslant roman @fontsize 11 @idname (null) @presetname s22l @mode
0 @min 0 @max 1 @bgcolor 1 0.9 0.9 1 @bdcolor 0.5 0.5 0.5 1 @kncolor
0.5 0.5 0.5 1;
#X obj 392 322 c.slider @size 10 50 @fontname Monaco @fontweight normal
@fontslant roman @fontsize 11 @idname (null) @presetname s22r @mode
0 @min 0 @max 1 @bgcolor 1 0.9 0.9 1 @bdcolor 0.5 0.5 0.5 1 @kncolor
0.5 0.5 0.5 1;
#X obj 279 384 c.slider @size 10 50 @fontname Monaco @fontweight normal
@fontslant roman @fontsize 11 @idname (null) @presetname s5l @mode
0 @min 0 @max 1 @bgcolor 0.8 0.9 0.9 1 @bdcolor 0.5 0.5 0.5 1 @kncolor
0.5 0.5 0.5 1;
#X obj 294 384 c.slider @size 10 50 @fontname Monaco @fontweight normal
@fontslant roman @fontsize 11 @idname (null) @presetname s5r @mode
0 @min 0 @max 1 @bgcolor 0.8 0.9 0.9 1 @bdcolor 0.5 0.5 0.5 1 @kncolor
0.5 0.5 0.5 1;
#X obj 328 384 c.slider @size 10 50 @fontname Monaco @fontweight normal
@fontslant roman @fontsize 11 @idname (null) @presetname s14l @mode
0 @min 0 @max 1 @bgcolor 0.8 0.9 0.9 1 @bdcolor 0.5 0.5 0.5 1 @kncolor
0.5 0.5 0.5 1;
#X obj 343 384 c.slider @size 10 50 @fontname Monaco @fontweight normal
@fontslant roman @fontsize 11 @idname (null) @presetname s14r @mode
0 @min 0 @max 1 @bgcolor 0.8 0.9 0.9 1 @bdcolor 0.5 0.5 0.5 1 @kncolor
0.5 0.5 0.5 1;
#X obj 378 384 c.slider @size 10 50 @fontname Monaco @fontweight normal
@fontslant roman @fontsize 11 @idname (null) @presetname s23l @mode
0 @min 0 @max 1 @bgcolor 0.8 0.9 0.9 1 @bdcolor 0.5 0.5 0.5 1 @kncolor
0.5 0.5 0.5 1;
#X obj 393 384 c.slider @size 10 50 @fontname Monaco @fontweight normal
@fontslant roman @fontsize 11 @idname (null) @presetname s23r @mode
0 @min 0 @max 1 @bgcolor 0.8 0.9 0.9 1 @bdcolor 0.5 0.5 0.5 1 @kncolor
0.5 0.5 0.5 1;
#X obj 328 444 c.slider @size 10 50 @fontname Monaco @fontweight normal
@fontslant roman @fontsize 11 @idname (null) @presetname s15l @mode
0 @min 0 @max 1 @bgcolor 0.6 0.9 0.9 1 @bdcolor 0.5 0.5 0.5 1 @kncolor
0.5 0.5 0.5 1;
#X obj 343 444 c.slider @size 10 50 @fontname Monaco @fontweight normal
@fontslant roman @fontsize 11 @idname (null) @presetname s15r @mode
0 @min 0 @max 1 @bgcolor 0.6 0.9 0.9 1 @bdcolor 0.5 0.5 0.5 1 @kncolor
0.5 0.5 0.5 1;
#X obj 378 444 c.slider @size 10 50 @fontname Monaco @fontweight normal
@fontslant roman @fontsize 11 @idname (null) @presetname s24l @mode
0 @min 0 @max 1 @bgcolor 0.6 0.9 0.9 1 @bdcolor 0.5 0.5 0.5 1 @kncolor
0.5 0.5 0.5 1;
#X obj 393 444 c.slider @size 10 50 @fontname Monaco @fontweight normal
@fontslant roman @fontsize 11 @idname (null) @presetname s24l @mode
0 @min 0 @max 1 @bgcolor 0.6 0.9 0.9 1 @bdcolor 0.5 0.5 0.5 1 @kncolor
0.5 0.5 0.5 1;
#X obj 278 502 c.slider @size 10 50 @fontname Monaco @fontweight normal
@fontslant roman @fontsize 11 @idname (null) @presetname s7l @mode
0 @min 0 @max 1 @bgcolor 0.5 0.7 0.8 1 @bdcolor 0.5 0.5 0.5 1 @kncolor
0.5 0.5 0.5 1;
#X obj 293 502 c.slider @size 10 50 @fontname Monaco @fontweight normal
@fontslant roman @fontsize 11 @idname (null) @presetname s7r @mode
0 @min 0 @max 1 @bgcolor 0.5 0.7 0.8 1 @bdcolor 0.5 0.5 0.5 1 @kncolor
0.5 0.5 0.5 1;
#X obj 378 504 c.slider @size 10 50 @fontname Monaco @fontweight normal
@fontslant roman @fontsize 11 @idname (null) @presetname s25l @mode
0 @min 0 @max 1 @bgcolor 0.5 0.7 0.8 1 @bdcolor 0.5 0.5 0.5 1 @kncolor
0.5 0.5 0.5 1;
#X obj 393 504 c.slider @size 10 50 @fontname Monaco @fontweight normal
@fontslant roman @fontsize 11 @idname (null) @presetname s25l @mode
0 @min 0 @max 1 @bgcolor 0.5 0.7 0.8 1 @bdcolor 0.5 0.5 0.5 1 @kncolor
0.5 0.5 0.5 1;
#X obj 278 563 c.slider @size 10 50 @fontname Monaco @fontweight normal
@fontslant roman @fontsize 11 @idname (null) @presetname s8l @mode
0 @min 0 @max 1 @bgcolor 0.25 0.65 0.7 0.3 @bdcolor 0.5 0.5 0.5 1 @kncolor
0.5 0.5 0.5 1;
#X obj 293 563 c.slider @size 10 50 @fontname Monaco @fontweight normal
@fontslant roman @fontsize 11 @idname (null) @presetname s8r @mode
0 @min 0 @max 1 @bgcolor 0.25 0.65 0.7 0.3 @bdcolor 0.5 0.5 0.5 1 @kncolor
0.5 0.5 0.5 1;
#X obj 327 563 c.slider @size 10 50 @fontname Monaco @fontweight normal
@fontslant roman @fontsize 11 @idname (null) @presetname s17l @mode
0 @min 0 @max 1 @bgcolor 0.25 0.65 0.7 0.3 @bdcolor 0.5 0.5 0.5 1 @kncolor
0.5 0.5 0.5 1;
#X obj 342 563 c.slider @size 10 50 @fontname Monaco @fontweight normal
@fontslant roman @fontsize 11 @idname (null) @presetname s17r @mode
0 @min 0 @max 1 @bgcolor 0.25 0.65 0.7 0.3 @bdcolor 0.5 0.5 0.5 1 @kncolor
0.5 0.5 0.5 1;
#X obj 278 623 c.slider @size 10 50 @fontname Monaco @fontweight normal
@fontslant roman @fontsize 11 @idname (null) @presetname s9l @mode
0 @min 0 @max 1 @bgcolor 1 0.55 0.6 0 @bdcolor 0.5 0.5 0.5 1 @kncolor
0.5 0.5 0.5 1;
#X obj 293 623 c.slider @size 10 50 @fontname Monaco @fontweight normal
@fontslant roman @fontsize 11 @idname (null) @presetname s9r @mode
0 @min 0 @max 1 @bgcolor 1 0.55 0.6 0 @bdcolor 0.5 0.5 0.5 1 @kncolor
0.5 0.5 0.5 1;
#X obj 327 623 c.slider @size 10 50 @fontname Monaco @fontweight normal
@fontslant roman @fontsize 11 @idname (null) @presetname s18l @mode
0 @min 0 @max 1 @bgcolor 1 0.55 0.6 0 @bdcolor 0.5 0.5 0.5 1 @kncolor
0.5 0.5 0.5 1;
#X obj 342 623 c.slider @size 10 50 @fontname Monaco @fontweight normal
@fontslant roman @fontsize 11 @idname (null) @presetname s18r @mode
0 @min 0 @max 1 @bgcolor 1 0.55 0.6 0 @bdcolor 0.5 0.5 0.5 1 @kncolor
0.5 0.5 0.5 1;
#X obj 377 623 c.slider @size 10 50 @fontname Monaco @fontweight normal
@fontslant roman @fontsize 11 @idname (null) @presetname s27l @mode
0 @min 0 @max 1 @bgcolor 1 0.55 0.6 0 @bdcolor 0.5 0.5 0.5 1 @kncolor
0.5 0.5 0.5 1;
#X obj 392 623 c.slider @size 10 50 @fontname Monaco @fontweight normal
@fontslant roman @fontsize 11 @idname (null) @presetname s27r @mode
0 @min 0 @max 1 @bgcolor 1 0.55 0.6 0 @bdcolor 0.5 0.5 0.5 1 @kncolor
0.5 0.5 0.5 1;
#X obj 326 193 c.slider @size 10 50 @fontname Monaco @fontweight normal
@fontslant roman @fontsize 11 @idname s10l @presetname slid1L @mode
0 @min 0 @max 1 @bgcolor 1 0.75 0.75 1 @bdcolor 0.5 0.5 0.5 1 @kncolor
0.5 0.5 0.5 1;
#X obj 341 193 c.slider @size 10 50 @fontname Monaco @fontweight normal
@fontslant roman @fontsize 11 @idname (null) @presetname s10r @mode
0 @min 0 @max 1 @bgcolor 1 0.75 0.75 1 @bdcolor 0.5 0.5 0.5 1 @kncolor
0.5 0.5 0.5 1;
#X obj 377 193 c.slider @size 10 50 @fontname Monaco @fontweight normal
@fontslant roman @fontsize 11 @idname mic1 @presetname s19l @mode 0
@min 0 @max 1 @bgcolor 1 0.75 0.75 1 @bdcolor 0.5 0.5 0.5 1 @kncolor
0.5 0.5 0.5 1;
#X obj 394 193 c.slider @size 10 50 @fontname Monaco @fontweight normal
@fontslant roman @fontsize 11 @idname (null) @presetname s19r @mode
0 @min 0 @max 1 @bgcolor 1 0.75 0.75 1 @bdcolor 0.5 0.5 0.5 1 @kncolor
0.5 0.5 0.5 1;
#X obj 433 262 c.slider @size 10 50 @fontname Monaco @fontweight normal
@fontslant roman @fontsize 11 @idname (null) @presetname s31l @mode
0 @min 0 @max 1 @bgcolor 1 0.7 0.8 1 @bdcolor 0.5 0.5 0.5 1 @kncolor
0.5 0.5 0.5 1;
#X obj 448 262 c.slider @size 10 50 @fontname Monaco @fontweight normal
@fontslant roman @fontsize 11 @idname (null) @presetname s31r @mode
0 @min 0 @max 1 @bgcolor 1 0.7 0.8 1 @bdcolor 0.5 0.5 0.5 1 @kncolor
0.5 0.5 0.5 1;
#X obj 433 322 c.slider @size 10 50 @fontname Monaco @fontweight normal
@fontslant roman @fontsize 11 @idname (null) @presetname s32l @mode
0 @min 0 @max 1 @bgcolor 1 0.9 0.9 1 @bdcolor 0.5 0.5 0.5 1 @kncolor
0.5 0.5 0.5 1;
#X obj 448 322 c.slider @size 10 50 @fontname Monaco @fontweight normal
@fontslant roman @fontsize 11 @idname (null) @presetname s32r @mode
0 @min 0 @max 1 @bgcolor 1 0.9 0.9 1 @bdcolor 0.5 0.5 0.5 1 @kncolor
0.5 0.5 0.5 1;
#X obj 434 384 c.slider @size 10 50 @fontname Monaco @fontweight normal
@fontslant roman @fontsize 11 @idname (null) @presetname s33l @mode
0 @min 0 @max 1 @bgcolor 0.8 0.9 0.9 1 @bdcolor 0.5 0.5 0.5 1 @kncolor
0.5 0.5 0.5 1;
#X obj 449 384 c.slider @size 10 50 @fontname Monaco @fontweight normal
@fontslant roman @fontsize 11 @idname (null) @presetname s33r @mode
0 @min 0 @max 1 @bgcolor 0.8 0.9 0.9 1 @bdcolor 0.5 0.5 0.5 1 @kncolor
0.5 0.5 0.5 1;
#X obj 434 444 c.slider @size 10 50 @fontname Monaco @fontweight normal
@fontslant roman @fontsize 11 @idname (null) @presetname s34l @mode
0 @min 0 @max 1 @bgcolor 0.6 0.9 0.9 1 @bdcolor 0.5 0.5 0.5 1 @kncolor
0.5 0.5 0.5 1;
#X obj 449 444 c.slider @size 10 50 @fontname Monaco @fontweight normal
@fontslant roman @fontsize 11 @idname (null) @presetname s34r @mode
0 @min 0 @max 1 @bgcolor 0.6 0.9 0.9 1 @bdcolor 0.5 0.5 0.5 1 @kncolor
0.5 0.5 0.5 1;
#X obj 434 504 c.slider @size 10 50 @fontname Monaco @fontweight normal
@fontslant roman @fontsize 11 @idname (null) @presetname s35l @mode
0 @min 0 @max 1 @bgcolor 0.5 0.7 0.8 1 @bdcolor 0.5 0.5 0.5 1 @kncolor
0.5 0.5 0.5 1;
#X obj 449 504 c.slider @size 10 50 @fontname Monaco @fontweight normal
@fontslant roman @fontsize 11 @idname (null) @presetname s35r @mode
0 @min 0 @max 1 @bgcolor 0.5 0.7 0.8 1 @bdcolor 0.5 0.5 0.5 1 @kncolor
0.5 0.5 0.5 1;
#X obj 433 563 c.slider @size 10 50 @fontname Monaco @fontweight normal
@fontslant roman @fontsize 11 @idname (null) @presetname s36l @mode
0 @min 0 @max 1 @bgcolor 0.25 0.65 0.7 0.3 @bdcolor 0.5 0.5 0.5 1 @kncolor
0.5 0.5 0.5 1;
#X obj 448 563 c.slider @size 10 50 @fontname Monaco @fontweight normal
@fontslant roman @fontsize 11 @idname (null) @presetname s36r @mode
0 @min 0 @max 1 @bgcolor 0.25 0.65 0.7 0.3 @bdcolor 0.5 0.5 0.5 1 @kncolor
0.5 0.5 0.5 1;
#X obj 433 193 c.slider @size 10 50 @fontname Monaco @fontweight normal
@fontslant roman @fontsize 11 @idname (null) @presetname s28l @mode
0 @min 0 @max 1 @bgcolor 1 0.75 0.75 1 @bdcolor 0.5 0.5 0.5 1 @kncolor
0.5 0.5 0.5 1;
#X obj 448 193 c.slider @size 10 50 @fontname Monaco @fontweight normal
@fontslant roman @fontsize 11 @idname (null) @presetname s29r @mode
0 @min 0 @max 1 @bgcolor 1 0.75 0.75 1 @bdcolor 0.5 0.5 0.5 1 @kncolor
0.5 0.5 0.5 1;
#X text 574 262 FREEVERB;
#X text 581 332 REVERB;
#X text 574 391 PITCH 1;
#X text 574 450 PITCH 2;
#X text 582 506 DELAY;
#X text 579 569 CORTES;
#X text 581 624 DISTO;
#X obj 132 682 c.slider @size 10 50 @fontname Monaco @fontweight normal
@fontslant roman @fontsize 11 @idname mic1 @presetname slidB1L @mode
0 @min 0 @max 1 @bgcolor 1 0.85 0.65 1 @bdcolor 0.5 0.5 0.5 1 @kncolor
0.5 0.5 0.5 1;
#X obj 148 682 c.slider @size 10 50 @fontname Monaco @fontweight normal
@fontslant roman @fontsize 11 @idname (null) @presetname slidB1R @mode
0 @min 0 @max 1 @bgcolor 1 0.85 0.65 1 @bdcolor 0.5 0.5 0.5 1 @kncolor
0.5 0.5 0.5 1;
#X obj 182 682 c.slider @size 10 50 @fontname Monaco @fontweight normal
@fontslant roman @fontsize 11 @idname (null) @presetname slid9BL @mode
0 @min 0 @max 1 @bgcolor 1 0.85 0.65 1 @bdcolor 0.5 0.5 0.5 1 @kncolor
0.5 0.5 0.5 1;
#X obj 197 682 c.slider @size 10 50 @fontname Monaco @fontweight normal
@fontslant roman @fontsize 11 @idname (null) @presetname slidB9R @mode
0 @min 0 @max 1 @bgcolor 1 0.85 0.65 1 @bdcolor 0.5 0.5 0.5 1 @kncolor
0.5 0.5 0.5 1;
#X obj 231 682 c.slider @size 10 50 @fontname Monaco @fontweight normal
@fontslant roman @fontsize 11 @idname (null) @presetname slidB17L @mode
0 @min 0 @max 1 @bgcolor 1 0.85 0.65 1 @bdcolor 0.5 0.5 0.5 1 @kncolor
0.5 0.5 0.5 1;
#X obj 246 682 c.slider @size 10 50 @fontname Monaco @fontweight normal
@fontslant roman @fontsize 11 @idname (null) @presetname slidB17R @mode
0 @min 0 @max 1 @bgcolor 1 0.85 0.65 1 @bdcolor 0.5 0.5 0.5 1 @kncolor
0.5 0.5 0.5 1;
#X obj 277 682 c.slider @size 10 50 @fontname Monaco @fontweight normal
@fontslant roman @fontsize 11 @idname mic1 @presetname s2l @mode 0
@min 0 @max 1 @bgcolor 1 0.85 0.65 1 @bdcolor 0.5 0.5 0.5 1 @kncolor
0.5 0.5 0.5 1;
#X obj 292 682 c.slider @size 10 50 @fontname Monaco @fontweight normal
@fontslant roman @fontsize 11 @idname (null) @presetname s2r @mode
0 @min 0 @max 1 @bgcolor 1 0.85 0.65 1 @bdcolor 0.5 0.5 0.5 1 @kncolor
0.5 0.5 0.5 1;
#X obj 326 682 c.slider @size 10 50 @fontname Monaco @fontweight normal
@fontslant roman @fontsize 11 @idname (null) @presetname s11l @mode
0 @min 0 @max 1 @bgcolor 1 0.85 0.65 1 @bdcolor 0.5 0.5 0.5 1 @kncolor
0.5 0.5 0.5 1;
#X obj 341 682 c.slider @size 10 50 @fontname Monaco @fontweight normal
@fontslant roman @fontsize 11 @idname (null) @presetname s11r @mode
0 @min 0 @max 1 @bgcolor 1 0.85 0.65 1 @bdcolor 0.5 0.5 0.5 1 @kncolor
0.5 0.5 0.5 1;
#X obj 377 682 c.slider @size 10 50 @fontname Monaco @fontweight normal
@fontslant roman @fontsize 11 @idname mic1 @presetname s20l @mode 0
@min 0 @max 1 @bgcolor 1 0.85 0.65 1 @bdcolor 0.5 0.5 0.5 1 @kncolor
0.5 0.5 0.5 1;
#X obj 392 682 c.slider @size 10 50 @fontname Monaco @fontweight normal
@fontslant roman @fontsize 11 @idname (null) @presetname s20r @mode
0 @min 0 @max 1 @bgcolor 1 0.85 0.65 1 @bdcolor 0.5 0.5 0.5 1 @kncolor
0.5 0.5 0.5 1;
#X obj 432 681 c.slider @size 10 50 @fontname Monaco @fontweight normal
@fontslant roman @fontsize 11 @idname mic1 @presetname s30l @mode 0
@min 0 @max 1 @bgcolor 1 0.85 0.65 1 @bdcolor 0.5 0.5 0.5 1 @kncolor
0.5 0.5 0.5 1;
#X obj 447 681 c.slider @size 10 50 @fontname Monaco @fontweight normal
@fontslant roman @fontsize 11 @idname (null) @presetname s30r @mode
0 @min 0 @max 1 @bgcolor 1 0.85 0.65 1 @bdcolor 0.5 0.5 0.5 1 @kncolor
0.5 0.5 0.5 1;
#X obj 133 746 c.slider @size 10 50 @fontname Monaco @fontweight normal
@fontslant roman @fontsize 11 @idname mic1 @presetname s38l @mode 0
@min 0 @max 1 @bgcolor 0.5 0.75 1 1 @bdcolor 0.5 0.5 0.5 1 @kncolor
0.5 0.5 0.5 1;
#X obj 149 746 c.slider @size 10 50 @fontname Monaco @fontweight normal
@fontslant roman @fontsize 11 @idname (null) @presetname s38r @mode
0 @min 0 @max 1 @bgcolor 0.5 0.75 1 1 @bdcolor 0.5 0.5 0.5 1 @kncolor
0.5 0.5 0.5 1;
#X obj 183 746 c.slider @size 10 50 @fontname Monaco @fontweight normal
@fontslant roman @fontsize 11 @idname (null) @presetname s38l @mode
0 @min 0 @max 1 @bgcolor 0.5 0.75 1 1 @bdcolor 0.5 0.5 0.5 1 @kncolor
0.5 0.5 0.5 1;
#X obj 198 746 c.slider @size 10 50 @fontname Monaco @fontweight normal
@fontslant roman @fontsize 11 @idname (null) @presetname s39r @mode
0 @min 0 @max 1 @bgcolor 0.5 0.75 1 1 @bdcolor 0.5 0.5 0.5 1 @kncolor
0.5 0.5 0.5 1;
#X obj 232 746 c.slider @size 10 50 @fontname Monaco @fontweight normal
@fontslant roman @fontsize 11 @idname (null) @presetname s40l @mode
0 @min 0 @max 1 @bgcolor 0.5 0.75 1 1 @bdcolor 0.5 0.5 0.5 1 @kncolor
0.5 0.5 0.5 1;
#X obj 247 746 c.slider @size 10 50 @fontname Monaco @fontweight normal
@fontslant roman @fontsize 11 @idname (null) @presetname s40r @mode
0 @min 0 @max 1 @bgcolor 0.5 0.75 1 1 @bdcolor 0.5 0.5 0.5 1 @kncolor
0.5 0.5 0.5 1;
#X obj 278 746 c.slider @size 10 50 @fontname Monaco @fontweight normal
@fontslant roman @fontsize 11 @idname mic1 @presetname s41l @mode 0
@min 0 @max 1 @bgcolor 0.5 0.75 1 1 @bdcolor 0.5 0.5 0.5 1 @kncolor
0.5 0.5 0.5 1;
#X obj 293 746 c.slider @size 10 50 @fontname Monaco @fontweight normal
@fontslant roman @fontsize 11 @idname (null) @presetname s41r @mode
0 @min 0 @max 1 @bgcolor 0.5 0.75 1 1 @bdcolor 0.5 0.5 0.5 1 @kncolor
0.5 0.5 0.5 1;
#X obj 327 746 c.slider @size 10 50 @fontname Monaco @fontweight normal
@fontslant roman @fontsize 11 @idname (null) @presetname s42l @mode
0 @min 0 @max 1 @bgcolor 0.5 0.75 1 1 @bdcolor 0.5 0.5 0.5 1 @kncolor
0.5 0.5 0.5 1;
#X obj 342 746 c.slider @size 10 50 @fontname Monaco @fontweight normal
@fontslant roman @fontsize 11 @idname (null) @presetname s42r @mode
0 @min 0 @max 1 @bgcolor 0.5 0.75 1 1 @bdcolor 0.5 0.5 0.5 1 @kncolor
0.5 0.5 0.5 1;
#X obj 378 746 c.slider @size 10 50 @fontname Monaco @fontweight normal
@fontslant roman @fontsize 11 @idname mic1 @presetname s43l @mode 0
@min 0 @max 1 @bgcolor 0.5 0.75 1 1 @bdcolor 0.5 0.5 0.5 1 @kncolor
0.5 0.5 0.5 1;
#X obj 393 746 c.slider @size 10 50 @fontname Monaco @fontweight normal
@fontslant roman @fontsize 11 @idname (null) @presetname s43r @mode
0 @min 0 @max 1 @bgcolor 0.5 0.75 1 1 @bdcolor 0.5 0.5 0.5 1 @kncolor
0.5 0.5 0.5 1;
#X obj 433 745 c.slider @size 10 50 @fontname Monaco @fontweight normal
@fontslant roman @fontsize 11 @idname mic1 @presetname s44l @mode 0
@min 0 @max 1 @bgcolor 0.5 0.75 1 1 @bdcolor 0.5 0.5 0.5 1 @kncolor
0.5 0.5 0.5 1;
#X obj 448 745 c.slider @size 10 50 @fontname Monaco @fontweight normal
@fontslant roman @fontsize 11 @idname (null) @presetname s44r @mode
0 @min 0 @max 1 @bgcolor 0.5 0.75 1 1 @bdcolor 0.5 0.5 0.5 1 @kncolor
0.5 0.5 0.5 1;
#X text 580 687 GRANO;
#X text 585 750 EQUA;
#X obj 134 124 c.slider @size 10 50 @fontname Monaco @fontweight normal
@fontslant roman @fontsize 11 @idname mic1 @presetname s1bl @mode 0
@min 0 @max 1 @bgcolor 1 0.75 0.75 1 @bdcolor 0.5 0.5 0.5 1 @kncolor
0.5 0.5 0.5 1;
#X obj 149 124 c.slider @size 10 50 @fontname Monaco @fontweight normal
@fontslant roman @fontsize 11 @idname (null) @presetname s1br @mode
0 @min 0 @max 1 @bgcolor 1 0.75 0.75 1 @bdcolor 0.5 0.5 0.5 1 @kncolor
0.5 0.5 0.5 1;
#X obj 183 124 c.slider @size 10 50 @fontname Monaco @fontweight normal
@fontslant roman @fontsize 11 @idname (null) @presetname s2bl @mode
0 @min 0 @max 1 @bgcolor 1 0.75 0.75 1 @bdcolor 0.5 0.5 0.5 1 @kncolor
0.5 0.5 0.5 1;
#X obj 198 124 c.slider @size 10 50 @fontname Monaco @fontweight normal
@fontslant roman @fontsize 11 @idname (null) @presetname s2br @mode
0 @min 0 @max 1 @bgcolor 1 0.75 0.75 1 @bdcolor 0.5 0.5 0.5 1 @kncolor
0.5 0.5 0.5 1;
#X obj 232 124 c.slider @size 10 50 @fontname Monaco @fontweight normal
@fontslant roman @fontsize 11 @idname mic1 @presetname s3bl @mode 0
@min 0 @max 1 @bgcolor 1 0.75 0.75 1 @bdcolor 0.5 0.5 0.5 1 @kncolor
0.5 0.5 0.5 1;
#X obj 247 124 c.slider @size 10 50 @fontname Monaco @fontweight normal
@fontslant roman @fontsize 11 @idname (null) @presetname s3br @mode
0 @min 0 @max 1 @bgcolor 1 0.75 0.75 1 @bdcolor 0.5 0.5 0.5 1 @kncolor
0.5 0.5 0.5 1;
#X obj 278 124 c.slider @size 10 50 @fontname Monaco @fontweight normal
@fontslant roman @fontsize 11 @idname mic1 @presetname s4bl @mode 0
@min 0 @max 1 @bgcolor 1 0.75 0.75 1 @bdcolor 0.5 0.5 0.5 1 @kncolor
0.5 0.5 0.5 1;
#X obj 293 124 c.slider @size 10 50 @fontname Monaco @fontweight normal
@fontslant roman @fontsize 11 @idname (null) @presetname s4br @mode
0 @min 0 @max 1 @bgcolor 1 0.75 0.75 1 @bdcolor 0.5 0.5 0.5 1 @kncolor
0.5 0.5 0.5 1;
#X obj 327 124 c.slider @size 10 50 @fontname Monaco @fontweight normal
@fontslant roman @fontsize 11 @idname s10l @presetname s5bl @mode 0
@min 0 @max 1 @bgcolor 1 0.75 0.75 1 @bdcolor 0.5 0.5 0.5 1 @kncolor
0.5 0.5 0.5 1;
#X obj 342 124 c.slider @size 10 50 @fontname Monaco @fontweight normal
@fontslant roman @fontsize 11 @idname (null) @presetname s5br @mode
0 @min 0 @max 1 @bgcolor 1 0.75 0.75 1 @bdcolor 0.5 0.5 0.5 1 @kncolor
0.5 0.5 0.5 1;
#X obj 378 124 c.slider @size 10 50 @fontname Monaco @fontweight normal
@fontslant roman @fontsize 11 @idname mic1 @presetname s6bl @mode 0
@min 0 @max 1 @bgcolor 1 0.75 0.75 1 @bdcolor 0.5 0.5 0.5 1 @kncolor
0.5 0.5 0.5 1;
#X obj 395 124 c.slider @size 10 50 @fontname Monaco @fontweight normal
@fontslant roman @fontsize 11 @idname (null) @presetname s6br @mode
0 @min 0 @max 1 @bgcolor 1 0.75 0.75 1 @bdcolor 0.5 0.5 0.5 1 @kncolor
0.5 0.5 0.5 1;
#X obj 434 124 c.slider @size 10 50 @fontname Monaco @fontweight normal
@fontslant roman @fontsize 11 @idname (null) @presetname s7bl @mode
0 @min 0 @max 1 @bgcolor 1 0.75 0.75 1 @bdcolor 0.5 0.5 0.5 1 @kncolor
0.5 0.5 0.5 1;
#X obj 449 124 c.slider @size 10 50 @fontname Monaco @fontweight normal
@fontslant roman @fontsize 11 @idname (null) @presetname s7br @mode
0 @min 0 @max 1 @bgcolor 1 0.75 0.75 1 @bdcolor 0.5 0.5 0.5 1 @kncolor
0.5 0.5 0.5 1;
#X text 116 100 freeverb;
#X text 179 101 reverb;
#X text 232 100 pitch1;
#X text 277 99 pitch2;
#X text 327 98 delay;
#X text 373 99 cortes;
#X text 431 100 disto;
#X obj 485 262 c.slider @size 10 50 @fontname Monaco @fontweight normal
@fontslant roman @fontsize 11 @idname (null) @presetname s11bl @mode
0 @min 0 @max 1 @bgcolor 1 0.7 0.8 1 @bdcolor 0.5 0.5 0.5 1 @kncolor
0.5 0.5 0.5 1;
#X obj 500 262 c.slider @size 10 50 @fontname Monaco @fontweight normal
@fontslant roman @fontsize 11 @idname (null) @presetname s11br @mode
0 @min 0 @max 1 @bgcolor 1 0.7 0.8 1 @bdcolor 0.5 0.5 0.5 1 @kncolor
0.5 0.5 0.5 1;
#X obj 485 322 c.slider @size 10 50 @fontname Monaco @fontweight normal
@fontslant roman @fontsize 11 @idname (null) @presetname s12bl @mode
0 @min 0 @max 1 @bgcolor 1 0.9 0.9 1 @bdcolor 0.5 0.5 0.5 1 @kncolor
0.5 0.5 0.5 1;
#X obj 500 322 c.slider @size 10 50 @fontname Monaco @fontweight normal
@fontslant roman @fontsize 11 @idname (null) @presetname s12br @mode
0 @min 0 @max 1 @bgcolor 1 0.9 0.9 1 @bdcolor 0.5 0.5 0.5 1 @kncolor
0.5 0.5 0.5 1;
#X obj 486 384 c.slider @size 10 50 @fontname Monaco @fontweight normal
@fontslant roman @fontsize 11 @idname (null) @presetname s13bl @mode
0 @min 0 @max 1 @bgcolor 0.8 0.9 0.9 1 @bdcolor 0.5 0.5 0.5 1 @kncolor
0.5 0.5 0.5 1;
#X obj 501 384 c.slider @size 10 50 @fontname Monaco @fontweight normal
@fontslant roman @fontsize 11 @idname (null) @presetname s13br @mode
0 @min 0 @max 1 @bgcolor 0.8 0.9 0.9 1 @bdcolor 0.5 0.5 0.5 1 @kncolor
0.5 0.5 0.5 1;
#X obj 486 444 c.slider @size 10 50 @fontname Monaco @fontweight normal
@fontslant roman @fontsize 11 @idname (null) @presetname s14bl @mode
0 @min 0 @max 1 @bgcolor 0.6 0.9 0.9 1 @bdcolor 0.5 0.5 0.5 1 @kncolor
0.5 0.5 0.5 1;
#X obj 501 444 c.slider @size 10 50 @fontname Monaco @fontweight normal
@fontslant roman @fontsize 11 @idname (null) @presetname s14br @mode
0 @min 0 @max 1 @bgcolor 0.6 0.9 0.9 1 @bdcolor 0.5 0.5 0.5 1 @kncolor
0.5 0.5 0.5 1;
#X obj 486 504 c.slider @size 10 50 @fontname Monaco @fontweight normal
@fontslant roman @fontsize 11 @idname (null) @presetname s15bl @mode
0 @min 0 @max 1 @bgcolor 0.5 0.7 0.8 1 @bdcolor 0.5 0.5 0.5 1 @kncolor
0.5 0.5 0.5 1;
#X obj 501 504 c.slider @size 10 50 @fontname Monaco @fontweight normal
@fontslant roman @fontsize 11 @idname (null) @presetname s15br @mode
0 @min 0 @max 1 @bgcolor 0.5 0.7 0.8 1 @bdcolor 0.5 0.5 0.5 1 @kncolor
0.5 0.5 0.5 1;
#X obj 485 623 c.slider @size 10 50 @fontname Monaco @fontweight normal
@fontslant roman @fontsize 11 @idname (null) @presetname s17bl @mode
0 @min 0 @max 1 @bgcolor 1 0.55 0.6 0 @bdcolor 0.5 0.5 0.5 1 @kncolor
0.5 0.5 0.5 1;
#X obj 500 623 c.slider @size 10 50 @fontname Monaco @fontweight normal
@fontslant roman @fontsize 11 @idname (null) @presetname s17br @mode
0 @min 0 @max 1 @bgcolor 1 0.55 0.6 0 @bdcolor 0.5 0.5 0.5 1 @kncolor
0.5 0.5 0.5 1;
#X obj 485 193 c.slider @size 10 50 @fontname Monaco @fontweight normal
@fontslant roman @fontsize 11 @idname mic1 @presetname s10bl @mode
0 @min 0 @max 1 @bgcolor 1 0.75 0.75 1 @bdcolor 0.5 0.5 0.5 1 @kncolor
0.5 0.5 0.5 1;
#X obj 502 193 c.slider @size 10 50 @fontname Monaco @fontweight normal
@fontslant roman @fontsize 11 @idname (null) @presetname s10br @mode
0 @min 0 @max 1 @bgcolor 1 0.75 0.75 1 @bdcolor 0.5 0.5 0.5 1 @kncolor
0.5 0.5 0.5 1;
#X obj 541 262 c.slider @size 10 50 @fontname Monaco @fontweight normal
@fontslant roman @fontsize 11 @idname (null) @presetname s21bl @mode
0 @min 0 @max 1 @bgcolor 1 0.7 0.8 1 @bdcolor 0.5 0.5 0.5 1 @kncolor
0.5 0.5 0.5 1;
#X obj 556 262 c.slider @size 10 50 @fontname Monaco @fontweight normal
@fontslant roman @fontsize 11 @idname (null) @presetname s21br @mode
0 @min 0 @max 1 @bgcolor 1 0.7 0.8 1 @bdcolor 0.5 0.5 0.5 1 @kncolor
0.5 0.5 0.5 1;
#X obj 541 322 c.slider @size 10 50 @fontname Monaco @fontweight normal
@fontslant roman @fontsize 11 @idname (null) @presetname s22bl @mode
0 @min 0 @max 1 @bgcolor 1 0.9 0.9 1 @bdcolor 0.5 0.5 0.5 1 @kncolor
0.5 0.5 0.5 1;
#X obj 556 322 c.slider @size 10 50 @fontname Monaco @fontweight normal
@fontslant roman @fontsize 11 @idname (null) @presetname s22br @mode
0 @min 0 @max 1 @bgcolor 1 0.9 0.9 1 @bdcolor 0.5 0.5 0.5 1 @kncolor
0.5 0.5 0.5 1;
#X obj 542 384 c.slider @size 10 50 @fontname Monaco @fontweight normal
@fontslant roman @fontsize 11 @idname (null) @presetname s23bl @mode
0 @min 0 @max 1 @bgcolor 0.8 0.9 0.9 1 @bdcolor 0.5 0.5 0.5 1 @kncolor
0.5 0.5 0.5 1;
#X obj 557 384 c.slider @size 10 50 @fontname Monaco @fontweight normal
@fontslant roman @fontsize 11 @idname (null) @presetname s23br @mode
0 @min 0 @max 1 @bgcolor 0.8 0.9 0.9 1 @bdcolor 0.5 0.5 0.5 1 @kncolor
0.5 0.5 0.5 1;
#X obj 542 444 c.slider @size 10 50 @fontname Monaco @fontweight normal
@fontslant roman @fontsize 11 @idname (null) @presetname s24bl @mode
0 @min 0 @max 1 @bgcolor 0.6 0.9 0.9 1 @bdcolor 0.5 0.5 0.5 1 @kncolor
0.5 0.5 0.5 1;
#X obj 557 444 c.slider @size 10 50 @fontname Monaco @fontweight normal
@fontslant roman @fontsize 11 @idname (null) @presetname s24br @mode
0 @min 0 @max 1 @bgcolor 0.6 0.9 0.9 1 @bdcolor 0.5 0.5 0.5 1 @kncolor
0.5 0.5 0.5 1;
#X obj 542 504 c.slider @size 10 50 @fontname Monaco @fontweight normal
@fontslant roman @fontsize 11 @idname (null) @presetname s25bl @mode
0 @min 0 @max 1 @bgcolor 0.5 0.7 0.8 1 @bdcolor 0.5 0.5 0.5 1 @kncolor
0.5 0.5 0.5 1;
#X obj 557 504 c.slider @size 10 50 @fontname Monaco @fontweight normal
@fontslant roman @fontsize 11 @idname (null) @presetname s25br @mode
0 @min 0 @max 1 @bgcolor 0.5 0.7 0.8 1 @bdcolor 0.5 0.5 0.5 1 @kncolor
0.5 0.5 0.5 1;
#X obj 541 563 c.slider @size 10 50 @fontname Monaco @fontweight normal
@fontslant roman @fontsize 11 @idname (null) @presetname s26bl @mode
0 @min 0 @max 1 @bgcolor 0.25 0.65 0.7 0.3 @bdcolor 0.5 0.5 0.5 1 @kncolor
0.5 0.5 0.5 1;
#X obj 556 563 c.slider @size 10 50 @fontname Monaco @fontweight normal
@fontslant roman @fontsize 11 @idname (null) @presetname s26br @mode
0 @min 0 @max 1 @bgcolor 0.25 0.65 0.7 0.3 @bdcolor 0.5 0.5 0.5 1 @kncolor
0.5 0.5 0.5 1;
#X obj 541 193 c.slider @size 10 50 @fontname Monaco @fontweight normal
@fontslant roman @fontsize 11 @idname (null) @presetname s20bl @mode
0 @min 0 @max 1 @bgcolor 1 0.75 0.75 1 @bdcolor 0.5 0.5 0.5 1 @kncolor
0.5 0.5 0.5 1;
#X obj 556 193 c.slider @size 10 50 @fontname Monaco @fontweight normal
@fontslant roman @fontsize 11 @idname (null) @presetname s20br @mode
0 @min 0 @max 1 @bgcolor 1 0.75 0.75 1 @bdcolor 0.5 0.5 0.5 1 @kncolor
0.5 0.5 0.5 1;
#X obj 540 681 c.slider @size 10 50 @fontname Monaco @fontweight normal
@fontslant roman @fontsize 11 @idname mic1 @presetname s28bl @mode
0 @min 0 @max 1 @bgcolor 1 0.85 0.65 1 @bdcolor 0.5 0.5 0.5 1 @kncolor
0.5 0.5 0.5 1;
#X obj 555 681 c.slider @size 10 50 @fontname Monaco @fontweight normal
@fontslant roman @fontsize 11 @idname (null) @presetname s28br @mode
0 @min 0 @max 1 @bgcolor 1 0.85 0.65 1 @bdcolor 0.5 0.5 0.5 1 @kncolor
0.5 0.5 0.5 1;
#X obj 485 563 c.slider @size 10 50 @fontname Monaco @fontweight normal
@fontslant roman @fontsize 11 @idname (null) @presetname s16bl @mode
0 @min 0 @max 1 @bgcolor 0.25 0.65 0.7 0.3 @bdcolor 0.5 0.5 0.5 1 @kncolor
0.5 0.5 0.5 1;
#X obj 500 563 c.slider @size 10 50 @fontname Monaco @fontweight normal
@fontslant roman @fontsize 11 @idname (null) @presetname s16br @mode
0 @min 0 @max 1 @bgcolor 0.25 0.65 0.7 0.3 @bdcolor 0.5 0.5 0.5 1 @kncolor
0.5 0.5 0.5 1;
#X obj 540 623 c.slider @size 10 50 @fontname Monaco @fontweight normal
@fontslant roman @fontsize 11 @idname (null) @presetname s27bl @mode
0 @min 0 @max 1 @bgcolor 1 0.55 0.6 0 @bdcolor 0.5 0.5 0.5 1 @kncolor
0.5 0.5 0.5 1;
#X obj 555 623 c.slider @size 10 50 @fontname Monaco @fontweight normal
@fontslant roman @fontsize 11 @idname (null) @presetname s27br @mode
0 @min 0 @max 1 @bgcolor 1 0.55 0.6 0 @bdcolor 0.5 0.5 0.5 1 @kncolor
0.5 0.5 0.5 1;
#X obj 486 746 c.slider @size 10 50 @fontname Monaco @fontweight normal
@fontslant roman @fontsize 11 @idname mic1 @presetname s19bl @mode
0 @min 0 @max 1 @bgcolor 0.5 0.75 1 1 @bdcolor 0.5 0.5 0.5 1 @kncolor
0.5 0.5 0.5 1;
#X obj 501 746 c.slider @size 10 50 @fontname Monaco @fontweight normal
@fontslant roman @fontsize 11 @idname (null) @presetname s19br @mode
0 @min 0 @max 1 @bgcolor 0.5 0.75 1 1 @bdcolor 0.5 0.5 0.5 1 @kncolor
0.5 0.5 0.5 1;
#X obj 486 124 c.slider @size 10 50 @fontname Monaco @fontweight normal
@fontslant roman @fontsize 11 @idname mic1 @presetname s8bl @mode 0
@min 0 @max 1 @bgcolor 1 0.75 0.75 1 @bdcolor 0.5 0.5 0.5 1 @kncolor
0.5 0.5 0.5 1;
#X obj 503 124 c.slider @size 10 50 @fontname Monaco @fontweight normal
@fontslant roman @fontsize 11 @idname (null) @presetname s8br @mode
0 @min 0 @max 1 @bgcolor 1 0.75 0.75 1 @bdcolor 0.5 0.5 0.5 1 @kncolor
0.5 0.5 0.5 1;
#X obj 542 124 c.slider @size 10 50 @fontname Monaco @fontweight normal
@fontslant roman @fontsize 11 @idname (null) @presetname s9bl @mode
0 @min 0 @max 1 @bgcolor 1 0.75 0.75 1 @bdcolor 0.5 0.5 0.5 1 @kncolor
0.5 0.5 0.5 1;
#X obj 557 124 c.slider @size 10 50 @fontname Monaco @fontweight normal
@fontslant roman @fontsize 11 @idname (null) @presetname s9br @mode
0 @min 0 @max 1 @bgcolor 1 0.75 0.75 1 @bdcolor 0.5 0.5 0.5 1 @kncolor
0.5 0.5 0.5 1;
#X text 481 99 grano;
#X text 539 100 equa;
#X text 711 107 comment;
#X text 581 133 OUTFX1;
#X text 580 205 OUTFX2;
#X msg 711 143 7 20 \$1 100;
#X msg 794 143 9 20 \$1 100;
#X msg 794 165 10 21 \$1 100;
#X msg 877 143 11 20 \$1 100;
#X msg 877 164 12 21 \$1 100;
#X msg 959 143 13 20 \$1 100;
#X msg 959 164 14 21 \$1 100;
#X msg 1046 143 15 20 \$1 100;
#X msg 1046 164 16 21 \$1 100;
#X msg 1131 143 17 20 \$1 100;
#X msg 1131 164 18 21 \$1 100;
#X msg 1217 143 19 20 \$1 100;
#X msg 1217 164 20 21 \$1 100;
#X msg 1303 144 21 20 \$1 100;
#X msg 1303 165 22 21 \$1 100;
#X msg 1389 144 23 20 \$1 100;
#X msg 1389 165 24 21 \$1 100;
#X msg 710 212 7 22 \$1 100;
#X msg 710 233 8 23 \$1 100;
#X msg 793 212 0 22 \$1 100;
#X msg 793 234 10 23 \$1 100;
#X msg 876 212 11 22 \$1 100;
#X msg 876 233 12 23 \$1 100;
#X msg 958 212 13 22 \$1 100;
#X msg 958 233 14 23 \$1 100;
#X msg 1045 212 15 22 \$1 100;
#X msg 1045 233 16 23 \$1 100;
#X msg 1130 212 17 22 \$1 100;
#X msg 1130 233 18 23 \$1 100;
#X msg 1216 212 19 22 \$1 100;
#X msg 1216 233 20 23 \$1 100;
#X msg 1297 211 21 22 \$1 100;
#X msg 1297 232 22 23 \$1 100;
#X msg 1383 211 23 22 \$1 100;
#X msg 1383 232 24 23 \$1 100;
#X msg 792 278 9 2 \$1 100;
#X msg 792 299 10 3 \$1 100;
#X msg 875 277 11 2 \$1 100;
#X msg 875 298 12 3 \$1 100;
#X msg 957 277 13 2 \$1 100;
#X msg 957 298 14 3 \$1 100;
#X msg 1044 277 15 2 \$1 100;
#X msg 1044 298 16 3 \$1 100;
#X msg 1129 277 17 2 \$1 100;
#X msg 1129 298 18 3 \$1 100;
#X msg 1215 277 19 2 \$1 100;
#X msg 1215 298 20 3 \$1 100;
#X msg 1296 278 21 2 \$1 100;
#X msg 1296 299 22 3 \$1 100;
#X msg 1382 278 23 2 \$1 100;
#X msg 1382 299 24 3 \$1 100;
#X msg 709 345 7 4 \$1 100;
#X msg 709 366 8 5 \$1 100;
#X msg 874 345 11 4 \$1 100;
#X msg 874 366 12 5 \$1 100;
#X msg 956 345 13 4 \$1 100;
#X msg 956 366 14 5 \$1 100;
#X msg 1043 345 15 4 \$1 100;
#X msg 1043 366 16 5 \$1 100;
#X msg 1128 345 17 4 \$1 100;
#X msg 1128 366 18 5 \$1 100;
#X msg 1214 345 19 4 \$1 100;
#X msg 1214 366 20 5 \$1 100;
#X msg 1296 344 21 4 \$1 100;
#X msg 1296 365 22 5 \$1 100;
#X msg 1382 344 23 4 \$1 100;
#X msg 1382 365 24 5 \$1 100;
#X msg 709 401 7 6 \$1 100;
#X msg 709 422 8 7 \$1 100;
#X msg 792 402 9 6 \$1 100;
#X msg 792 423 10 7 \$1 100;
#X msg 958 402 13 6 \$1 100;
#X msg 958 423 14 7 \$1 100;
#X msg 1045 402 15 6 \$1 100;
#X msg 1045 423 16 7 \$1 100;
#X msg 1130 402 17 6 \$1 100;
#X msg 1130 423 18 7 \$1 100;
#X msg 1216 402 19 6 \$1 100;
#X msg 1216 423 20 7 \$1 100;
#X msg 1298 405 21 6 \$1 100;
#X msg 1298 426 22 7 \$1 100;
#X msg 1384 405 23 6 \$1 100;
#X msg 1384 426 24 7 \$1 100;
#X msg 709 460 7 8 \$1 100;
#X msg 709 481 8 9 \$1 100;
#X msg 792 461 9 8 \$1 100;
#X msg 792 482 10 9 \$1 100;
#X msg 875 460 11 8 \$1 100;
#X msg 875 481 12 9 \$1 100;
#X msg 1044 461 15 8 \$1 100;
#X msg 1044 483 16 9 \$1 100;
#X msg 1129 461 17 8 \$1 100;
#X msg 1129 483 18 9 \$1 100;
#X msg 1215 461 19 8 \$1 100;
#X msg 1215 483 20 9 \$1 100;
#X msg 1301 459 21 8 \$1 100;
#X msg 1301 480 22 9 \$1 100;
#X msg 1387 459 23 8 \$1 100;
#X msg 1387 480 24 9 \$1 100;
#X msg 709 515 7 10 \$1 100;
#X msg 709 537 8 11 \$1 100;
#X msg 792 516 9 10 \$1 100;
#X msg 792 538 10 11 \$1 100;
#X msg 875 515 11 10 \$1 100;
#X msg 875 537 12 11 \$1 100;
#X msg 957 515 13 10 \$1 100;
#X msg 957 537 14 11 \$1 100;
#X msg 1129 515 17 10 \$1 100;
#X msg 1129 536 18 11 \$1 100;
#X msg 1215 515 19 10 \$1 100;
#X msg 1215 536 20 11 \$1 100;
#X msg 1300 515 21 10 \$1 100;
#X msg 1300 536 22 11 \$1 100;
#X msg 1386 514 23 10 \$1 100;
#X msg 1386 536 24 11 \$1 100;
#X msg 711 584 7 12 \$1 100;
#X msg 711 605 8 13 \$1 100;
#X msg 794 585 9 12 \$1 100;
#X msg 794 606 10 13 \$1 100;
#X msg 877 584 11 12 \$1 100;
#X msg 877 605 12 13 \$1 100;
#X msg 959 584 13 12 \$1 100;
#X msg 959 605 14 13 \$1 100;
#X msg 1046 584 15 12 \$1 100;
#X msg 1046 605 16 13 \$1 100;
#X msg 1218 585 19 12 \$1 100;
#X msg 1218 607 20 13 \$1 100;
#X msg 1303 585 21 12 \$1 100;
#X msg 1303 606 22 13 \$1 100;
#X msg 1389 585 23 12 \$1 100;
#X msg 1389 606 24 13 \$1 100;
#X msg 711 639 7 14 \$1 100;
#X msg 711 661 8 15 \$1 100;
#X msg 794 640 9 14 \$1 100;
#X msg 794 662 10 15 \$1 100;
#X msg 877 639 11 14 \$1 100;
#X msg 877 661 12 15 \$1 100;
#X msg 959 639 13 14 \$1 100;
#X msg 959 661 14 15 \$1 100;
#X msg 1046 639 15 14 \$1 100;
#X msg 1046 661 16 15 \$1 100;
#X msg 1131 639 17 14 \$1 100;
#X msg 1131 661 18 15 \$1 100;
#X msg 1306 636 21 14 \$1 100;
#X msg 1306 657 22 15 \$1 100;
#X msg 1392 636 23 14 \$1 100;
#X msg 1392 657 24 15 \$1 100;
#X msg 713 704 7 16 \$1 100;
#X msg 713 725 8 17 \$1 100;
#X msg 796 705 9 16 \$1 100;
#X msg 796 726 10 17 \$1 100;
#X msg 879 704 11 16 \$1 100;
#X msg 879 725 12 17 \$1 100;
#X msg 961 704 13 16 \$1 100;
#X msg 961 725 14 17 \$1 100;
#X msg 1048 704 15 16 \$1 100;
#X msg 1045 725 16 17 \$1 100;
#X msg 1133 704 17 16 \$1 100;
#X msg 1133 725 18 17 \$1 100;
#X msg 1219 704 19 16 \$1 100;
#X msg 1219 725 20 17 \$1 100;
#X msg 1393 704 23 16 \$1 100;
#X msg 1393 725 24 17 \$1 100;
#X msg 716 768 7 18 \$1 100;
#X msg 716 789 8 19 \$1 100;
#X msg 799 769 9 18 \$1 100;
#X msg 799 790 10 19 \$1 100;
#X msg 882 768 11 18 \$1 100;
#X msg 882 789 12 19 \$1 100;
#X msg 964 768 13 18 \$1 100;
#X msg 964 789 14 19 \$1 100;
#X msg 1051 768 15 18 \$1 100;
#X msg 1051 789 16 19 \$1 100;
#X obj 1369 749 s matrixbolas2;
#X msg 1136 768 17 18 \$1 100;
#X msg 1136 789 18 19 \$1 100;
#X msg 1222 768 19 18 \$1 100;
#X msg 1222 789 20 19 \$1 100;
#X msg 1311 768 21 18 \$1 100;
#X msg 1311 789 22 19 \$1 100;
#X msg 710 168 8 21 \$1 100;
#N canvas 181 306 1031 539 20-save.me.mmb 0;
#X obj -1251 69 inlet;
#X obj -1210 69 inlet;
#X obj -1167 69 inlet;
#X obj -1126 69 inlet;
#X obj -1086 69 inlet;
#X obj -1045 69 inlet;
#X obj -1002 69 inlet;
#X obj -961 69 inlet;
#X obj -920 69 inlet;
#X obj -879 69 inlet;
#X obj -836 69 inlet;
#X obj -795 69 inlet;
#X obj -752 69 inlet;
#X obj -711 69 inlet;
#X obj -671 69 inlet;
#X obj -630 69 inlet;
#X obj -533 69 inlet;
#X obj -492 69 inlet;
#X obj -1260 423 outlet;
#X obj -1215 423 outlet;
#X obj -1171 423 outlet;
#X obj -1126 423 outlet;
#X obj -1080 423 outlet;
#X obj -1035 423 outlet;
#X obj -991 423 outlet;
#X obj -946 423 outlet;
#X obj -901 423 outlet;
#X obj -856 423 outlet;
#X obj -812 423 outlet;
#X obj -767 423 outlet;
#X obj -721 423 outlet;
#X obj -676 423 outlet;
#X obj -632 423 outlet;
#X obj -587 423 outlet;
#X obj -494 423 outlet;
#X obj -449 423 outlet;
#X obj -1249 157 save.me.mmb bAl1 bolas;
#X obj -1248 177 save.me.mmb bAr1 bolas;
#X obj -1165 204 save.me.mmb bBl1 bolas;
#X obj -1165 224 save.me.mmb bBr1 bolas;
#X obj -1077 244 save.me.mmb bCl1 bolas;
#X obj -1077 264 save.me.mmb bCr1 bolas;
#X obj -1002 294 save.me.mmb bDl1 bolas;
#X obj -1002 315 save.me.mmb bDr1 bolas;
#X obj -918 343 save.me.mmb bEl1 bolas;
#X obj -918 364 save.me.mmb bEr1 bolas;
#X obj -835 302 save.me.mmb bFl1 bolas;
#X obj -835 322 save.me.mmb bFr1 bolas;
#X obj -752 242 save.me.mmb bGl1 bolas;
#X obj -751 267 save.me.mmb bGr1 bolas;
#X obj -641 192 save.me.mmb bHl1 bolas;
#X obj -641 213 save.me.mmb bHr1 bolas;
#X obj -503 192 save.me.mmb bIl1 bolas;
#X obj -503 213 save.me.mmb bIr1 bolas;
#X connect 0 0 36 0;
#X connect 1 0 37 0;
#X connect 2 0 38 0;
#X connect 3 0 39 0;
#X connect 4 0 40 0;
#X connect 5 0 41 0;
#X connect 6 0 42 0;
#X connect 7 0 43 0;
#X connect 8 0 44 0;
#X connect 9 0 45 0;
#X connect 10 0 46 0;
#X connect 11 0 47 0;
#X connect 12 0 48 0;
#X connect 13 0 49 0;
#X connect 14 0 50 0;
#X connect 15 0 51 0;
#X connect 16 0 52 0;
#X connect 17 0 53 0;
#X connect 36 0 18 0;
#X connect 37 0 19 0;
#X connect 38 0 20 0;
#X connect 39 0 21 0;
#X connect 40 0 22 0;
#X connect 41 0 23 0;
#X connect 42 0 24 0;
#X connect 43 0 25 0;
#X connect 44 0 26 0;
#X connect 45 0 27 0;
#X connect 46 0 28 0;
#X connect 47 0 29 0;
#X connect 48 0 30 0;
#X connect 49 0 31 0;
#X connect 50 0 32 0;
#X connect 51 0 33 0;
#X connect 52 0 34 0;
#X connect 53 0 35 0;
#X restore -99 149 pd 20-save.me.mmb .........;
#N canvas 289 195 1075 633 2-20-save.me.mmb 0;
#X obj -1251 69 inlet;
#X obj -1210 69 inlet;
#X obj -1167 69 inlet;
#X obj -1126 69 inlet;
#X obj -1086 69 inlet;
#X obj -1045 69 inlet;
#X obj -1002 69 inlet;
#X obj -961 69 inlet;
#X obj -920 69 inlet;
#X obj -879 69 inlet;
#X obj -836 69 inlet;
#X obj -795 69 inlet;
#X obj -752 69 inlet;
#X obj -711 69 inlet;
#X obj -671 69 inlet;
#X obj -630 69 inlet;
#X obj -587 69 inlet;
#X obj -546 69 inlet;
#X obj -1260 423 outlet;
#X obj -1215 423 outlet;
#X obj -1171 423 outlet;
#X obj -1126 423 outlet;
#X obj -1080 423 outlet;
#X obj -1035 423 outlet;
#X obj -991 423 outlet;
#X obj -946 423 outlet;
#X obj -901 423 outlet;
#X obj -856 423 outlet;
#X obj -812 423 outlet;
#X obj -767 423 outlet;
#X obj -721 423 outlet;
#X obj -676 423 outlet;
#X obj -632 423 outlet;
#X obj -587 423 outlet;
#X obj -541 423 outlet;
#X obj -496 423 outlet;
#X obj -1249 157 save.me.mmb bKl1 bolas;
#X obj -1248 177 save.me.mmb bKr1 bolas;
#X obj -1165 204 save.me.mmb bLl1 bolas;
#X obj -1165 224 save.me.mmb bLr1 bolas;
#X obj -1077 244 save.me.mmb bMl1 bolas;
#X obj -1077 264 save.me.mmb bMr1 bolas;
#X obj -1002 294 save.me.mmb bNl1 bolas;
#X obj -1002 315 save.me.mmb bNr1 bolas;
#X obj -918 343 save.me.mmb bOl1 bolas;
#X obj -918 364 save.me.mmb bOr1 bolas;
#X obj -835 302 save.me.mmb bPl1 bolas;
#X obj -835 322 save.me.mmb bPr1 bolas;
#X obj -752 243 save.me.mmb bQl1 bolas;
#X obj -751 267 save.me.mmb bQr1 bolas;
#X obj -671 192 save.me.mmb bRl1 bolas;
#X obj -671 213 save.me.mmb bRr1 bolas;
#X obj -587 144 save.me.mmb bSl1 bolas;
#X obj -586 164 save.me.mmb bSr1 bolas;
#X connect 0 0 36 0;
#X connect 1 0 37 0;
#X connect 2 0 38 0;
#X connect 3 0 39 0;
#X connect 4 0 40 0;
#X connect 5 0 41 0;
#X connect 6 0 42 0;
#X connect 7 0 43 0;
#X connect 8 0 44 0;
#X connect 9 0 45 0;
#X connect 10 0 46 0;
#X connect 11 0 47 0;
#X connect 12 0 48 0;
#X connect 13 0 49 0;
#X connect 14 0 50 0;
#X connect 15 0 51 0;
#X connect 16 0 52 0;
#X connect 17 0 53 0;
#X connect 36 0 18 0;
#X connect 37 0 19 0;
#X connect 38 0 20 0;
#X connect 39 0 21 0;
#X connect 40 0 22 0;
#X connect 41 0 23 0;
#X connect 42 0 24 0;
#X connect 43 0 25 0;
#X connect 44 0 26 0;
#X connect 45 0 27 0;
#X connect 46 0 28 0;
#X connect 47 0 29 0;
#X connect 48 0 30 0;
#X connect 49 0 31 0;
#X connect 50 0 32 0;
#X connect 51 0 33 0;
#X connect 52 0 34 0;
#X connect 53 0 35 0;
#X restore -100 212 pd 2-20-save.me.mmb .........;
#N canvas 289 195 1031 539 3-20-save.me.mmb 0;
#X obj -1251 69 inlet;
#X obj -1210 69 inlet;
#X obj -1167 69 inlet;
#X obj -1126 69 inlet;
#X obj -1086 69 inlet;
#X obj -1045 69 inlet;
#X obj -1002 69 inlet;
#X obj -961 69 inlet;
#X obj -920 69 inlet;
#X obj -879 69 inlet;
#X obj -836 69 inlet;
#X obj -795 69 inlet;
#X obj -752 69 inlet;
#X obj -711 69 inlet;
#X obj -671 69 inlet;
#X obj -630 69 inlet;
#X obj -1260 423 outlet;
#X obj -1215 423 outlet;
#X obj -1171 423 outlet;
#X obj -1126 423 outlet;
#X obj -1080 423 outlet;
#X obj -1035 423 outlet;
#X obj -991 423 outlet;
#X obj -946 423 outlet;
#X obj -901 423 outlet;
#X obj -856 423 outlet;
#X obj -812 423 outlet;
#X obj -767 423 outlet;
#X obj -721 423 outlet;
#X obj -676 423 outlet;
#X obj -632 423 outlet;
#X obj -578 419 outlet;
#X obj -1249 157 save.me.mmb bAl2 bolas;
#X obj -1248 177 save.me.mmb bAr2 bolas;
#X obj -1165 204 save.me.mmb bBl2 bolas;
#X obj -1165 224 save.me.mmb bBr2 bolas;
#X obj -1077 244 save.me.mmb bCl2 bolas;
#X obj -1077 264 save.me.mmb bCr2 bolas;
#X obj -1002 294 save.me.mmb bDl2 bolas;
#X obj -1002 315 save.me.mmb bDr2 bolas;
#X obj -918 343 save.me.mmb bEl2 bolas;
#X obj -918 364 save.me.mmb bEr2 bolas;
#X obj -835 302 save.me.mmb bFl2 bolas;
#X obj -835 322 save.me.mmb bFr2 bolas;
#X obj -752 242 save.me.mmb bGl2 bolas;
#X obj -751 267 save.me.mmb bGr2 bolas;
#X obj -671 192 save.me.mmb bHl2 bolas;
#X obj -671 213 save.me.mmb bHr2 bolas;
#X connect 0 0 32 0;
#X connect 1 0 33 0;
#X connect 2 0 34 0;
#X connect 3 0 35 0;
#X connect 4 0 36 0;
#X connect 5 0 37 0;
#X connect 6 0 38 0;
#X connect 7 0 39 0;
#X connect 8 0 40 0;
#X connect 9 0 41 0;
#X connect 10 0 42 0;
#X connect 11 0 43 0;
#X connect 12 0 44 0;
#X connect 13 0 45 0;
#X connect 14 0 46 0;
#X connect 15 0 47 0;
#X connect 32 0 16 0;
#X connect 33 0 17 0;
#X connect 34 0 18 0;
#X connect 35 0 19 0;
#X connect 36 0 20 0;
#X connect 37 0 21 0;
#X connect 38 0 22 0;
#X connect 39 0 23 0;
#X connect 40 0 24 0;
#X connect 41 0 25 0;
#X connect 42 0 26 0;
#X connect 43 0 27 0;
#X connect 44 0 28 0;
#X connect 45 0 29 0;
#X connect 46 0 30 0;
#X connect 47 0 31 0;
#X restore -103 282 pd 3-20-save.me.mmb .........;
#N canvas 289 195 1075 633 4-20-save.me.mmb 0;
#X obj -1251 69 inlet;
#X obj -1210 69 inlet;
#X obj -1167 69 inlet;
#X obj -1126 69 inlet;
#X obj -1086 69 inlet;
#X obj -1045 69 inlet;
#X obj -1002 69 inlet;
#X obj -961 69 inlet;
#X obj -920 69 inlet;
#X obj -879 69 inlet;
#X obj -836 69 inlet;
#X obj -795 69 inlet;
#X obj -752 69 inlet;
#X obj -711 69 inlet;
#X obj -671 69 inlet;
#X obj -630 69 inlet;
#X obj -1260 423 outlet;
#X obj -1215 423 outlet;
#X obj -1171 423 outlet;
#X obj -1126 423 outlet;
#X obj -1080 423 outlet;
#X obj -1035 423 outlet;
#X obj -991 423 outlet;
#X obj -946 423 outlet;
#X obj -901 423 outlet;
#X obj -856 423 outlet;
#X obj -812 423 outlet;
#X obj -767 423 outlet;
#X obj -721 423 outlet;
#X obj -676 423 outlet;
#X obj -632 423 outlet;
#X obj -587 423 outlet;
#X obj -1249 157 save.me.mmb bKl2 bolas;
#X obj -1248 177 save.me.mmb bKr2 bolas;
#X obj -1165 204 save.me.mmb bLl2 bolas;
#X obj -1165 224 save.me.mmb bLr2 bolas;
#X obj -1077 244 save.me.mmb bMl2 bolas;
#X obj -1077 264 save.me.mmb bMr2 bolas;
#X obj -1002 294 save.me.mmb bNl2 bolas;
#X obj -1004 315 save.me.mmb bNr2 bolas;
#X obj -918 343 save.me.mmb bOl2 bolas;
#X obj -918 364 save.me.mmb bOr2 bolas;
#X obj -835 302 save.me.mmb bPl2 bolas;
#X obj -835 322 save.me.mmb bPr2 bolas;
#X obj -752 243 save.me.mmb bQl2 bolas;
#X obj -751 267 save.me.mmb bQr2 bolas;
#X obj -671 192 save.me.mmb bRl2 bolas;
#X obj -671 213 save.me.mmb bRr2 bolas;
#X connect 0 0 32 0;
#X connect 1 0 33 0;
#X connect 2 0 34 0;
#X connect 3 0 35 0;
#X connect 4 0 36 0;
#X connect 5 0 37 0;
#X connect 6 0 38 0;
#X connect 7 0 39 0;
#X connect 8 0 40 0;
#X connect 9 0 41 0;
#X connect 10 0 42 0;
#X connect 11 0 43 0;
#X connect 12 0 44 0;
#X connect 13 0 45 0;
#X connect 14 0 46 0;
#X connect 15 0 47 0;
#X connect 32 0 16 0;
#X connect 33 0 17 0;
#X connect 34 0 18 0;
#X connect 35 0 19 0;
#X connect 36 0 20 0;
#X connect 37 0 21 0;
#X connect 38 0 22 0;
#X connect 39 0 23 0;
#X connect 40 0 24 0;
#X connect 41 0 25 0;
#X connect 42 0 26 0;
#X connect 43 0 27 0;
#X connect 44 0 28 0;
#X connect 45 0 29 0;
#X connect 46 0 30 0;
#X connect 47 0 31 0;
#X restore -102 345 pd 4-20-save.me.mmb .........;
#N canvas 289 195 1031 539 20-save.me.mmb 0;
#X obj -1251 69 inlet;
#X obj -1210 69 inlet;
#X obj -1167 69 inlet;
#X obj -1126 69 inlet;
#X obj -1086 69 inlet;
#X obj -1045 69 inlet;
#X obj -1002 69 inlet;
#X obj -961 69 inlet;
#X obj -920 69 inlet;
#X obj -879 69 inlet;
#X obj -836 69 inlet;
#X obj -795 69 inlet;
#X obj -752 69 inlet;
#X obj -711 69 inlet;
#X obj -671 69 inlet;
#X obj -630 69 inlet;
#X obj -1260 423 outlet;
#X obj -1215 423 outlet;
#X obj -1171 423 outlet;
#X obj -1126 423 outlet;
#X obj -1080 423 outlet;
#X obj -1035 423 outlet;
#X obj -991 423 outlet;
#X obj -946 423 outlet;
#X obj -901 423 outlet;
#X obj -856 423 outlet;
#X obj -812 423 outlet;
#X obj -767 423 outlet;
#X obj -721 423 outlet;
#X obj -676 423 outlet;
#X obj -632 423 outlet;
#X obj -587 423 outlet;
#X obj -1249 157 save.me.mmb bAl3 bolas;
#X obj -1248 177 save.me.mmb bAr3 bolas;
#X obj -1165 204 save.me.mmb bBl3 bolas;
#X obj -1165 224 save.me.mmb bBr3 bolas;
#X obj -1077 244 save.me.mmb bCl3 bolas;
#X obj -1077 264 save.me.mmb bCr3 bolas;
#X obj -1002 294 save.me.mmb bDl3 bolas;
#X obj -1002 315 save.me.mmb bDr3 bolas;
#X obj -918 343 save.me.mmb bEl3 bolas;
#X obj -918 364 save.me.mmb bEr3 bolas;
#X obj -835 302 save.me.mmb bFl3 bolas;
#X obj -835 322 save.me.mmb bFr3 bolas;
#X obj -752 242 save.me.mmb bGl3 bolas;
#X obj -751 267 save.me.mmb bGr3 bolas;
#X obj -671 192 save.me.mmb bHl3 bolas;
#X obj -671 213 save.me.mmb bHr3 bolas;
#X connect 0 0 32 0;
#X connect 1 0 33 0;
#X connect 2 0 34 0;
#X connect 3 0 35 0;
#X connect 4 0 36 0;
#X connect 5 0 37 0;
#X connect 6 0 38 0;
#X connect 7 0 39 0;
#X connect 8 0 40 0;
#X connect 9 0 41 0;
#X connect 10 0 42 0;
#X connect 11 0 43 0;
#X connect 12 0 44 0;
#X connect 13 0 45 0;
#X connect 14 0 46 0;
#X connect 15 0 47 0;
#X connect 32 0 16 0;
#X connect 33 0 17 0;
#X connect 34 0 18 0;
#X connect 35 0 19 0;
#X connect 36 0 20 0;
#X connect 37 0 21 0;
#X connect 38 0 22 0;
#X connect 39 0 23 0;
#X connect 40 0 24 0;
#X connect 41 0 25 0;
#X connect 42 0 26 0;
#X connect 43 0 27 0;
#X connect 44 0 28 0;
#X connect 45 0 29 0;
#X connect 46 0 30 0;
#X connect 47 0 31 0;
#X restore -104 407 pd 20-save.me.mmb .........;
#N canvas 289 195 1075 633 2-20-save.me.mmb 0;
#X obj -1251 69 inlet;
#X obj -1210 69 inlet;
#X obj -1167 69 inlet;
#X obj -1126 69 inlet;
#X obj -1086 69 inlet;
#X obj -1045 69 inlet;
#X obj -1002 69 inlet;
#X obj -961 69 inlet;
#X obj -920 69 inlet;
#X obj -879 69 inlet;
#X obj -836 69 inlet;
#X obj -795 69 inlet;
#X obj -752 69 inlet;
#X obj -711 69 inlet;
#X obj -671 69 inlet;
#X obj -630 69 inlet;
#X obj -1260 423 outlet;
#X obj -1215 423 outlet;
#X obj -1171 423 outlet;
#X obj -1126 423 outlet;
#X obj -1080 423 outlet;
#X obj -1035 423 outlet;
#X obj -991 423 outlet;
#X obj -946 423 outlet;
#X obj -901 423 outlet;
#X obj -856 423 outlet;
#X obj -812 423 outlet;
#X obj -767 423 outlet;
#X obj -721 423 outlet;
#X obj -676 423 outlet;
#X obj -632 423 outlet;
#X obj -587 423 outlet;
#X obj -1249 157 save.me.mmb bKl3 bolas;
#X obj -1248 177 save.me.mmb bKr3 bolas;
#X obj -1165 204 save.me.mmb bLl3 bolas;
#X obj -1165 224 save.me.mmb bLr3 bolas;
#X obj -1077 244 save.me.mmb bMl3 bolas;
#X obj -1077 264 save.me.mmb bMr3 bolas;
#X obj -1002 294 save.me.mmb bNl3 bolas;
#X obj -1002 315 save.me.mmb bNr3 bolas;
#X obj -918 343 save.me.mmb bOl3 bolas;
#X obj -918 364 save.me.mmb bOr3 bolas;
#X obj -835 302 save.me.mmb bPl3 bolas;
#X obj -835 322 save.me.mmb bPr3 bolas;
#X obj -752 243 save.me.mmb bQl3 bolas;
#X obj -751 267 save.me.mmb bQr3 bolas;
#X obj -671 192 save.me.mmb bRl3 bolas;
#X obj -671 213 save.me.mmb bRr3 bolas;
#X connect 0 0 32 0;
#X connect 1 0 33 0;
#X connect 2 0 34 0;
#X connect 3 0 35 0;
#X connect 4 0 36 0;
#X connect 5 0 37 0;
#X connect 6 0 38 0;
#X connect 7 0 39 0;
#X connect 8 0 40 0;
#X connect 9 0 41 0;
#X connect 10 0 42 0;
#X connect 11 0 43 0;
#X connect 12 0 44 0;
#X connect 13 0 45 0;
#X connect 14 0 46 0;
#X connect 15 0 47 0;
#X connect 32 0 16 0;
#X connect 33 0 17 0;
#X connect 34 0 18 0;
#X connect 35 0 19 0;
#X connect 36 0 20 0;
#X connect 37 0 21 0;
#X connect 38 0 22 0;
#X connect 39 0 23 0;
#X connect 40 0 24 0;
#X connect 41 0 25 0;
#X connect 42 0 26 0;
#X connect 43 0 27 0;
#X connect 44 0 28 0;
#X connect 45 0 29 0;
#X connect 46 0 30 0;
#X connect 47 0 31 0;
#X restore -102 460 pd 2-20-save.me.mmb .........;
#N canvas 289 195 1031 539 3-20-save.me.mmb 0;
#X obj -1251 69 inlet;
#X obj -1210 69 inlet;
#X obj -1167 69 inlet;
#X obj -1126 69 inlet;
#X obj -1086 69 inlet;
#X obj -1045 69 inlet;
#X obj -1002 69 inlet;
#X obj -961 69 inlet;
#X obj -920 69 inlet;
#X obj -879 69 inlet;
#X obj -836 69 inlet;
#X obj -795 69 inlet;
#X obj -752 69 inlet;
#X obj -711 69 inlet;
#X obj -671 69 inlet;
#X obj -630 69 inlet;
#X obj -1260 423 outlet;
#X obj -1215 423 outlet;
#X obj -1171 423 outlet;
#X obj -1126 423 outlet;
#X obj -1080 423 outlet;
#X obj -1035 423 outlet;
#X obj -991 423 outlet;
#X obj -946 423 outlet;
#X obj -901 423 outlet;
#X obj -856 423 outlet;
#X obj -812 423 outlet;
#X obj -767 423 outlet;
#X obj -721 423 outlet;
#X obj -676 423 outlet;
#X obj -632 423 outlet;
#X obj -587 423 outlet;
#X obj -1249 157 save.me.mmb bAl4 bolas;
#X obj -1248 177 save.me.mmb bAr4 bolas;
#X obj -1165 204 save.me.mmb bBl4 bolas;
#X obj -1165 224 save.me.mmb bBr4 bolas;
#X obj -1077 244 save.me.mmb bCl4 bolas;
#X obj -1077 264 save.me.mmb bCr4 bolas;
#X obj -1002 294 save.me.mmb bDl4 bolas;
#X obj -1002 315 save.me.mmb bDr4 bolas;
#X obj -918 343 save.me.mmb bEl4 bolas;
#X obj -918 364 save.me.mmb bEr4 bolas;
#X obj -835 302 save.me.mmb bFl4 bolas;
#X obj -835 322 save.me.mmb bFr4 bolas;
#X obj -752 242 save.me.mmb bGl4 bolas;
#X obj -751 267 save.me.mmb bGr4 bolas;
#X obj -671 192 save.me.mmb bHl4 bolas;
#X obj -671 213 save.me.mmb bHr4 bolas;
#X connect 0 0 32 0;
#X connect 1 0 33 0;
#X connect 2 0 34 0;
#X connect 3 0 35 0;
#X connect 4 0 36 0;
#X connect 5 0 37 0;
#X connect 6 0 38 0;
#X connect 7 0 39 0;
#X connect 8 0 40 0;
#X connect 9 0 41 0;
#X connect 10 0 42 0;
#X connect 11 0 43 0;
#X connect 12 0 44 0;
#X connect 13 0 45 0;
#X connect 14 0 46 0;
#X connect 15 0 47 0;
#X connect 32 0 16 0;
#X connect 33 0 17 0;
#X connect 34 0 18 0;
#X connect 35 0 19 0;
#X connect 36 0 20 0;
#X connect 37 0 21 0;
#X connect 38 0 22 0;
#X connect 39 0 23 0;
#X connect 40 0 24 0;
#X connect 41 0 25 0;
#X connect 42 0 26 0;
#X connect 43 0 27 0;
#X connect 44 0 28 0;
#X connect 45 0 29 0;
#X connect 46 0 30 0;
#X connect 47 0 31 0;
#X restore -103 529 pd 3-20-save.me.mmb .........;
#N canvas 289 195 1075 633 4-20-save.me.mmb 0;
#X obj -1251 69 inlet;
#X obj -1210 69 inlet;
#X obj -1167 69 inlet;
#X obj -1126 69 inlet;
#X obj -1086 69 inlet;
#X obj -1045 69 inlet;
#X obj -1002 69 inlet;
#X obj -961 69 inlet;
#X obj -920 69 inlet;
#X obj -879 69 inlet;
#X obj -836 69 inlet;
#X obj -795 69 inlet;
#X obj -752 69 inlet;
#X obj -711 69 inlet;
#X obj -671 69 inlet;
#X obj -630 69 inlet;
#X obj -1260 423 outlet;
#X obj -1215 423 outlet;
#X obj -1171 423 outlet;
#X obj -1126 423 outlet;
#X obj -1080 423 outlet;
#X obj -1035 423 outlet;
#X obj -991 423 outlet;
#X obj -946 423 outlet;
#X obj -901 423 outlet;
#X obj -856 423 outlet;
#X obj -812 423 outlet;
#X obj -767 423 outlet;
#X obj -721 423 outlet;
#X obj -676 423 outlet;
#X obj -632 423 outlet;
#X obj -587 423 outlet;
#X obj -1249 157 save.me.mmb bKl4 bolas;
#X obj -1248 177 save.me.mmb bKr4 bolas;
#X obj -1165 204 save.me.mmb bLl4 bolas;
#X obj -1165 224 save.me.mmb bLr4 bolas;
#X obj -1077 244 save.me.mmb bMl4 bolas;
#X obj -1077 264 save.me.mmb bMr4 bolas;
#X obj -1002 294 save.me.mmb bNl4 bolas;
#X obj -1002 315 save.me.mmb bNr4 bolas;
#X obj -918 343 save.me.mmb bOl4 bolas;
#X obj -918 364 save.me.mmb bOr4 bolas;
#X obj -835 302 save.me.mmb bPl4 bolas;
#X obj -835 322 save.me.mmb bPr4 bolas;
#X obj -752 243 save.me.mmb bQl4 bolas;
#X obj -751 267 save.me.mmb bQr4 bolas;
#X obj -671 192 save.me.mmb bRl4 bolas;
#X obj -671 213 save.me.mmb bRr4 bolas;
#X connect 0 0 32 0;
#X connect 1 0 33 0;
#X connect 2 0 34 0;
#X connect 3 0 35 0;
#X connect 4 0 36 0;
#X connect 5 0 37 0;
#X connect 6 0 38 0;
#X connect 7 0 39 0;
#X connect 8 0 40 0;
#X connect 9 0 41 0;
#X connect 10 0 42 0;
#X connect 11 0 43 0;
#X connect 12 0 44 0;
#X connect 13 0 45 0;
#X connect 14 0 46 0;
#X connect 15 0 47 0;
#X connect 32 0 16 0;
#X connect 33 0 17 0;
#X connect 34 0 18 0;
#X connect 35 0 19 0;
#X connect 36 0 20 0;
#X connect 37 0 21 0;
#X connect 38 0 22 0;
#X connect 39 0 23 0;
#X connect 40 0 24 0;
#X connect 41 0 25 0;
#X connect 42 0 26 0;
#X connect 43 0 27 0;
#X connect 44 0 28 0;
#X connect 45 0 29 0;
#X connect 46 0 30 0;
#X connect 47 0 31 0;
#X restore -105 586 pd 4-20-save.me.mmb .........;
#N canvas 289 195 1031 539 3-20-save.me.mmb 0;
#X obj -1251 69 inlet;
#X obj -1210 69 inlet;
#X obj -1167 69 inlet;
#X obj -1126 69 inlet;
#X obj -1086 69 inlet;
#X obj -1045 69 inlet;
#X obj -1002 69 inlet;
#X obj -961 69 inlet;
#X obj -920 69 inlet;
#X obj -879 69 inlet;
#X obj -836 69 inlet;
#X obj -795 69 inlet;
#X obj -752 69 inlet;
#X obj -711 69 inlet;
#X obj -671 69 inlet;
#X obj -630 69 inlet;
#X obj -1260 423 outlet;
#X obj -1215 423 outlet;
#X obj -1171 423 outlet;
#X obj -1126 423 outlet;
#X obj -1080 423 outlet;
#X obj -1035 423 outlet;
#X obj -991 423 outlet;
#X obj -946 423 outlet;
#X obj -901 423 outlet;
#X obj -856 423 outlet;
#X obj -812 423 outlet;
#X obj -767 423 outlet;
#X obj -721 423 outlet;
#X obj -676 423 outlet;
#X obj -632 423 outlet;
#X obj -587 423 outlet;
#X obj -1249 157 save.me.mmb bAl5 bolas;
#X obj -1248 177 save.me.mmb bAr5 bolas;
#X obj -1165 204 save.me.mmb bBl5 bolas;
#X obj -1165 224 save.me.mmb bBr5 bolas;
#X obj -1077 244 save.me.mmb bCl5 bolas;
#X obj -1077 264 save.me.mmb bCr5 bolas;
#X obj -1002 294 save.me.mmb bDl5 bolas;
#X obj -1002 315 save.me.mmb bDr5 bolas;
#X obj -918 343 save.me.mmb bEl5 bolas;
#X obj -918 364 save.me.mmb bEr5 bolas;
#X obj -835 302 save.me.mmb bFl5 bolas;
#X obj -835 322 save.me.mmb bFr5 bolas;
#X obj -752 242 save.me.mmb bGl5 bolas;
#X obj -751 267 save.me.mmb bGr5 bolas;
#X obj -671 192 save.me.mmb bHl5 bolas;
#X obj -671 213 save.me.mmb bHr5 bolas;
#X connect 0 0 32 0;
#X connect 1 0 33 0;
#X connect 2 0 34 0;
#X connect 3 0 35 0;
#X connect 4 0 36 0;
#X connect 5 0 37 0;
#X connect 6 0 38 0;
#X connect 7 0 39 0;
#X connect 8 0 40 0;
#X connect 9 0 41 0;
#X connect 10 0 42 0;
#X connect 11 0 43 0;
#X connect 12 0 44 0;
#X connect 13 0 45 0;
#X connect 14 0 46 0;
#X connect 15 0 47 0;
#X connect 32 0 16 0;
#X connect 33 0 17 0;
#X connect 34 0 18 0;
#X connect 35 0 19 0;
#X connect 36 0 20 0;
#X connect 37 0 21 0;
#X connect 38 0 22 0;
#X connect 39 0 23 0;
#X connect 40 0 24 0;
#X connect 41 0 25 0;
#X connect 42 0 26 0;
#X connect 43 0 27 0;
#X connect 44 0 28 0;
#X connect 45 0 29 0;
#X connect 46 0 30 0;
#X connect 47 0 31 0;
#X restore -107 642 pd 3-20-save.me.mmb .........;
#N canvas 289 195 1075 633 4-20-save.me.mmb 0;
#X obj -1251 69 inlet;
#X obj -1210 69 inlet;
#X obj -1167 69 inlet;
#X obj -1126 69 inlet;
#X obj -1086 69 inlet;
#X obj -1045 69 inlet;
#X obj -1002 69 inlet;
#X obj -961 69 inlet;
#X obj -920 69 inlet;
#X obj -879 69 inlet;
#X obj -836 69 inlet;
#X obj -795 69 inlet;
#X obj -752 69 inlet;
#X obj -711 69 inlet;
#X obj -671 69 inlet;
#X obj -630 69 inlet;
#X obj -1260 423 outlet;
#X obj -1215 423 outlet;
#X obj -1171 423 outlet;
#X obj -1126 423 outlet;
#X obj -1080 423 outlet;
#X obj -1035 423 outlet;
#X obj -991 423 outlet;
#X obj -946 423 outlet;
#X obj -901 423 outlet;
#X obj -856 423 outlet;
#X obj -812 423 outlet;
#X obj -767 423 outlet;
#X obj -721 423 outlet;
#X obj -676 423 outlet;
#X obj -632 423 outlet;
#X obj -587 423 outlet;
#X obj -1249 157 save.me.mmb bKl5 bolas;
#X obj -1248 177 save.me.mmb bKr5 bolas;
#X obj -1165 204 save.me.mmb bLl5 bolas;
#X obj -1165 224 save.me.mmb bLr5 bolas;
#X obj -1077 244 save.me.mmb bMl5 bolas;
#X obj -1077 264 save.me.mmb bMr5 bolas;
#X obj -1002 294 save.me.mmb bNl5 bolas;
#X obj -1002 315 save.me.mmb bNr5 bolas;
#X obj -918 343 save.me.mmb bOl5 bolas;
#X obj -918 364 save.me.mmb bOr5 bolas;
#X obj -835 302 save.me.mmb bPl5 bolas;
#X obj -835 322 save.me.mmb bPr5 bolas;
#X obj -752 243 save.me.mmb bQl5 bolas;
#X obj -751 267 save.me.mmb bQr5 bolas;
#X obj -671 192 save.me.mmb bRl5 bolas;
#X obj -671 213 save.me.mmb bRr5 bolas;
#X connect 0 0 32 0;
#X connect 1 0 33 0;
#X connect 2 0 34 0;
#X connect 3 0 35 0;
#X connect 4 0 36 0;
#X connect 5 0 37 0;
#X connect 6 0 38 0;
#X connect 7 0 39 0;
#X connect 8 0 40 0;
#X connect 9 0 41 0;
#X connect 10 0 42 0;
#X connect 11 0 43 0;
#X connect 12 0 44 0;
#X connect 13 0 45 0;
#X connect 14 0 46 0;
#X connect 15 0 47 0;
#X connect 32 0 16 0;
#X connect 33 0 17 0;
#X connect 34 0 18 0;
#X connect 35 0 19 0;
#X connect 36 0 20 0;
#X connect 37 0 21 0;
#X connect 38 0 22 0;
#X connect 39 0 23 0;
#X connect 40 0 24 0;
#X connect 41 0 25 0;
#X connect 42 0 26 0;
#X connect 43 0 27 0;
#X connect 44 0 28 0;
#X connect 45 0 29 0;
#X connect 46 0 30 0;
#X connect 47 0 31 0;
#X restore -107 691 pd 4-20-save.me.mmb .........;
#N canvas 224 257 1076 540 save.me.mmb 0;
#X obj -555 69 inlet;
#X obj -505 69 inlet;
#X obj -464 69 inlet;
#X obj -587 423 outlet;
#X obj -541 423 outlet;
#X obj -496 423 outlet;
#X obj -452 423 outlet;
#X obj -378 411 outlet;
#X obj -578 29 inlet;
#X obj -383 57 inlet;
#X obj -342 57 inlet;
#X obj -301 57 inlet;
#X obj -260 57 inlet;
#X obj -334 411 outlet;
#X obj -289 411 outlet;
#X obj -245 411 outlet;
#X obj -121 394 outlet;
#X obj -123 39 inlet;
#X obj -82 39 inlet;
#X obj -41 39 inlet;
#X obj 0 39 inlet;
#X obj -77 393 outlet;
#X obj -32 393 outlet;
#X obj 12 393 outlet;
#X obj 154 380 outlet;
#X obj 122 25 inlet;
#X obj 163 25 inlet;
#X obj 204 25 inlet;
#X obj 245 25 inlet;
#X obj 199 379 outlet;
#X obj 244 379 outlet;
#X obj 288 379 outlet;
#X obj -589 139 save.me.mmb bIl2 bolas;
#X obj -586 164 save.me.mmb bIr2 bolas;
#X obj -383 132 save.me.mmb bSl2 bolas;
#X obj -382 152 save.me.mmb bSr2 bolas;
#X obj -447 188 save.me.mmb bJl2 bolas;
#X obj -446 210 save.me.mmb bJr2 bolas;
#X obj -242 178 save.me.mmb bTl2 bolas;
#X obj -242 198 save.me.mmb bTr2 bolas;
#X obj -125 109 save.me.mmb bIl3 bolas;
#X obj -122 134 save.me.mmb bIr3 bolas;
#X obj 17 158 save.me.mmb bJl3 bolas;
#X obj 18 180 save.me.mmb bJr3 bolas;
#X obj 122 100 save.me.mmb bSl3 bolas;
#X obj 123 120 save.me.mmb bSr3 bolas;
#X obj 263 146 save.me.mmb bTl3 bolas;
#X obj 263 166 save.me.mmb bTr3 bolas;
#X connect 0 0 33 0;
#X connect 1 0 36 0;
#X connect 2 0 37 0;
#X connect 8 0 32 0;
#X connect 9 0 34 0;
#X connect 10 0 35 0;
#X connect 11 0 38 0;
#X connect 12 0 39 0;
#X connect 17 0 40 0;
#X connect 18 0 41 0;
#X connect 19 0 42 0;
#X connect 20 0 43 0;
#X connect 25 0 44 0;
#X connect 26 0 45 0;
#X connect 27 0 46 0;
#X connect 28 0 47 0;
#X connect 32 0 3 0;
#X connect 33 0 4 0;
#X connect 34 0 7 0;
#X connect 35 0 13 0;
#X connect 36 0 5 0;
#X connect 37 0 6 0;
#X connect 38 0 14 0;
#X connect 39 0 15 0;
#X connect 40 0 16 0;
#X connect 41 0 21 0;
#X connect 42 0 22 0;
#X connect 43 0 23 0;
#X connect 44 0 24 0;
#X connect 45 0 29 0;
#X connect 46 0 30 0;
#X connect 47 0 31 0;
#X restore -101 750 pd save.me.mmb 16 . . . . .;
#X connect 0 0 218 0;
#X connect 0 0 383 0;
#X connect 1 0 219 0;
#X connect 1 0 383 1;
#X connect 2 0 236 0;
#X connect 2 0 384 0;
#X connect 3 0 237 0;
#X connect 3 0 384 1;
#X connect 4 0 238 0;
#X connect 4 0 384 2;
#X connect 5 0 239 0;
#X connect 5 0 384 3;
#X connect 6 0 252 0;
#X connect 6 0 385 0;
#X connect 7 0 253 0;
#X connect 7 0 385 1;
#X connect 8 0 254 0;
#X connect 8 0 385 2;
#X connect 9 0 255 0;
#X connect 9 0 385 3;
#X connect 10 0 268 0;
#X connect 10 0 386 0;
#X connect 11 0 269 0;
#X connect 11 0 386 1;
#X connect 12 0 270 0;
#X connect 12 0 386 2;
#X connect 13 0 271 0;
#X connect 13 0 386 3;
#X connect 14 0 284 0;
#X connect 14 0 387 0;
#X connect 15 0 285 0;
#X connect 15 0 387 1;
#X connect 16 0 286 0;
#X connect 16 0 387 2;
#X connect 17 0 287 0;
#X connect 17 0 387 3;
#X connect 18 0 288 0;
#X connect 18 0 387 4;
#X connect 19 0 289 0;
#X connect 19 0 387 5;
#X connect 20 0 300 0;
#X connect 20 0 388 0;
#X connect 21 0 301 0;
#X connect 21 0 388 1;
#X connect 22 0 302 0;
#X connect 22 0 388 2;
#X connect 23 0 303 0;
#X connect 23 0 388 3;
#X connect 24 0 304 0;
#X connect 24 0 388 4;
#X connect 25 0 305 0;
#X connect 25 0 388 5;
#X connect 26 0 316 0;
#X connect 26 0 389 0;
#X connect 27 0 317 0;
#X connect 27 0 389 1;
#X connect 28 0 318 0;
#X connect 28 0 389 2;
#X connect 29 0 319 0;
#X connect 29 0 389 3;
#X connect 30 0 320 0;
#X connect 30 0 389 4;
#X connect 31 0 321 0;
#X connect 31 0 389 5;
#X connect 32 0 332 0;
#X connect 32 0 390 0;
#X connect 33 0 333 0;
#X connect 33 0 390 1;
#X connect 34 0 334 0;
#X connect 34 0 390 2;
#X connect 35 0 335 0;
#X connect 35 0 390 3;
#X connect 36 0 336 0;
#X connect 36 0 390 4;
#X connect 37 0 337 0;
#X connect 37 0 390 5;
#X connect 38 0 220 0;
#X connect 38 0 383 2;
#X connect 39 0 221 0;
#X connect 39 0 383 3;
#X connect 40 0 222 0;
#X connect 40 0 383 4;
#X connect 41 0 223 0;
#X connect 41 0 383 5;
#X connect 42 0 224 0;
#X connect 42 0 383 6;
#X connect 43 0 225 0;
#X connect 43 0 383 7;
#X connect 44 0 240 0;
#X connect 44 0 384 4;
#X connect 45 0 241 0;
#X connect 45 0 384 5;
#X connect 46 0 242 0;
#X connect 46 0 384 6;
#X connect 47 0 243 0;
#X connect 47 0 384 7;
#X connect 48 0 244 0;
#X connect 48 0 384 8;
#X connect 49 0 245 0;
#X connect 49 0 384 9;
#X connect 50 0 256 0;
#X connect 50 0 385 4;
#X connect 51 0 257 0;
#X connect 51 0 385 5;
#X connect 52 0 258 0;
#X connect 52 0 385 6;
#X connect 53 0 259 0;
#X connect 53 0 385 7;
#X connect 54 0 260 0;
#X connect 54 0 385 8;
#X connect 55 0 261 0;
#X connect 55 0 385 9;
#X connect 56 0 272 0;
#X connect 56 0 386 4;
#X connect 57 0 273 0;
#X connect 57 0 386 5;
#X connect 58 0 274 0;
#X connect 58 0 386 6;
#X connect 59 0 275 0;
#X connect 59 0 386 7;
#X connect 60 0 276 0;
#X connect 60 0 386 8;
#X connect 61 0 277 0;
#X connect 61 0 386 9;
#X connect 62 0 290 0;
#X connect 62 0 387 6;
#X connect 63 0 291 0;
#X connect 63 0 387 7;
#X connect 64 0 292 0;
#X connect 64 0 387 8;
#X connect 65 0 293 0;
#X connect 65 0 387 9;
#X connect 66 0 306 0;
#X connect 66 0 388 6;
#X connect 67 0 307 0;
#X connect 67 0 388 7;
#X connect 68 0 308 0;
#X connect 68 0 388 8;
#X connect 69 0 309 0;
#X connect 69 0 388 9;
#X connect 70 0 322 0;
#X connect 70 0 389 6;
#X connect 71 0 323 0;
#X connect 71 0 389 7;
#X connect 72 0 324 0;
#X connect 72 0 389 8;
#X connect 73 0 325 0;
#X connect 73 0 389 9;
#X connect 74 0 338 0;
#X connect 74 0 390 6;
#X connect 75 0 339 0;
#X connect 75 0 390 7;
#X connect 76 0 340 0;
#X connect 76 0 390 8;
#X connect 77 0 341 0;
#X connect 77 0 390 9;
#X connect 78 0 342 0;
#X connect 78 0 390 10;
#X connect 79 0 343 0;
#X connect 79 0 390 11;
#X connect 80 0 226 0;
#X connect 80 0 383 8;
#X connect 81 0 227 0;
#X connect 81 0 383 9;
#X connect 82 0 228 0;
#X connect 82 0 383 10;
#X connect 83 0 229 0;
#X connect 83 0 383 11;
#X connect 84 0 246 0;
#X connect 84 0 384 10;
#X connect 85 0 247 0;
#X connect 85 0 384 11;
#X connect 86 0 262 0;
#X connect 86 0 385 10;
#X connect 87 0 263 0;
#X connect 87 0 385 11;
#X connect 88 0 278 0;
#X connect 88 0 386 10;
#X connect 89 0 279 0;
#X connect 89 0 386 11;
#X connect 90 0 294 0;
#X connect 90 0 387 10;
#X connect 91 0 295 0;
#X connect 91 0 387 11;
#X connect 92 0 310 0;
#X connect 92 0 388 10;
#X connect 93 0 311 0;
#X connect 93 0 388 11;
#X connect 94 0 326 0;
#X connect 94 0 389 10;
#X connect 95 0 327 0;
#X connect 95 0 389 11;
#X connect 96 0 230 0;
#X connect 96 0 383 12;
#X connect 97 0 231 0;
#X connect 97 0 383 13;
#X connect 105 0 348 0;
#X connect 105 0 391 0;
#X connect 106 0 349 0;
#X connect 106 0 391 1;
#X connect 107 0 350 0;
#X connect 107 0 391 2;
#X connect 108 0 351 0;
#X connect 108 0 391 3;
#X connect 109 0 352 0;
#X connect 109 0 391 4;
#X connect 110 0 353 0;
#X connect 110 0 391 5;
#X connect 111 0 354 0;
#X connect 111 0 391 6;
#X connect 112 0 355 0;
#X connect 112 0 391 7;
#X connect 113 0 356 0;
#X connect 113 0 391 8;
#X connect 114 0 357 0;
#X connect 114 0 391 9;
#X connect 115 0 358 0;
#X connect 115 0 391 10;
#X connect 116 0 359 0;
#X connect 116 0 391 11;
#X connect 117 0 360 0;
#X connect 117 0 391 12;
#X connect 118 0 361 0;
#X connect 118 0 391 13;
#X connect 119 0 364 0;
#X connect 119 0 392 0;
#X connect 120 0 365 0;
#X connect 120 0 392 1;
#X connect 121 0 366 0;
#X connect 121 0 392 2;
#X connect 122 0 367 0;
#X connect 122 0 392 3;
#X connect 123 0 368 0;
#X connect 123 0 392 4;
#X connect 124 0 369 0;
#X connect 124 0 392 5;
#X connect 125 0 370 0;
#X connect 125 0 392 6;
#X connect 126 0 371 0;
#X connect 126 0 392 7;
#X connect 127 0 372 0;
#X connect 127 0 392 8;
#X connect 128 0 373 0;
#X connect 128 0 392 9;
#X connect 129 0 375 0;
#X connect 129 0 392 10;
#X connect 130 0 376 0;
#X connect 130 0 392 11;
#X connect 131 0 377 0;
#X connect 131 0 392 12;
#X connect 132 0 378 0;
#X connect 132 0 392 13;
#X connect 135 0 201 0;
#X connect 135 0 382 0;
#X connect 136 0 381 0;
#X connect 136 0 382 1;
#X connect 137 0 202 0;
#X connect 137 0 382 2;
#X connect 138 0 203 0;
#X connect 138 0 382 3;
#X connect 139 0 204 0;
#X connect 139 0 382 4;
#X connect 140 0 205 0;
#X connect 140 0 382 5;
#X connect 141 0 206 0;
#X connect 141 0 382 6;
#X connect 142 0 207 0;
#X connect 142 0 382 7;
#X connect 143 0 208 0;
#X connect 143 0 382 8;
#X connect 144 0 209 0;
#X connect 144 0 382 9;
#X connect 145 0 210 0;
#X connect 145 0 382 10;
#X connect 146 0 211 0;
#X connect 146 0 382 11;
#X connect 147 0 212 0;
#X connect 147 0 382 12;
#X connect 148 0 213 0;
#X connect 148 0 382 13;
#X connect 156 0 384 12;
#X connect 157 0 384 13;
#X connect 158 0 385 12;
#X connect 159 0 385 13;
#X connect 160 0 386 12;
#X connect 161 0 386 13;
#X connect 162 0 387 12;
#X connect 163 0 387 13;
#X connect 164 0 388 12;
#X connect 165 0 388 13;
#X connect 166 0 390 12;
#X connect 167 0 390 13;
#X connect 168 0 383 14;
#X connect 169 0 383 15;
#X connect 170 0 384 14;
#X connect 171 0 384 15;
#X connect 172 0 385 14;
#X connect 173 0 385 15;
#X connect 174 0 386 14;
#X connect 175 0 386 15;
#X connect 176 0 387 14;
#X connect 177 0 387 15;
#X connect 178 0 388 14;
#X connect 179 0 388 15;
#X connect 180 0 389 14;
#X connect 181 0 389 15;
#X connect 182 0 383 16;
#X connect 183 0 383 17;
#X connect 184 0 391 14;
#X connect 186 0 389 12;
#X connect 187 0 389 13;
#X connect 188 0 390 14;
#X connect 189 0 390 15;
#X connect 190 0 392 14;
#X connect 191 0 392 15;
#X connect 192 0 214 0;
#X connect 192 0 382 14;
#X connect 193 0 215 0;
#X connect 193 0 382 15;
#X connect 194 0 216 0;
#X connect 194 0 382 16;
#X connect 195 0 217 0;
#X connect 195 0 382 17;
#X connect 201 0 374 0;
#X connect 202 0 374 0;
#X connect 203 0 374 0;
#X connect 204 0 374 0;
#X connect 205 0 374 0;
#X connect 206 0 374 0;
#X connect 207 0 374 0;
#X connect 208 0 374 0;
#X connect 209 0 374 0;
#X connect 210 0 374 0;
#X connect 211 0 374 0;
#X connect 212 0 374 0;
#X connect 213 0 374 0;
#X connect 214 0 374 0;
#X connect 215 0 374 0;
#X connect 216 0 374 0;
#X connect 217 0 374 0;
#X connect 218 0 374 0;
#X connect 219 0 374 0;
#X connect 220 0 374 0;
#X connect 221 0 374 0;
#X connect 222 0 374 0;
#X connect 223 0 374 0;
#X connect 224 0 374 0;
#X connect 225 0 374 0;
#X connect 226 0 374 0;
#X connect 227 0 374 0;
#X connect 228 0 374 0;
#X connect 229 0 374 0;
#X connect 230 0 374 0;
#X connect 231 0 374 0;
#X connect 232 0 374 0;
#X connect 233 0 374 0;
#X connect 234 0 374 0;
#X connect 235 0 374 0;
#X connect 236 0 374 0;
#X connect 237 0 374 0;
#X connect 238 0 374 0;
#X connect 239 0 374 0;
#X connect 240 0 374 0;
#X connect 241 0 374 0;
#X connect 242 0 374 0;
#X connect 243 0 374 0;
#X connect 244 0 374 0;
#X connect 245 0 374 0;
#X connect 246 0 374 0;
#X connect 247 0 374 0;
#X connect 248 0 374 0;
#X connect 249 0 374 0;
#X connect 250 0 374 0;
#X connect 251 0 374 0;
#X connect 252 0 374 0;
#X connect 253 0 374 0;
#X connect 254 0 374 0;
#X connect 255 0 374 0;
#X connect 256 0 374 0;
#X connect 257 0 374 0;
#X connect 258 0 374 0;
#X connect 259 0 374 0;
#X connect 260 0 374 0;
#X connect 261 0 374 0;
#X connect 262 0 374 0;
#X connect 263 0 374 0;
#X connect 264 0 374 0;
#X connect 265 0 374 0;
#X connect 266 0 374 0;
#X connect 267 0 374 0;
#X connect 268 0 374 0;
#X connect 269 0 374 0;
#X connect 270 0 374 0;
#X connect 271 0 374 0;
#X connect 272 0 374 0;
#X connect 273 0 374 0;
#X connect 274 0 374 0;
#X connect 275 0 374 0;
#X connect 276 0 374 0;
#X connect 277 0 374 0;
#X connect 278 0 374 0;
#X connect 279 0 374 0;
#X connect 280 0 374 0;
#X connect 281 0 374 0;
#X connect 282 0 374 0;
#X connect 283 0 374 0;
#X connect 284 0 374 0;
#X connect 285 0 374 0;
#X connect 286 0 374 0;
#X connect 287 0 374 0;
#X connect 288 0 374 0;
#X connect 289 0 374 0;
#X connect 290 0 374 0;
#X connect 291 0 374 0;
#X connect 292 0 374 0;
#X connect 293 0 374 0;
#X connect 294 0 374 0;
#X connect 295 0 374 0;
#X connect 296 0 374 0;
#X connect 297 0 374 0;
#X connect 298 0 374 0;
#X connect 299 0 374 0;
#X connect 300 0 374 0;
#X connect 301 0 374 0;
#X connect 302 0 374 0;
#X connect 303 0 374 0;
#X connect 304 0 374 0;
#X connect 305 0 374 0;
#X connect 306 0 374 0;
#X connect 307 0 374 0;
#X connect 308 0 374 0;
#X connect 309 0 374 0;
#X connect 310 0 374 0;
#X connect 311 0 374 0;
#X connect 312 0 374 0;
#X connect 313 0 374 0;
#X connect 314 0 374 0;
#X connect 315 0 374 0;
#X connect 316 0 374 0;
#X connect 317 0 374 0;
#X connect 318 0 374 0;
#X connect 319 0 374 0;
#X connect 320 0 374 0;
#X connect 321 0 374 0;
#X connect 322 0 374 0;
#X connect 323 0 374 0;
#X connect 324 0 374 0;
#X connect 325 0 374 0;
#X connect 326 0 374 0;
#X connect 327 0 374 0;
#X connect 328 0 374 0;
#X connect 329 0 374 0;
#X connect 330 0 374 0;
#X connect 331 0 374 0;
#X connect 332 0 374 0;
#X connect 333 0 374 0;
#X connect 334 0 374 0;
#X connect 335 0 374 0;
#X connect 336 0 374 0;
#X connect 337 0 374 0;
#X connect 338 0 374 0;
#X connect 339 0 374 0;
#X connect 340 0 374 0;
#X connect 341 0 374 0;
#X connect 342 0 374 0;
#X connect 343 0 374 0;
#X connect 344 0 374 0;
#X connect 345 0 374 0;
#X connect 346 0 374 0;
#X connect 347 0 374 0;
#X connect 348 0 374 0;
#X connect 349 0 374 0;
#X connect 350 0 374 0;
#X connect 351 0 374 0;
#X connect 352 0 374 0;
#X connect 353 0 374 0;
#X connect 354 0 374 0;
#X connect 355 0 374 0;
#X connect 356 0 374 0;
#X connect 357 0 374 0;
#X connect 358 0 374 0;
#X connect 359 0 374 0;
#X connect 360 0 374 0;
#X connect 361 0 374 0;
#X connect 362 0 374 0;
#X connect 363 0 374 0;
#X connect 364 0 374 0;
#X connect 366 0 374 0;
#X connect 367 0 374 0;
#X connect 368 0 374 0;
#X connect 369 0 374 0;
#X connect 370 0 374 0;
#X connect 371 0 374 0;
#X connect 372 0 374 0;
#X connect 373 0 374 0;
#X connect 375 0 374 0;
#X connect 376 0 374 0;
#X connect 377 0 374 0;
#X connect 378 0 374 0;
#X connect 379 0 374 0;
#X connect 380 0 374 0;
#X connect 381 0 374 0;
#X connect 382 0 135 0;
#X connect 382 1 136 0;
#X connect 382 2 137 0;
#X connect 382 3 138 0;
#X connect 382 4 139 0;
#X connect 382 5 140 0;
#X connect 382 6 141 0;
#X connect 382 7 142 0;
#X connect 382 8 143 0;
#X connect 382 9 144 0;
#X connect 382 10 145 0;
#X connect 382 11 146 0;
#X connect 382 12 147 0;
#X connect 382 13 148 0;
#X connect 382 14 192 0;
#X connect 382 15 193 0;
#X connect 382 16 194 0;
#X connect 382 17 195 0;
#X connect 383 0 0 0;
#X connect 383 1 1 0;
#X connect 383 2 38 0;
#X connect 383 3 39 0;
#X connect 383 4 40 0;
#X connect 383 5 41 0;
#X connect 383 6 42 0;
#X connect 383 7 43 0;
#X connect 383 8 80 0;
#X connect 383 9 81 0;
#X connect 383 10 82 0;
#X connect 383 11 83 0;
#X connect 383 12 96 0;
#X connect 383 13 97 0;
#X connect 383 14 168 0;
#X connect 383 15 169 0;
#X connect 383 16 182 0;
#X connect 383 17 183 0;
#X connect 384 0 2 0;
#X connect 384 1 3 0;
#X connect 384 2 4 0;
#X connect 384 3 5 0;
#X connect 384 4 44 0;
#X connect 384 5 45 0;
#X connect 384 6 46 0;
#X connect 384 7 47 0;
#X connect 384 8 48 0;
#X connect 384 9 49 0;
#X connect 384 10 84 0;
#X connect 384 11 85 0;
#X connect 384 12 156 0;
#X connect 384 13 157 0;
#X connect 384 14 170 0;
#X connect 384 15 171 0;
#X connect 385 0 6 0;
#X connect 385 1 7 0;
#X connect 385 2 8 0;
#X connect 385 3 9 0;
#X connect 385 4 50 0;
#X connect 385 5 51 0;
#X connect 385 6 52 0;
#X connect 385 7 53 0;
#X connect 385 8 54 0;
#X connect 385 9 55 0;
#X connect 385 10 86 0;
#X connect 385 11 87 0;
#X connect 385 12 158 0;
#X connect 385 13 159 0;
#X connect 385 14 172 0;
#X connect 385 15 173 0;
#X connect 386 0 10 0;
#X connect 386 1 11 0;
#X connect 386 2 12 0;
#X connect 386 3 13 0;
#X connect 386 4 56 0;
#X connect 386 5 57 0;
#X connect 386 6 58 0;
#X connect 386 7 59 0;
#X connect 386 8 60 0;
#X connect 386 9 61 0;
#X connect 386 10 88 0;
#X connect 386 11 89 0;
#X connect 386 12 160 0;
#X connect 386 13 161 0;
#X connect 386 14 174 0;
#X connect 386 15 175 0;
#X connect 387 0 14 0;
#X connect 387 1 15 0;
#X connect 387 2 16 0;
#X connect 387 3 17 0;
#X connect 387 4 18 0;
#X connect 387 5 19 0;
#X connect 387 6 62 0;
#X connect 387 7 63 0;
#X connect 387 8 64 0;
#X connect 387 9 65 0;
#X connect 387 10 90 0;
#X connect 387 11 91 0;
#X connect 387 12 162 0;
#X connect 387 13 163 0;
#X connect 387 14 176 0;
#X connect 387 15 177 0;
#X connect 388 0 20 0;
#X connect 388 1 21 0;
#X connect 388 2 22 0;
#X connect 388 3 23 0;
#X connect 388 4 24 0;
#X connect 388 5 25 0;
#X connect 388 6 66 0;
#X connect 388 7 67 0;
#X connect 388 8 68 0;
#X connect 388 9 69 0;
#X connect 388 10 92 0;
#X connect 388 11 93 0;
#X connect 388 12 164 0;
#X connect 388 13 165 0;
#X connect 388 14 178 0;
#X connect 388 15 179 0;
#X connect 389 0 26 0;
#X connect 389 1 27 0;
#X connect 389 2 28 0;
#X connect 389 3 29 0;
#X connect 389 4 30 0;
#X connect 389 5 31 0;
#X connect 389 6 70 0;
#X connect 389 7 71 0;
#X connect 389 8 72 0;
#X connect 389 9 73 0;
#X connect 389 10 94 0;
#X connect 389 11 95 0;
#X connect 389 12 186 0;
#X connect 389 13 187 0;
#X connect 389 14 180 0;
#X connect 389 15 181 0;
#X connect 390 0 32 0;
#X connect 390 1 33 0;
#X connect 390 2 34 0;
#X connect 390 3 35 0;
#X connect 390 4 36 0;
#X connect 390 5 37 0;
#X connect 390 6 74 0;
#X connect 390 7 75 0;
#X connect 390 8 76 0;
#X connect 390 9 77 0;
#X connect 390 10 78 0;
#X connect 390 11 79 0;
#X connect 390 12 166 0;
#X connect 390 13 167 0;
#X connect 390 14 188 0;
#X connect 390 15 189 0;
#X connect 391 0 105 0;
#X connect 391 1 106 0;
#X connect 391 2 107 0;
#X connect 391 3 108 0;
#X connect 391 4 109 0;
#X connect 391 5 110 0;
#X connect 391 6 111 0;
#X connect 391 7 112 0;
#X connect 391 8 113 0;
#X connect 391 9 114 0;
#X connect 391 10 115 0;
#X connect 391 11 116 0;
#X connect 391 12 117 0;
#X connect 391 13 118 0;
#X connect 391 14 184 0;
#X connect 391 15 185 0;
#X connect 392 0 119 0;
#X connect 392 1 120 0;
#X connect 392 2 121 0;
#X connect 392 3 122 0;
#X connect 392 4 123 0;
#X connect 392 5 124 0;
#X connect 392 6 125 0;
#X connect 392 7 126 0;
#X connect 392 8 127 0;
#X connect 392 9 128 0;
#X connect 392 10 129 0;
#X connect 392 11 130 0;
#X connect 392 12 131 0;
#X connect 392 13 132 0;
#X connect 392 14 190 0;
#X connect 392 15 191 0;
#X coords 0 -1 1 1 530 700 2 100 100;
