#N canvas 60 176 1346 734 10;
#X obj 12 91 cnv 15 227 107 empty empty empty 20 12 0 14 -55397 -66577
0;
#X obj 1113 239 s \$0-damping;
#X obj 1114 114 s \$0-feedback;
#X obj 1113 219 * 44100;
#X obj 1113 199 expr pow($f1 \, 4);
#X obj 1113 159 * 0.9;
#X obj 1113 179 + 0.1;
#X obj 1113 300 *~ 1;
#X obj 1113 346 *~ 1;
#N canvas 297 66 830 530 LEFT 0;
#N canvas 388 22 522 372 comb-1 0;
#X obj 216 112 r \$0-damping;
#X obj 152 208 delwrite~ \$0-rev1 26;
#X obj 154 146 lop~ 20000;
#X obj 154 169 *~ 0.5;
#X obj 155 61 delread~ \$0-rev1 25.3061;
#X obj 72 37 inlet~;
#X obj 67 234 outlet~;
#X obj 233 147 r \$0-feedback;
#X floatatom 259 172 5 0 0 0 - - -;
#X connect 0 0 2 1;
#X connect 2 0 3 0;
#X connect 3 0 1 0;
#X connect 3 0 6 0;
#X connect 4 0 2 0;
#X connect 5 0 1 0;
#X connect 7 0 3 1;
#X connect 7 0 8 0;
#X restore -13 181 pd comb-1;
#N canvas 549 236 494 344 comb-2 0;
#X obj 236 93 r \$0-damping;
#X obj 174 127 lop~ 20000;
#X obj 174 150 *~ 0.5;
#X obj 90 36 inlet~;
#X obj 88 231 outlet~;
#X obj 253 128 r \$0-feedback;
#X obj 169 63 delread~ \$0-rev2 26.9388;
#X obj 171 202 delwrite~ \$0-rev2 27;
#X connect 0 0 1 1;
#X connect 1 0 2 0;
#X connect 2 0 7 0;
#X connect 2 0 4 0;
#X connect 3 0 7 0;
#X connect 5 0 2 1;
#X connect 6 0 1 0;
#X restore 49 181 pd comb-2;
#N canvas 400 75 490 340 comb-3 0;
#X obj 203 102 r \$0-damping;
#X obj 141 136 lop~ 20000;
#X obj 139 165 *~ 0.5;
#X obj 57 43 inlet~;
#X obj 57 248 outlet~;
#X obj 220 137 r \$0-feedback;
#X obj 117 67 delread~ \$0-rev3 28.9569;
#X obj 137 210 delwrite~ \$0-rev3 29;
#X connect 0 0 1 1;
#X connect 1 0 2 0;
#X connect 2 0 7 0;
#X connect 2 0 4 0;
#X connect 3 0 7 0;
#X connect 5 0 2 1;
#X connect 6 0 1 0;
#X restore 110 181 pd comb-3;
#N canvas 746 118 494 344 comb-4 0;
#X obj 244 103 r \$0-damping;
#X obj 182 137 lop~ 20000;
#X obj 182 160 *~ 0.5;
#X obj 90 36 inlet~;
#X obj 88 231 outlet~;
#X obj 261 138 r \$0-feedback;
#X obj 175 73 delread~ \$0-rev4 30.7483;
#X obj 171 206 delwrite~ \$0-rev4 31;
#X connect 0 0 1 1;
#X connect 1 0 2 0;
#X connect 2 0 7 0;
#X connect 2 0 4 0;
#X connect 3 0 7 0;
#X connect 5 0 2 1;
#X connect 6 0 1 0;
#X restore 172 181 pd comb-4;
#N canvas 805 59 474 324 comb-5 0;
#X obj 196 95 r \$0-damping;
#X obj 134 129 lop~ 20000;
#X obj 134 152 *~ 0.5;
#X obj 90 36 inlet~;
#X obj 88 231 outlet~;
#X obj 213 130 r \$0-feedback;
#X obj 135 61 delread~ \$0-rev5 34.2449;
#X obj 132 203 delwrite~ \$0-rev5 35;
#X connect 0 0 1 1;
#X connect 1 0 2 0;
#X connect 2 0 7 0;
#X connect 2 0 4 0;
#X connect 3 0 7 0;
#X connect 5 0 2 1;
#X connect 6 0 1 0;
#X restore 234 181 pd comb-5;
#N canvas 702 107 474 324 comb-6 0;
#X obj 238 87 r \$0-damping;
#X obj 176 121 lop~ 20000;
#X obj 176 144 *~ 0.5;
#X obj 90 36 inlet~;
#X obj 88 231 outlet~;
#X obj 255 122 r \$0-feedback;
#X obj 238 54 delread~ \$0-rev6 33.8095;
#X obj 177 197 delwrite~ \$0-rev6 34;
#X connect 0 0 1 1;
#X connect 1 0 2 0;
#X connect 2 0 4 0;
#X connect 2 0 7 0;
#X connect 3 0 7 0;
#X connect 5 0 2 1;
#X connect 6 0 1 0;
#X restore 296 181 pd comb-6;
#N canvas 552 280 474 324 comb-7 0;
#X obj 193 101 r \$0-damping;
#X obj 131 135 lop~ 20000;
#X obj 131 158 *~ 0.5;
#X obj 80 50 inlet~;
#X obj 88 231 outlet~;
#X obj 210 136 r \$0-feedback;
#X obj 194 70 delread~ \$0-rev7 35.7596;
#X obj 129 207 delwrite~ \$0-rev7 36;
#X connect 0 0 1 1;
#X connect 1 0 2 0;
#X connect 2 0 4 0;
#X connect 2 0 7 0;
#X connect 3 0 7 0;
#X connect 5 0 2 1;
#X connect 6 0 1 0;
#X restore 357 181 pd comb-7;
#N canvas 582 455 478 328 comb-8 0;
#X obj 202 100 r \$0-damping;
#X obj 140 134 lop~ 20000;
#X obj 140 157 *~ 0.5;
#X obj 90 36 inlet~;
#X obj 88 231 outlet~;
#X obj 219 135 r \$0-feedback;
#X obj 204 67 delread~ \$0-rev8 36.6667;
#X obj 140 205 delwrite~ \$0-rev8 37;
#X connect 0 0 1 1;
#X connect 1 0 2 0;
#X connect 2 0 4 0;
#X connect 2 0 7 0;
#X connect 3 0 7 0;
#X connect 5 0 2 1;
#X connect 6 0 1 0;
#X restore 419 181 pd comb-8;
#N canvas 376 127 648 562 allpass-1 0;
#X obj 186 65 inlet~;
#X obj 245 422 *~ 0.5;
#X obj 213 389 delread~ \$0-fbcf-1 12.6077;
#X obj 175 490 outlet~;
#X obj 437 474 delwrite~ \$0-fbcf-1 13;
#X obj 168 391 *~ -1;
#X connect 0 0 5 0;
#X connect 0 0 4 0;
#X connect 1 0 4 0;
#X connect 2 0 1 0;
#X connect 2 0 3 0;
#X connect 5 0 3 0;
#X restore 241 319 pd allpass-1;
#N canvas 0 22 640 554 allpass-2 0;
#X obj 186 65 inlet~;
#X obj 245 422 *~ 0.5;
#X obj 175 490 outlet~;
#X obj 168 391 *~ -1;
#X obj 213 389 delread~ \$0-fbcf-2 10;
#X obj 439 474 delwrite~ \$0-fbcf-2 11;
#X connect 0 0 3 0;
#X connect 0 0 5 0;
#X connect 1 0 5 0;
#X connect 3 0 2 0;
#X connect 4 0 1 0;
#X connect 4 0 2 0;
#X restore 241 339 pd allpass-2;
#N canvas 0 22 644 558 allpass-3 0;
#X obj 186 65 inlet~;
#X obj 245 422 *~ 0.5;
#X obj 175 490 outlet~;
#X obj 168 391 *~ -1;
#X obj 213 389 delread~ \$0-fbcf-3 7.77324;
#X obj 437 474 delwrite~ \$0-fbcf-3 8;
#X connect 0 0 3 0;
#X connect 0 0 5 0;
#X connect 1 0 5 0;
#X connect 3 0 2 0;
#X connect 4 0 1 0;
#X connect 4 0 2 0;
#X restore 240 360 pd allpass-3;
#N canvas 0 22 636 550 allpass-4 0;
#X obj 186 65 inlet~;
#X obj 245 422 *~ 0.5;
#X obj 175 490 outlet~;
#X obj 168 391 *~ -1;
#X obj 214 389 delread~ \$0-fbcf-4 5.10204;
#X obj 437 474 delwrite~ \$0-fbcf-4 6;
#X connect 0 0 3 0;
#X connect 0 0 5 0;
#X connect 1 0 5 0;
#X connect 3 0 2 0;
#X connect 4 0 1 0;
#X connect 4 0 2 0;
#X restore 242 381 pd allpass-4;
#X obj 241 300 *~ 0.25;
#X obj 234 90 *~ 0.05;
#X obj 244 469 outlet~;
#X obj 217 18 inlet~;
#N canvas 256 222 522 372 comb-9 0;
#X obj 154 146 lop~ 20000;
#X obj 154 169 *~ 0.5;
#X obj 72 37 inlet~;
#X obj 67 234 outlet~;
#X obj 155 61 delread~ \$0-rev9 37.3061;
#X obj 152 208 delwrite~ \$0-rev9 38;
#X obj 216 112 r \$0-damping2;
#X obj 233 147 r \$0-feedback2;
#X connect 0 0 1 0;
#X connect 1 0 3 0;
#X connect 1 0 5 0;
#X connect 2 0 5 0;
#X connect 4 0 0 0;
#X connect 6 0 0 1;
#X connect 7 0 1 1;
#X restore 315 262 pd comb-9;
#N canvas 549 236 494 344 comb-10 0;
#X obj 174 127 lop~ 20000;
#X obj 174 150 *~ 0.5;
#X obj 90 36 inlet~;
#X obj 88 231 outlet~;
#X obj 169 63 delread~ \$0-rev10 38.9388;
#X obj 171 202 delwrite~ \$0-rev10 39;
#X obj 236 93 r \$0-damping2;
#X obj 253 128 r \$0-feedback2;
#X connect 0 0 1 0;
#X connect 1 0 3 0;
#X connect 1 0 5 0;
#X connect 2 0 5 0;
#X connect 4 0 0 0;
#X connect 6 0 0 1;
#X connect 7 0 1 1;
#X restore 377 262 pd comb-10;
#N canvas 400 75 490 340 comb-11 0;
#X obj 141 136 lop~ 20000;
#X obj 139 165 *~ 0.5;
#X obj 57 43 inlet~;
#X obj 57 248 outlet~;
#X obj 117 67 delread~ \$0-rev11 39.9569;
#X obj 137 210 delwrite~ \$0-rev11 40;
#X obj 203 102 r \$0-damping2;
#X obj 220 137 r \$0-feedback2;
#X connect 0 0 1 0;
#X connect 1 0 3 0;
#X connect 1 0 5 0;
#X connect 2 0 5 0;
#X connect 4 0 0 0;
#X connect 6 0 0 1;
#X connect 7 0 1 1;
#X restore 438 262 pd comb-11;
#N canvas 746 118 494 344 comb-12 0;
#X obj 182 137 lop~ 20000;
#X obj 182 160 *~ 0.5;
#X obj 90 36 inlet~;
#X obj 88 231 outlet~;
#X obj 175 73 delread~ \$0-rev12 40.7483;
#X obj 171 206 delwrite~ \$0-rev12 41;
#X obj 244 103 r \$0-damping2;
#X obj 261 138 r \$0-feedback2;
#X connect 0 0 1 0;
#X connect 1 0 3 0;
#X connect 1 0 5 0;
#X connect 2 0 5 0;
#X connect 4 0 0 0;
#X connect 6 0 0 1;
#X connect 7 0 1 1;
#X restore 500 262 pd comb-12;
#N canvas 805 59 474 324 comb-13 0;
#X obj 134 129 lop~ 20000;
#X obj 134 152 *~ 0.5;
#X obj 90 36 inlet~;
#X obj 88 231 outlet~;
#X obj 135 61 delread~ \$0-rev13 41.2449;
#X obj 132 203 delwrite~ \$0-rev13 42;
#X obj 196 95 r \$0-damping2;
#X obj 213 130 r \$0-feedback2;
#X connect 0 0 1 0;
#X connect 1 0 3 0;
#X connect 1 0 5 0;
#X connect 2 0 5 0;
#X connect 4 0 0 0;
#X connect 6 0 0 1;
#X connect 7 0 1 1;
#X restore 562 262 pd comb-13;
#N canvas 702 107 474 324 comb-14 0;
#X obj 176 121 lop~ 20000;
#X obj 176 144 *~ 0.5;
#X obj 90 36 inlet~;
#X obj 88 231 outlet~;
#X obj 238 54 delread~ \$0-rev14 42.8095;
#X obj 238 87 r \$0-damping2;
#X obj 255 122 r \$0-feedback2;
#X obj 177 197 delwrite~ \$0-rev14 43;
#X connect 0 0 1 0;
#X connect 1 0 3 0;
#X connect 1 0 7 0;
#X connect 2 0 7 0;
#X connect 4 0 0 0;
#X connect 5 0 0 1;
#X connect 6 0 1 1;
#X restore 624 262 pd comb-14;
#N canvas 742 153 474 324 comb-15 0;
#X obj 131 135 lop~ 20000;
#X obj 131 158 *~ 0.5;
#X obj 80 50 inlet~;
#X obj 88 231 outlet~;
#X obj 194 70 delread~ \$0-rev15 44.7596;
#X obj 129 207 delwrite~ \$0-rev15 45;
#X obj 193 101 r \$0-damping2;
#X obj 210 136 r \$0-feedback2;
#X connect 0 0 1 0;
#X connect 1 0 3 0;
#X connect 1 0 5 0;
#X connect 2 0 5 0;
#X connect 4 0 0 0;
#X connect 6 0 0 1;
#X connect 7 0 1 1;
#X restore 685 262 pd comb-15;
#N canvas 731 107 478 328 comb-16 0;
#X obj 140 134 lop~ 20000;
#X obj 140 157 *~ 0.5;
#X obj 90 36 inlet~;
#X obj 88 231 outlet~;
#X obj 140 205 delwrite~ \$0-rev16 47;
#X obj 204 67 delread~ \$0-rev16 46.6667;
#X obj 202 100 r \$0-damping2;
#X obj 219 135 r \$0-feedback2;
#X connect 0 0 1 0;
#X connect 1 0 3 0;
#X connect 1 0 4 0;
#X connect 2 0 4 0;
#X connect 5 0 0 0;
#X connect 6 0 0 1;
#X connect 7 0 1 1;
#X restore 747 262 pd comb-16;
#X obj 532 321 *~ 0.25;
#X obj 535 490 outlet~;
#X obj 547 198 *~ 0.05;
#X obj 530 126 inlet~;
#N canvas 376 127 648 562 allpass-5 0;
#X obj 186 65 inlet~;
#X obj 245 422 *~ 0.5;
#X obj 175 490 outlet~;
#X obj 168 391 *~ -1;
#X obj 213 389 delread~ \$0-fbcf-5 12.6077;
#X obj 437 474 delwrite~ \$0-fbcf-5 13;
#X connect 0 0 3 0;
#X connect 0 0 5 0;
#X connect 1 0 5 0;
#X connect 3 0 2 0;
#X connect 4 0 1 0;
#X connect 4 0 2 0;
#X restore 532 340 pd allpass-5;
#N canvas 0 22 644 558 allpass-7 0;
#X obj 186 65 inlet~;
#X obj 245 422 *~ 0.5;
#X obj 175 490 outlet~;
#X obj 168 391 *~ -1;
#X obj 213 389 delread~ \$0-fbcf-7 7.77324;
#X obj 437 474 delwrite~ \$0-fbcf-7 8;
#X connect 0 0 3 0;
#X connect 0 0 5 0;
#X connect 1 0 5 0;
#X connect 3 0 2 0;
#X connect 4 0 1 0;
#X connect 4 0 2 0;
#X restore 531 379 pd allpass-7;
#N canvas 0 22 636 550 allpass-8 0;
#X obj 186 65 inlet~;
#X obj 245 422 *~ 0.5;
#X obj 175 490 outlet~;
#X obj 168 391 *~ -1;
#X obj 214 389 delread~ \$0-fbcf-8 5.10204;
#X obj 437 474 delwrite~ \$0-fbcf-8 6;
#X connect 0 0 3 0;
#X connect 0 0 5 0;
#X connect 1 0 5 0;
#X connect 3 0 2 0;
#X connect 4 0 1 0;
#X connect 4 0 2 0;
#X restore 533 402 pd allpass-8;
#N canvas 0 22 640 554 allpass-6 0;
#X obj 186 65 inlet~;
#X obj 245 422 *~ 0.5;
#X obj 175 490 outlet~;
#X obj 168 391 *~ -1;
#X obj 213 389 delread~ \$0-fbcf-6 10;
#X obj 439 473 delwrite~ \$0-fbcf-6 11;
#X connect 0 0 3 0;
#X connect 0 0 5 0;
#X connect 1 0 5 0;
#X connect 3 0 2 0;
#X connect 4 0 1 0;
#X connect 4 0 2 0;
#X restore 532 360 pd allpass-6;
#X floatatom 167 371 5 0 0 0 - - -;
#X obj 183 318 r \$0-vo;
#X obj 625 326 r \$0-vo1;
#X connect 0 0 12 0;
#X connect 1 0 12 0;
#X connect 2 0 12 0;
#X connect 3 0 12 0;
#X connect 4 0 12 0;
#X connect 5 0 12 0;
#X connect 6 0 12 0;
#X connect 7 0 12 0;
#X connect 8 0 9 0;
#X connect 9 0 10 0;
#X connect 10 0 11 0;
#X connect 11 0 14 0;
#X connect 12 0 8 0;
#X connect 13 0 0 0;
#X connect 13 0 1 0;
#X connect 13 0 2 0;
#X connect 13 0 3 0;
#X connect 13 0 4 0;
#X connect 13 0 5 0;
#X connect 13 0 6 0;
#X connect 13 0 7 0;
#X connect 15 0 13 0;
#X connect 16 0 24 0;
#X connect 17 0 24 0;
#X connect 18 0 24 0;
#X connect 19 0 24 0;
#X connect 20 0 24 0;
#X connect 21 0 24 0;
#X connect 22 0 24 0;
#X connect 23 0 24 0;
#X connect 24 0 28 0;
#X connect 26 0 16 0;
#X connect 26 0 17 0;
#X connect 26 0 18 0;
#X connect 26 0 19 0;
#X connect 26 0 20 0;
#X connect 26 0 21 0;
#X connect 26 0 22 0;
#X connect 26 0 23 0;
#X connect 27 0 26 0;
#X connect 28 0 31 0;
#X connect 29 0 30 0;
#X connect 30 0 25 0;
#X connect 31 0 29 0;
#X connect 33 0 12 1;
#X connect 33 0 32 0;
#X connect 34 0 24 1;
#X restore 1153 311 pd LEFT;
#X obj 18 109 hsl 80 10 0 1 0 0 \$0-dam \$0-da damping -2 -8 0 10 -33289
-257985 -38110 0 1;
#X obj 18 152 hsl 80 10 0 1 0 0 \$0-feb \$0-fb feedback 5 5 0 10 -204786
-1 -38110 0 1;
#X obj 17 137 hsl 80 10 0 1 0 0 \$0-wet \$0-we wet -2 -8 0 10 -258113
-257985 -66577 0 1;
#X obj 18 168 hsl 80 10 0 1 0 0 \$0-dry \$0-dr dry 5 5 0 10 -204786
-1 -66577 0 1;
#X obj 1114 77 * 0.28;
#X obj 1114 95 + 0.7;
#X obj 1114 1 - 1;
#X obj 1114 39 - 1;
#X obj 1114 58 abs;
#X obj 1114 20 expr pow($f1 \, 4);
#X obj 1227 220 * 44100;
#X obj 1227 201 expr pow($f1 \, 4);
#X obj 1227 161 * 0.9;
#X obj 1227 181 + 0.1;
#X obj 1227 239 s \$0-damping2;
#X obj 1226 83 * 0.28;
#X obj 1226 101 + 0.7;
#X obj 1224 -1 - 1;
#X obj 1225 43 - 1;
#X obj 1226 64 abs;
#X obj 1224 21 expr pow($f1 \, 4);
#X obj 1226 120 s \$0-feedback2;
#X obj 1192 334 *~ 1;
#X obj 118 109 hsl 80 10 0 1 0 0 \$0-dam2 \$0-da2 damping2 -2 -8 0
10 -33289 -257985 -66577 0 1;
#X obj 112 152 hsl 80 10 0 1 0 0 \$0-feb2 \$0-fb2 feedback2 5 5 0 10
-204786 -1 -66577 0 1;
#X obj 113 138 hsl 80 10 0 1 0 0 \$0-wet2 \$0-we2 wet2 -2 -8 0 10 -258113
-257985 -66577 0 1;
#X obj 285 48 randomF 1;
#X floatatom 285 121 5 0 0 0 - - -;
#X obj 286 27 metro;
#X floatatom 79 91 5 0 0 0 - #0-rnumetda #0-numetda;
#X obj 60 94 tgl 12 0 \$0-metda \$0-rmetda empty 17 7 0 10 -33289 -257985
-1 0 1;
#X obj 375 47 randomF 1;
#X floatatom 329 121 5 0 0 0 - - -;
#X obj 375 27 metro;
#X floatatom 190 92 5 0 0 0 - #0-rnumetda2 #0-numetda2;
#X obj 165 94 tgl 12 0 \$0-metda2 \$0-rmetda2 empty 17 7 0 10 -33289
-257985 -1 0 1;
#X obj 112 168 hsl 80 10 0 1 0 0 \$0-dry1 \$0-dr1 dry2 5 5 0 10 -204786
-1 -66577 0 1;
#X obj 1205 300 *~ 1;
#X obj 1227 142 r \$0-dam2;
#X obj 1113 139 r \$0-dam;
#X obj 1114 -18 r \$0-feb;
#X obj 1223 -20 r \$0-feb2;
#X floatatom 75 120 5 0 0 0 - #0-rnumetwet #0-numetwet;
#X obj 50 122 tgl 12 0 \$0-metwet \$0-rmetwet empty 17 7 0 10 -258113
-257985 -1 0 1;
#X floatatom 165 120 5 0 0 0 - #0-rnumetwet2 #0-numetwet2;
#X obj 141 122 tgl 12 0 \$0-metwet2 \$0-rmetwet2 empty 17 7 0 10 -258113
-257985 -1 0 1;
#X obj 202 125 vsl 10 30 0 1 0 0 \$0-vo \$0-volr empty 0 -9 0 10 -121454
-262130 -1 0 1;
#X obj 202 163 vsl 10 30 0 1 0 0 \$0-vo1 \$0-voll empty 0 -9 0 10 -121454
-262130 -1 0 1;
#X obj 218 208 switch~;
#X obj 218 176 tgl 15 0 \$0-rvswitch \$0-rrvswitch empty 17 7 0 10
-262144 -1 -1 0 1;
#X obj 286 6 r \$0-metda;
#X obj 313 -11 r \$0-numetda;
#X obj 375 6 r \$0-metda2;
#X obj 402 -11 r \$0-numetda2;
#N canvas 421 22 937 735 presets 0;
#X obj -67 268 r \$0-metda;
#X obj -66 382 s \$0-rmetda;
#X obj 136 270 r \$0-metda2;
#X obj 138 388 s \$0-rmetda2;
#X obj -71 -146 r \$0-dam;
#X obj -70 -41 s \$0-da;
#X obj -15 -59 r \$0-dam2;
#X obj 323 285 r \$0-metwet;
#X obj 321 391 s \$0-rmetwet;
#X obj 533 276 r \$0-metwet2;
#X obj 538 388 s \$0-rmetwet2;
#X obj 85 -146 r \$0-wet;
#X obj 83 -46 s \$0-we;
#X obj -16 47 s \$0-da2;
#X obj 140 -54 r \$0-wet2;
#X obj 141 47 s \$0-we2;
#X obj 233 -145 r \$0-feb;
#X obj 235 -53 s \$0-fb;
#X obj 301 -51 r \$0-feb2;
#X obj 302 46 s \$0-fb2;
#X obj 395 -142 r \$0-dry;
#X obj 395 -46 s \$0-dr;
#X obj 459 -46 r \$0-dry1;
#X obj 463 49 s \$0-dr1;
#X obj 550 -146 r \$0-vo;
#X obj 552 -45 s \$0-volr;
#X obj 629 53 s \$0-voll;
#X obj 625 -45 r \$0-vo1;
#X obj -72 123 r \$0-numetda;
#X obj -73 217 s \$0-rnumetda;
#X obj 134 120 r \$0-numetda2;
#X obj 133 218 s \$0-rnumetda2;
#X obj 324 120 r \$0-numetwet;
#X obj 322 216 s \$0-rnumetwet;
#X obj 522 115 r \$0-numetwet2;
#X obj 524 212 s \$0-rnumetwet2;
#X obj -71 -171 inlet;
#X obj -8 -168 inlet;
#X obj 82 -174 inlet;
#X obj 147 -173 inlet;
#X obj 716 115 r \$0-rvswitch;
#X obj 718 218 s \$0-rrvswitch;
#X obj 721 197 pipe 200;
#X obj 308 -169 inlet;
#X obj 239 -168 inlet;
#X obj 21 418 r \$0-radmet;
#X obj 21 461 s \$0-rradmet;
#X obj 719 293 r \$0-feed;
#X obj 719 335 s \$0-rfeed;
#X obj -72 -86 save.me.mmb rv4da all;
#X obj -71 -113 save.me.mmb rv4da rvrbp6;
#X obj -15 5 save.me.mmb rv4da2 all;
#X obj -14 -22 save.me.mmb rv4da2 rvrbp6;
#X obj 84 -83 save.me.mmb rv4wet all;
#X obj 85 -110 save.me.mmb rv4wet rvrbp6;
#X obj 140 6 save.me.mmb rv4wet2 all;
#X obj 140 -25 save.me.mmb rv4wet2 rvrbp6;
#X obj 235 -83 save.me.mmb rv4feb all;
#X obj 236 -110 save.me.mmb rv4feb rvrbp6;
#X obj 300 3 save.me.mmb rv4feb2 all;
#X obj 302 -24 save.me.mmb rv4feb2 rvrbp6;
#X obj 394 -84 save.me.mmb rv4dry all;
#X obj 395 -111 save.me.mmb rv4dry rvrbp6;
#X obj 461 7 save.me.mmb rv4dry2 all;
#X obj 462 -20 save.me.mmb rv4dry2 rvrbp6;
#X obj 551 -85 save.me.mmb rv4volr all;
#X obj 552 -112 save.me.mmb rv4volr rvrbp6;
#X obj 625 13 save.me.mmb rv4voll all;
#X obj 626 -14 save.me.mmb rv4voll rvrbp6;
#X obj -73 178 save.me.mmb rv4numda all;
#X obj -72 151 save.me.mmb rv4numda rvrbp6;
#X obj 132 177 save.me.mmb rv4numda2 all;
#X obj 133 150 save.me.mmb rv4numda2 rvrbp6;
#X obj 323 176 save.me.mmb rv4numwet all;
#X obj 324 149 save.me.mmb rv4numwet rvrbp6;
#X obj 524 176 save.me.mmb rv4numwet2 all;
#X obj 522 148 save.me.mmb rv4numwet2 rvrbp6;
#X obj 717 174 save.me.mmb rv4swit all;
#X obj 715 146 save.me.mmb rv4swit rvrbp6;
#X obj -66 343 save.me.mmb rv4metda all;
#X obj -65 316 save.me.mmb rv4metda rvrbp6;
#X obj 136 347 save.me.mmb rv4metda2 all;
#X obj 137 321 save.me.mmb rv4metda2 rvrbp6;
#X obj 324 345 save.me.mmb rv4metwet all;
#X obj 323 318 save.me.mmb rv4metwet rvrbp6;
#X obj 536 345 save.me.mmb rv4metwet2 all;
#X obj 535 318 save.me.mmb rv4metwet2 rvrbp6;
#X obj 719 314 save.me.mmb fedbak rvrbp6;
#X obj 21 439 save.me.mmb radmet rvrbp6;
#X connect 0 0 79 0;
#X connect 0 0 80 0;
#X connect 2 0 81 0;
#X connect 2 0 82 0;
#X connect 4 0 49 0;
#X connect 4 0 50 0;
#X connect 6 0 51 0;
#X connect 6 0 52 0;
#X connect 7 0 83 0;
#X connect 7 0 84 0;
#X connect 9 0 85 0;
#X connect 9 0 86 0;
#X connect 11 0 53 0;
#X connect 11 0 54 0;
#X connect 14 0 55 0;
#X connect 14 0 56 0;
#X connect 16 0 57 0;
#X connect 16 0 58 0;
#X connect 18 0 59 0;
#X connect 18 0 60 0;
#X connect 20 0 61 0;
#X connect 20 0 62 0;
#X connect 22 0 63 0;
#X connect 22 0 64 0;
#X connect 24 0 65 0;
#X connect 24 0 66 0;
#X connect 27 0 67 0;
#X connect 27 0 68 0;
#X connect 28 0 69 0;
#X connect 28 0 70 0;
#X connect 30 0 71 0;
#X connect 30 0 72 0;
#X connect 32 0 73 0;
#X connect 32 0 74 0;
#X connect 34 0 75 0;
#X connect 34 0 76 0;
#X connect 36 0 5 0;
#X connect 37 0 13 0;
#X connect 38 0 12 0;
#X connect 39 0 15 0;
#X connect 40 0 77 0;
#X connect 40 0 78 0;
#X connect 42 0 41 0;
#X connect 43 0 19 0;
#X connect 44 0 17 0;
#X connect 45 0 88 0;
#X connect 47 0 87 0;
#X connect 49 0 5 0;
#X connect 50 0 5 0;
#X connect 51 0 13 0;
#X connect 52 0 13 0;
#X connect 53 0 12 0;
#X connect 54 0 12 0;
#X connect 55 0 15 0;
#X connect 56 0 15 0;
#X connect 57 0 17 0;
#X connect 58 0 17 0;
#X connect 59 0 19 0;
#X connect 60 0 19 0;
#X connect 61 0 21 0;
#X connect 62 0 21 0;
#X connect 63 0 23 0;
#X connect 64 0 23 0;
#X connect 65 0 25 0;
#X connect 66 0 25 0;
#X connect 67 0 26 0;
#X connect 68 0 26 0;
#X connect 69 0 29 0;
#X connect 70 0 29 0;
#X connect 71 0 31 0;
#X connect 72 0 31 0;
#X connect 73 0 33 0;
#X connect 74 0 33 0;
#X connect 75 0 35 0;
#X connect 76 0 35 0;
#X connect 77 0 42 0;
#X connect 78 0 42 0;
#X connect 79 0 1 0;
#X connect 80 0 1 0;
#X connect 81 0 3 0;
#X connect 82 0 3 0;
#X connect 83 0 8 0;
#X connect 84 0 8 0;
#X connect 85 0 10 0;
#X connect 86 0 10 0;
#X connect 87 0 48 0;
#X connect 88 0 46 0;
#X restore 341 161 pd presets;
#X obj 1134 328 r \$0-wet;
#X obj 1213 317 r \$0-wet2;
#X obj 1134 282 r \$0-dry;
#N canvas 495 255 1047 647 mics 0;
#X obj 214 10 hradio 11 1 0 15 empty empty rvrb 0 -5 0 10 -262144 -1
-1 0;
#X msg 46 22 save;
#X obj 234 106 route 0 1 2 3 4 5 6 7;
#X obj 249 214 prepend load;
#X obj 121 85 list prepend;
#X msg 190 64 \$1;
#X obj 59 39 r \$0-my.hero.preset;
#X obj 249 243 s \$0-my.hero.preset;
#X obj 369 106 route 8 9 10 11 12 13 14;
#N canvas 170 272 588 557 messages 0;
#X obj 34 47 inlet;
#X obj 83 47 inlet;
#X obj 127 47 inlet;
#X obj 172 47 inlet;
#X obj 224 48 inlet;
#X obj 273 48 inlet;
#X obj 317 48 inlet;
#X obj 362 48 inlet;
#X obj 202 541 outlet;
#X msg 224 83 rv2metda 0 \, rv2numda 193 \, rv2metda2 0 \, rv2numda2
165 \, rv2metwet 0 \, rv2numwet 0 \, rv2numwet2 370 \, rv2swit 1 \,
rv2voll 0.62069 \, rv2dry2 0.3 \, rv2feb2 0.443038 \, rv2wet2 0.56962
\, rv2da2 0.572532 \, rv2volr 0.62069 \, rv2dry 0.3 \, rv2feb 0.481013
\, rv2wet 0.56962 \, rv2da 0.216835 \,;
#X msg 273 84 rv2metda 1 \, rv2numda 423 \, rv2metda2 1 \, rv2numda2
422 \, rv2numwet2 370 \, rv2swit 1 \, rv2voll 0.62069 \, rv2dry2 0
\, rv2feb2 0.696203 \, rv2wet2 0.43038 \, rv2da2 0.473671 \, rv2volr
0.62069 \, rv2dry 0 \, rv2feb 0.683544 \, rv2wet 0.506329 \, rv2da
0.514051 \,;
#X msg 319 85;
#X msg 364 85 rv2metda 1 \, rv2numda 423 \, rv2metda2 1 \, rv2numda2
422 \, rv2metwet 1 \, rv2numwet 771 \, rv2metwet2 1 \, rv2numwet2 1267
\, rv2swit 1 \, rv2voll 0.758621 \, rv2dry2 0 \, rv2feb2 0.924051 \,
rv2wet2 0.721139 \, rv2da2 0.490633 \, rv2volr 0.758621 \, rv2dry 0
\, rv2feb 0.924051 \, rv2wet 0.563671 \, rv2da 0.534304 \,;
#X msg 88 229 radmet 1 \, fedbak 1 \, rv3swit 1 \, rv3voll 0.482759
\, rv3volr 0.448276 \, rv3wet2 0.7 \, rv3wet 0.7 \,;
#X msg 152 116 rv2metda 0 \, rv2numda 0 \, rv2metwet 0 \, rv2numwet
0 \, rv2swit 1 \, rv2voll 0.62069 \, rv2dry2 0.3 \, rv2feb2 0.886076
\, rv2wet2 0.797468 \, rv2da2 0.227848 \, rv2volr 0.62069 \, rv2dry
0.3 \, rv2feb 0.734177 \, rv2wet 0.759494 \, rv2da 0.240506 \,;
#X msg 37 178 radmet 0 \, fedbak 0 \, rv3swit 0 \, rv3voll 0 \, rv3volr
0 \, rv3wet2 0.780506 \, rv3wet 0.707342 \,;
#X msg 137 404 radmet 0 \, fedbak 1 \, rv2metwet2 0 \, rv2metwet 0
\, rv2metda2 1 \, rv2metda 1 \, rv2swit 1 \, rv2numwet2 684 \, rv2numwet
355 \, rv2numda2 762 \, rv2numda 774 \, rv2wet2 0.459494 \, rv2feb2
0.551646 \, rv2dry2 0 \, rv2voll 0.655172 \, rv2volr 0.62069 \, rv2dry
0 \, rv2feb 0.420633 \, rv2wet 0.452658 \, rv2da2 0.562785 \, rv2da
0.411899 \,;
#X connect 0 0 15 0;
#X connect 1 0 13 0;
#X connect 2 0 16 0;
#X connect 3 0 14 0;
#X connect 4 0 9 0;
#X connect 5 0 10 0;
#X connect 6 0 11 0;
#X connect 7 0 12 0;
#X connect 9 0 8 0;
#X connect 10 0 8 0;
#X connect 11 0 8 0;
#X connect 12 0 8 0;
#X connect 13 0 8 0;
#X connect 14 0 8 0;
#X connect 15 0 8 0;
#X connect 16 0 8 0;
#X restore 249 186 pd messages;
#N canvas 414 171 750 542 messages 0;
#X obj 34 47 inlet;
#X obj 83 47 inlet;
#X obj 127 47 inlet;
#X obj 172 47 inlet;
#X obj 224 48 inlet;
#X obj 273 48 inlet;
#X obj 317 48 inlet;
#X obj 362 48 inlet;
#X obj 196 132 outlet;
#X msg 31 381 rv2metda 1 \, rv2numda 383 \, rv2metda2 1 \, rv2numda2
329 \, rv2metwet 1 \, rv2numwet 771 \, rv2metwet2 1 \, rv2numwet2 805
\, rv2swit 1 \, rv2voll 0.758621 \, rv2dry2 0 \, rv2feb2 0.468354 \,
rv2wet2 0.647089 \, rv2da2 0.770127 \, rv2volr 0.758621 \, rv2dry 0
\, rv2feb 0.392405 \, rv2wet 0.632911 \, rv2da 0.84519 \,;
#X msg 83 85;
#X msg 126 85;
#X msg 174 84;
#X msg 226 307 rv2metwet2 1 \, rv2metwet 1 \, rv2metda2 1 \, rv2metda
1 \, rv2swit 1 \, rv2numwet2 684 \, rv2numwet 355 \, rv2numda2 1397
\, rv2numda 1499 \, rv2wet2 0.7 \, rv2feb2 0.455696 \, rv2dry2 0 \,
rv2voll 0.655172 \, rv2volr 0.62069 \, rv2dry 0 \, rv2feb 0.392405
\, rv2wet 0.2 \, rv2da2 0.230633 \, rv2da 0.287848 \,;
#X msg 273 235 rv2metwet2 0 \, rv2metwet 0 \, rv2metda2 1 \, rv2metda
1 \, rv2swit 1 \, rv2numwet2 684 \, rv2numwet 355 \, rv2numda2 1397
\, rv2numda 1499 \, rv2wet2 0.7 \, rv2feb2 0.607595 \, rv2dry2 0 \,
rv2voll 0.655172 \, rv2volr 0.62069 \, rv2dry 0 \, rv2feb 0.683544
\, rv2wet 0.2 \, rv2da2 0.411392 \, rv2da 0.706582 \,;
#X msg 317 160 rv2metda2 1 \, rv2metda 1 \, rv2swit 1 \, rv2numda2
1008 \, rv2numda 336 \, rv2wet2 0.7 \, rv2feb2 0.531646 \, rv2dry2
0.341772 \, rv2voll 0.586207 \, rv2volr 0.551724 \, rv2dry 0.202532
\, rv2feb 0.518987 \, rv2wet 0.7 \, rv2da2 0.475823 \, rv2da 0.623165
\,;
#X msg 364 85;
#X connect 0 0 9 0;
#X connect 1 0 10 0;
#X connect 2 0 11 0;
#X connect 3 0 12 0;
#X connect 4 0 13 0;
#X connect 5 0 14 0;
#X connect 6 0 15 0;
#X connect 7 0 16 0;
#X connect 9 0 8 0;
#X connect 10 0 8 0;
#X connect 11 0 8 0;
#X connect 12 0 8 0;
#X connect 13 0 8 0;
#X connect 14 0 8 0;
#X connect 15 0 8 0;
#X connect 16 0 8 0;
#X restore 331 188 pd messages;
#X obj 200 10 bng 12 250 50 0 empty empty empty 17 7 0 10 -262144 -1
-1;
#X obj 161 167 gate 16;
#X msg 200 132 set;
#X obj 161 132 + 1;
#X obj 369 1 bng 10 250 50 0 empty empty empty 17 7 0 10 -173274 -1
-1;
#X obj 214 -21 inlet;
#X obj 383 25 save.me.mmb rad5 gnrl;
#X obj 46 56 my.hero.mmb rvrbp6;
#X connect 0 0 5 0;
#X connect 0 0 2 0;
#X connect 0 0 14 0;
#X connect 0 0 17 0;
#X connect 1 0 18 0;
#X connect 2 0 9 0;
#X connect 2 1 9 1;
#X connect 2 2 9 2;
#X connect 2 3 9 3;
#X connect 2 4 9 4;
#X connect 2 5 9 5;
#X connect 2 6 9 6;
#X connect 2 7 9 7;
#X connect 2 8 8 0;
#X connect 3 0 7 0;
#X connect 4 0 2 0;
#X connect 5 0 4 1;
#X connect 6 0 18 0;
#X connect 8 0 10 0;
#X connect 8 1 10 1;
#X connect 8 2 10 2;
#X connect 8 3 10 3;
#X connect 8 4 10 4;
#X connect 8 5 10 5;
#X connect 8 6 10 6;
#X connect 9 0 3 0;
#X connect 10 0 3 0;
#X connect 11 0 1 0;
#X connect 12 0 9 0;
#X connect 12 1 9 1;
#X connect 12 2 9 2;
#X connect 12 3 9 3;
#X connect 12 4 9 4;
#X connect 12 5 9 5;
#X connect 12 6 9 6;
#X connect 12 7 9 7;
#X connect 12 8 10 0;
#X connect 12 9 10 1;
#X connect 12 10 10 2;
#X connect 12 11 10 3;
#X connect 12 12 10 4;
#X connect 12 13 10 5;
#X connect 12 14 10 6;
#X connect 12 15 10 7;
#X connect 13 0 12 1;
#X connect 14 0 12 0;
#X connect 15 0 13 0;
#X connect 16 0 0 0;
#X connect 17 0 0 0;
#X connect 18 0 4 0;
#X coords 0 -1 1 1 180 22 2 200 0;
#X restore 15 178 pd mics;
#X obj 16 48 inlet;
#X obj 1227 281 r \$0-dry1;
#X obj 263 463 cycle 2;
#X msg 263 444 reset;
#X obj 342 471 cycle 2;
#X msg 342 452 reset;
#X obj 363 120 r \$0-wetwet;
#X obj 375 139 r \$0-wetwet2;
#X obj 144 648 s \$0-wetwet;
#X obj 254 648 s \$0-wetwet2;
#X msg 302 506 0.7;
#X msg 381 515 0.7;
#X obj 263 369 r metroplus;
#X obj 263 419 bng 15 250 50 0 empty empty empty 17 7 0 10 -262144
-1 -1;
#X obj 17 -20 r un;
#X msg 17 1 14;
#X obj 285 67 moses 0.2;
#X obj 375 66 moses 0.2;
#X obj 263 397 spigot;
#X obj 334 382 tgl 15 0 empty onj1 empty 17 7 0 10 -262144 -1 -1 0
1;
#X obj 15 385 r analyseamplitude;
#X floatatom 144 461 5 0 0 0 - - -;
#X obj 15 405 spigot;
#X obj 58 405 tgl 15 0 empty empty empty 17 7 0 10 -262144 -1 -1 0
1;
#X obj 15 426 expr $f1 \; if ( $f1 > 5 \, 1 \, 0.1 );
#X obj 99 -20 r trois;
#X msg 150 4 13;
#X obj 52 -20 r deux;
#X msg 52 1 0;
#X obj 352 344 r un;
#X msg 352 365 0;
#X obj 150 -20 r reve;
#X msg 98 0 12;
#X obj 428 344 r trois;
#X msg 428 365 0;
#X msg 342 493 0.116697;
#X msg 263 485 0.700045;
#X msg 187 468 set \$1;
#X msg 404 476 set \$1;
#X obj 505 382 metroplus;
#X msg 505 342 start;
#X msg 505 360 stop;
#X msg 567 300 82 82 82 82 82 328 164 164 164 82 82 82 82 82 82 108
164 164 164 164 164 328 82 82 82 204 82 82 82 164 164 164 204 41 41
41 41 41 204 41 41 328 41 41 41 41 328 164 164 164 108 41 41 41 41
41 41 41 41 41 41 41 104 82 82 82 164 164 164 328 164 164 164 108 41
41 41 82 82 82 82 164 164 164 164 164 128 108;
#X obj 448 44 spigot;
#X obj 524 43 spigot;
#X obj 557 21 tgl 15 0 \$0-feed \$0-rfeed empty 17 7 0 10 -262144 -1
-1 0 1;
#X obj 219 132 tgl 15 0 \$0-feed \$0-rfeed empty 17 7 0 10 -192485
-1 -1 0 1;
#X obj 356 399 spigot;
#X obj 415 400 tgl 15 0 empty empty empty 17 7 0 10 -262144 -1 -1 0
1;
#X obj 605 469 metro 3000;
#X obj 605 488 t b b;
#X obj 632 509 del 500;
#X obj 605 447 tgl 15 0 empty empty empty 17 7 0 10 -262144 -1 -1 0
1;
#X msg 662 443 1500;
#X obj 725 471 metro 3000;
#X obj 725 491 t b b;
#X obj 752 510 del 500;
#X msg 725 531 0.8;
#X obj 725 449 tgl 15 0 empty empty empty 17 7 0 10 -262144 -1 -1 0
1;
#X obj 605 407 tgl 15 0 empty empty empty 17 7 0 10 -262144 -1 -1 0
1;
#X msg 681 482 40;
#X msg 855 454 400;
#X msg 850 493 300;
#X msg 821 454 1000;
#X msg 782 443 1490;
#X msg 821 493 500;
#X msg 662 424 3000;
#X msg 782 424 2990;
#X msg 752 531 0.1;
#X obj 605 631 line;
#X msg 632 531 0.1;
#X msg 605 531 0.8;
#X obj 606 558 del 1500;
#X obj 606 582 bng 15 250 50 0 empty empty empty 17 7 0 10 -262144
-1 -1;
#X obj 606 603 s aaa;
#X obj 605 426 s togtog;
#X obj 725 582 s aaaa;
#X obj 725 558 del 1495;
#X obj 486 265 sel 0 1;
#X obj 486 245 hradio 12 1 0 8 \$0-radmet \$0-rradmet empty 0 -8 0
10 -262144 -1 -1 0;
#X obj 505 283 t b b b;
#X msg 535 306 1;
#X obj 465 283 t b b;
#X msg 465 304 0;
#X obj 1274 303 r~ recrvrR;
#X obj 448 63 randomF 0.85;
#X obj 524 63 randomF 0.85;
#X msg 710 92 250;
#X msg 390 429 82;
#X msg 516 412 164;
#X msg 670 201 164 164 164 164 164 656 164 164 164 164 164 164 164
164 164 1080 164 164 164 164 164 328 164 164 164 204 164 164 164 164
164 164 408 204 656 328 164 164 164 656 104 164 164 164 164 164 164
328 164 164 164 108 164 164 164 164 164 164 164 164 164 656 1080;
#X msg 749 135 444;
#X msg 690 32 111 111 111 111 111 111 111 111 111 444 111 111 111 111
;
#X msg 816 96 111;
#X msg 778 67 111 111 111 111 111 111 55 55 55 55 55 55 55 55;
#X obj 285 87 moses 1;
#X obj 375 84 moses 1;
#X msg 431 433 111;
#X msg 513 448 222;
#X obj 342 426 del 20;
#X obj 945 417 generateur111;
#X obj 187 448 randomF 0.9;
#X obj 404 456 randomF 0.9;
#X obj 1015 279 r~ mic2rvrb;
#X obj 1113 265 r~ rvL3;
#X obj 1192 264 r~ rvR3;
#X obj 1113 364 s~ rvrL3;
#X obj 1192 357 s~ rvrR3;
#X connect 3 0 1 0;
#X connect 4 0 3 0;
#X connect 5 0 6 0;
#X connect 6 0 4 0;
#X connect 7 0 175 0;
#X connect 8 0 175 0;
#X connect 9 0 8 0;
#X connect 9 1 32 0;
#X connect 14 0 15 0;
#X connect 15 0 2 0;
#X connect 16 0 19 0;
#X connect 17 0 18 0;
#X connect 18 0 14 0;
#X connect 19 0 17 0;
#X connect 20 0 24 0;
#X connect 21 0 20 0;
#X connect 22 0 23 0;
#X connect 23 0 21 0;
#X connect 25 0 26 0;
#X connect 26 0 31 0;
#X connect 27 0 30 0;
#X connect 28 0 29 0;
#X connect 29 0 25 0;
#X connect 30 0 28 0;
#X connect 32 0 176 0;
#X connect 36 0 85 0;
#X connect 37 0 64 0;
#X connect 38 0 36 0;
#X connect 38 0 112 0;
#X connect 41 0 86 0;
#X connect 42 0 64 1;
#X connect 43 0 41 0;
#X connect 43 0 113 0;
#X connect 47 0 176 0;
#X connect 48 0 22 0;
#X connect 49 0 5 0;
#X connect 50 0 16 0;
#X connect 51 0 27 0;
#X connect 59 0 58 0;
#X connect 60 0 38 0;
#X connect 61 0 38 1;
#X connect 62 0 43 0;
#X connect 63 0 43 1;
#X connect 65 0 8 1;
#X connect 66 0 32 1;
#X connect 67 0 7 1;
#X connect 69 0 68 0;
#X connect 70 0 47 1;
#X connect 71 0 105 0;
#X connect 71 1 79 0;
#X connect 72 0 71 0;
#X connect 73 0 104 0;
#X connect 73 1 80 0;
#X connect 74 0 73 0;
#X connect 75 0 64 2;
#X connect 76 0 64 3;
#X connect 79 0 77 0;
#X connect 80 0 78 0;
#X connect 81 0 87 0;
#X connect 82 0 72 0;
#X connect 82 0 168 0;
#X connect 82 0 170 0;
#X connect 82 0 171 0;
#X connect 83 0 84 0;
#X connect 84 0 68 0;
#X connect 85 1 164 0;
#X connect 86 1 165 0;
#X connect 87 0 82 0;
#X connect 88 0 87 1;
#X connect 89 0 91 0;
#X connect 90 0 78 0;
#X connect 90 0 77 0;
#X connect 91 0 93 0;
#X connect 92 0 91 1;
#X connect 93 1 90 0;
#X connect 94 0 101 0;
#X connect 95 0 68 0;
#X connect 96 0 97 0;
#X connect 98 0 99 0;
#X connect 99 0 88 0;
#X connect 100 0 95 0;
#X connect 101 0 68 0;
#X connect 102 0 103 0;
#X connect 103 0 88 0;
#X connect 104 0 78 0;
#X connect 105 0 77 0;
#X connect 106 0 105 0;
#X connect 107 0 104 0;
#X connect 108 0 116 0;
#X connect 109 0 108 0;
#X connect 110 0 108 0;
#X connect 111 0 108 1;
#X connect 112 0 154 0;
#X connect 113 0 155 0;
#X connect 114 0 112 1;
#X connect 114 0 113 1;
#X connect 115 0 114 0;
#X connect 116 0 82 0;
#X connect 117 0 116 1;
#X connect 118 0 119 0;
#X connect 119 0 140 0;
#X connect 119 0 141 0;
#X connect 119 1 120 0;
#X connect 120 0 139 0;
#X connect 121 0 118 0;
#X connect 122 0 118 1;
#X connect 123 0 124 0;
#X connect 124 0 126 0;
#X connect 124 0 146 0;
#X connect 124 1 125 0;
#X connect 125 0 137 0;
#X connect 126 0 78 0;
#X connect 127 0 123 0;
#X connect 128 0 127 0;
#X connect 128 0 121 0;
#X connect 128 0 144 0;
#X connect 129 0 120 1;
#X connect 129 0 125 1;
#X connect 130 0 123 1;
#X connect 130 0 118 1;
#X connect 131 0 125 1;
#X connect 131 0 120 1;
#X connect 132 0 123 1;
#X connect 132 0 118 1;
#X connect 133 0 123 1;
#X connect 134 0 125 1;
#X connect 134 0 120 1;
#X connect 135 0 118 1;
#X connect 136 0 123 1;
#X connect 137 0 78 0;
#X connect 138 0 77 0;
#X connect 139 0 138 0;
#X connect 140 0 138 0;
#X connect 141 0 142 0;
#X connect 142 0 143 0;
#X connect 146 0 145 0;
#X connect 147 0 151 0;
#X connect 147 1 149 0;
#X connect 148 0 147 0;
#X connect 149 0 109 0;
#X connect 149 1 111 0;
#X connect 149 2 150 0;
#X connect 150 0 117 0;
#X connect 151 0 152 0;
#X connect 151 1 110 0;
#X connect 152 0 117 0;
#X connect 153 0 47 0;
#X connect 153 0 9 1;
#X connect 154 0 64 4;
#X connect 155 0 64 5;
#X connect 156 0 108 1;
#X connect 157 0 168 1;
#X connect 158 0 168 1;
#X connect 159 0 108 1;
#X connect 160 0 108 1;
#X connect 161 0 108 1;
#X connect 162 0 108 1;
#X connect 163 0 108 1;
#X connect 164 0 37 0;
#X connect 165 0 42 0;
#X connect 166 0 168 1;
#X connect 167 0 168 1;
#X connect 168 0 74 0;
#X connect 169 0 82 0;
#X connect 170 0 106 0;
#X connect 171 0 107 0;
#X connect 172 0 7 0;
#X connect 172 0 9 0;
#X connect 172 0 9 1;
#X connect 172 0 47 0;
#X connect 173 0 7 0;
#X connect 173 0 9 0;
#X connect 174 0 47 0;
#X connect 174 0 9 1;
#X coords 0 -1 1 1 228 112 1 12 90;
