#N canvas 338 44 727 635 10;
#X obj 174 261 t l;
#X obj 104 300 list trim;
#X obj 103 163 bng 15 250 50 0 empty empty empty 17 7 0 10 -262144
-1 -1;
#X obj 174 221 bng 15 250 50 0 empty empty empty 17 7 0 10 -262144
-1 -1;
#X obj 104 242 list prepend;
#X obj 103 102 bng 15 250 50 0 empty empty empty 17 7 0 10 -262144
-1 -1;
#X obj 50 355 metroplus;
#X msg 49 317 start;
#X obj 51 373 bng 15 250 50 0 empty empty empty 17 7 0 10 -262144 -1
-1;
#X msg 50 336 stop;
#X obj 155 355 list length;
#X floatatom 156 375 5 0 0 0 - - -;
#X obj 104 278 list prepend set \$1;
#X msg 104 325 0 745 347 255 366 750 376 680 217 661 74 219 735 648
144 771 285 430;
#X obj 123 443 sel \$1;
#X obj 92 408 +;
#X msg 92 388 1;
#X obj 119 408 % \$1;
#X floatatom 92 427 5 0 0 0 - - -;
#X obj 23 460 bng 15 250 50 0 empty empty empty 17 7 0 10 -262144 -1
-1;
#X obj 136 162 del 10;
#X obj 179 162 del 20;
#X obj 103 121 spigot;
#X obj 103 140 t b b b b b;
#X msg 189 129 0;
#X obj 141 102 tgl 15 0 empty empty empty 17 7 0 10 -262144 -1 -1 1
1;
#X msg 138 60 1;
#X obj 167 59 loadbang;
#X obj 89 57 inlet;
#X obj 25 480 t b b b;
#X msg 106 522 0;
#X obj 141 508 tgl 15 0 empty empty empty 17 7 0 10 -262144 -1 -1 0
1;
#X obj 202 539 tgl 15 0 empty empty empty 17 7 0 10 -262144 -1 -1 0
1;
#X obj 25 506 del 20;
#X text 248 516 envoyer to pins digitals un sens ou l'autre;
#X obj 171 103 tgl 15 0 pin42 empty empty 17 7 0 10 -46878 -72300 -1
0 1;
#X obj 200 103 tgl 15 0 pin43 empty empty 17 7 0 10 -46878 -72300 -1
0 1;
#X obj 22 57 inlet;
#X obj 142 569 sel 0 1;
#X msg 195 589 0;
#X msg 228 589 1;
#X obj 281 157 outlet;
#X obj 357 161 outlet;
#X obj 49 564 outlet;
#X obj 103 182 many_bang 5 20;
#X obj 104 202 random 800;
#X connect 0 0 4 1;
#X connect 1 0 13 0;
#X connect 2 0 44 0;
#X connect 3 0 4 1;
#X connect 4 0 0 0;
#X connect 4 0 12 0;
#X connect 5 0 22 0;
#X connect 6 0 8 0;
#X connect 7 0 6 0;
#X connect 8 0 16 0;
#X connect 8 0 31 0;
#X connect 8 0 43 0;
#X connect 9 0 6 0;
#X connect 10 0 11 0;
#X connect 11 0 14 1;
#X connect 11 0 17 1;
#X connect 12 0 1 0;
#X connect 13 0 6 1;
#X connect 13 0 10 0;
#X connect 14 0 19 0;
#X connect 15 0 17 0;
#X connect 15 0 18 0;
#X connect 16 0 15 0;
#X connect 17 0 15 1;
#X connect 18 0 14 0;
#X connect 19 0 29 0;
#X connect 20 0 13 0;
#X connect 21 0 7 0;
#X connect 22 0 23 0;
#X connect 23 0 2 0;
#X connect 23 1 3 0;
#X connect 23 2 20 0;
#X connect 23 3 21 0;
#X connect 23 4 24 0;
#X connect 24 0 25 0;
#X connect 25 0 22 1;
#X connect 26 0 25 0;
#X connect 27 0 26 0;
#X connect 28 0 5 0;
#X connect 29 0 33 0;
#X connect 29 1 26 0;
#X connect 29 2 9 0;
#X connect 30 0 31 0;
#X connect 30 0 32 0;
#X connect 31 0 35 0;
#X connect 31 0 38 0;
#X connect 32 0 36 0;
#X connect 33 0 30 0;
#X connect 35 0 41 0;
#X connect 36 0 42 0;
#X connect 37 0 19 0;
#X connect 38 0 40 0;
#X connect 38 1 39 0;
#X connect 39 0 32 0;
#X connect 40 0 32 0;
#X connect 44 0 45 0;
#X connect 45 0 4 0;
#X coords 0 -1 1 1 120 20 2 100 100;
