#N canvas 536 166 742 697 10;
#X obj 174 261 t l;
#X obj 104 300 list trim;
#X obj 103 163 bng 15 250 50 0 empty empty empty 17 7 0 10 -262144
-1 -1;
#X obj 178 221 bng 15 250 50 0 empty empty empty 17 7 0 10 -262144
-1 -1;
#X obj 104 242 list prepend;
#X obj 103 102 bng 15 250 50 0 empty empty empty 17 7 0 10 -262144
-1 -1;
#X obj 50 355 metroplus;
#X msg 49 317 start;
#X obj 51 373 bng 15 250 50 0 empty empty empty 17 7 0 10 -262144 -1
-1;
#X msg 50 336 stop;
#X obj 155 355 list length;
#X floatatom 156 375 5 0 0 0 - - -;
#X obj 104 278 list prepend set \$1;
#X msg 104 325 0 727 350 1284 868 959 977 1088 487 812 119 786 664
246 157 565 1107 699;
#X obj 123 443 sel \$1;
#X obj 92 408 +;
#X msg 92 388 1;
#X obj 119 408 % \$1;
#X floatatom 92 427 5 0 0 0 - - -;
#X obj 136 162 del 10;
#X obj 179 162 del 20;
#X obj 103 121 spigot;
#X obj 103 140 t b b b b b;
#X msg 166 121 0;
#X obj 123 102 tgl 15 0 empty empty empty 17 7 0 10 -262144 -1 -1 1
1;
#X msg 123 60 1;
#X obj 152 59 loadbang;
#X obj 81 58 inlet;
#X obj 103 182 many_bang 5 20;
#X text 248 516 envoyer to pins digitals un sens ou l'autre;
#N canvas 829 251 885 702 (subpatch) 0;
#X obj 82 387 outlet pack;
#X obj 82 255 t b b;
#X msg 82 302 1;
#X msg 109 302 0;
#X obj 207 256 t b b;
#X msg 207 303 1;
#X msg 234 303 0;
#X obj 109 275 del 20;
#X obj 234 276 del 20;
#X obj 392 180 metro 25;
#X obj 83 229 gate 2;
#X floatatom 25 93 5 0 0 0 - - -;
#X msg 114 147 2;
#X msg 139 147 1;
#X obj 392 155 tgl 15 0 empty empty empty 17 7 0 10 -262144 -1 -1 0
1;
#X msg 177 37 jam 1;
#X obj 88 95 t b b;
#X obj 150 95 t b b;
#X msg 86 120 down;
#X msg 150 120 up;
#X obj 255 69 nbx 3 14 -1e+37 1e+37 0 1 empty empty position 0 -8 0
10 -262144 -1 -1 2 256;
#X obj 425 112 del;
#X msg 425 135 0;
#X msg 392 135 1;
#X obj 392 67 t b b b;
#X obj 392 45 bng 15 250 50 0 empty empty empty 17 7 0 10 -262144 -1
-1;
#X msg 449 163 20;
#X obj 286 164 nbx 3 14 -1e+37 1e+37 0 1 empty empty metronome 0 -8
0 10 -262144 -1 -1 1 256;
#X msg 83 153 3;
#X msg 184 153 4;
#X obj 222 170 nbx 3 14 -1e+37 1e+37 0 1 empty empty down/up 0 -8 0
10 -262144 -1 -1 4 256;
#X obj 392 13 inlet;
#X obj 86 54 counter 1 140;
#X obj 125 78 sel 140 1;
#X msg 82 335 send /boule1 \$1;
#X msg 207 335 send /boule2 \$1;
#X obj 86 27 r \$0-mets2;
#X obj 83 206 r \$0-gate2;
#X obj 150 206 r \$0-mets2;
#X obj 392 202 s \$0-mets2;
#X obj 114 166 s \$0-gate2;
#X obj 440 90 shuffle 100 1500;
#X connect 1 0 2 0;
#X connect 1 1 7 0;
#X connect 2 0 34 0;
#X connect 3 0 34 0;
#X connect 4 0 5 0;
#X connect 4 1 8 0;
#X connect 5 0 35 0;
#X connect 6 0 35 0;
#X connect 7 0 3 0;
#X connect 8 0 6 0;
#X connect 9 0 39 0;
#X connect 10 0 1 0;
#X connect 10 1 4 0;
#X connect 12 0 27 0;
#X connect 12 0 40 0;
#X connect 13 0 27 0;
#X connect 13 0 40 0;
#X connect 14 0 9 0;
#X connect 15 0 32 0;
#X connect 16 0 18 0;
#X connect 16 1 12 0;
#X connect 17 0 19 0;
#X connect 17 1 13 0;
#X connect 18 0 28 0;
#X connect 18 0 32 0;
#X connect 19 0 29 0;
#X connect 19 0 32 0;
#X connect 21 0 22 0;
#X connect 22 0 14 0;
#X connect 23 0 14 0;
#X connect 24 0 23 0;
#X connect 24 1 21 0;
#X connect 24 2 41 0;
#X connect 25 0 24 0;
#X connect 26 0 9 1;
#X connect 28 0 30 0;
#X connect 29 0 30 0;
#X connect 31 0 25 0;
#X connect 32 0 11 0;
#X connect 32 0 20 0;
#X connect 32 0 33 0;
#X connect 33 0 16 0;
#X connect 33 1 17 0;
#X connect 34 0 0 0;
#X connect 35 0 0 0;
#X connect 36 0 32 0;
#X connect 37 0 10 0;
#X connect 38 0 10 1;
#X connect 41 0 21 1;
#X restore 51 458 pd;
#X obj 53 524 outlet;
#X obj 103 220 moses 100;
#X obj 102 201 random 1500;
#X msg 318 368 0 637 260 1194 778 869 887 998 397 722 29 696 574 156
67 475 1017 609;
#X obj 294 179 t b b;
#X obj 383 265 t l;
#X obj 318 303 list trim;
#X obj 318 245 list prepend;
#X obj 318 281 list prepend set \$1;
#X obj 294 204 - 90;
#X obj 128 485 t b b;
#X msg 142 519 1;
#X obj 318 405 unpack 1 2 3 4 5 6 7 8 9 10 11 12 13 14 15 16 17 18
19 20;
#X obj 198 198 t b b;
#X connect 0 0 4 1;
#X connect 1 0 13 0;
#X connect 2 0 28 0;
#X connect 3 0 4 1;
#X connect 4 0 0 0;
#X connect 4 0 12 0;
#X connect 5 0 21 0;
#X connect 6 0 8 0;
#X connect 7 0 6 0;
#X connect 8 0 16 0;
#X connect 8 0 30 0;
#X connect 9 0 6 0;
#X connect 10 0 11 0;
#X connect 11 0 14 1;
#X connect 11 0 17 1;
#X connect 12 0 1 0;
#X connect 13 0 6 1;
#X connect 13 0 10 0;
#X connect 14 0 41 0;
#X connect 15 0 17 0;
#X connect 15 0 18 0;
#X connect 16 0 15 0;
#X connect 17 0 15 1;
#X connect 18 0 14 0;
#X connect 19 0 35 0;
#X connect 20 0 7 0;
#X connect 21 0 22 0;
#X connect 22 0 2 0;
#X connect 22 1 44 0;
#X connect 22 2 19 0;
#X connect 22 3 20 0;
#X connect 22 4 23 0;
#X connect 23 0 24 0;
#X connect 24 0 21 1;
#X connect 25 0 24 0;
#X connect 26 0 25 0;
#X connect 27 0 5 0;
#X connect 28 0 33 0;
#X connect 30 0 31 0;
#X connect 32 1 4 0;
#X connect 32 1 40 0;
#X connect 33 0 32 0;
#X connect 34 0 43 0;
#X connect 35 0 13 0;
#X connect 35 1 34 0;
#X connect 36 0 38 1;
#X connect 37 0 34 0;
#X connect 38 0 36 0;
#X connect 38 0 39 0;
#X connect 39 0 37 0;
#X connect 40 0 38 0;
#X connect 41 0 9 0;
#X connect 41 1 42 0;
#X connect 42 0 24 0;
#X connect 44 0 38 1;
#X connect 44 1 3 0;
#X coords 0 -1 1 1 40 20 2 100 100;
